<svg xmlns="http://www.w3.org/2000/svg" xmlns:xlink="http://www.w3.org/1999/xlink" xmlns:s="https://github.com/nturley/netlistsvg" width="297" height="124">
  <style>svg {
    stroke:#000;
    fill:none;
  }
  text {
    fill:#000;
    stroke:none;
    font-size:10px;
    font-weight: bold;
    font-family: "Courier New", monospace;
  }
  .nodelabel {
    text-anchor: middle;
  }
  .inputPortLabel {
    text-anchor: end;
  }
  .splitjoinBody {
    fill:#000;
  }</style>
  <g s:type="and" transform="translate(142,27)" s:width="30" s:height="25" id="cell_$and$onetotwo.v:6$2">
    <s:alias val="$and"/>
    <s:alias val="$logic_and"/>
    <s:alias val="$_AND_"/>
    <path d="M0,0 L0,25 L15,25 A15 12.5 0 0 0 15,0 Z" class="cell_$and$onetotwo.v:6$2"/>
    <g s:x="0" s:y="5" s:pid="A"/>
    <g s:x="0" s:y="20" s:pid="B"/>
    <g s:x="30" s:y="12.5" s:pid="Y"/>
  </g>
  <g s:type="and" transform="translate(142,87)" s:width="30" s:height="25" id="cell_$and$onetotwo.v:7$3">
    <s:alias val="$and"/>
    <s:alias val="$logic_and"/>
    <s:alias val="$_AND_"/>
    <path d="M0,0 L0,25 L15,25 A15 12.5 0 0 0 15,0 Z" class="cell_$and$onetotwo.v:7$3"/>
    <g s:x="0" s:y="5" s:pid="A"/>
    <g s:x="0" s:y="20" s:pid="B"/>
    <g s:x="30" s:y="12.5" s:pid="Y"/>
  </g>
  <g s:type="not" transform="translate(77,77)" s:width="30" s:height="20" id="cell_$not$onetotwo.v:6$1">
    <s:alias val="$_NOT_"/>
    <s:alias val="$not"/>
    <s:alias val="$logic_not"/>
    <path d="M0,0 L0,20 L20,10 Z" class="cell_$not$onetotwo.v:6$1"/>
    <circle cx="23" cy="10" r="3" class="cell_$not$onetotwo.v:6$1"/>
    <g s:x="0" s:y="10" s:pid="A"/>
    <g s:x="25" s:y="10" s:pid="Y"/>
  </g>
  <g s:type="inputExt" transform="translate(12,77)" s:width="30" s:height="20" id="cell_in">
    <text x="15" y="-4" class="nodelabel cell_in" s:attribute="ref">in</text>
    <s:alias val="$_inputExt_"/>
    <path d="M0,0 L0,20 L15,20 L30,10 L15,0 Z" class="cell_in"/>
    <g s:x="28" s:y="10" s:pid="Y"/>
  </g>
  <g s:type="outputExt" transform="translate(255,39.5)" s:width="30" s:height="20" id="cell_out">
    <text x="15" y="-4" class="nodelabel cell_out" s:attribute="ref">out</text>
    <s:alias val="$_outputExt_"/>
    <path d="M30,0 L30,20 L15,20 L0,10 L15,0 Z" class="cell_out"/>
    <g s:x="0" s:y="10" s:pid="A"/>
  </g>
  <g s:type="inputExt" transform="translate(77,22)" s:width="30" s:height="20" id="cell_en">
    <text x="15" y="-4" class="nodelabel cell_en" s:attribute="ref">en</text>
    <s:alias val="$_inputExt_"/>
    <path d="M0,0 L0,20 L15,20 L30,10 L15,0 Z" class="cell_en"/>
    <g s:x="28" s:y="10" s:pid="Y"/>
  </g>
  <g s:type="join" transform="translate(214,29)" s:width="4" s:height="40" id="cell_$join$,3,4,">
    <rect width="5" height="40" class="splitjoinBody" s:generic="body"/>
    <s:alias val="$_join_"/>
    <g s:x="5" s:y="20" s:pid="out"/>
    <g transform="translate(0,10)" s:x="0" s:y="10" s:pid="in0">
      <text x="-3" y="-4" class="inputPortLabel">0</text>
    </g>
    <g transform="translate(0,30)" s:x="0" s:y="10" s:pid="in0">
      <text x="-3" y="-4" class="inputPortLabel">1</text>
    </g>
  </g>
  <line x1="105" x2="142" y1="32" y2="32" class="net_5"/>
  <line x1="105" x2="127" y1="32" y2="32" class="net_5"/>
  <line x1="127" x2="127" y1="32" y2="92" class="net_5"/>
  <circle cx="127" cy="32" r="2" style="fill:#000" class="net_5"/>
  <line x1="127" x2="142" y1="92" y2="92" class="net_5"/>
  <line x1="102" x2="117" y1="87" y2="87" class="net_6"/>
  <line x1="117" x2="117" y1="87" y2="47" class="net_6"/>
  <line x1="117" x2="142" y1="47" y2="47" class="net_6"/>
  <line x1="40" x2="52" y1="87" y2="87" class="net_2"/>
  <line x1="52" x2="52" y1="87" y2="107" class="net_2"/>
  <circle cx="52" cy="87" r="2" style="fill:#000" class="net_2"/>
  <line x1="52" x2="142" y1="107" y2="107" class="net_2"/>
  <line x1="40" x2="77" y1="87" y2="87" class="net_2"/>
  <line x1="220" x2="255" y1="49.5" y2="49.5" class="net_3,4"/>
  <line x1="172" x2="214" y1="39.5" y2="39.5" class="net_3"/>
  <line x1="172" x2="182" y1="99.5" y2="99.5" class="net_4"/>
  <line x1="182" x2="182" y1="99.5" y2="59.5" class="net_4"/>
  <line x1="182" x2="214" y1="59.5" y2="59.5" class="net_4"/>
</svg>
