<svg xmlns="http://www.w3.org/2000/svg" xmlns:xlink="http://www.w3.org/1999/xlink" xmlns:s="https://github.com/nturley/netlistsvg" width="639" height="339.5">
  <style>svg {
    stroke:#000;
    fill:none;
  }
  text {
    fill:#000;
    stroke:none;
    font-size:10px;
    font-weight: bold;
    font-family: "Courier New", monospace;
  }
  .nodelabel {
    text-anchor: middle;
  }
  .inputPortLabel {
    text-anchor: end;
  }
  .splitjoinBody {
    fill:#000;
  }</style>
  <g s:type="and" transform="translate(142,57)" s:width="30" s:height="25" id="cell_$auto$aigmap.cc:105:execute$12">
    <s:alias val="$and"/>
    <s:alias val="$logic_and"/>
    <s:alias val="$_AND_"/>
    <path d="M0,0 L0,25 L15,25 A15 12.5 0 0 0 15,0 Z" class="cell_$auto$aigmap.cc:105:execute$12"/>
    <g s:x="0" s:y="5" s:pid="A"/>
    <g s:x="0" s:y="20" s:pid="B"/>
    <g s:x="30" s:y="12.5" s:pid="Y"/>
  </g>
  <g s:type="and" transform="translate(142,117)" s:width="30" s:height="25" id="cell_$auto$aigmap.cc:105:execute$16">
    <s:alias val="$and"/>
    <s:alias val="$logic_and"/>
    <s:alias val="$_AND_"/>
    <path d="M0,0 L0,25 L15,25 A15 12.5 0 0 0 15,0 Z" class="cell_$auto$aigmap.cc:105:execute$16"/>
    <g s:x="0" s:y="5" s:pid="A"/>
    <g s:x="0" s:y="20" s:pid="B"/>
    <g s:x="30" s:y="12.5" s:pid="Y"/>
  </g>
  <g s:type="and" transform="translate(272,109.5)" s:width="30" s:height="25" id="cell_$auto$aigmap.cc:105:execute$20">
    <s:alias val="$and"/>
    <s:alias val="$logic_and"/>
    <s:alias val="$_AND_"/>
    <path d="M0,0 L0,25 L15,25 A15 12.5 0 0 0 15,0 Z" class="cell_$auto$aigmap.cc:105:execute$20"/>
    <g s:x="0" s:y="5" s:pid="A"/>
    <g s:x="0" s:y="20" s:pid="B"/>
    <g s:x="30" s:y="12.5" s:pid="Y"/>
  </g>
  <g s:type="and" transform="translate(402,82)" s:width="30" s:height="25" id="cell_$auto$aigmap.cc:105:execute$26">
    <s:alias val="$and"/>
    <s:alias val="$logic_and"/>
    <s:alias val="$_AND_"/>
    <path d="M0,0 L0,25 L15,25 A15 12.5 0 0 0 15,0 Z" class="cell_$auto$aigmap.cc:105:execute$26"/>
    <g s:x="0" s:y="5" s:pid="A"/>
    <g s:x="0" s:y="20" s:pid="B"/>
    <g s:x="30" s:y="12.5" s:pid="Y"/>
  </g>
  <g s:type="and" transform="translate(402,148)" s:width="30" s:height="25" id="cell_$auto$aigmap.cc:105:execute$30">
    <s:alias val="$and"/>
    <s:alias val="$logic_and"/>
    <s:alias val="$_AND_"/>
    <path d="M0,0 L0,25 L15,25 A15 12.5 0 0 0 15,0 Z" class="cell_$auto$aigmap.cc:105:execute$30"/>
    <g s:x="0" s:y="5" s:pid="A"/>
    <g s:x="0" s:y="20" s:pid="B"/>
    <g s:x="30" s:y="12.5" s:pid="Y"/>
  </g>
  <g s:type="and" transform="translate(532,140.5)" s:width="30" s:height="25" id="cell_$auto$aigmap.cc:105:execute$34">
    <s:alias val="$and"/>
    <s:alias val="$logic_and"/>
    <s:alias val="$_AND_"/>
    <path d="M0,0 L0,25 L15,25 A15 12.5 0 0 0 15,0 Z" class="cell_$auto$aigmap.cc:105:execute$34"/>
    <g s:x="0" s:y="5" s:pid="A"/>
    <g s:x="0" s:y="20" s:pid="B"/>
    <g s:x="30" s:y="12.5" s:pid="Y"/>
  </g>
  <g s:type="and" transform="translate(142,297.5)" s:width="30" s:height="25" id="cell_$auto$aigmap.cc:105:execute$36">
    <s:alias val="$and"/>
    <s:alias val="$logic_and"/>
    <s:alias val="$_AND_"/>
    <path d="M0,0 L0,25 L15,25 A15 12.5 0 0 0 15,0 Z" class="cell_$auto$aigmap.cc:105:execute$36"/>
    <g s:x="0" s:y="5" s:pid="A"/>
    <g s:x="0" s:y="20" s:pid="B"/>
    <g s:x="30" s:y="12.5" s:pid="Y"/>
  </g>
  <g s:type="and" transform="translate(142,236.5)" s:width="30" s:height="25" id="cell_$auto$aigmap.cc:105:execute$38">
    <s:alias val="$and"/>
    <s:alias val="$logic_and"/>
    <s:alias val="$_AND_"/>
    <path d="M0,0 L0,25 L15,25 A15 12.5 0 0 0 15,0 Z" class="cell_$auto$aigmap.cc:105:execute$38"/>
    <g s:x="0" s:y="5" s:pid="A"/>
    <g s:x="0" s:y="20" s:pid="B"/>
    <g s:x="30" s:y="12.5" s:pid="Y"/>
  </g>
  <g s:type="and" transform="translate(337,205.5)" s:width="30" s:height="25" id="cell_$auto$aigmap.cc:105:execute$40">
    <s:alias val="$and"/>
    <s:alias val="$logic_and"/>
    <s:alias val="$_AND_"/>
    <path d="M0,0 L0,25 L15,25 A15 12.5 0 0 0 15,0 Z" class="cell_$auto$aigmap.cc:105:execute$40"/>
    <g s:x="0" s:y="5" s:pid="A"/>
    <g s:x="0" s:y="20" s:pid="B"/>
    <g s:x="30" s:y="12.5" s:pid="Y"/>
  </g>
  <g s:type="and" transform="translate(272,290)" s:width="30" s:height="25" id="cell_$auto$aigmap.cc:105:execute$46">
    <s:alias val="$and"/>
    <s:alias val="$logic_and"/>
    <s:alias val="$_AND_"/>
    <path d="M0,0 L0,25 L15,25 A15 12.5 0 0 0 15,0 Z" class="cell_$auto$aigmap.cc:105:execute$46"/>
    <g s:x="0" s:y="5" s:pid="A"/>
    <g s:x="0" s:y="20" s:pid="B"/>
    <g s:x="30" s:y="12.5" s:pid="Y"/>
  </g>
  <g s:type="and" transform="translate(467,282.5)" s:width="30" s:height="25" id="cell_$auto$aigmap.cc:105:execute$54">
    <s:alias val="$and"/>
    <s:alias val="$logic_and"/>
    <s:alias val="$_AND_"/>
    <path d="M0,0 L0,25 L15,25 A15 12.5 0 0 0 15,0 Z" class="cell_$auto$aigmap.cc:105:execute$54"/>
    <g s:x="0" s:y="5" s:pid="A"/>
    <g s:x="0" s:y="20" s:pid="B"/>
    <g s:x="30" s:y="12.5" s:pid="Y"/>
  </g>
  <g s:type="not" transform="translate(77,67)" s:width="30" s:height="20" id="cell_$auto$aigmap.cc:110:execute$10">
    <s:alias val="$_NOT_"/>
    <s:alias val="$not"/>
    <s:alias val="$logic_not"/>
    <path d="M0,0 L0,20 L20,10 Z" class="cell_$auto$aigmap.cc:110:execute$10"/>
    <circle cx="23" cy="10" r="3" class="cell_$auto$aigmap.cc:110:execute$10"/>
    <g s:x="0" s:y="10" s:pid="A"/>
    <g s:x="25" s:y="10" s:pid="Y"/>
  </g>
  <g s:type="not" transform="translate(207,59.5)" s:width="30" s:height="20" id="cell_$auto$aigmap.cc:110:execute$14">
    <s:alias val="$_NOT_"/>
    <s:alias val="$not"/>
    <s:alias val="$logic_not"/>
    <path d="M0,0 L0,20 L20,10 Z" class="cell_$auto$aigmap.cc:110:execute$14"/>
    <circle cx="23" cy="10" r="3" class="cell_$auto$aigmap.cc:110:execute$14"/>
    <g s:x="0" s:y="10" s:pid="A"/>
    <g s:x="25" s:y="10" s:pid="Y"/>
  </g>
  <g s:type="not" transform="translate(207,119.5)" s:width="30" s:height="20" id="cell_$auto$aigmap.cc:110:execute$18">
    <s:alias val="$_NOT_"/>
    <s:alias val="$not"/>
    <s:alias val="$logic_not"/>
    <path d="M0,0 L0,20 L20,10 Z" class="cell_$auto$aigmap.cc:110:execute$18"/>
    <circle cx="23" cy="10" r="3" class="cell_$auto$aigmap.cc:110:execute$18"/>
    <g s:x="0" s:y="10" s:pid="A"/>
    <g s:x="25" s:y="10" s:pid="Y"/>
  </g>
  <g s:type="not" transform="translate(337,37)" s:width="30" s:height="20" id="cell_$auto$aigmap.cc:110:execute$22">
    <s:alias val="$_NOT_"/>
    <s:alias val="$not"/>
    <s:alias val="$logic_not"/>
    <path d="M0,0 L0,20 L20,10 Z" class="cell_$auto$aigmap.cc:110:execute$22"/>
    <circle cx="23" cy="10" r="3" class="cell_$auto$aigmap.cc:110:execute$22"/>
    <g s:x="0" s:y="10" s:pid="A"/>
    <g s:x="25" s:y="10" s:pid="Y"/>
  </g>
  <g s:type="not" transform="translate(337,92)" s:width="30" s:height="20" id="cell_$auto$aigmap.cc:110:execute$24">
    <s:alias val="$_NOT_"/>
    <s:alias val="$not"/>
    <s:alias val="$logic_not"/>
    <path d="M0,0 L0,20 L20,10 Z" class="cell_$auto$aigmap.cc:110:execute$24"/>
    <circle cx="23" cy="10" r="3" class="cell_$auto$aigmap.cc:110:execute$24"/>
    <g s:x="0" s:y="10" s:pid="A"/>
    <g s:x="25" s:y="10" s:pid="Y"/>
  </g>
  <g s:type="not" transform="translate(467,84.5)" s:width="30" s:height="20" id="cell_$auto$aigmap.cc:110:execute$28">
    <s:alias val="$_NOT_"/>
    <s:alias val="$not"/>
    <s:alias val="$logic_not"/>
    <path d="M0,0 L0,20 L20,10 Z" class="cell_$auto$aigmap.cc:110:execute$28"/>
    <circle cx="23" cy="10" r="3" class="cell_$auto$aigmap.cc:110:execute$28"/>
    <g s:x="0" s:y="10" s:pid="A"/>
    <g s:x="25" s:y="10" s:pid="Y"/>
  </g>
  <g s:type="not" transform="translate(467,150.5)" s:width="30" s:height="20" id="cell_$auto$aigmap.cc:110:execute$32">
    <s:alias val="$_NOT_"/>
    <s:alias val="$not"/>
    <s:alias val="$logic_not"/>
    <path d="M0,0 L0,20 L20,10 Z" class="cell_$auto$aigmap.cc:110:execute$32"/>
    <circle cx="23" cy="10" r="3" class="cell_$auto$aigmap.cc:110:execute$32"/>
    <g s:x="0" s:y="10" s:pid="A"/>
    <g s:x="25" s:y="10" s:pid="Y"/>
  </g>
  <g s:type="not" transform="translate(207,239)" s:width="30" s:height="20" id="cell_$auto$aigmap.cc:110:execute$42">
    <s:alias val="$_NOT_"/>
    <s:alias val="$not"/>
    <s:alias val="$logic_not"/>
    <path d="M0,0 L0,20 L20,10 Z" class="cell_$auto$aigmap.cc:110:execute$42"/>
    <circle cx="23" cy="10" r="3" class="cell_$auto$aigmap.cc:110:execute$42"/>
    <g s:x="0" s:y="10" s:pid="A"/>
    <g s:x="25" s:y="10" s:pid="Y"/>
  </g>
  <g s:type="not" transform="translate(207,300)" s:width="30" s:height="20" id="cell_$auto$aigmap.cc:110:execute$44">
    <s:alias val="$_NOT_"/>
    <s:alias val="$not"/>
    <s:alias val="$logic_not"/>
    <path d="M0,0 L0,20 L20,10 Z" class="cell_$auto$aigmap.cc:110:execute$44"/>
    <circle cx="23" cy="10" r="3" class="cell_$auto$aigmap.cc:110:execute$44"/>
    <g s:x="0" s:y="10" s:pid="A"/>
    <g s:x="25" s:y="10" s:pid="Y"/>
  </g>
  <g s:type="not" transform="translate(337,292.5)" s:width="30" s:height="20" id="cell_$auto$aigmap.cc:110:execute$48">
    <s:alias val="$_NOT_"/>
    <s:alias val="$not"/>
    <s:alias val="$logic_not"/>
    <path d="M0,0 L0,20 L20,10 Z" class="cell_$auto$aigmap.cc:110:execute$48"/>
    <circle cx="23" cy="10" r="3" class="cell_$auto$aigmap.cc:110:execute$48"/>
    <g s:x="0" s:y="10" s:pid="A"/>
    <g s:x="25" s:y="10" s:pid="Y"/>
  </g>
  <g s:type="not" transform="translate(402,208)" s:width="30" s:height="20" id="cell_$auto$aigmap.cc:110:execute$50">
    <s:alias val="$_NOT_"/>
    <s:alias val="$not"/>
    <s:alias val="$logic_not"/>
    <path d="M0,0 L0,20 L20,10 Z" class="cell_$auto$aigmap.cc:110:execute$50"/>
    <circle cx="23" cy="10" r="3" class="cell_$auto$aigmap.cc:110:execute$50"/>
    <g s:x="0" s:y="10" s:pid="A"/>
    <g s:x="25" s:y="10" s:pid="Y"/>
  </g>
  <g s:type="not" transform="translate(402,292.5)" s:width="30" s:height="20" id="cell_$auto$aigmap.cc:110:execute$52">
    <s:alias val="$_NOT_"/>
    <s:alias val="$not"/>
    <s:alias val="$logic_not"/>
    <path d="M0,0 L0,20 L20,10 Z" class="cell_$auto$aigmap.cc:110:execute$52"/>
    <circle cx="23" cy="10" r="3" class="cell_$auto$aigmap.cc:110:execute$52"/>
    <g s:x="0" s:y="10" s:pid="A"/>
    <g s:x="25" s:y="10" s:pid="Y"/>
  </g>
  <g s:type="not" transform="translate(532,285)" s:width="30" s:height="20" id="cell_$auto$aigmap.cc:110:execute$56">
    <s:alias val="$_NOT_"/>
    <s:alias val="$not"/>
    <s:alias val="$logic_not"/>
    <path d="M0,0 L0,20 L20,10 Z" class="cell_$auto$aigmap.cc:110:execute$56"/>
    <circle cx="23" cy="10" r="3" class="cell_$auto$aigmap.cc:110:execute$56"/>
    <g s:x="0" s:y="10" s:pid="A"/>
    <g s:x="25" s:y="10" s:pid="Y"/>
  </g>
  <g s:type="not" transform="translate(77,12)" s:width="30" s:height="20" id="cell_$auto$aigmap.cc:110:execute$8">
    <s:alias val="$_NOT_"/>
    <s:alias val="$not"/>
    <s:alias val="$logic_not"/>
    <path d="M0,0 L0,20 L20,10 Z" class="cell_$auto$aigmap.cc:110:execute$8"/>
    <circle cx="23" cy="10" r="3" class="cell_$auto$aigmap.cc:110:execute$8"/>
    <g s:x="0" s:y="10" s:pid="A"/>
    <g s:x="25" s:y="10" s:pid="Y"/>
  </g>
  <g s:type="outputExt" transform="translate(597,143)" s:width="30" s:height="20" id="cell_sum">
    <text x="15" y="-4" class="nodelabel cell_sum" s:attribute="ref">sum</text>
    <s:alias val="$_outputExt_"/>
    <path d="M30,0 L30,20 L15,20 L0,10 L15,0 Z" class="cell_sum"/>
    <g s:x="0" s:y="10" s:pid="A"/>
  </g>
  <g s:type="outputExt" transform="translate(597,285)" s:width="30" s:height="20" id="cell_cout">
    <text x="15" y="-4" class="nodelabel cell_cout" s:attribute="ref">cout</text>
    <s:alias val="$_outputExt_"/>
    <path d="M30,0 L30,20 L15,20 L0,10 L15,0 Z" class="cell_cout"/>
    <g s:x="0" s:y="10" s:pid="A"/>
  </g>
  <g s:type="inputExt" transform="translate(12,242.5)" s:width="30" s:height="20" id="cell_a">
    <text x="15" y="-4" class="nodelabel cell_a" s:attribute="ref">a</text>
    <s:alias val="$_inputExt_"/>
    <path d="M0,0 L0,20 L15,20 L30,10 L15,0 Z" class="cell_a"/>
    <g s:x="28" s:y="10" s:pid="Y"/>
  </g>
  <g s:type="inputExt" transform="translate(12,307.5)" s:width="30" s:height="20" id="cell_b">
    <text x="15" y="-4" class="nodelabel cell_b" s:attribute="ref">b</text>
    <s:alias val="$_inputExt_"/>
    <path d="M0,0 L0,20 L15,20 L30,10 L15,0 Z" class="cell_b"/>
    <g s:x="28" s:y="10" s:pid="Y"/>
  </g>
  <g s:type="inputExt" transform="translate(77,158)" s:width="30" s:height="20" id="cell_c">
    <text x="15" y="-4" class="nodelabel cell_c" s:attribute="ref">c</text>
    <s:alias val="$_inputExt_"/>
    <path d="M0,0 L0,20 L15,20 L30,10 L15,0 Z" class="cell_c"/>
    <g s:x="28" s:y="10" s:pid="Y"/>
  </g>
  <line x1="102" x2="117" y1="22" y2="22" class="net_7"/>
  <line x1="117" x2="117" y1="22" y2="62" class="net_7"/>
  <line x1="117" x2="142" y1="62" y2="62" class="net_7"/>
  <line x1="102" x2="142" y1="77" y2="77" class="net_8"/>
  <line x1="40" x2="62" y1="252.5" y2="252.5" class="net_4"/>
  <line x1="62" x2="62" y1="252.5" y2="126" class="net_4"/>
  <line x1="62" x2="117" y1="126" y2="126" class="net_4"/>
  <line x1="117" x2="117" y1="126" y2="122" class="net_4"/>
  <circle cx="62" cy="252.5" r="2" style="fill:#000" class="net_4"/>
  <circle cx="62" cy="126" r="2" style="fill:#000" class="net_4"/>
  <line x1="117" x2="142" y1="122" y2="122" class="net_4"/>
  <line x1="40" x2="117" y1="252.5" y2="252.5" class="net_4"/>
  <line x1="117" x2="117" y1="252.5" y2="302.5" class="net_4"/>
  <line x1="117" x2="142" y1="302.5" y2="302.5" class="net_4"/>
  <line x1="40" x2="62" y1="252.5" y2="252.5" class="net_4"/>
  <line x1="62" x2="62" y1="252.5" y2="225.5" class="net_4"/>
  <circle cx="62" cy="225.5" r="2" style="fill:#000" class="net_4"/>
  <line x1="62" x2="337" y1="225.5" y2="225.5" class="net_4"/>
  <line x1="40" x2="62" y1="252.5" y2="252.5" class="net_4"/>
  <line x1="62" x2="62" y1="252.5" y2="77" class="net_4"/>
  <line x1="62" x2="77" y1="77" y2="77" class="net_4"/>
  <line x1="40" x2="52" y1="317.5" y2="317.5" class="net_5"/>
  <line x1="52" x2="52" y1="317.5" y2="137" class="net_5"/>
  <circle cx="52" cy="317.5" r="2" style="fill:#000" class="net_5"/>
  <circle cx="52" cy="137" r="2" style="fill:#000" class="net_5"/>
  <line x1="52" x2="142" y1="137" y2="137" class="net_5"/>
  <line x1="40" x2="142" y1="317.5" y2="317.5" class="net_5"/>
  <line x1="40" x2="52" y1="317.5" y2="317.5" class="net_5"/>
  <line x1="52" x2="52" y1="317.5" y2="241.5" class="net_5"/>
  <circle cx="52" cy="241.5" r="2" style="fill:#000" class="net_5"/>
  <line x1="52" x2="142" y1="241.5" y2="241.5" class="net_5"/>
  <line x1="40" x2="52" y1="317.5" y2="317.5" class="net_5"/>
  <line x1="52" x2="52" y1="317.5" y2="22" class="net_5"/>
  <line x1="52" x2="77" y1="22" y2="22" class="net_5"/>
  <line x1="232" x2="247" y1="69.5" y2="69.5" class="net_11"/>
  <line x1="247" x2="247" y1="69.5" y2="114.5" class="net_11"/>
  <line x1="247" x2="272" y1="114.5" y2="114.5" class="net_11"/>
  <line x1="232" x2="272" y1="129.5" y2="129.5" class="net_12"/>
  <line x1="362" x2="377" y1="47" y2="47" class="net_14"/>
  <line x1="377" x2="377" y1="47" y2="87" class="net_14"/>
  <line x1="377" x2="402" y1="87" y2="87" class="net_14"/>
  <line x1="362" x2="402" y1="102" y2="102" class="net_15"/>
  <line x1="302" x2="377" y1="122" y2="122" class="net_13"/>
  <line x1="377" x2="377" y1="122" y2="153" class="net_13"/>
  <line x1="377" x2="402" y1="153" y2="153" class="net_13"/>
  <line x1="302" x2="312" y1="122" y2="122" class="net_13"/>
  <line x1="312" x2="312" y1="122" y2="102" class="net_13"/>
  <circle cx="312" cy="122" r="2" style="fill:#000" class="net_13"/>
  <line x1="312" x2="337" y1="102" y2="102" class="net_13"/>
  <line x1="105" x2="402" y1="168" y2="168" class="net_6"/>
  <line x1="105" x2="127" y1="168" y2="168" class="net_6"/>
  <line x1="127" x2="127" y1="168" y2="256.5" class="net_6"/>
  <circle cx="127" cy="168" r="2" style="fill:#000" class="net_6"/>
  <line x1="127" x2="142" y1="256.5" y2="256.5" class="net_6"/>
  <line x1="105" x2="312" y1="168" y2="168" class="net_6"/>
  <line x1="312" x2="312" y1="168" y2="210.5" class="net_6"/>
  <circle cx="312" cy="168" r="2" style="fill:#000" class="net_6"/>
  <line x1="312" x2="337" y1="210.5" y2="210.5" class="net_6"/>
  <line x1="105" x2="182" y1="168" y2="168" class="net_6"/>
  <line x1="182" x2="182" y1="168" y2="47" class="net_6"/>
  <circle cx="182" cy="168" r="2" style="fill:#000" class="net_6"/>
  <line x1="182" x2="337" y1="47" y2="47" class="net_6"/>
  <line x1="492" x2="507" y1="94.5" y2="94.5" class="net_18"/>
  <line x1="507" x2="507" y1="94.5" y2="145.5" class="net_18"/>
  <line x1="507" x2="532" y1="145.5" y2="145.5" class="net_18"/>
  <line x1="492" x2="532" y1="160.5" y2="160.5" class="net_19"/>
  <line x1="232" x2="247" y1="249" y2="249" class="net_23"/>
  <line x1="247" x2="247" y1="249" y2="295" class="net_23"/>
  <line x1="247" x2="272" y1="295" y2="295" class="net_23"/>
  <line x1="232" x2="272" y1="310" y2="310" class="net_24"/>
  <line x1="427" x2="442" y1="218" y2="218" class="net_26"/>
  <line x1="442" x2="442" y1="218" y2="287.5" class="net_26"/>
  <line x1="442" x2="467" y1="287.5" y2="287.5" class="net_26"/>
  <line x1="427" x2="467" y1="302.5" y2="302.5" class="net_27"/>
  <line x1="172" x2="207" y1="69.5" y2="69.5" class="net_9"/>
  <line x1="172" x2="207" y1="129.5" y2="129.5" class="net_10"/>
  <line x1="432" x2="467" y1="94.5" y2="94.5" class="net_16"/>
  <line x1="432" x2="467" y1="160.5" y2="160.5" class="net_17"/>
  <line x1="172" x2="207" y1="249" y2="249" class="net_21"/>
  <line x1="172" x2="207" y1="310" y2="310" class="net_20"/>
  <line x1="302" x2="337" y1="302.5" y2="302.5" class="net_25"/>
  <line x1="367" x2="402" y1="218" y2="218" class="net_22"/>
  <line x1="362" x2="402" y1="302.5" y2="302.5" class="net_29"/>
  <line x1="497" x2="532" y1="295" y2="295" class="net_28"/>
  <line x1="562" x2="597" y1="153" y2="153" class="net_2"/>
  <line x1="557" x2="597" y1="295" y2="295" class="net_3"/>
</svg>
