<svg xmlns="http://www.w3.org/2000/svg" xmlns:xlink="http://www.w3.org/1999/xlink" xmlns:s="https://github.com/nturley/netlistsvg" width="740" height="803">
  <style>svg {
    stroke:#000;
    fill:none;
  }
  text {
    fill:#000;
    stroke:none;
    font-size:10px;
    font-weight: bold;
    font-family: "Courier New", monospace;
  }
  .nodelabel {
    text-anchor: middle;
  }
  .inputPortLabel {
    text-anchor: end;
  }
  .splitjoinBody {
    fill:#000;
  }</style>
  <g s:type="and" transform="translate(273,480)" s:width="30" s:height="25" id="cell_$and$carrylookahead.v:13$5">
    <s:alias val="$and"/>
    <s:alias val="$logic_and"/>
    <s:alias val="$_AND_"/>
    <path d="M0,0 L0,25 L15,25 A15 12.5 0 0 0 15,0 Z" class="cell_$and$carrylookahead.v:13$5"/>
    <g s:x="0" s:y="5" s:pid="A"/>
    <g s:x="0" s:y="20" s:pid="B"/>
    <g s:x="30" s:y="12.5" s:pid="Y"/>
  </g>
  <g s:type="and" transform="translate(170,206)" s:width="30" s:height="25" id="cell_$and$carrylookahead.v:13$6">
    <s:alias val="$and"/>
    <s:alias val="$logic_and"/>
    <s:alias val="$_AND_"/>
    <path d="M0,0 L0,25 L15,25 A15 12.5 0 0 0 15,0 Z" class="cell_$and$carrylookahead.v:13$6"/>
    <g s:x="0" s:y="5" s:pid="A"/>
    <g s:x="0" s:y="20" s:pid="B"/>
    <g s:x="30" s:y="12.5" s:pid="Y"/>
  </g>
  <g s:type="and" transform="translate(273,586)" s:width="30" s:height="25" id="cell_$and$carrylookahead.v:14$7">
    <s:alias val="$and"/>
    <s:alias val="$logic_and"/>
    <s:alias val="$_AND_"/>
    <path d="M0,0 L0,25 L15,25 A15 12.5 0 0 0 15,0 Z" class="cell_$and$carrylookahead.v:14$7"/>
    <g s:x="0" s:y="5" s:pid="A"/>
    <g s:x="0" s:y="20" s:pid="B"/>
    <g s:x="30" s:y="12.5" s:pid="Y"/>
  </g>
  <g s:type="and" transform="translate(273,30.5)" s:width="30" s:height="25" id="cell_$and$carrylookahead.v:14$8">
    <s:alias val="$and"/>
    <s:alias val="$logic_and"/>
    <s:alias val="$_AND_"/>
    <path d="M0,0 L0,25 L15,25 A15 12.5 0 0 0 15,0 Z" class="cell_$and$carrylookahead.v:14$8"/>
    <g s:x="0" s:y="5" s:pid="A"/>
    <g s:x="0" s:y="20" s:pid="B"/>
    <g s:x="30" s:y="12.5" s:pid="Y"/>
  </g>
  <g s:type="and" transform="translate(435,410.5)" s:width="30" s:height="25" id="cell_$and$carrylookahead.v:16$9">
    <s:alias val="$and"/>
    <s:alias val="$logic_and"/>
    <s:alias val="$_AND_"/>
    <path d="M0,0 L0,25 L15,25 A15 12.5 0 0 0 15,0 Z" class="cell_$and$carrylookahead.v:16$9"/>
    <g s:x="0" s:y="5" s:pid="A"/>
    <g s:x="0" s:y="20" s:pid="B"/>
    <g s:x="30" s:y="12.5" s:pid="Y"/>
  </g>
  <g s:type="and" transform="translate(365,472.5)" s:width="30" s:height="25" id="cell_$and$carrylookahead.v:17$11">
    <s:alias val="$and"/>
    <s:alias val="$logic_and"/>
    <s:alias val="$_AND_"/>
    <path d="M0,0 L0,25 L15,25 A15 12.5 0 0 0 15,0 Z" class="cell_$and$carrylookahead.v:17$11"/>
    <g s:x="0" s:y="5" s:pid="A"/>
    <g s:x="0" s:y="20" s:pid="B"/>
    <g s:x="30" s:y="12.5" s:pid="Y"/>
  </g>
  <g s:type="and" transform="translate(365,570)" s:width="30" s:height="25" id="cell_$and$carrylookahead.v:17$13">
    <s:alias val="$and"/>
    <s:alias val="$logic_and"/>
    <s:alias val="$_AND_"/>
    <path d="M0,0 L0,25 L15,25 A15 12.5 0 0 0 15,0 Z" class="cell_$and$carrylookahead.v:17$13"/>
    <g s:x="0" s:y="5" s:pid="A"/>
    <g s:x="0" s:y="20" s:pid="B"/>
    <g s:x="30" s:y="12.5" s:pid="Y"/>
  </g>
  <g s:type="and" transform="translate(435,577.5)" s:width="30" s:height="25" id="cell_$and$carrylookahead.v:17$14">
    <s:alias val="$and"/>
    <s:alias val="$logic_and"/>
    <s:alias val="$_AND_"/>
    <path d="M0,0 L0,25 L15,25 A15 12.5 0 0 0 15,0 Z" class="cell_$and$carrylookahead.v:17$14"/>
    <g s:x="0" s:y="5" s:pid="A"/>
    <g s:x="0" s:y="20" s:pid="B"/>
    <g s:x="30" s:y="12.5" s:pid="Y"/>
  </g>
  <g s:type="and" transform="translate(273,646)" s:width="30" s:height="25" id="cell_$and$carrylookahead.v:18$16">
    <s:alias val="$and"/>
    <s:alias val="$logic_and"/>
    <s:alias val="$_AND_"/>
    <path d="M0,0 L0,25 L15,25 A15 12.5 0 0 0 15,0 Z" class="cell_$and$carrylookahead.v:18$16"/>
    <g s:x="0" s:y="5" s:pid="A"/>
    <g s:x="0" s:y="20" s:pid="B"/>
    <g s:x="30" s:y="12.5" s:pid="Y"/>
  </g>
  <g s:type="and" transform="translate(273,751)" s:width="30" s:height="25" id="cell_$and$carrylookahead.v:18$18">
    <s:alias val="$and"/>
    <s:alias val="$logic_and"/>
    <s:alias val="$_AND_"/>
    <path d="M0,0 L0,25 L15,25 A15 12.5 0 0 0 15,0 Z" class="cell_$and$carrylookahead.v:18$18"/>
    <g s:x="0" s:y="5" s:pid="A"/>
    <g s:x="0" s:y="20" s:pid="B"/>
    <g s:x="30" s:y="12.5" s:pid="Y"/>
  </g>
  <g s:type="and" transform="translate(365,698.5)" s:width="30" s:height="25" id="cell_$and$carrylookahead.v:18$19">
    <s:alias val="$and"/>
    <s:alias val="$logic_and"/>
    <s:alias val="$_AND_"/>
    <path d="M0,0 L0,25 L15,25 A15 12.5 0 0 0 15,0 Z" class="cell_$and$carrylookahead.v:18$19"/>
    <g s:x="0" s:y="5" s:pid="A"/>
    <g s:x="0" s:y="20" s:pid="B"/>
    <g s:x="30" s:y="12.5" s:pid="Y"/>
  </g>
  <g s:type="and" transform="translate(365,758.5)" s:width="30" s:height="25" id="cell_$and$carrylookahead.v:18$22">
    <s:alias val="$and"/>
    <s:alias val="$logic_and"/>
    <s:alias val="$_AND_"/>
    <path d="M0,0 L0,25 L15,25 A15 12.5 0 0 0 15,0 Z" class="cell_$and$carrylookahead.v:18$22"/>
    <g s:x="0" s:y="5" s:pid="A"/>
    <g s:x="0" s:y="20" s:pid="B"/>
    <g s:x="30" s:y="12.5" s:pid="Y"/>
  </g>
  <g s:type="and" transform="translate(435,766)" s:width="30" s:height="25" id="cell_$and$carrylookahead.v:18$23">
    <s:alias val="$and"/>
    <s:alias val="$logic_and"/>
    <s:alias val="$_AND_"/>
    <path d="M0,0 L0,25 L15,25 A15 12.5 0 0 0 15,0 Z" class="cell_$and$carrylookahead.v:18$23"/>
    <g s:x="0" s:y="5" s:pid="A"/>
    <g s:x="0" s:y="20" s:pid="B"/>
    <g s:x="30" s:y="12.5" s:pid="Y"/>
  </g>
  <g s:type="and" transform="translate(365,23)" s:width="30" s:height="25" id="cell_$and$carrylookahead.v:19$25">
    <s:alias val="$and"/>
    <s:alias val="$logic_and"/>
    <s:alias val="$_AND_"/>
    <path d="M0,0 L0,25 L15,25 A15 12.5 0 0 0 15,0 Z" class="cell_$and$carrylookahead.v:19$25"/>
    <g s:x="0" s:y="5" s:pid="A"/>
    <g s:x="0" s:y="20" s:pid="B"/>
    <g s:x="30" s:y="12.5" s:pid="Y"/>
  </g>
  <g s:type="and" transform="translate(365,76.5)" s:width="30" s:height="25" id="cell_$and$carrylookahead.v:19$27">
    <s:alias val="$and"/>
    <s:alias val="$logic_and"/>
    <s:alias val="$_AND_"/>
    <path d="M0,0 L0,25 L15,25 A15 12.5 0 0 0 15,0 Z" class="cell_$and$carrylookahead.v:19$27"/>
    <g s:x="0" s:y="5" s:pid="A"/>
    <g s:x="0" s:y="20" s:pid="B"/>
    <g s:x="30" s:y="12.5" s:pid="Y"/>
  </g>
  <g s:type="and" transform="translate(435,84)" s:width="30" s:height="25" id="cell_$and$carrylookahead.v:19$28">
    <s:alias val="$and"/>
    <s:alias val="$logic_and"/>
    <s:alias val="$_AND_"/>
    <path d="M0,0 L0,25 L15,25 A15 12.5 0 0 0 15,0 Z" class="cell_$and$carrylookahead.v:19$28"/>
    <g s:x="0" s:y="5" s:pid="A"/>
    <g s:x="0" s:y="20" s:pid="B"/>
    <g s:x="30" s:y="12.5" s:pid="Y"/>
  </g>
  <g s:type="and" transform="translate(435,144)" s:width="30" s:height="25" id="cell_$and$carrylookahead.v:19$31">
    <s:alias val="$and"/>
    <s:alias val="$logic_and"/>
    <s:alias val="$_AND_"/>
    <path d="M0,0 L0,25 L15,25 A15 12.5 0 0 0 15,0 Z" class="cell_$and$carrylookahead.v:19$31"/>
    <g s:x="0" s:y="5" s:pid="A"/>
    <g s:x="0" s:y="20" s:pid="B"/>
    <g s:x="30" s:y="12.5" s:pid="Y"/>
  </g>
  <g s:type="and" transform="translate(500,200.5)" s:width="30" s:height="25" id="cell_$and$carrylookahead.v:19$32">
    <s:alias val="$and"/>
    <s:alias val="$logic_and"/>
    <s:alias val="$_AND_"/>
    <path d="M0,0 L0,25 L15,25 A15 12.5 0 0 0 15,0 Z" class="cell_$and$carrylookahead.v:19$32"/>
    <g s:x="0" s:y="5" s:pid="A"/>
    <g s:x="0" s:y="20" s:pid="B"/>
    <g s:x="30" s:y="12.5" s:pid="Y"/>
  </g>
  <g s:type="and" transform="translate(500,260.5)" s:width="30" s:height="25" id="cell_$and$carrylookahead.v:19$36">
    <s:alias val="$and"/>
    <s:alias val="$logic_and"/>
    <s:alias val="$_AND_"/>
    <path d="M0,0 L0,25 L15,25 A15 12.5 0 0 0 15,0 Z" class="cell_$and$carrylookahead.v:19$36"/>
    <g s:x="0" s:y="5" s:pid="A"/>
    <g s:x="0" s:y="20" s:pid="B"/>
    <g s:x="30" s:y="12.5" s:pid="Y"/>
  </g>
  <g s:type="and" transform="translate(566,275.5)" s:width="30" s:height="25" id="cell_$and$carrylookahead.v:19$37">
    <s:alias val="$and"/>
    <s:alias val="$logic_and"/>
    <s:alias val="$_AND_"/>
    <path d="M0,0 L0,25 L15,25 A15 12.5 0 0 0 15,0 Z" class="cell_$and$carrylookahead.v:19$37"/>
    <g s:x="0" s:y="5" s:pid="A"/>
    <g s:x="0" s:y="20" s:pid="B"/>
    <g s:x="30" s:y="12.5" s:pid="Y"/>
  </g>
  <g s:type="or" transform="translate(500,403)" s:width="30" s:height="25" id="cell_$or$carrylookahead.v:16$10">
    <s:alias val="$or"/>
    <s:alias val="$logic_or"/>
    <s:alias val="$_OR_"/>
    <path d="M0,25 L0,25 L15,25 A15 12.5 0 0 0 15,0 L0,0" class="cell_$or$carrylookahead.v:16$10"/>
    <path d="M0,0 A30 25 0 0 1 0,25" class="cell_$or$carrylookahead.v:16$10"/>
    <g s:x="3" s:y="5" s:pid="A"/>
    <g s:x="3" s:y="20" s:pid="B"/>
    <g s:x="30" s:y="12.5" s:pid="Y"/>
  </g>
  <g s:type="or" transform="translate(435,465)" s:width="30" s:height="25" id="cell_$or$carrylookahead.v:17$12">
    <s:alias val="$or"/>
    <s:alias val="$logic_or"/>
    <s:alias val="$_OR_"/>
    <path d="M0,25 L0,25 L15,25 A15 12.5 0 0 0 15,0 L0,0" class="cell_$or$carrylookahead.v:17$12"/>
    <path d="M0,0 A30 25 0 0 1 0,25" class="cell_$or$carrylookahead.v:17$12"/>
    <g s:x="3" s:y="5" s:pid="A"/>
    <g s:x="3" s:y="20" s:pid="B"/>
    <g s:x="30" s:y="12.5" s:pid="Y"/>
  </g>
  <g s:type="or" transform="translate(500,570)" s:width="30" s:height="25" id="cell_$or$carrylookahead.v:17$15">
    <s:alias val="$or"/>
    <s:alias val="$logic_or"/>
    <s:alias val="$_OR_"/>
    <path d="M0,25 L0,25 L15,25 A15 12.5 0 0 0 15,0 L0,0" class="cell_$or$carrylookahead.v:17$15"/>
    <path d="M0,0 A30 25 0 0 1 0,25" class="cell_$or$carrylookahead.v:17$15"/>
    <g s:x="3" s:y="5" s:pid="A"/>
    <g s:x="3" s:y="20" s:pid="B"/>
    <g s:x="30" s:y="12.5" s:pid="Y"/>
  </g>
  <g s:type="or" transform="translate(365,638.5)" s:width="30" s:height="25" id="cell_$or$carrylookahead.v:18$17">
    <s:alias val="$or"/>
    <s:alias val="$logic_or"/>
    <s:alias val="$_OR_"/>
    <path d="M0,25 L0,25 L15,25 A15 12.5 0 0 0 15,0 L0,0" class="cell_$or$carrylookahead.v:18$17"/>
    <path d="M0,0 A30 25 0 0 1 0,25" class="cell_$or$carrylookahead.v:18$17"/>
    <g s:x="3" s:y="5" s:pid="A"/>
    <g s:x="3" s:y="20" s:pid="B"/>
    <g s:x="30" s:y="12.5" s:pid="Y"/>
  </g>
  <g s:type="or" transform="translate(435,691)" s:width="30" s:height="25" id="cell_$or$carrylookahead.v:18$20">
    <s:alias val="$or"/>
    <s:alias val="$logic_or"/>
    <s:alias val="$_OR_"/>
    <path d="M0,25 L0,25 L15,25 A15 12.5 0 0 0 15,0 L0,0" class="cell_$or$carrylookahead.v:18$20"/>
    <path d="M0,0 A30 25 0 0 1 0,25" class="cell_$or$carrylookahead.v:18$20"/>
    <g s:x="3" s:y="5" s:pid="A"/>
    <g s:x="3" s:y="20" s:pid="B"/>
    <g s:x="30" s:y="12.5" s:pid="Y"/>
  </g>
  <g s:type="or" transform="translate(500,758.5)" s:width="30" s:height="25" id="cell_$or$carrylookahead.v:18$24">
    <s:alias val="$or"/>
    <s:alias val="$logic_or"/>
    <s:alias val="$_OR_"/>
    <path d="M0,25 L0,25 L15,25 A15 12.5 0 0 0 15,0 L0,0" class="cell_$or$carrylookahead.v:18$24"/>
    <path d="M0,0 A30 25 0 0 1 0,25" class="cell_$or$carrylookahead.v:18$24"/>
    <g s:x="3" s:y="5" s:pid="A"/>
    <g s:x="3" s:y="20" s:pid="B"/>
    <g s:x="30" s:y="12.5" s:pid="Y"/>
  </g>
  <g s:type="or" transform="translate(435,15.5)" s:width="30" s:height="25" id="cell_$or$carrylookahead.v:19$26">
    <s:alias val="$or"/>
    <s:alias val="$logic_or"/>
    <s:alias val="$_OR_"/>
    <path d="M0,25 L0,25 L15,25 A15 12.5 0 0 0 15,0 L0,0" class="cell_$or$carrylookahead.v:19$26"/>
    <path d="M0,0 A30 25 0 0 1 0,25" class="cell_$or$carrylookahead.v:19$26"/>
    <g s:x="3" s:y="5" s:pid="A"/>
    <g s:x="3" s:y="20" s:pid="B"/>
    <g s:x="30" s:y="12.5" s:pid="Y"/>
  </g>
  <g s:type="or" transform="translate(500,76.5)" s:width="30" s:height="25" id="cell_$or$carrylookahead.v:19$29">
    <s:alias val="$or"/>
    <s:alias val="$logic_or"/>
    <s:alias val="$_OR_"/>
    <path d="M0,25 L0,25 L15,25 A15 12.5 0 0 0 15,0 L0,0" class="cell_$or$carrylookahead.v:19$29"/>
    <path d="M0,0 A30 25 0 0 1 0,25" class="cell_$or$carrylookahead.v:19$29"/>
    <g s:x="3" s:y="5" s:pid="A"/>
    <g s:x="3" s:y="20" s:pid="B"/>
    <g s:x="30" s:y="12.5" s:pid="Y"/>
  </g>
  <g s:type="or" transform="translate(566,193)" s:width="30" s:height="25" id="cell_$or$carrylookahead.v:19$33">
    <s:alias val="$or"/>
    <s:alias val="$logic_or"/>
    <s:alias val="$_OR_"/>
    <path d="M0,25 L0,25 L15,25 A15 12.5 0 0 0 15,0 L0,0" class="cell_$or$carrylookahead.v:19$33"/>
    <path d="M0,0 A30 25 0 0 1 0,25" class="cell_$or$carrylookahead.v:19$33"/>
    <g s:x="3" s:y="5" s:pid="A"/>
    <g s:x="3" s:y="20" s:pid="B"/>
    <g s:x="30" s:y="12.5" s:pid="Y"/>
  </g>
  <g s:type="or" transform="translate(633,268)" s:width="30" s:height="25" id="cell_$or$carrylookahead.v:19$38">
    <s:alias val="$or"/>
    <s:alias val="$logic_or"/>
    <s:alias val="$_OR_"/>
    <path d="M0,25 L0,25 L15,25 A15 12.5 0 0 0 15,0 L0,0" class="cell_$or$carrylookahead.v:19$38"/>
    <path d="M0,0 A30 25 0 0 1 0,25" class="cell_$or$carrylookahead.v:19$38"/>
    <g s:x="3" s:y="5" s:pid="A"/>
    <g s:x="3" s:y="20" s:pid="B"/>
    <g s:x="30" s:y="12.5" s:pid="Y"/>
  </g>
  <g s:type="reduce_xor" transform="translate(272,540)" s:width="33" s:height="25" id="cell_$xor$carrylookahead.v:10$1">
    <s:alias val="$xor"/>
    <s:alias val="$reduce_xor"/>
    <s:alias val="$_XOR_"/>
    <path d="M3,0 A30 25 0 0 1 3,25 A30 25 0 0 0 33,12.5 A30 25 0 0 0 3,0" class="cell_$xor$carrylookahead.v:10$1"/>
    <path d="M0,0 A30 25 0 0 1 0,25" class="cell_$xor$carrylookahead.v:10$1"/>
    <g s:x="3" s:y="5" s:pid="A"/>
    <g s:x="3" s:y="20" s:pid="B"/>
    <g s:x="33" s:y="12.5" s:pid="Y"/>
  </g>
  <g s:type="reduce_xor" transform="translate(169,378)" s:width="33" s:height="25" id="cell_$xor$carrylookahead.v:10$2">
    <s:alias val="$xor"/>
    <s:alias val="$reduce_xor"/>
    <s:alias val="$_XOR_"/>
    <path d="M3,0 A30 25 0 0 1 3,25 A30 25 0 0 0 33,12.5 A30 25 0 0 0 3,0" class="cell_$xor$carrylookahead.v:10$2"/>
    <path d="M0,0 A30 25 0 0 1 0,25" class="cell_$xor$carrylookahead.v:10$2"/>
    <g s:x="3" s:y="5" s:pid="A"/>
    <g s:x="3" s:y="20" s:pid="B"/>
    <g s:x="33" s:y="12.5" s:pid="Y"/>
  </g>
  <g s:type="reduce_xor" transform="translate(169,438)" s:width="33" s:height="25" id="cell_$xor$carrylookahead.v:11$3">
    <s:alias val="$xor"/>
    <s:alias val="$reduce_xor"/>
    <s:alias val="$_XOR_"/>
    <path d="M3,0 A30 25 0 0 1 3,25 A30 25 0 0 0 33,12.5 A30 25 0 0 0 3,0" class="cell_$xor$carrylookahead.v:11$3"/>
    <path d="M0,0 A30 25 0 0 1 0,25" class="cell_$xor$carrylookahead.v:11$3"/>
    <g s:x="3" s:y="5" s:pid="A"/>
    <g s:x="3" s:y="20" s:pid="B"/>
    <g s:x="33" s:y="12.5" s:pid="Y"/>
  </g>
  <g s:type="reduce_xor" transform="translate(272,175)" s:width="33" s:height="25" id="cell_$xor$carrylookahead.v:11$4">
    <s:alias val="$xor"/>
    <s:alias val="$reduce_xor"/>
    <s:alias val="$_XOR_"/>
    <path d="M3,0 A30 25 0 0 1 3,25 A30 25 0 0 0 33,12.5 A30 25 0 0 0 3,0" class="cell_$xor$carrylookahead.v:11$4"/>
    <path d="M0,0 A30 25 0 0 1 0,25" class="cell_$xor$carrylookahead.v:11$4"/>
    <g s:x="3" s:y="5" s:pid="A"/>
    <g s:x="3" s:y="20" s:pid="B"/>
    <g s:x="33" s:y="12.5" s:pid="Y"/>
  </g>
  <g s:type="reduce_xor" transform="translate(565,335.5)" s:width="33" s:height="25" id="cell_$xor$carrylookahead.v:21$39">
    <s:alias val="$xor"/>
    <s:alias val="$reduce_xor"/>
    <s:alias val="$_XOR_"/>
    <path d="M3,0 A30 25 0 0 1 3,25 A30 25 0 0 0 33,12.5 A30 25 0 0 0 3,0" class="cell_$xor$carrylookahead.v:21$39"/>
    <path d="M0,0 A30 25 0 0 1 0,25" class="cell_$xor$carrylookahead.v:21$39"/>
    <g s:x="3" s:y="5" s:pid="A"/>
    <g s:x="3" s:y="20" s:pid="B"/>
    <g s:x="33" s:y="12.5" s:pid="Y"/>
  </g>
  <g s:type="reduce_xor" transform="translate(565,395.5)" s:width="33" s:height="25" id="cell_$xor$carrylookahead.v:22$40">
    <s:alias val="$xor"/>
    <s:alias val="$reduce_xor"/>
    <s:alias val="$_XOR_"/>
    <path d="M3,0 A30 25 0 0 1 3,25 A30 25 0 0 0 33,12.5 A30 25 0 0 0 3,0" class="cell_$xor$carrylookahead.v:22$40"/>
    <path d="M0,0 A30 25 0 0 1 0,25" class="cell_$xor$carrylookahead.v:22$40"/>
    <g s:x="3" s:y="5" s:pid="A"/>
    <g s:x="3" s:y="20" s:pid="B"/>
    <g s:x="33" s:y="12.5" s:pid="Y"/>
  </g>
  <g s:type="reduce_xor" transform="translate(565,562.5)" s:width="33" s:height="25" id="cell_$xor$carrylookahead.v:23$41">
    <s:alias val="$xor"/>
    <s:alias val="$reduce_xor"/>
    <s:alias val="$_XOR_"/>
    <path d="M3,0 A30 25 0 0 1 3,25 A30 25 0 0 0 33,12.5 A30 25 0 0 0 3,0" class="cell_$xor$carrylookahead.v:23$41"/>
    <path d="M0,0 A30 25 0 0 1 0,25" class="cell_$xor$carrylookahead.v:23$41"/>
    <g s:x="3" s:y="5" s:pid="A"/>
    <g s:x="3" s:y="20" s:pid="B"/>
    <g s:x="33" s:y="12.5" s:pid="Y"/>
  </g>
  <g s:type="reduce_xor" transform="translate(565,751)" s:width="33" s:height="25" id="cell_$xor$carrylookahead.v:24$42">
    <s:alias val="$xor"/>
    <s:alias val="$reduce_xor"/>
    <s:alias val="$_XOR_"/>
    <path d="M3,0 A30 25 0 0 1 3,25 A30 25 0 0 0 33,12.5 A30 25 0 0 0 3,0" class="cell_$xor$carrylookahead.v:24$42"/>
    <path d="M0,0 A30 25 0 0 1 0,25" class="cell_$xor$carrylookahead.v:24$42"/>
    <g s:x="3" s:y="5" s:pid="A"/>
    <g s:x="3" s:y="20" s:pid="B"/>
    <g s:x="33" s:y="12.5" s:pid="Y"/>
  </g>
  <g s:type="inputExt" transform="translate(12,263)" s:width="30" s:height="20" id="cell_a">
    <text x="15" y="-4" class="nodelabel cell_a" s:attribute="ref">a</text>
    <s:alias val="$_inputExt_"/>
    <path d="M0,0 L0,20 L15,20 L30,10 L15,0 Z" class="cell_a"/>
    <g s:x="28" s:y="10" s:pid="Y"/>
  </g>
  <g s:type="inputExt" transform="translate(12,378)" s:width="30" s:height="20" id="cell_b">
    <text x="15" y="-4" class="nodelabel cell_b" s:attribute="ref">b</text>
    <s:alias val="$_inputExt_"/>
    <path d="M0,0 L0,20 L15,20 L30,10 L15,0 Z" class="cell_b"/>
    <g s:x="28" s:y="10" s:pid="Y"/>
  </g>
  <g s:type="inputExt" transform="translate(365,420.5)" s:width="30" s:height="20" id="cell_cin">
    <text x="15" y="-4" class="nodelabel cell_cin" s:attribute="ref">cin</text>
    <s:alias val="$_inputExt_"/>
    <path d="M0,0 L0,20 L15,20 L30,10 L15,0 Z" class="cell_cin"/>
    <g s:x="28" s:y="10" s:pid="Y"/>
  </g>
  <g s:type="outputExt" transform="translate(698,535)" s:width="30" s:height="20" id="cell_sum">
    <text x="15" y="-4" class="nodelabel cell_sum" s:attribute="ref">sum</text>
    <s:alias val="$_outputExt_"/>
    <path d="M30,0 L30,20 L15,20 L0,10 L15,0 Z" class="cell_sum"/>
    <g s:x="0" s:y="10" s:pid="A"/>
  </g>
  <g s:type="outputExt" transform="translate(698,270.5)" s:width="30" s:height="20" id="cell_cout">
    <text x="15" y="-4" class="nodelabel cell_cout" s:attribute="ref">cout</text>
    <s:alias val="$_outputExt_"/>
    <path d="M30,0 L30,20 L15,20 L0,10 L15,0 Z" class="cell_cout"/>
    <g s:x="0" s:y="10" s:pid="A"/>
  </g>
  <g s:type="join" transform="translate(643,524.5)" s:width="4" s:height="40" id="cell_$join$,11,12,13,14,">
    <rect width="5" height="80" class="splitjoinBody" s:generic="body"/>
    <s:alias val="$_join_"/>
    <g s:x="5" s:y="20" s:pid="out"/>
    <g transform="translate(0,10)" s:x="0" s:y="10" s:pid="in0">
      <text x="-3" y="-4" class="inputPortLabel">0</text>
    </g>
    <g transform="translate(0,30)" s:x="0" s:y="10" s:pid="in0">
      <text x="-3" y="-4" class="inputPortLabel">1</text>
    </g>
    <g transform="translate(0,50)" s:x="0" s:y="10" s:pid="in0">
      <text x="-3" y="-4" class="inputPortLabel">2</text>
    </g>
    <g transform="translate(0,70)" s:x="0" s:y="10" s:pid="in0">
      <text x="-3" y="-4" class="inputPortLabel">3</text>
    </g>
  </g>
  <g s:type="split" transform="translate(77,252.5)" s:width="5" s:height="40" id="cell_$split$,2,3,4,5,">
    <rect width="5" height="80" class="splitjoinBody" s:generic="body"/>
    <s:alias val="$_split_"/>
    <g s:x="0" s:y="20" s:pid="in"/>
    <g transform="translate(4,10)" s:x="4" s:y="10" s:pid="out0">
      <text x="5" y="-4">0</text>
    </g>
    <g transform="translate(4,30)" s:x="4" s:y="10" s:pid="out0">
      <text x="5" y="-4">1</text>
    </g>
    <g transform="translate(4,50)" s:x="4" s:y="10" s:pid="out0">
      <text x="5" y="-4">2</text>
    </g>
    <g transform="translate(4,70)" s:x="4" s:y="10" s:pid="out0">
      <text x="5" y="-4">3</text>
    </g>
  </g>
  <g s:type="split" transform="translate(77,367.5)" s:width="5" s:height="40" id="cell_$split$,6,7,8,9,">
    <rect width="5" height="80" class="splitjoinBody" s:generic="body"/>
    <s:alias val="$_split_"/>
    <g s:x="0" s:y="20" s:pid="in"/>
    <g transform="translate(4,10)" s:x="4" s:y="10" s:pid="out0">
      <text x="5" y="-4">0</text>
    </g>
    <g transform="translate(4,30)" s:x="4" s:y="10" s:pid="out0">
      <text x="5" y="-4">1</text>
    </g>
    <g transform="translate(4,50)" s:x="4" s:y="10" s:pid="out0">
      <text x="5" y="-4">2</text>
    </g>
    <g transform="translate(4,70)" s:x="4" s:y="10" s:pid="out0">
      <text x="5" y="-4">3</text>
    </g>
  </g>
  <line x1="82" x2="149" y1="263" y2="263" class="net_2"/>
  <line x1="149" x2="149" y1="263" y2="241" class="net_2"/>
  <line x1="149" x2="232" y1="241" y2="241" class="net_2"/>
  <line x1="232" x2="232" y1="241" y2="485" class="net_2"/>
  <circle cx="149" cy="263" r="2" style="fill:#000" class="net_2"/>
  <line x1="232" x2="273" y1="485" y2="485" class="net_2"/>
  <line x1="82" x2="212" y1="263" y2="263" class="net_2"/>
  <line x1="212" x2="212" y1="263" y2="545" class="net_2"/>
  <line x1="212" x2="275" y1="545" y2="545" class="net_2"/>
  <line x1="82" x2="159" y1="378" y2="378" class="net_6"/>
  <line x1="159" x2="159" y1="378" y2="252" class="net_6"/>
  <line x1="159" x2="222" y1="252" y2="252" class="net_6"/>
  <line x1="222" x2="222" y1="252" y2="500" class="net_6"/>
  <circle cx="159" cy="378" r="2" style="fill:#000" class="net_6"/>
  <line x1="222" x2="273" y1="500" y2="500" class="net_6"/>
  <line x1="82" x2="159" y1="378" y2="378" class="net_6"/>
  <line x1="159" x2="159" y1="378" y2="560" class="net_6"/>
  <line x1="159" x2="275" y1="560" y2="560" class="net_6"/>
  <line x1="82" x2="129" y1="283" y2="283" class="net_3"/>
  <line x1="129" x2="129" y1="283" y2="211" class="net_3"/>
  <circle cx="129" cy="283" r="2" style="fill:#000" class="net_3"/>
  <line x1="129" x2="170" y1="211" y2="211" class="net_3"/>
  <line x1="82" x2="129" y1="283" y2="283" class="net_3"/>
  <line x1="129" x2="129" y1="283" y2="383" class="net_3"/>
  <line x1="129" x2="172" y1="383" y2="383" class="net_3"/>
  <line x1="82" x2="139" y1="398" y2="398" class="net_7"/>
  <line x1="139" x2="139" y1="398" y2="226" class="net_7"/>
  <circle cx="139" cy="398" r="2" style="fill:#000" class="net_7"/>
  <line x1="139" x2="170" y1="226" y2="226" class="net_7"/>
  <line x1="82" x2="172" y1="398" y2="398" class="net_7"/>
  <line x1="82" x2="119" y1="303" y2="303" class="net_4"/>
  <line x1="119" x2="119" y1="303" y2="591" class="net_4"/>
  <line x1="119" x2="273" y1="591" y2="591" class="net_4"/>
  <line x1="82" x2="119" y1="303" y2="303" class="net_4"/>
  <line x1="119" x2="119" y1="303" y2="443" class="net_4"/>
  <circle cx="119" cy="443" r="2" style="fill:#000" class="net_4"/>
  <line x1="119" x2="172" y1="443" y2="443" class="net_4"/>
  <line x1="82" x2="99" y1="418" y2="418" class="net_8"/>
  <line x1="99" x2="99" y1="418" y2="606" class="net_8"/>
  <line x1="99" x2="273" y1="606" y2="606" class="net_8"/>
  <line x1="82" x2="99" y1="418" y2="418" class="net_8"/>
  <line x1="99" x2="99" y1="418" y2="458" class="net_8"/>
  <circle cx="99" cy="458" r="2" style="fill:#000" class="net_8"/>
  <line x1="99" x2="172" y1="458" y2="458" class="net_8"/>
  <line x1="82" x2="99" y1="323" y2="323" class="net_5"/>
  <line x1="99" x2="99" y1="323" y2="35.5" class="net_5"/>
  <line x1="99" x2="273" y1="35.5" y2="35.5" class="net_5"/>
  <line x1="82" x2="99" y1="323" y2="323" class="net_5"/>
  <line x1="99" x2="99" y1="323" y2="180" class="net_5"/>
  <circle cx="99" cy="180" r="2" style="fill:#000" class="net_5"/>
  <line x1="99" x2="275" y1="180" y2="180" class="net_5"/>
  <line x1="82" x2="109" y1="438" y2="438" class="net_9"/>
  <line x1="109" x2="109" y1="438" y2="50.5" class="net_9"/>
  <line x1="109" x2="273" y1="50.5" y2="50.5" class="net_9"/>
  <line x1="82" x2="109" y1="438" y2="438" class="net_9"/>
  <line x1="109" x2="109" y1="438" y2="195" class="net_9"/>
  <circle cx="109" cy="195" r="2" style="fill:#000" class="net_9"/>
  <line x1="109" x2="275" y1="195" y2="195" class="net_9"/>
  <line x1="305" x2="335" y1="552.5" y2="552.5" class="net_20"/>
  <line x1="335" x2="335" y1="552.5" y2="399.5" class="net_20"/>
  <line x1="335" x2="425" y1="399.5" y2="399.5" class="net_20"/>
  <line x1="425" x2="425" y1="399.5" y2="415.5" class="net_20"/>
  <circle cx="335" cy="552.5" r="2" style="fill:#000" class="net_20"/>
  <circle cx="335" cy="399.5" r="2" style="fill:#000" class="net_20"/>
  <line x1="425" x2="435" y1="415.5" y2="415.5" class="net_20"/>
  <line x1="305" x2="335" y1="552.5" y2="552.5" class="net_20"/>
  <line x1="335" x2="335" y1="552.5" y2="590" class="net_20"/>
  <circle cx="335" cy="590" r="2" style="fill:#000" class="net_20"/>
  <line x1="335" x2="365" y1="590" y2="590" class="net_20"/>
  <line x1="305" x2="335" y1="552.5" y2="552.5" class="net_20"/>
  <line x1="335" x2="335" y1="552.5" y2="778.5" class="net_20"/>
  <line x1="335" x2="365" y1="778.5" y2="778.5" class="net_20"/>
  <line x1="305" x2="335" y1="552.5" y2="552.5" class="net_20"/>
  <line x1="335" x2="335" y1="552.5" y2="340.5" class="net_20"/>
  <line x1="335" x2="405" y1="340.5" y2="340.5" class="net_20"/>
  <line x1="405" x2="405" y1="340.5" y2="280.5" class="net_20"/>
  <circle cx="405" cy="340.5" r="2" style="fill:#000" class="net_20"/>
  <line x1="405" x2="500" y1="280.5" y2="280.5" class="net_20"/>
  <line x1="305" x2="335" y1="552.5" y2="552.5" class="net_20"/>
  <line x1="335" x2="335" y1="552.5" y2="340.5" class="net_20"/>
  <line x1="335" x2="568" y1="340.5" y2="340.5" class="net_20"/>
  <line x1="393" x2="435" y1="430.5" y2="430.5" class="net_10"/>
  <line x1="393" x2="415" y1="430.5" y2="430.5" class="net_10"/>
  <line x1="415" x2="415" y1="430.5" y2="597.5" class="net_10"/>
  <circle cx="415" cy="430.5" r="2" style="fill:#000" class="net_10"/>
  <circle cx="415" cy="597.5" r="2" style="fill:#000" class="net_10"/>
  <line x1="415" x2="435" y1="597.5" y2="597.5" class="net_10"/>
  <line x1="393" x2="415" y1="430.5" y2="430.5" class="net_10"/>
  <line x1="415" x2="415" y1="430.5" y2="786" class="net_10"/>
  <line x1="415" x2="435" y1="786" y2="786" class="net_10"/>
  <line x1="393" x2="415" y1="430.5" y2="430.5" class="net_10"/>
  <line x1="415" x2="415" y1="430.5" y2="295.5" class="net_10"/>
  <line x1="415" x2="566" y1="295.5" y2="295.5" class="net_10"/>
  <line x1="393" x2="415" y1="430.5" y2="430.5" class="net_10"/>
  <line x1="415" x2="415" y1="430.5" y2="355.5" class="net_10"/>
  <circle cx="415" cy="355.5" r="2" style="fill:#000" class="net_10"/>
  <line x1="415" x2="568" y1="355.5" y2="355.5" class="net_10"/>
  <line x1="202" x2="262" y1="390.5" y2="390.5" class="net_22"/>
  <line x1="262" x2="262" y1="390.5" y2="575" class="net_22"/>
  <line x1="262" x2="355" y1="575" y2="575" class="net_22"/>
  <line x1="355" x2="355" y1="575" y2="477.5" class="net_22"/>
  <circle cx="262" cy="390.5" r="2" style="fill:#000" class="net_22"/>
  <circle cx="262" cy="575" r="2" style="fill:#000" class="net_22"/>
  <circle cx="355" cy="575" r="2" style="fill:#000" class="net_22"/>
  <line x1="355" x2="365" y1="477.5" y2="477.5" class="net_22"/>
  <line x1="202" x2="262" y1="390.5" y2="390.5" class="net_22"/>
  <line x1="262" x2="262" y1="390.5" y2="575" class="net_22"/>
  <line x1="262" x2="365" y1="575" y2="575" class="net_22"/>
  <line x1="202" x2="262" y1="390.5" y2="390.5" class="net_22"/>
  <line x1="262" x2="262" y1="390.5" y2="771" class="net_22"/>
  <line x1="262" x2="273" y1="771" y2="771" class="net_22"/>
  <line x1="202" x2="262" y1="390.5" y2="390.5" class="net_22"/>
  <line x1="262" x2="262" y1="390.5" y2="164" class="net_22"/>
  <line x1="262" x2="435" y1="164" y2="164" class="net_22"/>
  <line x1="202" x2="262" y1="390.5" y2="390.5" class="net_22"/>
  <line x1="262" x2="262" y1="390.5" y2="377.5" class="net_22"/>
  <line x1="262" x2="540" y1="377.5" y2="377.5" class="net_22"/>
  <line x1="540" x2="540" y1="377.5" y2="400.5" class="net_22"/>
  <circle cx="262" cy="377.5" r="2" style="fill:#000" class="net_22"/>
  <line x1="540" x2="568" y1="400.5" y2="400.5" class="net_22"/>
  <line x1="303" x2="365" y1="492.5" y2="492.5" class="net_16"/>
  <line x1="303" x2="345" y1="492.5" y2="492.5" class="net_16"/>
  <line x1="345" x2="345" y1="492.5" y2="718.5" class="net_16"/>
  <circle cx="345" cy="492.5" r="2" style="fill:#000" class="net_16"/>
  <line x1="345" x2="365" y1="718.5" y2="718.5" class="net_16"/>
  <line x1="303" x2="345" y1="492.5" y2="492.5" class="net_16"/>
  <line x1="345" x2="345" y1="492.5" y2="220.5" class="net_16"/>
  <line x1="345" x2="500" y1="220.5" y2="220.5" class="net_16"/>
  <line x1="303" x2="345" y1="492.5" y2="492.5" class="net_16"/>
  <line x1="345" x2="345" y1="492.5" y2="388.5" class="net_16"/>
  <line x1="345" x2="475" y1="388.5" y2="388.5" class="net_16"/>
  <line x1="475" x2="475" y1="388.5" y2="408" class="net_16"/>
  <circle cx="345" cy="388.5" r="2" style="fill:#000" class="net_16"/>
  <line x1="475" x2="503" y1="408" y2="408" class="net_16"/>
  <line x1="395" x2="435" y1="582.5" y2="582.5" class="net_24"/>
  <line x1="202" x2="252" y1="450.5" y2="450.5" class="net_26"/>
  <line x1="252" x2="252" y1="450.5" y2="651" class="net_26"/>
  <circle cx="252" cy="450.5" r="2" style="fill:#000" class="net_26"/>
  <circle cx="252" cy="651" r="2" style="fill:#000" class="net_26"/>
  <line x1="252" x2="273" y1="651" y2="651" class="net_26"/>
  <line x1="202" x2="252" y1="450.5" y2="450.5" class="net_26"/>
  <line x1="252" x2="252" y1="450.5" y2="756" class="net_26"/>
  <line x1="252" x2="273" y1="756" y2="756" class="net_26"/>
  <line x1="202" x2="252" y1="450.5" y2="450.5" class="net_26"/>
  <line x1="252" x2="252" y1="450.5" y2="96.5" class="net_26"/>
  <line x1="252" x2="365" y1="96.5" y2="96.5" class="net_26"/>
  <line x1="202" x2="540" y1="450.5" y2="450.5" class="net_26"/>
  <line x1="540" x2="540" y1="450.5" y2="567.5" class="net_26"/>
  <line x1="540" x2="568" y1="567.5" y2="567.5" class="net_26"/>
  <line x1="200" x2="242" y1="218.5" y2="218.5" class="net_17"/>
  <line x1="242" x2="242" y1="218.5" y2="666" class="net_17"/>
  <circle cx="242" cy="218.5" r="2" style="fill:#000" class="net_17"/>
  <line x1="242" x2="273" y1="666" y2="666" class="net_17"/>
  <line x1="200" x2="242" y1="218.5" y2="218.5" class="net_17"/>
  <line x1="242" x2="242" y1="218.5" y2="65.5" class="net_17"/>
  <line x1="242" x2="415" y1="65.5" y2="65.5" class="net_17"/>
  <line x1="415" x2="415" y1="65.5" y2="104" class="net_17"/>
  <line x1="415" x2="435" y1="104" y2="104" class="net_17"/>
  <line x1="200" x2="242" y1="218.5" y2="218.5" class="net_17"/>
  <line x1="242" x2="242" y1="218.5" y2="461.5" class="net_17"/>
  <line x1="242" x2="405" y1="461.5" y2="461.5" class="net_17"/>
  <line x1="405" x2="405" y1="461.5" y2="470" class="net_17"/>
  <circle cx="242" cy="461.5" r="2" style="fill:#000" class="net_17"/>
  <line x1="405" x2="438" y1="470" y2="470" class="net_17"/>
  <line x1="303" x2="355" y1="763.5" y2="763.5" class="net_28"/>
  <line x1="355" x2="355" y1="763.5" y2="703.5" class="net_28"/>
  <circle cx="355" cy="763.5" r="2" style="fill:#000" class="net_28"/>
  <line x1="355" x2="365" y1="703.5" y2="703.5" class="net_28"/>
  <line x1="303" x2="365" y1="763.5" y2="763.5" class="net_28"/>
  <line x1="395" x2="435" y1="771" y2="771" class="net_30"/>
  <line x1="305" x2="325" y1="187.5" y2="187.5" class="net_32"/>
  <line x1="325" x2="325" y1="187.5" y2="28" class="net_32"/>
  <circle cx="325" cy="187.5" r="2" style="fill:#000" class="net_32"/>
  <line x1="325" x2="365" y1="28" y2="28" class="net_32"/>
  <line x1="305" x2="325" y1="187.5" y2="187.5" class="net_32"/>
  <line x1="325" x2="325" y1="187.5" y2="81.5" class="net_32"/>
  <circle cx="325" cy="81.5" r="2" style="fill:#000" class="net_32"/>
  <line x1="325" x2="365" y1="81.5" y2="81.5" class="net_32"/>
  <line x1="305" x2="325" y1="187.5" y2="187.5" class="net_32"/>
  <line x1="325" x2="325" y1="187.5" y2="627.5" class="net_32"/>
  <line x1="325" x2="540" y1="627.5" y2="627.5" class="net_32"/>
  <line x1="540" x2="540" y1="627.5" y2="756" class="net_32"/>
  <line x1="540" x2="568" y1="756" y2="756" class="net_32"/>
  <line x1="303" x2="365" y1="43" y2="43" class="net_19"/>
  <line x1="303" x2="315" y1="43" y2="43" class="net_19"/>
  <line x1="315" x2="315" y1="43" y2="12" class="net_19"/>
  <line x1="315" x2="405" y1="12" y2="12" class="net_19"/>
  <line x1="405" x2="405" y1="12" y2="20.5" class="net_19"/>
  <circle cx="315" cy="43" r="2" style="fill:#000" class="net_19"/>
  <line x1="405" x2="438" y1="20.5" y2="20.5" class="net_19"/>
  <line x1="395" x2="435" y1="89" y2="89" class="net_34"/>
  <line x1="395" x2="405" y1="89" y2="89" class="net_34"/>
  <line x1="405" x2="405" y1="89" y2="149" class="net_34"/>
  <circle cx="405" cy="89" r="2" style="fill:#000" class="net_34"/>
  <line x1="405" x2="435" y1="149" y2="149" class="net_34"/>
  <line x1="465" x2="475" y1="156.5" y2="156.5" class="net_36"/>
  <line x1="475" x2="475" y1="156.5" y2="205.5" class="net_36"/>
  <circle cx="475" cy="205.5" r="2" style="fill:#000" class="net_36"/>
  <line x1="475" x2="500" y1="205.5" y2="205.5" class="net_36"/>
  <line x1="465" x2="475" y1="156.5" y2="156.5" class="net_36"/>
  <line x1="475" x2="475" y1="156.5" y2="265.5" class="net_36"/>
  <line x1="475" x2="500" y1="265.5" y2="265.5" class="net_36"/>
  <line x1="530" x2="540" y1="273" y2="273" class="net_38"/>
  <line x1="540" x2="540" y1="273" y2="280.5" class="net_38"/>
  <line x1="540" x2="566" y1="280.5" y2="280.5" class="net_38"/>
  <line x1="465" x2="503" y1="423" y2="423" class="net_21"/>
  <line x1="395" x2="438" y1="485" y2="485" class="net_23"/>
  <line x1="465" x2="475" y1="477.5" y2="477.5" class="net_41"/>
  <line x1="475" x2="475" y1="477.5" y2="575" class="net_41"/>
  <line x1="475" x2="503" y1="575" y2="575" class="net_41"/>
  <line x1="465" x2="503" y1="590" y2="590" class="net_25"/>
  <line x1="303" x2="315" y1="598.5" y2="598.5" class="net_18"/>
  <line x1="315" x2="315" y1="598.5" y2="643.5" class="net_18"/>
  <line x1="315" x2="368" y1="643.5" y2="643.5" class="net_18"/>
  <line x1="303" x2="368" y1="658.5" y2="658.5" class="net_27"/>
  <line x1="395" x2="405" y1="651" y2="651" class="net_43"/>
  <line x1="405" x2="405" y1="651" y2="696" class="net_43"/>
  <line x1="405" x2="438" y1="696" y2="696" class="net_43"/>
  <line x1="395" x2="438" y1="711" y2="711" class="net_29"/>
  <line x1="465" x2="475" y1="703.5" y2="703.5" class="net_44"/>
  <line x1="475" x2="475" y1="703.5" y2="763.5" class="net_44"/>
  <line x1="475" x2="503" y1="763.5" y2="763.5" class="net_44"/>
  <line x1="465" x2="503" y1="778.5" y2="778.5" class="net_31"/>
  <line x1="395" x2="438" y1="35.5" y2="35.5" class="net_33"/>
  <line x1="465" x2="475" y1="28" y2="28" class="net_46"/>
  <line x1="475" x2="475" y1="28" y2="81.5" class="net_46"/>
  <line x1="475" x2="503" y1="81.5" y2="81.5" class="net_46"/>
  <line x1="465" x2="503" y1="96.5" y2="96.5" class="net_35"/>
  <line x1="530" x2="540" y1="89" y2="89" class="net_47"/>
  <line x1="540" x2="540" y1="89" y2="198" class="net_47"/>
  <line x1="540" x2="569" y1="198" y2="198" class="net_47"/>
  <line x1="530" x2="569" y1="213" y2="213" class="net_37"/>
  <line x1="596" x2="608" y1="205.5" y2="205.5" class="net_48"/>
  <line x1="608" x2="608" y1="205.5" y2="273" class="net_48"/>
  <line x1="608" x2="636" y1="273" y2="273" class="net_48"/>
  <line x1="596" x2="636" y1="288" y2="288" class="net_39"/>
  <line x1="530" x2="568" y1="415.5" y2="415.5" class="net_40"/>
  <line x1="530" x2="568" y1="582.5" y2="582.5" class="net_42"/>
  <line x1="530" x2="568" y1="771" y2="771" class="net_45"/>
  <line x1="649" x2="698" y1="545" y2="545" class="net_11,12,13,14"/>
  <line x1="663" x2="698" y1="280.5" y2="280.5" class="net_15"/>
  <line x1="598" x2="618" y1="348" y2="348" class="net_11"/>
  <line x1="618" x2="618" y1="348" y2="535" class="net_11"/>
  <line x1="618" x2="643" y1="535" y2="535" class="net_11"/>
  <line x1="598" x2="608" y1="408" y2="408" class="net_12"/>
  <line x1="608" x2="608" y1="408" y2="555" class="net_12"/>
  <line x1="608" x2="643" y1="555" y2="555" class="net_12"/>
  <line x1="598" x2="643" y1="575" y2="575" class="net_13"/>
  <line x1="598" x2="643.5" y1="763.5" y2="763.5" class="net_14"/>
  <line x1="643.5" x2="643.5" y1="763.5" y2="595.5" class="net_14"/>
  <line x1="40" x2="77" y1="273" y2="273" class="net_2,3,4,5"/>
  <line x1="40" x2="77" y1="388" y2="388" class="net_6,7,8,9"/>
</svg>
