<svg xmlns="http://www.w3.org/2000/svg" xmlns:xlink="http://www.w3.org/1999/xlink" xmlns:s="https://github.com/nturley/netlistsvg" width="485" height="352">
  <style>svg {
    stroke:#000;
    fill:none;
  }
  text {
    fill:#000;
    stroke:none;
    font-size:10px;
    font-weight: bold;
    font-family: "Courier New", monospace;
  }
  .nodelabel {
    text-anchor: middle;
  }
  .inputPortLabel {
    text-anchor: end;
  }
  .splitjoinBody {
    fill:#000;
  }</style>
  <g s:type="generic" transform="translate(188,22)" s:width="30" s:height="40" id="cell_F1">
    <text x="15" y="-4" class="nodelabel cell_F1" s:attribute="ref">fourto1</text>
    <rect width="30" height="40" s:generic="body" class="cell_F1"/>
    <g transform="translate(0,10)" s:x="0" s:y="10" s:pid="in0" id="port_F1~a">
      <text x="-3" y="-4" class="inputPortLabel cell_F1">a</text>
    </g>
    <g transform="translate(0,30)" s:x="0" s:y="10" s:pid="in0" id="port_F1~select">
      <text x="-3" y="-4" class="inputPortLabel cell_F1">select</text>
    </g>
    <g transform="translate(30,10)" s:x="30" s:y="10" s:pid="out0" id="port_F1~out">
      <text x="5" y="-4" style="fill:#000; stroke:none" class="cell_F1">out</text>
    </g>
  </g>
  <g s:type="generic" transform="translate(188,110)" s:width="30" s:height="40" id="cell_F2">
    <text x="15" y="-4" class="nodelabel cell_F2" s:attribute="ref">fourto1</text>
    <rect width="30" height="40" s:generic="body" class="cell_F2"/>
    <g transform="translate(0,10)" s:x="0" s:y="10" s:pid="in0" id="port_F2~a">
      <text x="-3" y="-4" class="inputPortLabel cell_F2">a</text>
    </g>
    <g transform="translate(0,30)" s:x="0" s:y="10" s:pid="in0" id="port_F2~select">
      <text x="-3" y="-4" class="inputPortLabel cell_F2">select</text>
    </g>
    <g transform="translate(30,10)" s:x="30" s:y="10" s:pid="out0" id="port_F2~out">
      <text x="5" y="-4" style="fill:#000; stroke:none" class="cell_F2">out</text>
    </g>
  </g>
  <g s:type="generic" transform="translate(188,198)" s:width="30" s:height="40" id="cell_F3">
    <text x="15" y="-4" class="nodelabel cell_F3" s:attribute="ref">fourto1</text>
    <rect width="30" height="40" s:generic="body" class="cell_F3"/>
    <g transform="translate(0,10)" s:x="0" s:y="10" s:pid="in0" id="port_F3~a">
      <text x="-3" y="-4" class="inputPortLabel cell_F3">a</text>
    </g>
    <g transform="translate(0,30)" s:x="0" s:y="10" s:pid="in0" id="port_F3~select">
      <text x="-3" y="-4" class="inputPortLabel cell_F3">select</text>
    </g>
    <g transform="translate(30,10)" s:x="30" s:y="10" s:pid="out0" id="port_F3~out">
      <text x="5" y="-4" style="fill:#000; stroke:none" class="cell_F3">out</text>
    </g>
  </g>
  <g s:type="generic" transform="translate(188,286)" s:width="30" s:height="40" id="cell_F4">
    <text x="15" y="-4" class="nodelabel cell_F4" s:attribute="ref">fourto1</text>
    <rect width="30" height="40" s:generic="body" class="cell_F4"/>
    <g transform="translate(0,10)" s:x="0" s:y="10" s:pid="in0" id="port_F4~a">
      <text x="-3" y="-4" class="inputPortLabel cell_F4">a</text>
    </g>
    <g transform="translate(0,30)" s:x="0" s:y="10" s:pid="in0" id="port_F4~select">
      <text x="-3" y="-4" class="inputPortLabel cell_F4">select</text>
    </g>
    <g transform="translate(30,10)" s:x="30" s:y="10" s:pid="out0" id="port_F4~out">
      <text x="5" y="-4" style="fill:#000; stroke:none" class="cell_F4">out</text>
    </g>
  </g>
  <g s:type="generic" transform="translate(358,32)" s:width="30" s:height="40" id="cell_F5">
    <text x="15" y="-4" class="nodelabel cell_F5" s:attribute="ref">fourto1</text>
    <rect width="30" height="40" s:generic="body" class="cell_F5"/>
    <g transform="translate(0,10)" s:x="0" s:y="10" s:pid="in0" id="port_F5~a">
      <text x="-3" y="-4" class="inputPortLabel cell_F5">a</text>
    </g>
    <g transform="translate(0,30)" s:x="0" s:y="10" s:pid="in0" id="port_F5~select">
      <text x="-3" y="-4" class="inputPortLabel cell_F5">select</text>
    </g>
    <g transform="translate(30,10)" s:x="30" s:y="10" s:pid="out0" id="port_F5~out">
      <text x="5" y="-4" style="fill:#000; stroke:none" class="cell_F5">out</text>
    </g>
  </g>
  <g s:type="inputExt" transform="translate(12,100.5)" s:width="30" s:height="20" id="cell_A">
    <text x="15" y="-4" class="nodelabel cell_A" s:attribute="ref">A</text>
    <s:alias val="$_inputExt_"/>
    <path d="M0,0 L0,20 L15,20 L30,10 L15,0 Z" class="cell_A"/>
    <g s:x="28" s:y="10" s:pid="Y"/>
  </g>
  <g s:type="inputExt" transform="translate(12,228.5)" s:width="30" s:height="20" id="cell_S">
    <text x="15" y="-4" class="nodelabel cell_S" s:attribute="ref">S</text>
    <s:alias val="$_inputExt_"/>
    <path d="M0,0 L0,20 L15,20 L30,10 L15,0 Z" class="cell_S"/>
    <g s:x="28" s:y="10" s:pid="Y"/>
  </g>
  <g s:type="outputExt" transform="translate(443,32.5)" s:width="30" s:height="20" id="cell_Out">
    <text x="15" y="-4" class="nodelabel cell_Out" s:attribute="ref">Out</text>
    <s:alias val="$_outputExt_"/>
    <path d="M30,0 L30,20 L15,20 L0,10 L15,0 Z" class="cell_Out"/>
    <g s:x="0" s:y="10" s:pid="A"/>
  </g>
  <g s:type="join" transform="translate(280,22)" s:width="4" s:height="40" id="cell_$join$,23,24,25,26,">
    <rect width="5" height="80" class="splitjoinBody" s:generic="body"/>
    <s:alias val="$_join_"/>
    <g s:x="5" s:y="20" s:pid="out"/>
    <g transform="translate(0,10)" s:x="0" s:y="10" s:pid="in0">
      <text x="-3" y="-4" class="inputPortLabel">0</text>
    </g>
    <g transform="translate(0,30)" s:x="0" s:y="10" s:pid="in0">
      <text x="-3" y="-4" class="inputPortLabel">1</text>
    </g>
    <g transform="translate(0,50)" s:x="0" s:y="10" s:pid="in0">
      <text x="-3" y="-4" class="inputPortLabel">2</text>
    </g>
    <g transform="translate(0,70)" s:x="0" s:y="10" s:pid="in0">
      <text x="-3" y="-4" class="inputPortLabel">3</text>
    </g>
  </g>
  <g s:type="split" transform="translate(77,90)" s:width="5" s:height="40" id="cell_$split$,2,3,4,5,6,7,8,9,10,11,12,13,14,15,16,17,">
    <rect width="5" height="80" class="splitjoinBody" s:generic="body"/>
    <s:alias val="$_split_"/>
    <g s:x="0" s:y="20" s:pid="in"/>
    <g transform="translate(4,10)" s:x="4" s:y="10" s:pid="out0">
      <text x="5" y="-4">0:3</text>
    </g>
    <g transform="translate(4,30)" s:x="4" s:y="10" s:pid="out0">
      <text x="5" y="-4">4:7</text>
    </g>
    <g transform="translate(4,50)" s:x="4" s:y="10" s:pid="out0">
      <text x="5" y="-4">8:11</text>
    </g>
    <g transform="translate(4,70)" s:x="4" s:y="10" s:pid="out0">
      <text x="5" y="-4">12:15</text>
    </g>
  </g>
  <g s:type="split" transform="translate(77,218)" s:width="5" s:height="40" id="cell_$split$,18,19,20,21,">
    <rect width="5" height="40" class="splitjoinBody" s:generic="body"/>
    <s:alias val="$_split_"/>
    <g s:x="0" s:y="20" s:pid="in"/>
    <g transform="translate(4,10)" s:x="4" s:y="10" s:pid="out0">
      <text x="5" y="-4">0:1</text>
    </g>
    <g transform="translate(4,30)" s:x="4" s:y="10" s:pid="out0">
      <text x="5" y="-4">2:3</text>
    </g>
  </g>
  <line x1="82" x2="111" y1="100.5" y2="100.5" class="net_2,3,4,5"/>
  <line x1="111" x2="111" y1="100.5" y2="32.5" class="net_2,3,4,5"/>
  <line x1="111" x2="188" y1="32.5" y2="32.5" class="net_2,3,4,5"/>
  <line x1="82" x2="141" y1="228.5" y2="228.5" class="net_18,19"/>
  <line x1="141" x2="141" y1="228.5" y2="52.5" class="net_18,19"/>
  <circle cx="141" cy="228.5" r="2" style="fill:#000" class="net_18,19"/>
  <line x1="141" x2="188" y1="52.5" y2="52.5" class="net_18,19"/>
  <line x1="82" x2="141" y1="228.5" y2="228.5" class="net_18,19"/>
  <line x1="141" x2="141" y1="228.5" y2="140.5" class="net_18,19"/>
  <circle cx="141" cy="140.5" r="2" style="fill:#000" class="net_18,19"/>
  <line x1="141" x2="188" y1="140.5" y2="140.5" class="net_18,19"/>
  <line x1="82" x2="188" y1="228.5" y2="228.5" class="net_18,19"/>
  <line x1="82" x2="141" y1="228.5" y2="228.5" class="net_18,19"/>
  <line x1="141" x2="141" y1="228.5" y2="316.5" class="net_18,19"/>
  <line x1="141" x2="188" y1="316.5" y2="316.5" class="net_18,19"/>
  <line x1="82" x2="188" y1="120.5" y2="120.5" class="net_6,7,8,9"/>
  <line x1="82" x2="131" y1="140.5" y2="140.5" class="net_10,11,12,13"/>
  <line x1="131" x2="131" y1="140.5" y2="208.5" class="net_10,11,12,13"/>
  <line x1="131" x2="188" y1="208.5" y2="208.5" class="net_10,11,12,13"/>
  <line x1="82" x2="121" y1="160.5" y2="160.5" class="net_14,15,16,17"/>
  <line x1="121" x2="121" y1="160.5" y2="296.5" class="net_14,15,16,17"/>
  <line x1="121" x2="188" y1="296.5" y2="296.5" class="net_14,15,16,17"/>
  <line x1="286" x2="358" y1="42.5" y2="42.5" class="net_23,24,25,26"/>
  <line x1="82" x2="111" y1="248.5" y2="248.5" class="net_20,21"/>
  <line x1="111" x2="111" y1="248.5" y2="339" class="net_20,21"/>
  <line x1="111" x2="296" y1="339" y2="339" class="net_20,21"/>
  <line x1="296" x2="296" y1="339" y2="62.5" class="net_20,21"/>
  <line x1="296" x2="358" y1="62.5" y2="62.5" class="net_20,21"/>
  <line x1="389" x2="443" y1="42.5" y2="42.5" class="net_22"/>
  <line x1="219" x2="280" y1="32.5" y2="32.5" class="net_23"/>
  <line x1="219" x2="248" y1="120.5" y2="120.5" class="net_24"/>
  <line x1="248" x2="248" y1="120.5" y2="52.5" class="net_24"/>
  <line x1="248" x2="280" y1="52.5" y2="52.5" class="net_24"/>
  <line x1="219" x2="258" y1="208.5" y2="208.5" class="net_25"/>
  <line x1="258" x2="258" y1="208.5" y2="72.5" class="net_25"/>
  <line x1="258" x2="280" y1="72.5" y2="72.5" class="net_25"/>
  <line x1="219" x2="280.5" y1="296.5" y2="296.5" class="net_26"/>
  <line x1="280.5" x2="280.5" y1="296.5" y2="93" class="net_26"/>
  <line x1="40" x2="77" y1="110.5" y2="110.5" class="net_2,3,4,5,6,7,8,9,10,11,12,13,14,15,16,17"/>
  <line x1="40" x2="77" y1="238.5" y2="238.5" class="net_18,19,20,21"/>
</svg>
