<svg xmlns="http://www.w3.org/2000/svg" xmlns:xlink="http://www.w3.org/1999/xlink" xmlns:s="https://github.com/nturley/netlistsvg" width="319" height="231.5">
  <style>svg {
    stroke:#000;
    fill:none;
  }
  text {
    fill:#000;
    stroke:none;
    font-size:10px;
    font-weight: bold;
    font-family: "Courier New", monospace;
  }
  .nodelabel {
    text-anchor: middle;
  }
  .inputPortLabel {
    text-anchor: end;
  }
  .splitjoinBody {
    fill:#000;
  }</style>
  <g s:type="add" transform="translate(148.66666666666666,46)" s:width="25" s:height="25" id="cell_$add$adder.v:4$1">
    <s:alias val="$add"/>
    <circle r="12.5" cx="12.5" cy="12.5" class="cell_$add$adder.v:4$1"/>
    <line x1="7.5" x2="17.5" y1="12.5" y2="12.5" class="cell_$add$adder.v:4$1"/>
    <line x1="12.5" x2="12.5" y1="7.5" y2="17.5" class="cell_$add$adder.v:4$1"/>
    <g s:x="3" s:y="5" s:pid="A"/>
    <g s:x="3" s:y="20" s:pid="B"/>
    <g s:x="25" s:y="12.5" s:pid="Y"/>
  </g>
  <g s:type="add" transform="translate(213.66666666666666,103.5)" s:width="25" s:height="25" id="cell_$add$adder.v:4$2">
    <s:alias val="$add"/>
    <circle r="12.5" cx="12.5" cy="12.5" class="cell_$add$adder.v:4$2"/>
    <line x1="7.5" x2="17.5" y1="12.5" y2="12.5" class="cell_$add$adder.v:4$2"/>
    <line x1="12.5" x2="12.5" y1="7.5" y2="17.5" class="cell_$add$adder.v:4$2"/>
    <g s:x="3" s:y="5" s:pid="A"/>
    <g s:x="3" s:y="20" s:pid="B"/>
    <g s:x="25" s:y="12.5" s:pid="Y"/>
  </g>
  <g s:type="and" transform="translate(82,77)" s:width="30" s:height="25" id="cell_$and$adder.v:5$3">
    <s:alias val="$and"/>
    <s:alias val="$logic_and"/>
    <s:alias val="$_AND_"/>
    <path d="M0,0 L0,25 L15,25 A15 12.5 0 0 0 15,0 Z" class="cell_$and$adder.v:5$3"/>
    <g s:x="0" s:y="5" s:pid="A"/>
    <g s:x="0" s:y="20" s:pid="B"/>
    <g s:x="30" s:y="12.5" s:pid="Y"/>
  </g>
  <g s:type="and" transform="translate(82,142)" s:width="30" s:height="25" id="cell_$and$adder.v:5$4">
    <s:alias val="$and"/>
    <s:alias val="$logic_and"/>
    <s:alias val="$_AND_"/>
    <path d="M0,0 L0,25 L15,25 A15 12.5 0 0 0 15,0 Z" class="cell_$and$adder.v:5$4"/>
    <g s:x="0" s:y="5" s:pid="A"/>
    <g s:x="0" s:y="20" s:pid="B"/>
    <g s:x="30" s:y="12.5" s:pid="Y"/>
  </g>
  <g s:type="and" transform="translate(147,194.5)" s:width="30" s:height="25" id="cell_$and$adder.v:5$6">
    <s:alias val="$and"/>
    <s:alias val="$logic_and"/>
    <s:alias val="$_AND_"/>
    <path d="M0,0 L0,25 L15,25 A15 12.5 0 0 0 15,0 Z" class="cell_$and$adder.v:5$6"/>
    <g s:x="0" s:y="5" s:pid="A"/>
    <g s:x="0" s:y="20" s:pid="B"/>
    <g s:x="30" s:y="12.5" s:pid="Y"/>
  </g>
  <g s:type="or" transform="translate(147,134.5)" s:width="30" s:height="25" id="cell_$or$adder.v:5$5">
    <s:alias val="$or"/>
    <s:alias val="$logic_or"/>
    <s:alias val="$_OR_"/>
    <path d="M0,25 L0,25 L15,25 A15 12.5 0 0 0 15,0 L0,0" class="cell_$or$adder.v:5$5"/>
    <path d="M0,0 A30 25 0 0 1 0,25" class="cell_$or$adder.v:5$5"/>
    <g s:x="3" s:y="5" s:pid="A"/>
    <g s:x="3" s:y="20" s:pid="B"/>
    <g s:x="30" s:y="12.5" s:pid="Y"/>
  </g>
  <g s:type="or" transform="translate(212,187)" s:width="30" s:height="25" id="cell_$or$adder.v:5$7">
    <s:alias val="$or"/>
    <s:alias val="$logic_or"/>
    <s:alias val="$_OR_"/>
    <path d="M0,25 L0,25 L15,25 A15 12.5 0 0 0 15,0 L0,0" class="cell_$or$adder.v:5$7"/>
    <path d="M0,0 A30 25 0 0 1 0,25" class="cell_$or$adder.v:5$7"/>
    <g s:x="3" s:y="5" s:pid="A"/>
    <g s:x="3" s:y="20" s:pid="B"/>
    <g s:x="30" s:y="12.5" s:pid="Y"/>
  </g>
  <g s:type="outputExt" transform="translate(277,106)" s:width="30" s:height="20" id="cell_sum">
    <text x="15" y="-4" class="nodelabel cell_sum" s:attribute="ref">sum</text>
    <s:alias val="$_outputExt_"/>
    <path d="M30,0 L30,20 L15,20 L0,10 L15,0 Z" class="cell_sum"/>
    <g s:x="0" s:y="10" s:pid="A"/>
  </g>
  <g s:type="outputExt" transform="translate(277,189.5)" s:width="30" s:height="20" id="cell_cout">
    <text x="15" y="-4" class="nodelabel cell_cout" s:attribute="ref">cout</text>
    <s:alias val="$_outputExt_"/>
    <path d="M30,0 L30,20 L15,20 L0,10 L15,0 Z" class="cell_cout"/>
    <g s:x="0" s:y="10" s:pid="A"/>
  </g>
  <g s:type="inputExt" transform="translate(12,22)" s:width="30" s:height="20" id="cell_a">
    <text x="15" y="-4" class="nodelabel cell_a" s:attribute="ref">a</text>
    <s:alias val="$_inputExt_"/>
    <path d="M0,0 L0,20 L15,20 L30,10 L15,0 Z" class="cell_a"/>
    <g s:x="28" s:y="10" s:pid="Y"/>
  </g>
  <g s:type="inputExt" transform="translate(12,87)" s:width="30" s:height="20" id="cell_b">
    <text x="15" y="-4" class="nodelabel cell_b" s:attribute="ref">b</text>
    <s:alias val="$_inputExt_"/>
    <path d="M0,0 L0,20 L15,20 L30,10 L15,0 Z" class="cell_b"/>
    <g s:x="28" s:y="10" s:pid="Y"/>
  </g>
  <g s:type="inputExt" transform="translate(12,152)" s:width="30" s:height="20" id="cell_c">
    <text x="15" y="-4" class="nodelabel cell_c" s:attribute="ref">c</text>
    <s:alias val="$_inputExt_"/>
    <path d="M0,0 L0,20 L15,20 L30,10 L15,0 Z" class="cell_c"/>
    <g s:x="28" s:y="10" s:pid="Y"/>
  </g>
  <line x1="40" x2="52" y1="32" y2="32" class="net_4"/>
  <line x1="52" x2="52" y1="32" y2="51" class="net_4"/>
  <circle cx="52" cy="51" r="2" style="fill:#000" class="net_4"/>
  <line x1="52" x2="151.66666666666666" y1="51" y2="51" class="net_4"/>
  <line x1="40" x2="52" y1="32" y2="32" class="net_4"/>
  <line x1="52" x2="52" y1="32" y2="82" class="net_4"/>
  <circle cx="52" cy="82" r="2" style="fill:#000" class="net_4"/>
  <line x1="52" x2="82" y1="82" y2="82" class="net_4"/>
  <line x1="40" x2="52" y1="32" y2="32" class="net_4"/>
  <line x1="52" x2="52" y1="32" y2="214.5" class="net_4"/>
  <line x1="52" x2="147" y1="214.5" y2="214.5" class="net_4"/>
  <line x1="40" x2="72" y1="97" y2="97" class="net_5"/>
  <line x1="72" x2="72" y1="97" y2="66" class="net_5"/>
  <circle cx="72" cy="97" r="2" style="fill:#000" class="net_5"/>
  <line x1="72" x2="151.66666666666666" y1="66" y2="66" class="net_5"/>
  <line x1="40" x2="82" y1="97" y2="97" class="net_5"/>
  <line x1="40" x2="72" y1="97" y2="97" class="net_5"/>
  <line x1="72" x2="72" y1="97" y2="147" class="net_5"/>
  <line x1="72" x2="82" y1="147" y2="147" class="net_5"/>
  <line x1="173.66666666666666" x2="187" y1="58.5" y2="58.5" class="net_7"/>
  <line x1="187" x2="187" y1="58.5" y2="108.5" class="net_7"/>
  <line x1="187" x2="216.66666666666666" y1="108.5" y2="108.5" class="net_7"/>
  <line x1="40" x2="62" y1="162" y2="162" class="net_6"/>
  <line x1="62" x2="62" y1="162" y2="123.5" class="net_6"/>
  <circle cx="62" cy="162" r="2" style="fill:#000" class="net_6"/>
  <line x1="62" x2="216.66666666666666" y1="123.5" y2="123.5" class="net_6"/>
  <line x1="40" x2="82" y1="162" y2="162" class="net_6"/>
  <line x1="40" x2="62" y1="162" y2="162" class="net_6"/>
  <line x1="62" x2="62" y1="162" y2="199.5" class="net_6"/>
  <line x1="62" x2="147" y1="199.5" y2="199.5" class="net_6"/>
  <line x1="112" x2="122" y1="89.5" y2="89.5" class="net_8"/>
  <line x1="122" x2="122" y1="89.5" y2="139.5" class="net_8"/>
  <line x1="122" x2="150" y1="139.5" y2="139.5" class="net_8"/>
  <line x1="112" x2="150" y1="154.5" y2="154.5" class="net_9"/>
  <line x1="177" x2="187" y1="147" y2="147" class="net_11"/>
  <line x1="187" x2="187" y1="147" y2="192" class="net_11"/>
  <line x1="187" x2="215" y1="192" y2="192" class="net_11"/>
  <line x1="177" x2="215" y1="207" y2="207" class="net_10"/>
  <line x1="238.66666666666666" x2="277" y1="116" y2="116" class="net_2"/>
  <line x1="242" x2="277" y1="199.5" y2="199.5" class="net_3"/>
</svg>
