<svg xmlns="http://www.w3.org/2000/svg" xmlns:xlink="http://www.w3.org/1999/xlink" xmlns:s="https://github.com/nturley/netlistsvg" width="396" height="236">
  <style>svg {
    stroke:#000;
    fill:none;
  }
  text {
    fill:#000;
    stroke:none;
    font-size:10px;
    font-weight: bold;
    font-family: "Courier New", monospace;
  }
  .nodelabel {
    text-anchor: middle;
  }
  .inputPortLabel {
    text-anchor: end;
  }
  .splitjoinBody {
    fill:#000;
  }</style>
  <g s:type="and" transform="translate(147,93)" s:width="30" s:height="25" id="cell_$and$fullsubtractor.v:6$4">
    <s:alias val="$and"/>
    <s:alias val="$logic_and"/>
    <s:alias val="$_AND_"/>
    <path d="M0,0 L0,25 L15,25 A15 12.5 0 0 0 15,0 Z" class="cell_$and$fullsubtractor.v:6$4"/>
    <g s:x="0" s:y="5" s:pid="A"/>
    <g s:x="0" s:y="20" s:pid="B"/>
    <g s:x="30" s:y="12.5" s:pid="Y"/>
  </g>
  <g s:type="and" transform="translate(147,146.5)" s:width="30" s:height="25" id="cell_$and$fullsubtractor.v:6$5">
    <s:alias val="$and"/>
    <s:alias val="$logic_and"/>
    <s:alias val="$_AND_"/>
    <path d="M0,0 L0,25 L15,25 A15 12.5 0 0 0 15,0 Z" class="cell_$and$fullsubtractor.v:6$5"/>
    <g s:x="0" s:y="5" s:pid="A"/>
    <g s:x="0" s:y="20" s:pid="B"/>
    <g s:x="30" s:y="12.5" s:pid="Y"/>
  </g>
  <g s:type="and" transform="translate(213,199)" s:width="30" s:height="25" id="cell_$and$fullsubtractor.v:6$8">
    <s:alias val="$and"/>
    <s:alias val="$logic_and"/>
    <s:alias val="$_AND_"/>
    <path d="M0,0 L0,25 L15,25 A15 12.5 0 0 0 15,0 Z" class="cell_$and$fullsubtractor.v:6$8"/>
    <g s:x="0" s:y="5" s:pid="A"/>
    <g s:x="0" s:y="20" s:pid="B"/>
    <g s:x="30" s:y="12.5" s:pid="Y"/>
  </g>
  <g s:type="not" transform="translate(77,88)" s:width="30" s:height="20" id="cell_$not$fullsubtractor.v:6$3">
    <s:alias val="$_NOT_"/>
    <s:alias val="$not"/>
    <s:alias val="$logic_not"/>
    <path d="M0,0 L0,20 L20,10 Z" class="cell_$not$fullsubtractor.v:6$3"/>
    <circle cx="23" cy="10" r="3" class="cell_$not$fullsubtractor.v:6$3"/>
    <g s:x="0" s:y="10" s:pid="A"/>
    <g s:x="25" s:y="10" s:pid="Y"/>
  </g>
  <g s:type="or" transform="translate(213,139)" s:width="30" s:height="25" id="cell_$or$fullsubtractor.v:6$6">
    <s:alias val="$or"/>
    <s:alias val="$logic_or"/>
    <s:alias val="$_OR_"/>
    <path d="M0,25 L0,25 L15,25 A15 12.5 0 0 0 15,0 L0,0" class="cell_$or$fullsubtractor.v:6$6"/>
    <path d="M0,0 A30 25 0 0 1 0,25" class="cell_$or$fullsubtractor.v:6$6"/>
    <g s:x="3" s:y="5" s:pid="A"/>
    <g s:x="3" s:y="20" s:pid="B"/>
    <g s:x="30" s:y="12.5" s:pid="Y"/>
  </g>
  <g s:type="or" transform="translate(281,191.5)" s:width="30" s:height="25" id="cell_$or$fullsubtractor.v:6$9">
    <s:alias val="$or"/>
    <s:alias val="$logic_or"/>
    <s:alias val="$_OR_"/>
    <path d="M0,25 L0,25 L15,25 A15 12.5 0 0 0 15,0 L0,0" class="cell_$or$fullsubtractor.v:6$9"/>
    <path d="M0,0 A30 25 0 0 1 0,25" class="cell_$or$fullsubtractor.v:6$9"/>
    <g s:x="3" s:y="5" s:pid="A"/>
    <g s:x="3" s:y="20" s:pid="B"/>
    <g s:x="30" s:y="12.5" s:pid="Y"/>
  </g>
  <g s:type="reduce_xor" transform="translate(212,62)" s:width="33" s:height="25" id="cell_$xor$fullsubtractor.v:5$1">
    <s:alias val="$xor"/>
    <s:alias val="$reduce_xor"/>
    <s:alias val="$_XOR_"/>
    <path d="M3,0 A30 25 0 0 1 3,25 A30 25 0 0 0 33,12.5 A30 25 0 0 0 3,0" class="cell_$xor$fullsubtractor.v:5$1"/>
    <path d="M0,0 A30 25 0 0 1 0,25" class="cell_$xor$fullsubtractor.v:5$1"/>
    <g s:x="3" s:y="5" s:pid="A"/>
    <g s:x="3" s:y="20" s:pid="B"/>
    <g s:x="33" s:y="12.5" s:pid="Y"/>
  </g>
  <g s:type="reduce_xor" transform="translate(280,108)" s:width="33" s:height="25" id="cell_$xor$fullsubtractor.v:5$2">
    <s:alias val="$xor"/>
    <s:alias val="$reduce_xor"/>
    <s:alias val="$_XOR_"/>
    <path d="M3,0 A30 25 0 0 1 3,25 A30 25 0 0 0 33,12.5 A30 25 0 0 0 3,0" class="cell_$xor$fullsubtractor.v:5$2"/>
    <path d="M0,0 A30 25 0 0 1 0,25" class="cell_$xor$fullsubtractor.v:5$2"/>
    <g s:x="3" s:y="5" s:pid="A"/>
    <g s:x="3" s:y="20" s:pid="B"/>
    <g s:x="33" s:y="12.5" s:pid="Y"/>
  </g>
  <g s:type="inputExt" transform="translate(12,88)" s:width="30" s:height="20" id="cell_a">
    <text x="15" y="-4" class="nodelabel cell_a" s:attribute="ref">a</text>
    <s:alias val="$_inputExt_"/>
    <path d="M0,0 L0,20 L15,20 L30,10 L15,0 Z" class="cell_a"/>
    <g s:x="28" s:y="10" s:pid="Y"/>
  </g>
  <g s:type="inputExt" transform="translate(77,33)" s:width="30" s:height="20" id="cell_b">
    <text x="15" y="-4" class="nodelabel cell_b" s:attribute="ref">b</text>
    <s:alias val="$_inputExt_"/>
    <path d="M0,0 L0,20 L15,20 L30,10 L15,0 Z" class="cell_b"/>
    <g s:x="28" s:y="10" s:pid="Y"/>
  </g>
  <g s:type="inputExt" transform="translate(77,156.5)" s:width="30" s:height="20" id="cell_cin">
    <text x="15" y="-4" class="nodelabel cell_cin" s:attribute="ref">cin</text>
    <s:alias val="$_inputExt_"/>
    <path d="M0,0 L0,20 L15,20 L30,10 L15,0 Z" class="cell_cin"/>
    <g s:x="28" s:y="10" s:pid="Y"/>
  </g>
  <g s:type="outputExt" transform="translate(348,110.5)" s:width="30" s:height="20" id="cell_diff">
    <text x="15" y="-4" class="nodelabel cell_diff" s:attribute="ref">diff</text>
    <s:alias val="$_outputExt_"/>
    <path d="M30,0 L30,20 L15,20 L0,10 L15,0 Z" class="cell_diff"/>
    <g s:x="0" s:y="10" s:pid="A"/>
  </g>
  <g s:type="outputExt" transform="translate(348,194)" s:width="30" s:height="20" id="cell_borrow">
    <text x="15" y="-4" class="nodelabel cell_borrow" s:attribute="ref">borrow</text>
    <s:alias val="$_outputExt_"/>
    <path d="M30,0 L30,20 L15,20 L0,10 L15,0 Z" class="cell_borrow"/>
    <g s:x="0" s:y="10" s:pid="A"/>
  </g>
  <line x1="102" x2="147" y1="98" y2="98" class="net_7"/>
  <line x1="102" x2="117" y1="98" y2="98" class="net_7"/>
  <line x1="117" x2="117" y1="98" y2="204" class="net_7"/>
  <circle cx="117" cy="98" r="2" style="fill:#000" class="net_7"/>
  <line x1="117" x2="213" y1="204" y2="204" class="net_7"/>
  <line x1="105" x2="137" y1="43" y2="43" class="net_3"/>
  <line x1="137" x2="137" y1="43" y2="113" class="net_3"/>
  <circle cx="137" cy="113" r="2" style="fill:#000" class="net_3"/>
  <line x1="137" x2="147" y1="113" y2="113" class="net_3"/>
  <line x1="105" x2="137" y1="43" y2="43" class="net_3"/>
  <line x1="137" x2="137" y1="43" y2="151.5" class="net_3"/>
  <line x1="137" x2="147" y1="151.5" y2="151.5" class="net_3"/>
  <line x1="105" x2="137" y1="43" y2="43" class="net_3"/>
  <line x1="137" x2="137" y1="43" y2="82" class="net_3"/>
  <circle cx="137" cy="82" r="2" style="fill:#000" class="net_3"/>
  <line x1="137" x2="215" y1="82" y2="82" class="net_3"/>
  <line x1="105" x2="147" y1="166.5" y2="166.5" class="net_4"/>
  <line x1="105" x2="127" y1="166.5" y2="166.5" class="net_4"/>
  <line x1="127" x2="127" y1="166.5" y2="219" class="net_4"/>
  <circle cx="127" cy="166.5" r="2" style="fill:#000" class="net_4"/>
  <line x1="127" x2="213" y1="219" y2="219" class="net_4"/>
  <line x1="105" x2="127" y1="166.5" y2="166.5" class="net_4"/>
  <line x1="127" x2="127" y1="166.5" y2="128" class="net_4"/>
  <line x1="127" x2="283" y1="128" y2="128" class="net_4"/>
  <line x1="40" x2="77" y1="98" y2="98" class="net_2"/>
  <line x1="40" x2="52" y1="98" y2="98" class="net_2"/>
  <line x1="52" x2="52" y1="98" y2="12" class="net_2"/>
  <line x1="52" x2="187" y1="12" y2="12" class="net_2"/>
  <line x1="187" x2="187" y1="12" y2="67" class="net_2"/>
  <circle cx="52" cy="98" r="2" style="fill:#000" class="net_2"/>
  <line x1="187" x2="215" y1="67" y2="67" class="net_2"/>
  <line x1="177" x2="187" y1="105.5" y2="105.5" class="net_8"/>
  <line x1="187" x2="187" y1="105.5" y2="144" class="net_8"/>
  <line x1="187" x2="216" y1="144" y2="144" class="net_8"/>
  <line x1="177" x2="216" y1="159" y2="159" class="net_9"/>
  <line x1="243" x2="255" y1="151.5" y2="151.5" class="net_11"/>
  <line x1="255" x2="255" y1="151.5" y2="196.5" class="net_11"/>
  <line x1="255" x2="284" y1="196.5" y2="196.5" class="net_11"/>
  <line x1="243" x2="284" y1="211.5" y2="211.5" class="net_10"/>
  <line x1="245" x2="255" y1="74.5" y2="74.5" class="net_12"/>
  <line x1="255" x2="255" y1="74.5" y2="113" class="net_12"/>
  <line x1="255" x2="283" y1="113" y2="113" class="net_12"/>
  <line x1="313" x2="348" y1="120.5" y2="120.5" class="net_5"/>
  <line x1="311" x2="348" y1="204" y2="204" class="net_6"/>
</svg>
