<svg xmlns="http://www.w3.org/2000/svg" xmlns:xlink="http://www.w3.org/1999/xlink" xmlns:s="https://github.com/nturley/netlistsvg" width="329" height="282">
  <style>svg {
    stroke:#000;
    fill:none;
  }
  text {
    fill:#000;
    stroke:none;
    font-size:10px;
    font-weight: bold;
    font-family: "Courier New", monospace;
  }
  .nodelabel {
    text-anchor: middle;
  }
  .inputPortLabel {
    text-anchor: end;
  }
  .splitjoinBody {
    fill:#000;
  }</style>
  <g s:type="dff" transform="translate(222,219)" s:width="30" s:height="40" id="cell_$procdff$9">
    <s:alias val="$dff"/>
    <s:alias val="$_DFF_"/>
    <s:alias val="$_DFF_P_"/>
    <rect width="30" height="40" x="0" y="0" class="cell_$procdff$9"/>
    <path d="M0,35 L5,30 L0,25" class="cell_$procdff$9"/>
    <g s:x="30" s:y="10" s:pid="Q"/>
    <g s:x="0" s:y="30" s:pid="CLK"/>
    <g s:x="0" s:y="30" s:pid="C"/>
    <g s:x="0" s:y="10" s:pid="D"/>
  </g>
  <g s:type="mux" transform="translate(102,89.5)" s:width="20" s:height="40" id="cell_$procmux$4">
    <s:alias val="$pmux"/>
    <s:alias val="$mux"/>
    <s:alias val="$_MUX_"/>
    <path d="M0,0 L20,10 L20,30 L0,40 Z" class="cell_$procmux$4"/>
    <g s:x="0" s:y="10" s:pid="A"/>
    <g s:x="0" s:y="30" s:pid="B"/>
    <g s:x="10" s:y="35" s:pid="S"/>
    <g s:x="20" s:y="20" s:pid="Y"/>
  </g>
  <g s:type="mux" transform="translate(102,12)" s:width="20" s:height="40" id="cell_$procmux$7">
    <s:alias val="$pmux"/>
    <s:alias val="$mux"/>
    <s:alias val="$_MUX_"/>
    <path d="M0,0 L20,10 L20,30 L0,40 Z" class="cell_$procmux$7"/>
    <g s:x="0" s:y="10" s:pid="A"/>
    <g s:x="0" s:y="30" s:pid="B"/>
    <g s:x="10" s:y="35" s:pid="S"/>
    <g s:x="20" s:y="20" s:pid="Y"/>
  </g>
  <g s:type="inputExt" transform="translate(157,239)" s:width="30" s:height="20" id="cell_clk">
    <text x="15" y="-4" class="nodelabel cell_clk" s:attribute="ref">clk</text>
    <s:alias val="$_inputExt_"/>
    <path d="M0,0 L0,20 L15,20 L30,10 L15,0 Z" class="cell_clk"/>
    <g s:x="28" s:y="10" s:pid="Y"/>
  </g>
  <g s:type="inputExt" transform="translate(32,174)" s:width="30" s:height="20" id="cell_init">
    <text x="15" y="-4" class="nodelabel cell_init" s:attribute="ref">init</text>
    <s:alias val="$_inputExt_"/>
    <path d="M0,0 L0,20 L15,20 L30,10 L15,0 Z" class="cell_init"/>
    <g s:x="28" s:y="10" s:pid="Y"/>
  </g>
  <g s:type="outputExt" transform="translate(287,219)" s:width="30" s:height="20" id="cell_count">
    <text x="15" y="-4" class="nodelabel cell_count" s:attribute="ref">count</text>
    <s:alias val="$_outputExt_"/>
    <path d="M30,0 L30,20 L15,20 L0,10 L15,0 Z" class="cell_count"/>
    <g s:x="0" s:y="10" s:pid="A"/>
  </g>
  <g s:type="constant" transform="translate(32,239)" s:width="30" s:height="20" id="cell_100">
    <text x="15" y="-4" class="nodelabel cell_100" s:attribute="ref">100</text>
    <s:alias val="$_constant_"/>
    <rect width="30" height="20" class="cell_100"/>
    <g s:x="30" s:y="10" s:pid="Y"/>
  </g>
  <g s:type="constant" transform="translate(32,32)" s:width="30" s:height="20" id="cell_0">
    <text x="15" y="-4" class="nodelabel cell_0" s:attribute="ref">0</text>
    <s:alias val="$_constant_"/>
    <rect width="30" height="20" class="cell_0"/>
    <g s:x="30" s:y="10" s:pid="Y"/>
  </g>
  <g s:type="join" transform="translate(168,79)" s:width="4" s:height="40" id="cell_$join$,8,9,10,11,">
    <rect width="5" height="40" class="splitjoinBody" s:generic="body"/>
    <s:alias val="$_join_"/>
    <g s:x="5" s:y="20" s:pid="out"/>
    <g transform="translate(0,10)" s:x="0" s:y="10" s:pid="in0">
      <text x="-3" y="-4" class="inputPortLabel">0</text>
    </g>
    <g transform="translate(0,30)" s:x="0" s:y="10" s:pid="in0">
      <text x="-3" y="-4" class="inputPortLabel">1:3</text>
    </g>
  </g>
  <g s:type="split" transform="translate(38,89)" s:width="5" s:height="40" id="cell_$split$,4,5,6,7,">
    <rect width="5" height="40" class="splitjoinBody" s:generic="body"/>
    <s:alias val="$_split_"/>
    <g s:x="0" s:y="20" s:pid="in"/>
    <g transform="translate(4,10)" s:x="4" s:y="10" s:pid="out0">
      <text x="5" y="-4">0:2</text>
    </g>
    <g transform="translate(4,30)" s:x="4" s:y="10" s:pid="out0">
      <text x="5" y="-4">3</text>
    </g>
  </g>
  <line x1="185" x2="222" y1="249" y2="249" class="net_2"/>
  <line x1="174" x2="197" y1="99.5" y2="99.5" class="net_8,9,10,11"/>
  <line x1="197" x2="197" y1="99.5" y2="229" class="net_8,9,10,11"/>
  <line x1="197" x2="222" y1="229" y2="229" class="net_8,9,10,11"/>
  <line x1="43" x2="102" y1="99.5" y2="99.5" class="net_4,5,6"/>
  <line x1="62" x2="92" y1="249" y2="249" class="net_12,13,14"/>
  <line x1="92" x2="92" y1="249" y2="119.5" class="net_12,13,14"/>
  <line x1="92" x2="102" y1="119.5" y2="119.5" class="net_12,13,14"/>
  <line x1="60" x2="112" y1="184" y2="184" class="net_3"/>
  <line x1="112" x2="112" y1="184" y2="124.5" class="net_3"/>
  <line x1="60" x2="82" y1="184" y2="184" class="net_3"/>
  <line x1="82" x2="82" y1="184" y2="79.5" class="net_3"/>
  <line x1="82" x2="112" y1="79.5" y2="79.5" class="net_3"/>
  <circle cx="82" cy="184" r="2" style="fill:#000" class="net_3"/>
  <line x1="112" x2="112" y1="79.5" y2="47" class="net_3"/>
  <line x1="43" x2="72" y1="119.5" y2="119.5" class="net_7"/>
  <line x1="72" x2="72" y1="119.5" y2="22" class="net_7"/>
  <line x1="72" x2="102" y1="22" y2="22" class="net_7"/>
  <line x1="62" x2="102" y1="42" y2="42" class="net_15"/>
  <line x1="252" x2="287" y1="229" y2="229" class="net_4,5,6,7"/>
  <line x1="252" x2="262" y1="229" y2="229" class="net_4,5,6,7"/>
  <line x1="262" x2="262" y1="229" y2="269" class="net_4,5,6,7"/>
  <line x1="262" x2="12" y1="269" y2="269" class="net_4,5,6,7"/>
  <line x1="12" x2="12" y1="269" y2="109.5" class="net_4,5,6,7"/>
  <circle cx="262" cy="229" r="2" style="fill:#000" class="net_4,5,6,7"/>
  <line x1="12" x2="38" y1="109.5" y2="109.5" class="net_4,5,6,7"/>
  <line x1="122" x2="132" y1="32" y2="32" class="net_8"/>
  <line x1="132" x2="132" y1="32" y2="89.5" class="net_8"/>
  <line x1="132" x2="168" y1="89.5" y2="89.5" class="net_8"/>
  <line x1="122" x2="168" y1="109.5" y2="109.5" class="net_9,10,11"/>
</svg>
