<svg xmlns="http://www.w3.org/2000/svg" xmlns:xlink="http://www.w3.org/1999/xlink" xmlns:s="https://github.com/nturley/netlistsvg" width="269" height="170">
  <style>svg {
    stroke:#000;
    fill:none;
  }
  text {
    fill:#000;
    stroke:none;
    font-size:10px;
    font-weight: bold;
    font-family: "Courier New", monospace;
  }
  .nodelabel {
    text-anchor: middle;
  }
  .inputPortLabel {
    text-anchor: end;
  }
  .splitjoinBody {
    fill:#000;
  }</style>
  <g s:type="not" transform="translate(32,43)" s:width="30" s:height="20" id="cell_$not$tff.v:11$2">
    <s:alias val="$_NOT_"/>
    <s:alias val="$not"/>
    <s:alias val="$logic_not"/>
    <path d="M0,0 L0,20 L20,10 Z" class="cell_$not$tff.v:11$2"/>
    <circle cx="23" cy="10" r="3" class="cell_$not$tff.v:11$2"/>
    <g s:x="0" s:y="10" s:pid="A"/>
    <g s:x="25" s:y="10" s:pid="Y"/>
  </g>
  <g s:type="dff" transform="translate(162,33)" s:width="30" s:height="40" id="cell_$procdff$7">
    <s:alias val="$dff"/>
    <s:alias val="$_DFF_"/>
    <s:alias val="$_DFF_P_"/>
    <rect width="30" height="40" x="0" y="0" class="cell_$procdff$7"/>
    <path d="M0,35 L5,30 L0,25" class="cell_$procdff$7"/>
    <g s:x="30" s:y="10" s:pid="Q"/>
    <g s:x="0" s:y="30" s:pid="CLK"/>
    <g s:x="0" s:y="30" s:pid="C"/>
    <g s:x="0" s:y="10" s:pid="D"/>
  </g>
  <g s:type="mux" transform="translate(103.66666666666667,23)" s:width="20" s:height="40" id="cell_$procmux$5">
    <s:alias val="$pmux"/>
    <s:alias val="$mux"/>
    <s:alias val="$_MUX_"/>
    <path d="M0,0 L20,10 L20,30 L0,40 Z" class="cell_$procmux$5"/>
    <g s:x="0" s:y="10" s:pid="A"/>
    <g s:x="0" s:y="30" s:pid="B"/>
    <g s:x="10" s:y="35" s:pid="S"/>
    <g s:x="20" s:y="20" s:pid="Y"/>
  </g>
  <g s:type="inputExt" transform="translate(32,108)" s:width="30" s:height="20" id="cell_t">
    <text x="15" y="-4" class="nodelabel cell_t" s:attribute="ref">t</text>
    <s:alias val="$_inputExt_"/>
    <path d="M0,0 L0,20 L15,20 L30,10 L15,0 Z" class="cell_t"/>
    <g s:x="28" s:y="10" s:pid="Y"/>
  </g>
  <g s:type="inputExt" transform="translate(97,138)" s:width="30" s:height="20" id="cell_clock">
    <text x="15" y="-4" class="nodelabel cell_clock" s:attribute="ref">clock</text>
    <s:alias val="$_inputExt_"/>
    <path d="M0,0 L0,20 L15,20 L30,10 L15,0 Z" class="cell_clock"/>
    <g s:x="28" s:y="10" s:pid="Y"/>
  </g>
  <g s:type="outputExt" transform="translate(227,33)" s:width="30" s:height="20" id="cell_q">
    <text x="15" y="-4" class="nodelabel cell_q" s:attribute="ref">q</text>
    <s:alias val="$_outputExt_"/>
    <path d="M30,0 L30,20 L15,20 L0,10 L15,0 Z" class="cell_q"/>
    <g s:x="0" s:y="10" s:pid="A"/>
  </g>
  <line x1="192" x2="202" y1="43" y2="43" class="net_4"/>
  <line x1="202" x2="202" y1="43" y2="12" class="net_4"/>
  <line x1="202" x2="12" y1="12" y2="12" class="net_4"/>
  <line x1="12" x2="12" y1="12" y2="53" class="net_4"/>
  <circle cx="202" cy="43" r="2" style="fill:#000" class="net_4"/>
  <line x1="12" x2="32" y1="53" y2="53" class="net_4"/>
  <line x1="192" x2="202" y1="43" y2="43" class="net_4"/>
  <line x1="202" x2="202" y1="43" y2="12" class="net_4"/>
  <line x1="202" x2="72" y1="12" y2="12" class="net_4"/>
  <line x1="72" x2="72" y1="12" y2="33" class="net_4"/>
  <circle cx="72" cy="12" r="2" style="fill:#000" class="net_4"/>
  <line x1="72" x2="103.66666666666667" y1="33" y2="33" class="net_4"/>
  <line x1="192" x2="227" y1="43" y2="43" class="net_4"/>
  <line x1="125" x2="137" y1="148" y2="148" class="net_3"/>
  <line x1="137" x2="137" y1="148" y2="63" class="net_3"/>
  <line x1="137" x2="162" y1="63" y2="63" class="net_3"/>
  <line x1="123.66666666666667" x2="162" y1="43" y2="43" class="net_6"/>
  <line x1="57" x2="103.66666666666667" y1="53" y2="53" class="net_5"/>
  <line x1="60" x2="113.66666666666667" y1="118" y2="118" class="net_2"/>
  <line x1="113.66666666666667" x2="113.66666666666667" y1="118" y2="58" class="net_2"/>
</svg>
