<svg xmlns="http://www.w3.org/2000/svg" xmlns:xlink="http://www.w3.org/1999/xlink" xmlns:s="https://github.com/nturley/netlistsvg" width="423" height="596.5">
  <style>svg {
    stroke:#000;
    fill:none;
  }
  text {
    fill:#000;
    stroke:none;
    font-size:10px;
    font-weight: bold;
    font-family: "Courier New", monospace;
  }
  .nodelabel {
    text-anchor: middle;
  }
  .inputPortLabel {
    text-anchor: end;
  }
  .splitjoinBody {
    fill:#000;
  }</style>
  <g s:type="not" transform="translate(119,564.5)" s:width="30" s:height="20" id="cell_$procmux$10_CMP0">
    <s:alias val="$_NOT_"/>
    <s:alias val="$not"/>
    <s:alias val="$logic_not"/>
    <path d="M0,0 L0,20 L20,10 Z" class="cell_$procmux$10_CMP0"/>
    <circle cx="23" cy="10" r="3" class="cell_$procmux$10_CMP0"/>
    <g s:x="0" s:y="10" s:pid="A"/>
    <g s:x="25" s:y="10" s:pid="Y"/>
  </g>
  <g s:type="mux" transform="translate(326,12)" s:width="20" s:height="40" id="cell_$procmux$2">
    <s:alias val="$pmux"/>
    <s:alias val="$mux"/>
    <s:alias val="$_MUX_"/>
    <path d="M0,0 L20,10 L20,30 L0,40 Z" class="cell_$procmux$2"/>
    <g s:x="0" s:y="10" s:pid="A"/>
    <g s:x="0" s:y="30" s:pid="B"/>
    <g s:x="10" s:y="35" s:pid="S"/>
    <g s:x="20" s:y="20" s:pid="Y"/>
  </g>
  <g s:type="eq" transform="translate(120.66666666666667,49.5)" s:width="25" s:height="25" id="cell_$procmux$3_CMP0">
    <s:alias val="$eq"/>
    <circle r="12.5" cx="12.5" cy="12.5" class="cell_$procmux$3_CMP0"/>
    <line x1="7.5" x2="17.5" y1="10" y2="10" class="cell_$procmux$3_CMP0"/>
    <line x1="7.5" x2="17.5" y1="15" y2="15" class="cell_$procmux$3_CMP0"/>
    <g s:x="3" s:y="5" s:pid="A"/>
    <g s:x="3" s:y="20" s:pid="B"/>
    <g s:x="25" s:y="12.5" s:pid="Y"/>
  </g>
  <g s:type="eq" transform="translate(120.66666666666667,114.5)" s:width="25" s:height="25" id="cell_$procmux$4_CMP0">
    <s:alias val="$eq"/>
    <circle r="12.5" cx="12.5" cy="12.5" class="cell_$procmux$4_CMP0"/>
    <line x1="7.5" x2="17.5" y1="10" y2="10" class="cell_$procmux$4_CMP0"/>
    <line x1="7.5" x2="17.5" y1="15" y2="15" class="cell_$procmux$4_CMP0"/>
    <g s:x="3" s:y="5" s:pid="A"/>
    <g s:x="3" s:y="20" s:pid="B"/>
    <g s:x="25" s:y="12.5" s:pid="Y"/>
  </g>
  <g s:type="eq" transform="translate(120.66666666666667,179.5)" s:width="25" s:height="25" id="cell_$procmux$5_CMP0">
    <s:alias val="$eq"/>
    <circle r="12.5" cx="12.5" cy="12.5" class="cell_$procmux$5_CMP0"/>
    <line x1="7.5" x2="17.5" y1="10" y2="10" class="cell_$procmux$5_CMP0"/>
    <line x1="7.5" x2="17.5" y1="15" y2="15" class="cell_$procmux$5_CMP0"/>
    <g s:x="3" s:y="5" s:pid="A"/>
    <g s:x="3" s:y="20" s:pid="B"/>
    <g s:x="25" s:y="12.5" s:pid="Y"/>
  </g>
  <g s:type="eq" transform="translate(120.66666666666667,259.5)" s:width="25" s:height="25" id="cell_$procmux$6_CMP0">
    <s:alias val="$eq"/>
    <circle r="12.5" cx="12.5" cy="12.5" class="cell_$procmux$6_CMP0"/>
    <line x1="7.5" x2="17.5" y1="10" y2="10" class="cell_$procmux$6_CMP0"/>
    <line x1="7.5" x2="17.5" y1="15" y2="15" class="cell_$procmux$6_CMP0"/>
    <g s:x="3" s:y="5" s:pid="A"/>
    <g s:x="3" s:y="20" s:pid="B"/>
    <g s:x="25" s:y="12.5" s:pid="Y"/>
  </g>
  <g s:type="eq" transform="translate(120.66666666666667,374.5)" s:width="25" s:height="25" id="cell_$procmux$7_CMP0">
    <s:alias val="$eq"/>
    <circle r="12.5" cx="12.5" cy="12.5" class="cell_$procmux$7_CMP0"/>
    <line x1="7.5" x2="17.5" y1="10" y2="10" class="cell_$procmux$7_CMP0"/>
    <line x1="7.5" x2="17.5" y1="15" y2="15" class="cell_$procmux$7_CMP0"/>
    <g s:x="3" s:y="5" s:pid="A"/>
    <g s:x="3" s:y="20" s:pid="B"/>
    <g s:x="25" s:y="12.5" s:pid="Y"/>
  </g>
  <g s:type="eq" transform="translate(120.66666666666667,439.5)" s:width="25" s:height="25" id="cell_$procmux$8_CMP0">
    <s:alias val="$eq"/>
    <circle r="12.5" cx="12.5" cy="12.5" class="cell_$procmux$8_CMP0"/>
    <line x1="7.5" x2="17.5" y1="10" y2="10" class="cell_$procmux$8_CMP0"/>
    <line x1="7.5" x2="17.5" y1="15" y2="15" class="cell_$procmux$8_CMP0"/>
    <g s:x="3" s:y="5" s:pid="A"/>
    <g s:x="3" s:y="20" s:pid="B"/>
    <g s:x="25" s:y="12.5" s:pid="Y"/>
  </g>
  <g s:type="eq" transform="translate(120.66666666666667,504.5)" s:width="25" s:height="25" id="cell_$procmux$9_CMP0">
    <s:alias val="$eq"/>
    <circle r="12.5" cx="12.5" cy="12.5" class="cell_$procmux$9_CMP0"/>
    <line x1="7.5" x2="17.5" y1="10" y2="10" class="cell_$procmux$9_CMP0"/>
    <line x1="7.5" x2="17.5" y1="15" y2="15" class="cell_$procmux$9_CMP0"/>
    <g s:x="3" s:y="5" s:pid="A"/>
    <g s:x="3" s:y="20" s:pid="B"/>
    <g s:x="25" s:y="12.5" s:pid="Y"/>
  </g>
  <g s:type="inputExt" transform="translate(54,254.5)" s:width="30" s:height="20" id="cell_in">
    <text x="15" y="-4" class="nodelabel cell_in" s:attribute="ref">in</text>
    <s:alias val="$_inputExt_"/>
    <path d="M0,0 L0,20 L15,20 L30,10 L15,0 Z" class="cell_in"/>
    <g s:x="28" s:y="10" s:pid="Y"/>
  </g>
  <g s:type="outputExt" transform="translate(381,22)" s:width="30" s:height="20" id="cell_out">
    <text x="15" y="-4" class="nodelabel cell_out" s:attribute="ref">out</text>
    <s:alias val="$_outputExt_"/>
    <path d="M30,0 L30,20 L15,20 L0,10 L15,0 Z" class="cell_out"/>
    <g s:x="0" s:y="10" s:pid="A"/>
  </g>
  <g s:type="inputExt" transform="translate(12,22)" s:width="30" s:height="20" id="cell_en">
    <text x="15" y="-4" class="nodelabel cell_en" s:attribute="ref">en</text>
    <s:alias val="$_inputExt_"/>
    <path d="M0,0 L0,20 L15,20 L30,10 L15,0 Z" class="cell_en"/>
    <g s:x="28" s:y="10" s:pid="Y"/>
  </g>
  <g s:type="constant" transform="translate(189,32)" s:width="30" s:height="20" id="cell_0000000100000010000001000000100000010000001000000100000010000000">
    <text x="15" y="-4" class="nodelabel cell_0000000100000010000001000000100000010000001000000100000010000000" s:attribute="ref">0x102040810204080</text>
    <s:alias val="$_constant_"/>
    <rect width="30" height="20" class="cell_0000000100000010000001000000100000010000001000000100000010000000"/>
    <g s:x="30" s:y="10" s:pid="Y"/>
  </g>
  <g s:type="constant" transform="translate(54,59.5)" s:width="30" s:height="20" id="cell_111">
    <text x="15" y="-4" class="nodelabel cell_111" s:attribute="ref">111</text>
    <s:alias val="$_constant_"/>
    <rect width="30" height="20" class="cell_111"/>
    <g s:x="30" s:y="10" s:pid="Y"/>
  </g>
  <g s:type="constant" transform="translate(54,124.5)" s:width="30" s:height="20" id="cell_110">
    <text x="15" y="-4" class="nodelabel cell_110" s:attribute="ref">110</text>
    <s:alias val="$_constant_"/>
    <rect width="30" height="20" class="cell_110"/>
    <g s:x="30" s:y="10" s:pid="Y"/>
  </g>
  <g s:type="constant" transform="translate(54,189.5)" s:width="30" s:height="20" id="cell_101">
    <text x="15" y="-4" class="nodelabel cell_101" s:attribute="ref">101</text>
    <s:alias val="$_constant_"/>
    <rect width="30" height="20" class="cell_101"/>
    <g s:x="30" s:y="10" s:pid="Y"/>
  </g>
  <g s:type="constant" transform="translate(54,319.5)" s:width="30" s:height="20" id="cell_100">
    <text x="15" y="-4" class="nodelabel cell_100" s:attribute="ref">100</text>
    <s:alias val="$_constant_"/>
    <rect width="30" height="20" class="cell_100"/>
    <g s:x="30" s:y="10" s:pid="Y"/>
  </g>
  <g s:type="constant" transform="translate(54,384.5)" s:width="30" s:height="20" id="cell_11">
    <text x="15" y="-4" class="nodelabel cell_11" s:attribute="ref">11</text>
    <s:alias val="$_constant_"/>
    <rect width="30" height="20" class="cell_11"/>
    <g s:x="30" s:y="10" s:pid="Y"/>
  </g>
  <g s:type="constant" transform="translate(54,449.5)" s:width="30" s:height="20" id="cell_10">
    <text x="15" y="-4" class="nodelabel cell_10" s:attribute="ref">10</text>
    <s:alias val="$_constant_"/>
    <rect width="30" height="20" class="cell_10"/>
    <g s:x="30" s:y="10" s:pid="Y"/>
  </g>
  <g s:type="constant" transform="translate(54,514.5)" s:width="30" s:height="20" id="cell_1">
    <text x="15" y="-4" class="nodelabel cell_1" s:attribute="ref">1</text>
    <s:alias val="$_constant_"/>
    <rect width="30" height="20" class="cell_1"/>
    <g s:x="30" s:y="10" s:pid="Y"/>
  </g>
  <g s:type="join" transform="translate(203,201.5)" s:width="4" s:height="40" id="cell_$join$,15,16,17,18,19,20,21,14,">
    <rect width="5" height="160" class="splitjoinBody" s:generic="body"/>
    <s:alias val="$_join_"/>
    <g s:x="5" s:y="20" s:pid="out"/>
    <g transform="translate(0,10)" s:x="0" s:y="10" s:pid="in0">
      <text x="-3" y="-4" class="inputPortLabel">0</text>
    </g>
    <g transform="translate(0,30)" s:x="0" s:y="10" s:pid="in0">
      <text x="-3" y="-4" class="inputPortLabel">1</text>
    </g>
    <g transform="translate(0,50)" s:x="0" s:y="10" s:pid="in0">
      <text x="-3" y="-4" class="inputPortLabel">2</text>
    </g>
    <g transform="translate(0,70)" s:x="0" s:y="10" s:pid="in0">
      <text x="-3" y="-4" class="inputPortLabel">3</text>
    </g>
    <g transform="translate(0,90)" s:x="0" s:y="10" s:pid="in0">
      <text x="-3" y="-4" class="inputPortLabel">4</text>
    </g>
    <g transform="translate(0,110)" s:x="0" s:y="10" s:pid="in0">
      <text x="-3" y="-4" class="inputPortLabel">5</text>
    </g>
    <g transform="translate(0,130)" s:x="0" s:y="10" s:pid="in0">
      <text x="-3" y="-4" class="inputPortLabel">6</text>
    </g>
    <g transform="translate(0,150)" s:x="0" s:y="10" s:pid="in0">
      <text x="-3" y="-4" class="inputPortLabel">7</text>
    </g>
  </g>
  <line x1="82" x2="104" y1="264.5" y2="264.5" class="net_2,3,4"/>
  <line x1="104" x2="104" y1="264.5" y2="574.5" class="net_2,3,4"/>
  <circle cx="104" cy="264.5" r="2" style="fill:#000" class="net_2,3,4"/>
  <line x1="104" x2="119" y1="574.5" y2="574.5" class="net_2,3,4"/>
  <line x1="82" x2="104" y1="264.5" y2="264.5" class="net_2,3,4"/>
  <line x1="104" x2="104" y1="264.5" y2="54.5" class="net_2,3,4"/>
  <line x1="104" x2="123.66666666666667" y1="54.5" y2="54.5" class="net_2,3,4"/>
  <line x1="82" x2="104" y1="264.5" y2="264.5" class="net_2,3,4"/>
  <line x1="104" x2="104" y1="264.5" y2="119.5" class="net_2,3,4"/>
  <circle cx="104" cy="119.5" r="2" style="fill:#000" class="net_2,3,4"/>
  <line x1="104" x2="123.66666666666667" y1="119.5" y2="119.5" class="net_2,3,4"/>
  <line x1="82" x2="104" y1="264.5" y2="264.5" class="net_2,3,4"/>
  <line x1="104" x2="104" y1="264.5" y2="184.5" class="net_2,3,4"/>
  <circle cx="104" cy="184.5" r="2" style="fill:#000" class="net_2,3,4"/>
  <line x1="104" x2="123.66666666666667" y1="184.5" y2="184.5" class="net_2,3,4"/>
  <line x1="82" x2="123.66666666666667" y1="264.5" y2="264.5" class="net_2,3,4"/>
  <line x1="82" x2="104" y1="264.5" y2="264.5" class="net_2,3,4"/>
  <line x1="104" x2="104" y1="264.5" y2="379.5" class="net_2,3,4"/>
  <circle cx="104" cy="379.5" r="2" style="fill:#000" class="net_2,3,4"/>
  <line x1="104" x2="123.66666666666667" y1="379.5" y2="379.5" class="net_2,3,4"/>
  <line x1="82" x2="104" y1="264.5" y2="264.5" class="net_2,3,4"/>
  <line x1="104" x2="104" y1="264.5" y2="444.5" class="net_2,3,4"/>
  <circle cx="104" cy="444.5" r="2" style="fill:#000" class="net_2,3,4"/>
  <line x1="104" x2="123.66666666666667" y1="444.5" y2="444.5" class="net_2,3,4"/>
  <line x1="82" x2="104" y1="264.5" y2="264.5" class="net_2,3,4"/>
  <line x1="104" x2="104" y1="264.5" y2="509.5" class="net_2,3,4"/>
  <circle cx="104" cy="509.5" r="2" style="fill:#000" class="net_2,3,4"/>
  <line x1="104" x2="123.66666666666667" y1="509.5" y2="509.5" class="net_2,3,4"/>
  <line x1="219" x2="326" y1="42" y2="42" class="net_22,23,24,25,26,27,28,29,30,31,32,33,34,35,36,37,38,39,40,41,42,43,44,45,46,47,48,49,50,51,52,53,54,55,56,57,58,59,60,61,62,63,64,65,66,67,68,69,70,71,72,73,74,75,76,77,78,79,80,81,82,83,84,85"/>
  <line x1="209" x2="336" y1="222" y2="222" class="net_15,16,17,18,19,20,21,14"/>
  <line x1="336" x2="336" y1="222" y2="47" class="net_15,16,17,18,19,20,21,14"/>
  <line x1="84" x2="123.66666666666667" y1="69.5" y2="69.5" class="net_86,87,88"/>
  <line x1="84" x2="123.66666666666667" y1="134.5" y2="134.5" class="net_89,90,91"/>
  <line x1="84" x2="123.66666666666667" y1="199.5" y2="199.5" class="net_92,93,94"/>
  <line x1="84" x2="94" y1="329.5" y2="329.5" class="net_95,96,97"/>
  <line x1="94" x2="94" y1="329.5" y2="279.5" class="net_95,96,97"/>
  <line x1="94" x2="123.66666666666667" y1="279.5" y2="279.5" class="net_95,96,97"/>
  <line x1="84" x2="123.66666666666667" y1="394.5" y2="394.5" class="net_98,99"/>
  <line x1="84" x2="123.66666666666667" y1="459.5" y2="459.5" class="net_100,101"/>
  <line x1="84" x2="123.66666666666667" y1="524.5" y2="524.5" class="net_102"/>
  <line x1="346" x2="381" y1="32" y2="32" class="net_5,6,7,8,9,10,11,12"/>
  <line x1="145.66666666666669" x2="203.5" y1="62" y2="62" class="net_15"/>
  <line x1="203.5" x2="203.5" y1="62" y2="211.5" class="net_15"/>
  <line x1="145.66666666666669" x2="169" y1="127" y2="127" class="net_16"/>
  <line x1="169" x2="169" y1="127" y2="232" class="net_16"/>
  <line x1="169" x2="203" y1="232" y2="232" class="net_16"/>
  <line x1="145.66666666666669" x2="159" y1="192" y2="192" class="net_17"/>
  <line x1="159" x2="159" y1="192" y2="252" class="net_17"/>
  <line x1="159" x2="203" y1="252" y2="252" class="net_17"/>
  <line x1="145.66666666666669" x2="203" y1="272" y2="272" class="net_18"/>
  <line x1="145.66666666666669" x2="159" y1="387" y2="387" class="net_19"/>
  <line x1="159" x2="159" y1="387" y2="292" class="net_19"/>
  <line x1="159" x2="203" y1="292" y2="292" class="net_19"/>
  <line x1="145.66666666666669" x2="169" y1="452" y2="452" class="net_20"/>
  <line x1="169" x2="169" y1="452" y2="312" class="net_20"/>
  <line x1="169" x2="203" y1="312" y2="312" class="net_20"/>
  <line x1="145.66666666666669" x2="179" y1="517" y2="517" class="net_21"/>
  <line x1="179" x2="179" y1="517" y2="332" class="net_21"/>
  <line x1="179" x2="203" y1="332" y2="332" class="net_21"/>
  <line x1="144" x2="203.5" y1="574.5" y2="574.5" class="net_14"/>
  <line x1="203.5" x2="203.5" y1="574.5" y2="352.5" class="net_14"/>
</svg>
