<svg xmlns="http://www.w3.org/2000/svg" xmlns:xlink="http://www.w3.org/1999/xlink" xmlns:s="https://github.com/nturley/netlistsvg" width="851" height="310.5">
  <style>svg {
    stroke:#000;
    fill:none;
  }
  text {
    fill:#000;
    stroke:none;
    font-size:10px;
    font-weight: bold;
    font-family: "Courier New", monospace;
  }
  .nodelabel {
    text-anchor: middle;
  }
  .inputPortLabel {
    text-anchor: end;
  }
  .splitjoinBody {
    fill:#000;
  }</style>
  <g s:type="not" transform="translate(267,203.5)" s:width="30" s:height="20" id="cell_$auto$proc_dlatch.cc:238:make_hold$10">
    <s:alias val="$_NOT_"/>
    <s:alias val="$not"/>
    <s:alias val="$logic_not"/>
    <path d="M0,0 L0,20 L20,10 Z" class="cell_$auto$proc_dlatch.cc:238:make_hold$10"/>
    <circle cx="23" cy="10" r="3" class="cell_$auto$proc_dlatch.cc:238:make_hold$10"/>
    <g s:x="0" s:y="10" s:pid="A"/>
    <g s:x="25" s:y="10" s:pid="Y"/>
  </g>
  <g s:type="not" transform="translate(202,146)" s:width="30" s:height="20" id="cell_$auto$proc_dlatch.cc:238:make_hold$12">
    <s:alias val="$_NOT_"/>
    <s:alias val="$not"/>
    <s:alias val="$logic_not"/>
    <path d="M0,0 L0,20 L20,10 Z" class="cell_$auto$proc_dlatch.cc:238:make_hold$12"/>
    <circle cx="23" cy="10" r="3" class="cell_$auto$proc_dlatch.cc:238:make_hold$12"/>
    <g s:x="0" s:y="10" s:pid="A"/>
    <g s:x="25" s:y="10" s:pid="Y"/>
  </g>
  <g s:type="not" transform="translate(202,105)" s:width="30" s:height="20" id="cell_$auto$proc_dlatch.cc:238:make_hold$14">
    <s:alias val="$_NOT_"/>
    <s:alias val="$not"/>
    <s:alias val="$logic_not"/>
    <path d="M0,0 L0,20 L20,10 Z" class="cell_$auto$proc_dlatch.cc:238:make_hold$14"/>
    <circle cx="23" cy="10" r="3" class="cell_$auto$proc_dlatch.cc:238:make_hold$14"/>
    <g s:x="0" s:y="10" s:pid="A"/>
    <g s:x="25" s:y="10" s:pid="Y"/>
  </g>
  <g s:type="not" transform="translate(332,268.5)" s:width="30" s:height="20" id="cell_$auto$proc_dlatch.cc:238:make_hold$8">
    <s:alias val="$_NOT_"/>
    <s:alias val="$not"/>
    <s:alias val="$logic_not"/>
    <path d="M0,0 L0,20 L20,10 Z" class="cell_$auto$proc_dlatch.cc:238:make_hold$8"/>
    <circle cx="23" cy="10" r="3" class="cell_$auto$proc_dlatch.cc:238:make_hold$8"/>
    <g s:x="0" s:y="10" s:pid="A"/>
    <g s:x="25" s:y="10" s:pid="Y"/>
  </g>
  <g s:type="and" transform="translate(267,151)" s:width="30" s:height="25" id="cell_$auto$proc_dlatch.cc:251:make_hold$22">
    <s:alias val="$and"/>
    <s:alias val="$logic_and"/>
    <s:alias val="$_AND_"/>
    <path d="M0,0 L0,25 L15,25 A15 12.5 0 0 0 15,0 Z" class="cell_$auto$proc_dlatch.cc:251:make_hold$22"/>
    <g s:x="0" s:y="5" s:pid="A"/>
    <g s:x="0" s:y="20" s:pid="B"/>
    <g s:x="30" s:y="12.5" s:pid="Y"/>
  </g>
  <g s:type="and" transform="translate(332,208.5)" s:width="30" s:height="25" id="cell_$auto$proc_dlatch.cc:251:make_hold$26">
    <s:alias val="$and"/>
    <s:alias val="$logic_and"/>
    <s:alias val="$_AND_"/>
    <path d="M0,0 L0,25 L15,25 A15 12.5 0 0 0 15,0 Z" class="cell_$auto$proc_dlatch.cc:251:make_hold$26"/>
    <g s:x="0" s:y="5" s:pid="A"/>
    <g s:x="0" s:y="20" s:pid="B"/>
    <g s:x="30" s:y="12.5" s:pid="Y"/>
  </g>
  <g s:type="and" transform="translate(397,273.5)" s:width="30" s:height="25" id="cell_$auto$proc_dlatch.cc:251:make_hold$30">
    <s:alias val="$and"/>
    <s:alias val="$logic_and"/>
    <s:alias val="$_AND_"/>
    <path d="M0,0 L0,25 L15,25 A15 12.5 0 0 0 15,0 Z" class="cell_$auto$proc_dlatch.cc:251:make_hold$30"/>
    <g s:x="0" s:y="5" s:pid="A"/>
    <g s:x="0" s:y="20" s:pid="B"/>
    <g s:x="30" s:y="12.5" s:pid="Y"/>
  </g>
  <g s:type="not" transform="translate(462,276)" s:width="30" s:height="20" id="cell_$auto$proc_dlatch.cc:409:proc_dlatch$34">
    <s:alias val="$_NOT_"/>
    <s:alias val="$not"/>
    <s:alias val="$logic_not"/>
    <path d="M0,0 L0,20 L20,10 Z" class="cell_$auto$proc_dlatch.cc:409:proc_dlatch$34"/>
    <circle cx="23" cy="10" r="3" class="cell_$auto$proc_dlatch.cc:409:proc_dlatch$34"/>
    <g s:x="0" s:y="10" s:pid="A"/>
    <g s:x="25" s:y="10" s:pid="Y"/>
  </g>
  <g s:type="generic" transform="translate(540,255.5)" s:width="30" s:height="40" id="cell_$auto$proc_dlatch.cc:409:proc_dlatch$36">
    <text x="15" y="-4" class="nodelabel cell_$auto$proc_dlatch.cc:409:proc_dlatch$36" s:attribute="ref">$dlatch</text>
    <rect width="30" height="40" s:generic="body" class="cell_$auto$proc_dlatch.cc:409:proc_dlatch$36"/>
    <g transform="translate(0,10)" s:x="0" s:y="10" s:pid="in0" id="port_$auto$proc_dlatch.cc:409:proc_dlatch$36~D">
      <text x="-3" y="-4" class="inputPortLabel cell_$auto$proc_dlatch.cc:409:proc_dlatch$36">D</text>
    </g>
    <g transform="translate(0,30)" s:x="0" s:y="10" s:pid="in0" id="port_$auto$proc_dlatch.cc:409:proc_dlatch$36~EN">
      <text x="-3" y="-4" class="inputPortLabel cell_$auto$proc_dlatch.cc:409:proc_dlatch$36">EN</text>
    </g>
    <g transform="translate(30,10)" s:x="30" s:y="10" s:pid="out0" id="port_$auto$proc_dlatch.cc:409:proc_dlatch$36~Q">
      <text x="5" y="-4" style="fill:#000; stroke:none" class="cell_$auto$proc_dlatch.cc:409:proc_dlatch$36">Q</text>
    </g>
  </g>
  <g s:type="mux" transform="translate(465.3333333333333,67)" s:width="20" s:height="40" id="cell_$procmux$3">
    <s:alias val="$pmux"/>
    <s:alias val="$mux"/>
    <s:alias val="$_MUX_"/>
    <path d="M0,0 L20,10 L20,30 L0,40 Z" class="cell_$procmux$3"/>
    <g s:x="0" s:y="10" s:pid="A"/>
    <g s:x="0" s:y="30" s:pid="B"/>
    <g s:x="10" s:y="35" s:pid="S"/>
    <g s:x="20" s:y="20" s:pid="Y"/>
  </g>
  <g s:type="eq" transform="translate(142,143.5)" s:width="25" s:height="25" id="cell_$procmux$5_CMP0">
    <s:alias val="$eq"/>
    <circle r="12.5" cx="12.5" cy="12.5" class="cell_$procmux$5_CMP0"/>
    <line x1="7.5" x2="17.5" y1="10" y2="10" class="cell_$procmux$5_CMP0"/>
    <line x1="7.5" x2="17.5" y1="15" y2="15" class="cell_$procmux$5_CMP0"/>
    <g s:x="3" s:y="5" s:pid="A"/>
    <g s:x="3" s:y="20" s:pid="B"/>
    <g s:x="25" s:y="12.5" s:pid="Y"/>
  </g>
  <g s:type="eq" transform="translate(203.66666666666666,201)" s:width="25" s:height="25" id="cell_$procmux$6_CMP0">
    <s:alias val="$eq"/>
    <circle r="12.5" cx="12.5" cy="12.5" class="cell_$procmux$6_CMP0"/>
    <line x1="7.5" x2="17.5" y1="10" y2="10" class="cell_$procmux$6_CMP0"/>
    <line x1="7.5" x2="17.5" y1="15" y2="15" class="cell_$procmux$6_CMP0"/>
    <g s:x="3" s:y="5" s:pid="A"/>
    <g s:x="3" s:y="20" s:pid="B"/>
    <g s:x="25" s:y="12.5" s:pid="Y"/>
  </g>
  <g s:type="eq" transform="translate(268.6666666666667,266)" s:width="25" s:height="25" id="cell_$procmux$7_CMP0">
    <s:alias val="$eq"/>
    <circle r="12.5" cx="12.5" cy="12.5" class="cell_$procmux$7_CMP0"/>
    <line x1="7.5" x2="17.5" y1="10" y2="10" class="cell_$procmux$7_CMP0"/>
    <line x1="7.5" x2="17.5" y1="15" y2="15" class="cell_$procmux$7_CMP0"/>
    <g s:x="3" s:y="5" s:pid="A"/>
    <g s:x="3" s:y="20" s:pid="B"/>
    <g s:x="25" s:y="12.5" s:pid="Y"/>
  </g>
  <g s:type="inputExt" transform="translate(12,245)" s:width="30" s:height="20" id="cell_in">
    <text x="15" y="-4" class="nodelabel cell_in" s:attribute="ref">in</text>
    <s:alias val="$_inputExt_"/>
    <path d="M0,0 L0,20 L15,20 L30,10 L15,0 Z" class="cell_in"/>
    <g s:x="28" s:y="10" s:pid="Y"/>
  </g>
  <g s:type="outputExt" transform="translate(809,256)" s:width="30" s:height="20" id="cell_out">
    <text x="15" y="-4" class="nodelabel cell_out" s:attribute="ref">out</text>
    <s:alias val="$_outputExt_"/>
    <path d="M30,0 L30,20 L15,20 L0,10 L15,0 Z" class="cell_out"/>
    <g s:x="0" s:y="10" s:pid="A"/>
  </g>
  <g s:type="constant" transform="translate(397,22)" s:width="30" s:height="20" id="cell_00">
    <text x="15" y="-4" class="nodelabel cell_00" s:attribute="ref">00</text>
    <s:alias val="$_constant_"/>
    <rect width="30" height="20" class="cell_00"/>
    <g s:x="30" s:y="10" s:pid="Y"/>
  </g>
  <g s:type="constant" transform="translate(397,87)" s:width="30" s:height="20" id="cell_011011">
    <text x="15" y="-4" class="nodelabel cell_011011" s:attribute="ref">0x1b</text>
    <s:alias val="$_constant_"/>
    <rect width="30" height="20" class="cell_011011"/>
    <g s:x="30" s:y="10" s:pid="Y"/>
  </g>
  <g s:type="constant" transform="translate(77,276)" s:width="30" s:height="20" id="cell_1">
    <text x="15" y="-4" class="nodelabel cell_1" s:attribute="ref">1</text>
    <s:alias val="$_constant_"/>
    <rect width="30" height="20" class="cell_1"/>
    <g s:x="30" s:y="10" s:pid="Y"/>
  </g>
  <g s:type="join" transform="translate(407,142)" s:width="4" s:height="40" id="cell_$join$,5,10,8,">
    <rect width="5" height="60" class="splitjoinBody" s:generic="body"/>
    <s:alias val="$_join_"/>
    <g s:x="5" s:y="20" s:pid="out"/>
    <g transform="translate(0,10)" s:x="0" s:y="10" s:pid="in0">
      <text x="-3" y="-4" class="inputPortLabel">0</text>
    </g>
    <g transform="translate(0,30)" s:x="0" s:y="10" s:pid="in0">
      <text x="-3" y="-4" class="inputPortLabel">1</text>
    </g>
    <g transform="translate(0,50)" s:x="0" s:y="10" s:pid="in0">
      <text x="-3" y="-4" class="inputPortLabel">2</text>
    </g>
  </g>
  <g s:type="split" transform="translate(92.25,118)" s:width="5" s:height="40" id="cell_$split$,2,3,4,5,">
    <rect width="5" height="60" class="splitjoinBody" s:generic="body"/>
    <s:alias val="$_split_"/>
    <g s:x="0" s:y="20" s:pid="in"/>
    <g transform="translate(4,10)" s:x="4" s:y="10" s:pid="out0">
      <text x="5" y="-4">3</text>
    </g>
    <g transform="translate(4,30)" s:x="4" s:y="10" s:pid="out0">
      <text x="5" y="-4">2:3</text>
    </g>
    <g transform="translate(4,50)" s:x="4" s:y="10" s:pid="out0">
      <text x="5" y="-4">1:3</text>
    </g>
  </g>
  <line x1="228.66666666666666" x2="267" y1="213.5" y2="213.5" class="net_8"/>
  <line x1="228.66666666666666" x2="242" y1="213.5" y2="213.5" class="net_8"/>
  <line x1="242" x2="242" y1="213.5" y2="192.5" class="net_8"/>
  <circle cx="242" cy="213.5" r="2" style="fill:#000" class="net_8"/>
  <line x1="242" x2="407" y1="192.5" y2="192.5" class="net_8"/>
  <line x1="167" x2="202" y1="156" y2="156" class="net_10"/>
  <line x1="167" x2="177" y1="156" y2="156" class="net_10"/>
  <line x1="177" x2="177" y1="156" y2="135" class="net_10"/>
  <line x1="177" x2="372" y1="135" y2="135" class="net_10"/>
  <line x1="372" x2="372" y1="135" y2="172.5" class="net_10"/>
  <circle cx="177" cy="156" r="2" style="fill:#000" class="net_10"/>
  <line x1="372" x2="407" y1="172.5" y2="172.5" class="net_10"/>
  <line x1="97.25" x2="117" y1="128.5" y2="128.5" class="net_5"/>
  <line x1="117" x2="117" y1="128.5" y2="115" class="net_5"/>
  <line x1="117" x2="202" y1="115" y2="115" class="net_5"/>
  <line x1="97.25" x2="117" y1="128.5" y2="128.5" class="net_5"/>
  <line x1="117" x2="117" y1="128.5" y2="115" class="net_5"/>
  <line x1="117" x2="177" y1="115" y2="115" class="net_5"/>
  <line x1="177" x2="177" y1="115" y2="94" class="net_5"/>
  <line x1="177" x2="382" y1="94" y2="94" class="net_5"/>
  <line x1="382" x2="382" y1="94" y2="152.5" class="net_5"/>
  <circle cx="177" cy="115" r="2" style="fill:#000" class="net_5"/>
  <line x1="382" x2="407" y1="152.5" y2="152.5" class="net_5"/>
  <line x1="293.6666666666667" x2="332" y1="278.5" y2="278.5" class="net_13"/>
  <line x1="227" x2="267" y1="156" y2="156" class="net_11"/>
  <line x1="227" x2="242" y1="115" y2="115" class="net_12"/>
  <line x1="242" x2="242" y1="115" y2="171" class="net_12"/>
  <line x1="242" x2="267" y1="171" y2="171" class="net_12"/>
  <line x1="292" x2="332" y1="213.5" y2="213.5" class="net_9"/>
  <line x1="297" x2="307" y1="163.5" y2="163.5" class="net_15"/>
  <line x1="307" x2="307" y1="163.5" y2="228.5" class="net_15"/>
  <line x1="307" x2="332" y1="228.5" y2="228.5" class="net_15"/>
  <line x1="357" x2="397" y1="278.5" y2="278.5" class="net_14"/>
  <line x1="362" x2="372" y1="221" y2="221" class="net_16"/>
  <line x1="372" x2="372" y1="221" y2="293.5" class="net_16"/>
  <line x1="372" x2="397" y1="293.5" y2="293.5" class="net_16"/>
  <line x1="427" x2="462" y1="286" y2="286" class="net_17"/>
  <line x1="485.3333333333333" x2="502" y1="87" y2="87" class="net_19,20"/>
  <line x1="502" x2="502" y1="87" y2="266" class="net_19,20"/>
  <line x1="502" x2="540" y1="266" y2="266" class="net_19,20"/>
  <line x1="487" x2="540" y1="286" y2="286" class="net_18"/>
  <line x1="427" x2="437" y1="32" y2="32" class="net_21,22"/>
  <line x1="437" x2="437" y1="32" y2="77" class="net_21,22"/>
  <line x1="437" x2="465.3333333333333" y1="77" y2="77" class="net_21,22"/>
  <line x1="427" x2="465.3333333333333" y1="97" y2="97" class="net_23,24,25,26,27,28"/>
  <line x1="413" x2="475.3333333333333" y1="162.5" y2="162.5" class="net_5,10,8"/>
  <line x1="475.3333333333333" x2="475.3333333333333" y1="162.5" y2="102" class="net_5,10,8"/>
  <line x1="97.25" x2="145" y1="148.5" y2="148.5" class="net_4,5"/>
  <line x1="107" x2="117" y1="286" y2="286" class="net_29"/>
  <line x1="117" x2="117" y1="286" y2="163.5" class="net_29"/>
  <circle cx="117" cy="286" r="2" style="fill:#000" class="net_29"/>
  <line x1="117" x2="145" y1="163.5" y2="163.5" class="net_29"/>
  <line x1="107" x2="177" y1="286" y2="286" class="net_29"/>
  <line x1="177" x2="177" y1="286" y2="221" class="net_29"/>
  <circle cx="177" cy="286" r="2" style="fill:#000" class="net_29"/>
  <line x1="177" x2="206.66666666666666" y1="221" y2="221" class="net_29"/>
  <line x1="107" x2="271.6666666666667" y1="286" y2="286" class="net_29"/>
  <line x1="97.25" x2="127" y1="168.5" y2="168.5" class="net_3,4,5"/>
  <line x1="127" x2="127" y1="168.5" y2="206" class="net_3,4,5"/>
  <line x1="127" x2="206.66666666666666" y1="206" y2="206" class="net_3,4,5"/>
  <line x1="40" x2="242" y1="255" y2="255" class="net_2,3,4,5"/>
  <line x1="242" x2="242" y1="255" y2="271" class="net_2,3,4,5"/>
  <line x1="242" x2="271.6666666666667" y1="271" y2="271" class="net_2,3,4,5"/>
  <line x1="40" x2="52" y1="255" y2="255" class="net_2,3,4,5"/>
  <line x1="52" x2="52" y1="255" y2="138.5" class="net_2,3,4,5"/>
  <circle cx="52" cy="255" r="2" style="fill:#000" class="net_2,3,4,5"/>
  <line x1="52" x2="92.25" y1="138.5" y2="138.5" class="net_2,3,4,5"/>
  <line x1="571" x2="809" y1="266" y2="266" class="net_6,7"/>
</svg>
