<svg xmlns="http://www.w3.org/2000/svg" xmlns:xlink="http://www.w3.org/1999/xlink" xmlns:s="https://github.com/nturley/netlistsvg" width="791" height="351">
  <style>svg {
    stroke:#000;
    fill:none;
  }
  text {
    fill:#000;
    stroke:none;
    font-size:10px;
    font-weight: bold;
    font-family: "Courier New", monospace;
  }
  .nodelabel {
    text-anchor: middle;
  }
  .inputPortLabel {
    text-anchor: end;
  }
  .splitjoinBody {
    fill:#000;
  }</style>
  <g s:type="not" transform="translate(207,295.5)" s:width="30" s:height="20" id="cell_$auto$proc_dlatch.cc:238:make_hold$10">
    <s:alias val="$_NOT_"/>
    <s:alias val="$not"/>
    <s:alias val="$logic_not"/>
    <path d="M0,0 L0,20 L20,10 Z" class="cell_$auto$proc_dlatch.cc:238:make_hold$10"/>
    <circle cx="23" cy="10" r="3" class="cell_$auto$proc_dlatch.cc:238:make_hold$10"/>
    <g s:x="0" s:y="10" s:pid="A"/>
    <g s:x="25" s:y="10" s:pid="Y"/>
  </g>
  <g s:type="not" transform="translate(142,187)" s:width="30" s:height="20" id="cell_$auto$proc_dlatch.cc:238:make_hold$12">
    <s:alias val="$_NOT_"/>
    <s:alias val="$not"/>
    <s:alias val="$logic_not"/>
    <path d="M0,0 L0,20 L20,10 Z" class="cell_$auto$proc_dlatch.cc:238:make_hold$12"/>
    <circle cx="23" cy="10" r="3" class="cell_$auto$proc_dlatch.cc:238:make_hold$12"/>
    <g s:x="0" s:y="10" s:pid="A"/>
    <g s:x="25" s:y="10" s:pid="Y"/>
  </g>
  <g s:type="not" transform="translate(142,84.5)" s:width="30" s:height="20" id="cell_$auto$proc_dlatch.cc:238:make_hold$14">
    <s:alias val="$_NOT_"/>
    <s:alias val="$not"/>
    <s:alias val="$logic_not"/>
    <path d="M0,0 L0,20 L20,10 Z" class="cell_$auto$proc_dlatch.cc:238:make_hold$14"/>
    <circle cx="23" cy="10" r="3" class="cell_$auto$proc_dlatch.cc:238:make_hold$14"/>
    <g s:x="0" s:y="10" s:pid="A"/>
    <g s:x="25" s:y="10" s:pid="Y"/>
  </g>
  <g s:type="not" transform="translate(272,137)" s:width="30" s:height="20" id="cell_$auto$proc_dlatch.cc:238:make_hold$8">
    <s:alias val="$_NOT_"/>
    <s:alias val="$not"/>
    <s:alias val="$logic_not"/>
    <path d="M0,0 L0,20 L20,10 Z" class="cell_$auto$proc_dlatch.cc:238:make_hold$8"/>
    <circle cx="23" cy="10" r="3" class="cell_$auto$proc_dlatch.cc:238:make_hold$8"/>
    <g s:x="0" s:y="10" s:pid="A"/>
    <g s:x="25" s:y="10" s:pid="Y"/>
  </g>
  <g s:type="and" transform="translate(207,74.5)" s:width="30" s:height="25" id="cell_$auto$proc_dlatch.cc:251:make_hold$22">
    <s:alias val="$and"/>
    <s:alias val="$logic_and"/>
    <s:alias val="$_AND_"/>
    <path d="M0,0 L0,25 L15,25 A15 12.5 0 0 0 15,0 Z" class="cell_$auto$proc_dlatch.cc:251:make_hold$22"/>
    <g s:x="0" s:y="5" s:pid="A"/>
    <g s:x="0" s:y="20" s:pid="B"/>
    <g s:x="30" s:y="12.5" s:pid="Y"/>
  </g>
  <g s:type="and" transform="translate(272,192)" s:width="30" s:height="25" id="cell_$auto$proc_dlatch.cc:251:make_hold$26">
    <s:alias val="$and"/>
    <s:alias val="$logic_and"/>
    <s:alias val="$_AND_"/>
    <path d="M0,0 L0,25 L15,25 A15 12.5 0 0 0 15,0 Z" class="cell_$auto$proc_dlatch.cc:251:make_hold$26"/>
    <g s:x="0" s:y="5" s:pid="A"/>
    <g s:x="0" s:y="20" s:pid="B"/>
    <g s:x="30" s:y="12.5" s:pid="Y"/>
  </g>
  <g s:type="and" transform="translate(337,142)" s:width="30" s:height="25" id="cell_$auto$proc_dlatch.cc:251:make_hold$30">
    <s:alias val="$and"/>
    <s:alias val="$logic_and"/>
    <s:alias val="$_AND_"/>
    <path d="M0,0 L0,25 L15,25 A15 12.5 0 0 0 15,0 Z" class="cell_$auto$proc_dlatch.cc:251:make_hold$30"/>
    <g s:x="0" s:y="5" s:pid="A"/>
    <g s:x="0" s:y="20" s:pid="B"/>
    <g s:x="30" s:y="12.5" s:pid="Y"/>
  </g>
  <g s:type="not" transform="translate(402,282)" s:width="30" s:height="20" id="cell_$auto$proc_dlatch.cc:409:proc_dlatch$34">
    <s:alias val="$_NOT_"/>
    <s:alias val="$not"/>
    <s:alias val="$logic_not"/>
    <path d="M0,0 L0,20 L20,10 Z" class="cell_$auto$proc_dlatch.cc:409:proc_dlatch$34"/>
    <circle cx="23" cy="10" r="3" class="cell_$auto$proc_dlatch.cc:409:proc_dlatch$34"/>
    <g s:x="0" s:y="10" s:pid="A"/>
    <g s:x="25" s:y="10" s:pid="Y"/>
  </g>
  <g s:type="generic" transform="translate(480,31.5)" s:width="30" s:height="40" id="cell_$auto$proc_dlatch.cc:409:proc_dlatch$36">
    <text x="15" y="-4" class="nodelabel cell_$auto$proc_dlatch.cc:409:proc_dlatch$36" s:attribute="ref">$dlatch</text>
    <rect width="30" height="40" s:generic="body" class="cell_$auto$proc_dlatch.cc:409:proc_dlatch$36"/>
    <g transform="translate(0,10)" s:x="0" s:y="10" s:pid="in0" id="port_$auto$proc_dlatch.cc:409:proc_dlatch$36~D">
      <text x="-3" y="-4" class="inputPortLabel cell_$auto$proc_dlatch.cc:409:proc_dlatch$36">D</text>
    </g>
    <g transform="translate(0,30)" s:x="0" s:y="10" s:pid="in0" id="port_$auto$proc_dlatch.cc:409:proc_dlatch$36~EN">
      <text x="-3" y="-4" class="inputPortLabel cell_$auto$proc_dlatch.cc:409:proc_dlatch$36">EN</text>
    </g>
    <g transform="translate(30,10)" s:x="30" s:y="10" s:pid="out0" id="port_$auto$proc_dlatch.cc:409:proc_dlatch$36~Q">
      <text x="5" y="-4" style="fill:#000; stroke:none" class="cell_$auto$proc_dlatch.cc:409:proc_dlatch$36">Q</text>
    </g>
  </g>
  <g s:type="mux" transform="translate(405.3333333333333,22)" s:width="20" s:height="40" id="cell_$procmux$3">
    <s:alias val="$pmux"/>
    <s:alias val="$mux"/>
    <s:alias val="$_MUX_"/>
    <path d="M0,0 L20,10 L20,30 L0,40 Z" class="cell_$procmux$3"/>
    <g s:x="0" s:y="10" s:pid="A"/>
    <g s:x="0" s:y="30" s:pid="B"/>
    <g s:x="10" s:y="35" s:pid="S"/>
    <g s:x="20" s:y="20" s:pid="Y"/>
  </g>
  <g s:type="eq" transform="translate(78.66666666666667,51)" s:width="25" s:height="25" id="cell_$procmux$4_CMP0">
    <s:alias val="$eq"/>
    <circle r="12.5" cx="12.5" cy="12.5" class="cell_$procmux$4_CMP0"/>
    <line x1="7.5" x2="17.5" y1="10" y2="10" class="cell_$procmux$4_CMP0"/>
    <line x1="7.5" x2="17.5" y1="15" y2="15" class="cell_$procmux$4_CMP0"/>
    <g s:x="3" s:y="5" s:pid="A"/>
    <g s:x="3" s:y="20" s:pid="B"/>
    <g s:x="25" s:y="12.5" s:pid="Y"/>
  </g>
  <g s:type="eq" transform="translate(78.66666666666667,184.5)" s:width="25" s:height="25" id="cell_$procmux$5_CMP0">
    <s:alias val="$eq"/>
    <circle r="12.5" cx="12.5" cy="12.5" class="cell_$procmux$5_CMP0"/>
    <line x1="7.5" x2="17.5" y1="10" y2="10" class="cell_$procmux$5_CMP0"/>
    <line x1="7.5" x2="17.5" y1="15" y2="15" class="cell_$procmux$5_CMP0"/>
    <g s:x="3" s:y="5" s:pid="A"/>
    <g s:x="3" s:y="20" s:pid="B"/>
    <g s:x="25" s:y="12.5" s:pid="Y"/>
  </g>
  <g s:type="eq" transform="translate(143.66666666666666,293)" s:width="25" s:height="25" id="cell_$procmux$6_CMP0">
    <s:alias val="$eq"/>
    <circle r="12.5" cx="12.5" cy="12.5" class="cell_$procmux$6_CMP0"/>
    <line x1="7.5" x2="17.5" y1="10" y2="10" class="cell_$procmux$6_CMP0"/>
    <line x1="7.5" x2="17.5" y1="15" y2="15" class="cell_$procmux$6_CMP0"/>
    <g s:x="3" s:y="5" s:pid="A"/>
    <g s:x="3" s:y="20" s:pid="B"/>
    <g s:x="25" s:y="12.5" s:pid="Y"/>
  </g>
  <g s:type="eq" transform="translate(208.66666666666666,134.5)" s:width="25" s:height="25" id="cell_$procmux$7_CMP0">
    <s:alias val="$eq"/>
    <circle r="12.5" cx="12.5" cy="12.5" class="cell_$procmux$7_CMP0"/>
    <line x1="7.5" x2="17.5" y1="10" y2="10" class="cell_$procmux$7_CMP0"/>
    <line x1="7.5" x2="17.5" y1="15" y2="15" class="cell_$procmux$7_CMP0"/>
    <g s:x="3" s:y="5" s:pid="A"/>
    <g s:x="3" s:y="20" s:pid="B"/>
    <g s:x="25" s:y="12.5" s:pid="Y"/>
  </g>
  <g s:type="inputExt" transform="translate(12,129.5)" s:width="30" s:height="20" id="cell_in">
    <text x="15" y="-4" class="nodelabel cell_in" s:attribute="ref">in</text>
    <s:alias val="$_inputExt_"/>
    <path d="M0,0 L0,20 L15,20 L30,10 L15,0 Z" class="cell_in"/>
    <g s:x="28" s:y="10" s:pid="Y"/>
  </g>
  <g s:type="outputExt" transform="translate(749,32)" s:width="30" s:height="20" id="cell_out">
    <text x="15" y="-4" class="nodelabel cell_out" s:attribute="ref">out</text>
    <s:alias val="$_outputExt_"/>
    <path d="M30,0 L30,20 L15,20 L0,10 L15,0 Z" class="cell_out"/>
    <g s:x="0" s:y="10" s:pid="A"/>
  </g>
  <g s:type="constant" transform="translate(337,22)" s:width="30" s:height="20" id="cell_00">
    <text x="15" y="-4" class="nodelabel cell_00" s:attribute="ref">00</text>
    <s:alias val="$_constant_"/>
    <rect width="30" height="20" class="cell_00"/>
    <g s:x="30" s:y="10" s:pid="Y"/>
  </g>
  <g s:type="constant" transform="translate(337,87)" s:width="30" s:height="20" id="cell_011011">
    <text x="15" y="-4" class="nodelabel cell_011011" s:attribute="ref">0x1b</text>
    <s:alias val="$_constant_"/>
    <rect width="30" height="20" class="cell_011011"/>
    <g s:x="30" s:y="10" s:pid="Y"/>
  </g>
  <g s:type="constant" transform="translate(12,61)" s:width="30" s:height="20" id="cell_1000">
    <text x="15" y="-4" class="nodelabel cell_1000" s:attribute="ref">0x8</text>
    <s:alias val="$_constant_"/>
    <rect width="30" height="20" class="cell_1000"/>
    <g s:x="30" s:y="10" s:pid="Y"/>
  </g>
  <g s:type="constant" transform="translate(12,194.5)" s:width="30" s:height="20" id="cell_100">
    <text x="15" y="-4" class="nodelabel cell_100" s:attribute="ref">100</text>
    <s:alias val="$_constant_"/>
    <rect width="30" height="20" class="cell_100"/>
    <g s:x="30" s:y="10" s:pid="Y"/>
  </g>
  <g s:type="constant" transform="translate(77,319)" s:width="30" s:height="20" id="cell_10">
    <text x="15" y="-4" class="nodelabel cell_10" s:attribute="ref">10</text>
    <s:alias val="$_constant_"/>
    <rect width="30" height="20" class="cell_10"/>
    <g s:x="30" s:y="10" s:pid="Y"/>
  </g>
  <g s:type="constant" transform="translate(142,252)" s:width="30" s:height="20" id="cell_1">
    <text x="15" y="-4" class="nodelabel cell_1" s:attribute="ref">1</text>
    <s:alias val="$_constant_"/>
    <rect width="30" height="20" class="cell_1"/>
    <g s:x="30" s:y="10" s:pid="Y"/>
  </g>
  <g s:type="join" transform="translate(347,251.5)" s:width="4" s:height="40" id="cell_$join$,12,10,8,">
    <rect width="5" height="60" class="splitjoinBody" s:generic="body"/>
    <s:alias val="$_join_"/>
    <g s:x="5" s:y="20" s:pid="out"/>
    <g transform="translate(0,10)" s:x="0" s:y="10" s:pid="in0">
      <text x="-3" y="-4" class="inputPortLabel">0</text>
    </g>
    <g transform="translate(0,30)" s:x="0" s:y="10" s:pid="in0">
      <text x="-3" y="-4" class="inputPortLabel">1</text>
    </g>
    <g transform="translate(0,50)" s:x="0" s:y="10" s:pid="in0">
      <text x="-3" y="-4" class="inputPortLabel">2</text>
    </g>
  </g>
  <line x1="168.66666666666666" x2="207" y1="305.5" y2="305.5" class="net_8"/>
  <line x1="168.66666666666666" x2="182" y1="305.5" y2="305.5" class="net_8"/>
  <line x1="182" x2="182" y1="305.5" y2="325.5" class="net_8"/>
  <line x1="182" x2="312" y1="325.5" y2="325.5" class="net_8"/>
  <line x1="312" x2="312" y1="325.5" y2="302" class="net_8"/>
  <circle cx="182" cy="305.5" r="2" style="fill:#000" class="net_8"/>
  <line x1="312" x2="347" y1="302" y2="302" class="net_8"/>
  <line x1="103.66666666666667" x2="142" y1="197" y2="197" class="net_10"/>
  <line x1="103.66666666666667" x2="117" y1="197" y2="197" class="net_10"/>
  <line x1="117" x2="117" y1="197" y2="282" class="net_10"/>
  <circle cx="117" cy="197" r="2" style="fill:#000" class="net_10"/>
  <line x1="117" x2="347" y1="282" y2="282" class="net_10"/>
  <line x1="103.66666666666667" x2="117" y1="63.5" y2="63.5" class="net_12"/>
  <line x1="117" x2="117" y1="63.5" y2="94.5" class="net_12"/>
  <circle cx="117" cy="63.5" r="2" style="fill:#000" class="net_12"/>
  <line x1="117" x2="142" y1="94.5" y2="94.5" class="net_12"/>
  <line x1="103.66666666666667" x2="322" y1="63.5" y2="63.5" class="net_12"/>
  <line x1="322" x2="322" y1="63.5" y2="262" class="net_12"/>
  <line x1="322" x2="347" y1="262" y2="262" class="net_12"/>
  <line x1="233.66666666666666" x2="272" y1="147" y2="147" class="net_14"/>
  <line x1="167" x2="182" y1="197" y2="197" class="net_11"/>
  <line x1="182" x2="182" y1="197" y2="79.5" class="net_11"/>
  <line x1="182" x2="207" y1="79.5" y2="79.5" class="net_11"/>
  <line x1="167" x2="207" y1="94.5" y2="94.5" class="net_13"/>
  <line x1="232" x2="247" y1="305.5" y2="305.5" class="net_9"/>
  <line x1="247" x2="247" y1="305.5" y2="197" class="net_9"/>
  <line x1="247" x2="272" y1="197" y2="197" class="net_9"/>
  <line x1="237" x2="257" y1="87" y2="87" class="net_16"/>
  <line x1="257" x2="257" y1="87" y2="212" class="net_16"/>
  <line x1="257" x2="272" y1="212" y2="212" class="net_16"/>
  <line x1="297" x2="337" y1="147" y2="147" class="net_15"/>
  <line x1="302" x2="312" y1="204.5" y2="204.5" class="net_17"/>
  <line x1="312" x2="312" y1="204.5" y2="162" class="net_17"/>
  <line x1="312" x2="337" y1="162" y2="162" class="net_17"/>
  <line x1="367" x2="377" y1="154.5" y2="154.5" class="net_18"/>
  <line x1="377" x2="377" y1="154.5" y2="292" class="net_18"/>
  <line x1="377" x2="402" y1="292" y2="292" class="net_18"/>
  <line x1="425.3333333333333" x2="480" y1="42" y2="42" class="net_20,21"/>
  <line x1="427" x2="442" y1="292" y2="292" class="net_19"/>
  <line x1="442" x2="442" y1="292" y2="62" class="net_19"/>
  <line x1="442" x2="480" y1="62" y2="62" class="net_19"/>
  <line x1="367" x2="405.3333333333333" y1="32" y2="32" class="net_22,23"/>
  <line x1="367" x2="377" y1="97" y2="97" class="net_24,25,26,27,28,29"/>
  <line x1="377" x2="377" y1="97" y2="52" class="net_24,25,26,27,28,29"/>
  <line x1="377" x2="405.3333333333333" y1="52" y2="52" class="net_24,25,26,27,28,29"/>
  <line x1="353" x2="415.3333333333333" y1="272" y2="272" class="net_12,10,8"/>
  <line x1="415.3333333333333" x2="415.3333333333333" y1="272" y2="57" class="net_12,10,8"/>
  <line x1="40" x2="52" y1="139.5" y2="139.5" class="net_2,3,4,5"/>
  <line x1="52" x2="52" y1="139.5" y2="56" class="net_2,3,4,5"/>
  <circle cx="52" cy="139.5" r="2" style="fill:#000" class="net_2,3,4,5"/>
  <line x1="52" x2="81.66666666666667" y1="56" y2="56" class="net_2,3,4,5"/>
  <line x1="40" x2="52" y1="139.5" y2="139.5" class="net_2,3,4,5"/>
  <line x1="52" x2="52" y1="139.5" y2="189.5" class="net_2,3,4,5"/>
  <circle cx="52" cy="189.5" r="2" style="fill:#000" class="net_2,3,4,5"/>
  <line x1="52" x2="81.66666666666667" y1="189.5" y2="189.5" class="net_2,3,4,5"/>
  <line x1="40" x2="52" y1="139.5" y2="139.5" class="net_2,3,4,5"/>
  <line x1="52" x2="52" y1="139.5" y2="298" class="net_2,3,4,5"/>
  <line x1="52" x2="146.66666666666666" y1="298" y2="298" class="net_2,3,4,5"/>
  <line x1="40" x2="211.66666666666666" y1="139.5" y2="139.5" class="net_2,3,4,5"/>
  <line x1="42" x2="81.66666666666667" y1="71" y2="71" class="net_30,31,32,33"/>
  <line x1="42" x2="81.66666666666667" y1="204.5" y2="204.5" class="net_34,35,36"/>
  <line x1="107" x2="117" y1="329" y2="329" class="net_37,38"/>
  <line x1="117" x2="117" y1="329" y2="313" class="net_37,38"/>
  <line x1="117" x2="146.66666666666666" y1="313" y2="313" class="net_37,38"/>
  <line x1="172" x2="192" y1="262" y2="262" class="net_39"/>
  <line x1="192" x2="192" y1="262" y2="154.5" class="net_39"/>
  <line x1="192" x2="211.66666666666666" y1="154.5" y2="154.5" class="net_39"/>
  <line x1="511" x2="749" y1="42" y2="42" class="net_6,7"/>
</svg>
