<svg xmlns="http://www.w3.org/2000/svg" xmlns:xlink="http://www.w3.org/1999/xlink" xmlns:s="https://github.com/nturley/netlistsvg" width="1041" height="824.5">
  <style>svg {
    stroke:#000;
    fill:none;
  }
  text {
    fill:#000;
    stroke:none;
    font-size:10px;
    font-weight: bold;
    font-family: "Courier New", monospace;
  }
  .nodelabel {
    text-anchor: middle;
  }
  .inputPortLabel {
    text-anchor: end;
  }
  .splitjoinBody {
    fill:#000;
  }</style>
  <g s:type="and" transform="translate(207,537.5)" s:width="30" s:height="25" id="cell_$techmap\B0.C1.$and$carry.v:6$3">
    <s:alias val="$and"/>
    <s:alias val="$logic_and"/>
    <s:alias val="$_AND_"/>
    <path d="M0,0 L0,25 L15,25 A15 12.5 0 0 0 15,0 Z" class="cell_$techmap\B0.C1.$and$carry.v:6$3"/>
    <g s:x="0" s:y="5" s:pid="A"/>
    <g s:x="0" s:y="20" s:pid="B"/>
    <g s:x="30" s:y="12.5" s:pid="Y"/>
  </g>
  <g s:type="and" transform="translate(207,621)" s:width="30" s:height="25" id="cell_$techmap\B0.C1.$and$carry.v:7$4">
    <s:alias val="$and"/>
    <s:alias val="$logic_and"/>
    <s:alias val="$_AND_"/>
    <path d="M0,0 L0,25 L15,25 A15 12.5 0 0 0 15,0 Z" class="cell_$techmap\B0.C1.$and$carry.v:7$4"/>
    <g s:x="0" s:y="5" s:pid="A"/>
    <g s:x="0" s:y="20" s:pid="B"/>
    <g s:x="30" s:y="12.5" s:pid="Y"/>
  </g>
  <g s:type="and" transform="translate(272,605)" s:width="30" s:height="25" id="cell_$techmap\B0.C1.$and$carry.v:8$5">
    <s:alias val="$and"/>
    <s:alias val="$logic_and"/>
    <s:alias val="$_AND_"/>
    <path d="M0,0 L0,25 L15,25 A15 12.5 0 0 0 15,0 Z" class="cell_$techmap\B0.C1.$and$carry.v:8$5"/>
    <g s:x="0" s:y="5" s:pid="A"/>
    <g s:x="0" s:y="20" s:pid="B"/>
    <g s:x="30" s:y="12.5" s:pid="Y"/>
  </g>
  <g s:type="or" transform="translate(272,545)" s:width="30" s:height="25" id="cell_$techmap\B0.C1.$or$carry.v:9$6">
    <s:alias val="$or"/>
    <s:alias val="$logic_or"/>
    <s:alias val="$_OR_"/>
    <path d="M0,25 L0,25 L15,25 A15 12.5 0 0 0 15,0 L0,0" class="cell_$techmap\B0.C1.$or$carry.v:9$6"/>
    <path d="M0,0 A30 25 0 0 1 0,25" class="cell_$techmap\B0.C1.$or$carry.v:9$6"/>
    <g s:x="3" s:y="5" s:pid="A"/>
    <g s:x="3" s:y="20" s:pid="B"/>
    <g s:x="30" s:y="12.5" s:pid="Y"/>
  </g>
  <g s:type="or" transform="translate(337,552.5)" s:width="30" s:height="25" id="cell_$techmap\B0.C1.$or$carry.v:9$7">
    <s:alias val="$or"/>
    <s:alias val="$logic_or"/>
    <s:alias val="$_OR_"/>
    <path d="M0,25 L0,25 L15,25 A15 12.5 0 0 0 15,0 L0,0" class="cell_$techmap\B0.C1.$or$carry.v:9$7"/>
    <path d="M0,0 A30 25 0 0 1 0,25" class="cell_$techmap\B0.C1.$or$carry.v:9$7"/>
    <g s:x="3" s:y="5" s:pid="A"/>
    <g s:x="3" s:y="20" s:pid="B"/>
    <g s:x="30" s:y="12.5" s:pid="Y"/>
  </g>
  <g s:type="reduce_xor" transform="translate(792,154.5)" s:width="33" s:height="25" id="cell_$techmap\B0.S1.$xor$sum.v:6$1">
    <s:alias val="$xor"/>
    <s:alias val="$reduce_xor"/>
    <s:alias val="$_XOR_"/>
    <path d="M3,0 A30 25 0 0 1 3,25 A30 25 0 0 0 33,12.5 A30 25 0 0 0 3,0" class="cell_$techmap\B0.S1.$xor$sum.v:6$1"/>
    <path d="M0,0 A30 25 0 0 1 0,25" class="cell_$techmap\B0.S1.$xor$sum.v:6$1"/>
    <g s:x="3" s:y="5" s:pid="A"/>
    <g s:x="3" s:y="20" s:pid="B"/>
    <g s:x="33" s:y="12.5" s:pid="Y"/>
  </g>
  <g s:type="reduce_xor" transform="translate(860,162)" s:width="33" s:height="25" id="cell_$techmap\B0.S1.$xor$sum.v:7$2">
    <s:alias val="$xor"/>
    <s:alias val="$reduce_xor"/>
    <s:alias val="$_XOR_"/>
    <path d="M3,0 A30 25 0 0 1 3,25 A30 25 0 0 0 33,12.5 A30 25 0 0 0 3,0" class="cell_$techmap\B0.S1.$xor$sum.v:7$2"/>
    <path d="M0,0 A30 25 0 0 1 0,25" class="cell_$techmap\B0.S1.$xor$sum.v:7$2"/>
    <g s:x="3" s:y="5" s:pid="A"/>
    <g s:x="3" s:y="20" s:pid="B"/>
    <g s:x="33" s:y="12.5" s:pid="Y"/>
  </g>
  <g s:type="and" transform="translate(402,431.5)" s:width="30" s:height="25" id="cell_$techmap\B1.C1.$and$carry.v:6$3">
    <s:alias val="$and"/>
    <s:alias val="$logic_and"/>
    <s:alias val="$_AND_"/>
    <path d="M0,0 L0,25 L15,25 A15 12.5 0 0 0 15,0 Z" class="cell_$techmap\B1.C1.$and$carry.v:6$3"/>
    <g s:x="0" s:y="5" s:pid="A"/>
    <g s:x="0" s:y="20" s:pid="B"/>
    <g s:x="30" s:y="12.5" s:pid="Y"/>
  </g>
  <g s:type="and" transform="translate(402,491.5)" s:width="30" s:height="25" id="cell_$techmap\B1.C1.$and$carry.v:7$4">
    <s:alias val="$and"/>
    <s:alias val="$logic_and"/>
    <s:alias val="$_AND_"/>
    <path d="M0,0 L0,25 L15,25 A15 12.5 0 0 0 15,0 Z" class="cell_$techmap\B1.C1.$and$carry.v:7$4"/>
    <g s:x="0" s:y="5" s:pid="A"/>
    <g s:x="0" s:y="20" s:pid="B"/>
    <g s:x="30" s:y="12.5" s:pid="Y"/>
  </g>
  <g s:type="and" transform="translate(467,521.5)" s:width="30" s:height="25" id="cell_$techmap\B1.C1.$and$carry.v:8$5">
    <s:alias val="$and"/>
    <s:alias val="$logic_and"/>
    <s:alias val="$_AND_"/>
    <path d="M0,0 L0,25 L15,25 A15 12.5 0 0 0 15,0 Z" class="cell_$techmap\B1.C1.$and$carry.v:8$5"/>
    <g s:x="0" s:y="5" s:pid="A"/>
    <g s:x="0" s:y="20" s:pid="B"/>
    <g s:x="30" s:y="12.5" s:pid="Y"/>
  </g>
  <g s:type="or" transform="translate(467,439)" s:width="30" s:height="25" id="cell_$techmap\B1.C1.$or$carry.v:9$6">
    <s:alias val="$or"/>
    <s:alias val="$logic_or"/>
    <s:alias val="$_OR_"/>
    <path d="M0,25 L0,25 L15,25 A15 12.5 0 0 0 15,0 L0,0" class="cell_$techmap\B1.C1.$or$carry.v:9$6"/>
    <path d="M0,0 A30 25 0 0 1 0,25" class="cell_$techmap\B1.C1.$or$carry.v:9$6"/>
    <g s:x="3" s:y="5" s:pid="A"/>
    <g s:x="3" s:y="20" s:pid="B"/>
    <g s:x="30" s:y="12.5" s:pid="Y"/>
  </g>
  <g s:type="or" transform="translate(532,446.5)" s:width="30" s:height="25" id="cell_$techmap\B1.C1.$or$carry.v:9$7">
    <s:alias val="$or"/>
    <s:alias val="$logic_or"/>
    <s:alias val="$_OR_"/>
    <path d="M0,25 L0,25 L15,25 A15 12.5 0 0 0 15,0 L0,0" class="cell_$techmap\B1.C1.$or$carry.v:9$7"/>
    <path d="M0,0 A30 25 0 0 1 0,25" class="cell_$techmap\B1.C1.$or$carry.v:9$7"/>
    <g s:x="3" s:y="5" s:pid="A"/>
    <g s:x="3" s:y="20" s:pid="B"/>
    <g s:x="30" s:y="12.5" s:pid="Y"/>
  </g>
  <g s:type="reduce_xor" transform="translate(792,331.5)" s:width="33" s:height="25" id="cell_$techmap\B1.S1.$xor$sum.v:6$1">
    <s:alias val="$xor"/>
    <s:alias val="$reduce_xor"/>
    <s:alias val="$_XOR_"/>
    <path d="M3,0 A30 25 0 0 1 3,25 A30 25 0 0 0 33,12.5 A30 25 0 0 0 3,0" class="cell_$techmap\B1.S1.$xor$sum.v:6$1"/>
    <path d="M0,0 A30 25 0 0 1 0,25" class="cell_$techmap\B1.S1.$xor$sum.v:6$1"/>
    <g s:x="3" s:y="5" s:pid="A"/>
    <g s:x="3" s:y="20" s:pid="B"/>
    <g s:x="33" s:y="12.5" s:pid="Y"/>
  </g>
  <g s:type="reduce_xor" transform="translate(860,339)" s:width="33" s:height="25" id="cell_$techmap\B1.S1.$xor$sum.v:7$2">
    <s:alias val="$xor"/>
    <s:alias val="$reduce_xor"/>
    <s:alias val="$_XOR_"/>
    <path d="M3,0 A30 25 0 0 1 3,25 A30 25 0 0 0 33,12.5 A30 25 0 0 0 3,0" class="cell_$techmap\B1.S1.$xor$sum.v:7$2"/>
    <path d="M0,0 A30 25 0 0 1 0,25" class="cell_$techmap\B1.S1.$xor$sum.v:7$2"/>
    <g s:x="3" s:y="5" s:pid="A"/>
    <g s:x="3" s:y="20" s:pid="B"/>
    <g s:x="33" s:y="12.5" s:pid="Y"/>
  </g>
  <g s:type="and" transform="translate(597,211.5)" s:width="30" s:height="25" id="cell_$techmap\B2.C1.$and$carry.v:6$3">
    <s:alias val="$and"/>
    <s:alias val="$logic_and"/>
    <s:alias val="$_AND_"/>
    <path d="M0,0 L0,25 L15,25 A15 12.5 0 0 0 15,0 Z" class="cell_$techmap\B2.C1.$and$carry.v:6$3"/>
    <g s:x="0" s:y="5" s:pid="A"/>
    <g s:x="0" s:y="20" s:pid="B"/>
    <g s:x="30" s:y="12.5" s:pid="Y"/>
  </g>
  <g s:type="and" transform="translate(597,271.5)" s:width="30" s:height="25" id="cell_$techmap\B2.C1.$and$carry.v:7$4">
    <s:alias val="$and"/>
    <s:alias val="$logic_and"/>
    <s:alias val="$_AND_"/>
    <path d="M0,0 L0,25 L15,25 A15 12.5 0 0 0 15,0 Z" class="cell_$techmap\B2.C1.$and$carry.v:7$4"/>
    <g s:x="0" s:y="5" s:pid="A"/>
    <g s:x="0" s:y="20" s:pid="B"/>
    <g s:x="30" s:y="12.5" s:pid="Y"/>
  </g>
  <g s:type="and" transform="translate(662,301.5)" s:width="30" s:height="25" id="cell_$techmap\B2.C1.$and$carry.v:8$5">
    <s:alias val="$and"/>
    <s:alias val="$logic_and"/>
    <s:alias val="$_AND_"/>
    <path d="M0,0 L0,25 L15,25 A15 12.5 0 0 0 15,0 Z" class="cell_$techmap\B2.C1.$and$carry.v:8$5"/>
    <g s:x="0" s:y="5" s:pid="A"/>
    <g s:x="0" s:y="20" s:pid="B"/>
    <g s:x="30" s:y="12.5" s:pid="Y"/>
  </g>
  <g s:type="or" transform="translate(662,219)" s:width="30" s:height="25" id="cell_$techmap\B2.C1.$or$carry.v:9$6">
    <s:alias val="$or"/>
    <s:alias val="$logic_or"/>
    <s:alias val="$_OR_"/>
    <path d="M0,25 L0,25 L15,25 A15 12.5 0 0 0 15,0 L0,0" class="cell_$techmap\B2.C1.$or$carry.v:9$6"/>
    <path d="M0,0 A30 25 0 0 1 0,25" class="cell_$techmap\B2.C1.$or$carry.v:9$6"/>
    <g s:x="3" s:y="5" s:pid="A"/>
    <g s:x="3" s:y="20" s:pid="B"/>
    <g s:x="30" s:y="12.5" s:pid="Y"/>
  </g>
  <g s:type="or" transform="translate(727,226.5)" s:width="30" s:height="25" id="cell_$techmap\B2.C1.$or$carry.v:9$7">
    <s:alias val="$or"/>
    <s:alias val="$logic_or"/>
    <s:alias val="$_OR_"/>
    <path d="M0,25 L0,25 L15,25 A15 12.5 0 0 0 15,0 L0,0" class="cell_$techmap\B2.C1.$or$carry.v:9$7"/>
    <path d="M0,0 A30 25 0 0 1 0,25" class="cell_$techmap\B2.C1.$or$carry.v:9$7"/>
    <g s:x="3" s:y="5" s:pid="A"/>
    <g s:x="3" s:y="20" s:pid="B"/>
    <g s:x="30" s:y="12.5" s:pid="Y"/>
  </g>
  <g s:type="reduce_xor" transform="translate(792,689)" s:width="33" s:height="25" id="cell_$techmap\B2.S1.$xor$sum.v:6$1">
    <s:alias val="$xor"/>
    <s:alias val="$reduce_xor"/>
    <s:alias val="$_XOR_"/>
    <path d="M3,0 A30 25 0 0 1 3,25 A30 25 0 0 0 33,12.5 A30 25 0 0 0 3,0" class="cell_$techmap\B2.S1.$xor$sum.v:6$1"/>
    <path d="M0,0 A30 25 0 0 1 0,25" class="cell_$techmap\B2.S1.$xor$sum.v:6$1"/>
    <g s:x="3" s:y="5" s:pid="A"/>
    <g s:x="3" s:y="20" s:pid="B"/>
    <g s:x="33" s:y="12.5" s:pid="Y"/>
  </g>
  <g s:type="reduce_xor" transform="translate(860,696.5)" s:width="33" s:height="25" id="cell_$techmap\B2.S1.$xor$sum.v:7$2">
    <s:alias val="$xor"/>
    <s:alias val="$reduce_xor"/>
    <s:alias val="$_XOR_"/>
    <path d="M3,0 A30 25 0 0 1 3,25 A30 25 0 0 0 33,12.5 A30 25 0 0 0 3,0" class="cell_$techmap\B2.S1.$xor$sum.v:7$2"/>
    <path d="M0,0 A30 25 0 0 1 0,25" class="cell_$techmap\B2.S1.$xor$sum.v:7$2"/>
    <g s:x="3" s:y="5" s:pid="A"/>
    <g s:x="3" s:y="20" s:pid="B"/>
    <g s:x="33" s:y="12.5" s:pid="Y"/>
  </g>
  <g s:type="and" transform="translate(793,12)" s:width="30" s:height="25" id="cell_$techmap\B3.C1.$and$carry.v:6$3">
    <s:alias val="$and"/>
    <s:alias val="$logic_and"/>
    <s:alias val="$_AND_"/>
    <path d="M0,0 L0,25 L15,25 A15 12.5 0 0 0 15,0 Z" class="cell_$techmap\B3.C1.$and$carry.v:6$3"/>
    <g s:x="0" s:y="5" s:pid="A"/>
    <g s:x="0" s:y="20" s:pid="B"/>
    <g s:x="30" s:y="12.5" s:pid="Y"/>
  </g>
  <g s:type="and" transform="translate(793,72)" s:width="30" s:height="25" id="cell_$techmap\B3.C1.$and$carry.v:7$4">
    <s:alias val="$and"/>
    <s:alias val="$logic_and"/>
    <s:alias val="$_AND_"/>
    <path d="M0,0 L0,25 L15,25 A15 12.5 0 0 0 15,0 Z" class="cell_$techmap\B3.C1.$and$carry.v:7$4"/>
    <g s:x="0" s:y="5" s:pid="A"/>
    <g s:x="0" s:y="20" s:pid="B"/>
    <g s:x="30" s:y="12.5" s:pid="Y"/>
  </g>
  <g s:type="and" transform="translate(861,102)" s:width="30" s:height="25" id="cell_$techmap\B3.C1.$and$carry.v:8$5">
    <s:alias val="$and"/>
    <s:alias val="$logic_and"/>
    <s:alias val="$_AND_"/>
    <path d="M0,0 L0,25 L15,25 A15 12.5 0 0 0 15,0 Z" class="cell_$techmap\B3.C1.$and$carry.v:8$5"/>
    <g s:x="0" s:y="5" s:pid="A"/>
    <g s:x="0" s:y="20" s:pid="B"/>
    <g s:x="30" s:y="12.5" s:pid="Y"/>
  </g>
  <g s:type="or" transform="translate(861,19.5)" s:width="30" s:height="25" id="cell_$techmap\B3.C1.$or$carry.v:9$6">
    <s:alias val="$or"/>
    <s:alias val="$logic_or"/>
    <s:alias val="$_OR_"/>
    <path d="M0,25 L0,25 L15,25 A15 12.5 0 0 0 15,0 L0,0" class="cell_$techmap\B3.C1.$or$carry.v:9$6"/>
    <path d="M0,0 A30 25 0 0 1 0,25" class="cell_$techmap\B3.C1.$or$carry.v:9$6"/>
    <g s:x="3" s:y="5" s:pid="A"/>
    <g s:x="3" s:y="20" s:pid="B"/>
    <g s:x="30" s:y="12.5" s:pid="Y"/>
  </g>
  <g s:type="or" transform="translate(928,27)" s:width="30" s:height="25" id="cell_$techmap\B3.C1.$or$carry.v:9$7">
    <s:alias val="$or"/>
    <s:alias val="$logic_or"/>
    <s:alias val="$_OR_"/>
    <path d="M0,25 L0,25 L15,25 A15 12.5 0 0 0 15,0 L0,0" class="cell_$techmap\B3.C1.$or$carry.v:9$7"/>
    <path d="M0,0 A30 25 0 0 1 0,25" class="cell_$techmap\B3.C1.$or$carry.v:9$7"/>
    <g s:x="3" s:y="5" s:pid="A"/>
    <g s:x="3" s:y="20" s:pid="B"/>
    <g s:x="30" s:y="12.5" s:pid="Y"/>
  </g>
  <g s:type="reduce_xor" transform="translate(792,787.5)" s:width="33" s:height="25" id="cell_$techmap\B3.S1.$xor$sum.v:6$1">
    <s:alias val="$xor"/>
    <s:alias val="$reduce_xor"/>
    <s:alias val="$_XOR_"/>
    <path d="M3,0 A30 25 0 0 1 3,25 A30 25 0 0 0 33,12.5 A30 25 0 0 0 3,0" class="cell_$techmap\B3.S1.$xor$sum.v:6$1"/>
    <path d="M0,0 A30 25 0 0 1 0,25" class="cell_$techmap\B3.S1.$xor$sum.v:6$1"/>
    <g s:x="3" s:y="5" s:pid="A"/>
    <g s:x="3" s:y="20" s:pid="B"/>
    <g s:x="33" s:y="12.5" s:pid="Y"/>
  </g>
  <g s:type="reduce_xor" transform="translate(860,756.5)" s:width="33" s:height="25" id="cell_$techmap\B3.S1.$xor$sum.v:7$2">
    <s:alias val="$xor"/>
    <s:alias val="$reduce_xor"/>
    <s:alias val="$_XOR_"/>
    <path d="M3,0 A30 25 0 0 1 3,25 A30 25 0 0 0 33,12.5 A30 25 0 0 0 3,0" class="cell_$techmap\B3.S1.$xor$sum.v:7$2"/>
    <path d="M0,0 A30 25 0 0 1 0,25" class="cell_$techmap\B3.S1.$xor$sum.v:7$2"/>
    <g s:x="3" s:y="5" s:pid="A"/>
    <g s:x="3" s:y="20" s:pid="B"/>
    <g s:x="33" s:y="12.5" s:pid="Y"/>
  </g>
  <g s:type="outputExt" transform="translate(993,29.5)" s:width="30" s:height="20" id="cell_cout">
    <text x="15" y="-4" class="nodelabel cell_cout" s:attribute="ref">cout</text>
    <s:alias val="$_outputExt_"/>
    <path d="M30,0 L30,20 L15,20 L0,10 L15,0 Z" class="cell_cout"/>
    <g s:x="0" s:y="10" s:pid="A"/>
  </g>
  <g s:type="outputExt" transform="translate(993,174.5)" s:width="30" s:height="20" id="cell_sumout">
    <text x="15" y="-4" class="nodelabel cell_sumout" s:attribute="ref">sumout</text>
    <s:alias val="$_outputExt_"/>
    <path d="M30,0 L30,20 L15,20 L0,10 L15,0 Z" class="cell_sumout"/>
    <g s:x="0" s:y="10" s:pid="A"/>
  </g>
  <g s:type="inputExt" transform="translate(12,316.5)" s:width="30" s:height="20" id="cell_a">
    <text x="15" y="-4" class="nodelabel cell_a" s:attribute="ref">a</text>
    <s:alias val="$_inputExt_"/>
    <path d="M0,0 L0,20 L15,20 L30,10 L15,0 Z" class="cell_a"/>
    <g s:x="28" s:y="10" s:pid="Y"/>
  </g>
  <g s:type="inputExt" transform="translate(12,431.5)" s:width="30" s:height="20" id="cell_b">
    <text x="15" y="-4" class="nodelabel cell_b" s:attribute="ref">b</text>
    <s:alias val="$_inputExt_"/>
    <path d="M0,0 L0,20 L15,20 L30,10 L15,0 Z" class="cell_b"/>
    <g s:x="28" s:y="10" s:pid="Y"/>
  </g>
  <g s:type="inputExt" transform="translate(77,631)" s:width="30" s:height="20" id="cell_cin">
    <text x="15" y="-4" class="nodelabel cell_cin" s:attribute="ref">cin</text>
    <s:alias val="$_inputExt_"/>
    <path d="M0,0 L0,20 L15,20 L30,10 L15,0 Z" class="cell_cin"/>
    <g s:x="28" s:y="10" s:pid="Y"/>
  </g>
  <g s:type="join" transform="translate(938,164)" s:width="4" s:height="40" id="cell_$join$,3,4,5,6,">
    <rect width="5" height="80" class="splitjoinBody" s:generic="body"/>
    <s:alias val="$_join_"/>
    <g s:x="5" s:y="20" s:pid="out"/>
    <g transform="translate(0,10)" s:x="0" s:y="10" s:pid="in0">
      <text x="-3" y="-4" class="inputPortLabel">0</text>
    </g>
    <g transform="translate(0,30)" s:x="0" s:y="10" s:pid="in0">
      <text x="-3" y="-4" class="inputPortLabel">1</text>
    </g>
    <g transform="translate(0,50)" s:x="0" s:y="10" s:pid="in0">
      <text x="-3" y="-4" class="inputPortLabel">2</text>
    </g>
    <g transform="translate(0,70)" s:x="0" s:y="10" s:pid="in0">
      <text x="-3" y="-4" class="inputPortLabel">3</text>
    </g>
  </g>
  <g s:type="split" transform="translate(92.8,306)" s:width="5" s:height="40" id="cell_$split$,7,8,9,10,">
    <rect width="5" height="80" class="splitjoinBody" s:generic="body"/>
    <s:alias val="$_split_"/>
    <g s:x="0" s:y="20" s:pid="in"/>
    <g transform="translate(4,10)" s:x="4" s:y="10" s:pid="out0">
      <text x="5" y="-4">0</text>
    </g>
    <g transform="translate(4,30)" s:x="4" s:y="10" s:pid="out0">
      <text x="5" y="-4">1</text>
    </g>
    <g transform="translate(4,50)" s:x="4" s:y="10" s:pid="out0">
      <text x="5" y="-4">2</text>
    </g>
    <g transform="translate(4,70)" s:x="4" s:y="10" s:pid="out0">
      <text x="5" y="-4">3</text>
    </g>
  </g>
  <g s:type="split" transform="translate(92.8,421)" s:width="5" s:height="40" id="cell_$split$,11,12,13,14,">
    <rect width="5" height="80" class="splitjoinBody" s:generic="body"/>
    <s:alias val="$_split_"/>
    <g s:x="0" s:y="20" s:pid="in"/>
    <g transform="translate(4,10)" s:x="4" s:y="10" s:pid="out0">
      <text x="5" y="-4">0</text>
    </g>
    <g transform="translate(4,30)" s:x="4" s:y="10" s:pid="out0">
      <text x="5" y="-4">1</text>
    </g>
    <g transform="translate(4,50)" s:x="4" s:y="10" s:pid="out0">
      <text x="5" y="-4">2</text>
    </g>
    <g transform="translate(4,70)" s:x="4" s:y="10" s:pid="out0">
      <text x="5" y="-4">3</text>
    </g>
  </g>
  <line x1="97.8" x2="187" y1="316.5" y2="316.5" class="net_7"/>
  <line x1="187" x2="187" y1="316.5" y2="542.5" class="net_7"/>
  <circle cx="187" cy="316.5" r="2" style="fill:#000" class="net_7"/>
  <circle cx="187" cy="542.5" r="2" style="fill:#000" class="net_7"/>
  <line x1="187" x2="207" y1="542.5" y2="542.5" class="net_7"/>
  <line x1="97.8" x2="187" y1="316.5" y2="316.5" class="net_7"/>
  <line x1="187" x2="187" y1="316.5" y2="610" class="net_7"/>
  <line x1="187" x2="272" y1="610" y2="610" class="net_7"/>
  <line x1="97.8" x2="187" y1="316.5" y2="316.5" class="net_7"/>
  <line x1="187" x2="187" y1="316.5" y2="159.5" class="net_7"/>
  <line x1="187" x2="795" y1="159.5" y2="159.5" class="net_7"/>
  <line x1="97.8" x2="177" y1="431.5" y2="431.5" class="net_11"/>
  <line x1="177" x2="177" y1="431.5" y2="557.5" class="net_11"/>
  <circle cx="177" cy="431.5" r="2" style="fill:#000" class="net_11"/>
  <circle cx="177" cy="557.5" r="2" style="fill:#000" class="net_11"/>
  <line x1="177" x2="207" y1="557.5" y2="557.5" class="net_11"/>
  <line x1="97.8" x2="177" y1="431.5" y2="431.5" class="net_11"/>
  <line x1="177" x2="177" y1="431.5" y2="626" class="net_11"/>
  <line x1="177" x2="207" y1="626" y2="626" class="net_11"/>
  <line x1="97.8" x2="177" y1="431.5" y2="431.5" class="net_11"/>
  <line x1="177" x2="177" y1="431.5" y2="174.5" class="net_11"/>
  <line x1="177" x2="795" y1="174.5" y2="174.5" class="net_11"/>
  <line x1="105" x2="207" y1="641" y2="641" class="net_15"/>
  <line x1="105" x2="167" y1="641" y2="641" class="net_15"/>
  <line x1="167" x2="167" y1="641" y2="656" class="net_15"/>
  <line x1="167" x2="257" y1="656" y2="656" class="net_15"/>
  <line x1="257" x2="257" y1="656" y2="625" class="net_15"/>
  <circle cx="167" cy="641" r="2" style="fill:#000" class="net_15"/>
  <line x1="257" x2="272" y1="625" y2="625" class="net_15"/>
  <line x1="105" x2="167" y1="641" y2="641" class="net_15"/>
  <line x1="167" x2="167" y1="641" y2="200.5" class="net_15"/>
  <line x1="167" x2="845" y1="200.5" y2="200.5" class="net_15"/>
  <line x1="845" x2="845" y1="200.5" y2="182" class="net_15"/>
  <line x1="845" x2="863" y1="182" y2="182" class="net_15"/>
  <line x1="237" x2="275" y1="550" y2="550" class="net_16"/>
  <line x1="237" x2="247" y1="633.5" y2="633.5" class="net_17"/>
  <line x1="247" x2="247" y1="633.5" y2="565" class="net_17"/>
  <line x1="247" x2="275" y1="565" y2="565" class="net_17"/>
  <line x1="302" x2="340" y1="557.5" y2="557.5" class="net_19"/>
  <line x1="302" x2="312" y1="617.5" y2="617.5" class="net_18"/>
  <line x1="312" x2="312" y1="617.5" y2="572.5" class="net_18"/>
  <line x1="312" x2="340" y1="572.5" y2="572.5" class="net_18"/>
  <line x1="825" x2="863" y1="167" y2="167" class="net_21"/>
  <line x1="97.8" x2="377" y1="336.5" y2="336.5" class="net_8"/>
  <line x1="377" x2="377" y1="336.5" y2="436.5" class="net_8"/>
  <circle cx="377" cy="336.5" r="2" style="fill:#000" class="net_8"/>
  <line x1="377" x2="402" y1="436.5" y2="436.5" class="net_8"/>
  <line x1="97.8" x2="197" y1="336.5" y2="336.5" class="net_8"/>
  <line x1="197" x2="197" y1="336.5" y2="526.5" class="net_8"/>
  <circle cx="197" cy="336.5" r="2" style="fill:#000" class="net_8"/>
  <line x1="197" x2="467" y1="526.5" y2="526.5" class="net_8"/>
  <line x1="97.8" x2="795" y1="336.5" y2="336.5" class="net_8"/>
  <line x1="97.8" x2="402" y1="451.5" y2="451.5" class="net_12"/>
  <line x1="97.8" x2="377" y1="451.5" y2="451.5" class="net_12"/>
  <line x1="377" x2="377" y1="451.5" y2="496.5" class="net_12"/>
  <circle cx="377" cy="451.5" r="2" style="fill:#000" class="net_12"/>
  <line x1="377" x2="402" y1="496.5" y2="496.5" class="net_12"/>
  <line x1="97.8" x2="157" y1="451.5" y2="451.5" class="net_12"/>
  <line x1="157" x2="157" y1="451.5" y2="667" class="net_12"/>
  <line x1="157" x2="767" y1="667" y2="667" class="net_12"/>
  <line x1="767" x2="767" y1="667" y2="351.5" class="net_12"/>
  <circle cx="157" cy="451.5" r="2" style="fill:#000" class="net_12"/>
  <line x1="767" x2="795" y1="351.5" y2="351.5" class="net_12"/>
  <line x1="367" x2="377" y1="565" y2="565" class="net_20"/>
  <line x1="377" x2="377" y1="565" y2="511.5" class="net_20"/>
  <circle cx="377" cy="565" r="2" style="fill:#000" class="net_20"/>
  <line x1="377" x2="402" y1="511.5" y2="511.5" class="net_20"/>
  <line x1="367" x2="442" y1="565" y2="565" class="net_20"/>
  <line x1="442" x2="442" y1="565" y2="541.5" class="net_20"/>
  <line x1="442" x2="467" y1="541.5" y2="541.5" class="net_20"/>
  <line x1="367" x2="377" y1="565" y2="565" class="net_20"/>
  <line x1="377" x2="377" y1="565" y2="678" class="net_20"/>
  <line x1="377" x2="835" y1="678" y2="678" class="net_20"/>
  <line x1="835" x2="835" y1="678" y2="359" class="net_20"/>
  <line x1="835" x2="863" y1="359" y2="359" class="net_20"/>
  <line x1="432" x2="470" y1="444" y2="444" class="net_22"/>
  <line x1="432" x2="442" y1="504" y2="504" class="net_23"/>
  <line x1="442" x2="442" y1="504" y2="459" class="net_23"/>
  <line x1="442" x2="470" y1="459" y2="459" class="net_23"/>
  <line x1="497" x2="535" y1="451.5" y2="451.5" class="net_25"/>
  <line x1="497" x2="507" y1="534" y2="534" class="net_24"/>
  <line x1="507" x2="507" y1="534" y2="466.5" class="net_24"/>
  <line x1="507" x2="535" y1="466.5" y2="466.5" class="net_24"/>
  <line x1="825" x2="863" y1="344" y2="344" class="net_27"/>
  <line x1="97.8" x2="147" y1="356.5" y2="356.5" class="net_9"/>
  <line x1="147" x2="147" y1="356.5" y2="216.5" class="net_9"/>
  <circle cx="147" cy="356.5" r="2" style="fill:#000" class="net_9"/>
  <line x1="147" x2="597" y1="216.5" y2="216.5" class="net_9"/>
  <line x1="97.8" x2="147" y1="356.5" y2="356.5" class="net_9"/>
  <line x1="147" x2="147" y1="356.5" y2="306.5" class="net_9"/>
  <circle cx="147" cy="306.5" r="2" style="fill:#000" class="net_9"/>
  <line x1="147" x2="662" y1="306.5" y2="306.5" class="net_9"/>
  <line x1="97.8" x2="147" y1="356.5" y2="356.5" class="net_9"/>
  <line x1="147" x2="147" y1="356.5" y2="694" class="net_9"/>
  <line x1="147" x2="795" y1="694" y2="694" class="net_9"/>
  <line x1="97.8" x2="137" y1="471.5" y2="471.5" class="net_13"/>
  <line x1="137" x2="137" y1="471.5" y2="276.5" class="net_13"/>
  <line x1="137" x2="572" y1="276.5" y2="276.5" class="net_13"/>
  <line x1="572" x2="572" y1="276.5" y2="231.5" class="net_13"/>
  <circle cx="137" cy="471.5" r="2" style="fill:#000" class="net_13"/>
  <circle cx="572" cy="276.5" r="2" style="fill:#000" class="net_13"/>
  <line x1="572" x2="597" y1="231.5" y2="231.5" class="net_13"/>
  <line x1="97.8" x2="137" y1="471.5" y2="471.5" class="net_13"/>
  <line x1="137" x2="137" y1="471.5" y2="276.5" class="net_13"/>
  <line x1="137" x2="597" y1="276.5" y2="276.5" class="net_13"/>
  <line x1="97.8" x2="137" y1="471.5" y2="471.5" class="net_13"/>
  <line x1="137" x2="137" y1="471.5" y2="709" class="net_13"/>
  <line x1="137" x2="795" y1="709" y2="709" class="net_13"/>
  <line x1="562" x2="572" y1="459" y2="459" class="net_26"/>
  <line x1="572" x2="572" y1="459" y2="291.5" class="net_26"/>
  <circle cx="572" cy="459" r="2" style="fill:#000" class="net_26"/>
  <line x1="572" x2="597" y1="291.5" y2="291.5" class="net_26"/>
  <line x1="562" x2="572" y1="459" y2="459" class="net_26"/>
  <line x1="572" x2="572" y1="459" y2="321.5" class="net_26"/>
  <circle cx="572" cy="321.5" r="2" style="fill:#000" class="net_26"/>
  <line x1="572" x2="662" y1="321.5" y2="321.5" class="net_26"/>
  <line x1="562" x2="572" y1="459" y2="459" class="net_26"/>
  <line x1="572" x2="572" y1="459" y2="724" class="net_26"/>
  <line x1="572" x2="835" y1="724" y2="724" class="net_26"/>
  <line x1="835" x2="835" y1="724" y2="716.5" class="net_26"/>
  <line x1="835" x2="863" y1="716.5" y2="716.5" class="net_26"/>
  <line x1="627" x2="665" y1="224" y2="224" class="net_28"/>
  <line x1="627" x2="637" y1="284" y2="284" class="net_29"/>
  <line x1="637" x2="637" y1="284" y2="239" class="net_29"/>
  <line x1="637" x2="665" y1="239" y2="239" class="net_29"/>
  <line x1="692" x2="730" y1="231.5" y2="231.5" class="net_31"/>
  <line x1="692" x2="702" y1="314" y2="314" class="net_30"/>
  <line x1="702" x2="702" y1="314" y2="246.5" class="net_30"/>
  <line x1="702" x2="730" y1="246.5" y2="246.5" class="net_30"/>
  <line x1="825" x2="863" y1="701.5" y2="701.5" class="net_33"/>
  <line x1="97.8" x2="127" y1="376.5" y2="376.5" class="net_10"/>
  <line x1="127" x2="127" y1="376.5" y2="17" class="net_10"/>
  <circle cx="127" cy="376.5" r="2" style="fill:#000" class="net_10"/>
  <line x1="127" x2="793" y1="17" y2="17" class="net_10"/>
  <line x1="97.8" x2="127" y1="376.5" y2="376.5" class="net_10"/>
  <line x1="127" x2="127" y1="376.5" y2="107" class="net_10"/>
  <circle cx="127" cy="107" r="2" style="fill:#000" class="net_10"/>
  <line x1="127" x2="861" y1="107" y2="107" class="net_10"/>
  <line x1="97.8" x2="127" y1="376.5" y2="376.5" class="net_10"/>
  <line x1="127" x2="127" y1="376.5" y2="792.5" class="net_10"/>
  <line x1="127" x2="795" y1="792.5" y2="792.5" class="net_10"/>
  <line x1="97.8" x2="117" y1="491.5" y2="491.5" class="net_14"/>
  <line x1="117" x2="117" y1="491.5" y2="77" class="net_14"/>
  <line x1="117" x2="767" y1="77" y2="77" class="net_14"/>
  <line x1="767" x2="767" y1="77" y2="32" class="net_14"/>
  <circle cx="117" cy="491.5" r="2" style="fill:#000" class="net_14"/>
  <circle cx="767" cy="77" r="2" style="fill:#000" class="net_14"/>
  <line x1="767" x2="793" y1="32" y2="32" class="net_14"/>
  <line x1="97.8" x2="117" y1="491.5" y2="491.5" class="net_14"/>
  <line x1="117" x2="117" y1="491.5" y2="77" class="net_14"/>
  <line x1="117" x2="793" y1="77" y2="77" class="net_14"/>
  <line x1="97.8" x2="117" y1="491.5" y2="491.5" class="net_14"/>
  <line x1="117" x2="117" y1="491.5" y2="807.5" class="net_14"/>
  <line x1="117" x2="795" y1="807.5" y2="807.5" class="net_14"/>
  <line x1="757" x2="777" y1="239" y2="239" class="net_32"/>
  <line x1="777" x2="777" y1="239" y2="92" class="net_32"/>
  <circle cx="777" cy="239" r="2" style="fill:#000" class="net_32"/>
  <line x1="777" x2="793" y1="92" y2="92" class="net_32"/>
  <line x1="757" x2="777" y1="239" y2="239" class="net_32"/>
  <line x1="777" x2="777" y1="239" y2="189.5" class="net_32"/>
  <line x1="777" x2="835" y1="189.5" y2="189.5" class="net_32"/>
  <line x1="835" x2="835" y1="189.5" y2="122" class="net_32"/>
  <circle cx="777" cy="189.5" r="2" style="fill:#000" class="net_32"/>
  <line x1="835" x2="861" y1="122" y2="122" class="net_32"/>
  <line x1="757" x2="777" y1="239" y2="239" class="net_32"/>
  <line x1="777" x2="777" y1="239" y2="776.5" class="net_32"/>
  <line x1="777" x2="863" y1="776.5" y2="776.5" class="net_32"/>
  <line x1="823" x2="864" y1="24.5" y2="24.5" class="net_34"/>
  <line x1="823" x2="835" y1="84.5" y2="84.5" class="net_35"/>
  <line x1="835" x2="835" y1="84.5" y2="39.5" class="net_35"/>
  <line x1="835" x2="864" y1="39.5" y2="39.5" class="net_35"/>
  <line x1="891" x2="931" y1="32" y2="32" class="net_37"/>
  <line x1="891" x2="903" y1="114.5" y2="114.5" class="net_36"/>
  <line x1="903" x2="903" y1="114.5" y2="47" class="net_36"/>
  <line x1="903" x2="931" y1="47" y2="47" class="net_36"/>
  <line x1="825" x2="835" y1="800" y2="800" class="net_38"/>
  <line x1="835" x2="835" y1="800" y2="761.5" class="net_38"/>
  <line x1="835" x2="863" y1="761.5" y2="761.5" class="net_38"/>
  <line x1="958" x2="993" y1="39.5" y2="39.5" class="net_2"/>
  <line x1="944" x2="993" y1="184.5" y2="184.5" class="net_3,4,5,6"/>
  <line x1="893" x2="938" y1="174.5" y2="174.5" class="net_3"/>
  <line x1="893" x2="903" y1="351.5" y2="351.5" class="net_4"/>
  <line x1="903" x2="903" y1="351.5" y2="194.5" class="net_4"/>
  <line x1="903" x2="938" y1="194.5" y2="194.5" class="net_4"/>
  <line x1="893" x2="913" y1="709" y2="709" class="net_5"/>
  <line x1="913" x2="913" y1="709" y2="214.5" class="net_5"/>
  <line x1="913" x2="938" y1="214.5" y2="214.5" class="net_5"/>
  <line x1="893" x2="938.5" y1="769" y2="769" class="net_6"/>
  <line x1="938.5" x2="938.5" y1="769" y2="235" class="net_6"/>
  <line x1="40" x2="92.8" y1="326.5" y2="326.5" class="net_7,8,9,10"/>
  <line x1="40" x2="92.8" y1="441.5" y2="441.5" class="net_11,12,13,14"/>
</svg>
