<svg xmlns="http://www.w3.org/2000/svg" xmlns:xlink="http://www.w3.org/1999/xlink" xmlns:s="https://github.com/nturley/netlistsvg" width="544" height="539.5">
  <style>svg {
    stroke:#000;
    fill:none;
  }
  text {
    fill:#000;
    stroke:none;
    font-size:10px;
    font-weight: bold;
    font-family: "Courier New", monospace;
  }
  .nodelabel {
    text-anchor: middle;
  }
  .inputPortLabel {
    text-anchor: end;
  }
  .splitjoinBody {
    fill:#000;
  }</style>
  <g s:type="and" transform="translate(227,275.5)" s:width="30" s:height="25" id="cell_$and$jkff.v:13$7">
    <s:alias val="$and"/>
    <s:alias val="$logic_and"/>
    <s:alias val="$_AND_"/>
    <path d="M0,0 L0,25 L15,25 A15 12.5 0 0 0 15,0 Z" class="cell_$and$jkff.v:13$7"/>
    <g s:x="0" s:y="5" s:pid="A"/>
    <g s:x="0" s:y="20" s:pid="B"/>
    <g s:x="30" s:y="12.5" s:pid="Y"/>
  </g>
  <g s:type="and" transform="translate(147,390.5)" s:width="30" s:height="25" id="cell_$and$jkff.v:18$10">
    <s:alias val="$and"/>
    <s:alias val="$logic_and"/>
    <s:alias val="$_AND_"/>
    <path d="M0,0 L0,25 L15,25 A15 12.5 0 0 0 15,0 Z" class="cell_$and$jkff.v:18$10"/>
    <g s:x="0" s:y="5" s:pid="A"/>
    <g s:x="0" s:y="20" s:pid="B"/>
    <g s:x="30" s:y="12.5" s:pid="Y"/>
  </g>
  <g s:type="and" transform="translate(77,183)" s:width="30" s:height="25" id="cell_$and$jkff.v:23$13">
    <s:alias val="$and"/>
    <s:alias val="$logic_and"/>
    <s:alias val="$_AND_"/>
    <path d="M0,0 L0,25 L15,25 A15 12.5 0 0 0 15,0 Z" class="cell_$and$jkff.v:23$13"/>
    <g s:x="0" s:y="5" s:pid="A"/>
    <g s:x="0" s:y="20" s:pid="B"/>
    <g s:x="30" s:y="12.5" s:pid="Y"/>
  </g>
  <g s:type="and" transform="translate(307,298)" s:width="30" s:height="25" id="cell_$and$jkff.v:8$4">
    <s:alias val="$and"/>
    <s:alias val="$logic_and"/>
    <s:alias val="$_AND_"/>
    <path d="M0,0 L0,25 L15,25 A15 12.5 0 0 0 15,0 Z" class="cell_$and$jkff.v:8$4"/>
    <g s:x="0" s:y="5" s:pid="A"/>
    <g s:x="0" s:y="20" s:pid="B"/>
    <g s:x="30" s:y="12.5" s:pid="Y"/>
  </g>
  <g s:type="not" transform="translate(147,270.5)" s:width="30" s:height="20" id="cell_$eq$jkff.v:13$5">
    <s:alias val="$_NOT_"/>
    <s:alias val="$not"/>
    <s:alias val="$logic_not"/>
    <path d="M0,0 L0,20 L20,10 Z" class="cell_$eq$jkff.v:13$5"/>
    <circle cx="23" cy="10" r="3" class="cell_$eq$jkff.v:13$5"/>
    <g s:x="0" s:y="10" s:pid="A"/>
    <g s:x="25" s:y="10" s:pid="Y"/>
  </g>
  <g s:type="not" transform="translate(77,128)" s:width="30" s:height="20" id="cell_$eq$jkff.v:18$9">
    <s:alias val="$_NOT_"/>
    <s:alias val="$not"/>
    <s:alias val="$logic_not"/>
    <path d="M0,0 L0,20 L20,10 Z" class="cell_$eq$jkff.v:18$9"/>
    <circle cx="23" cy="10" r="3" class="cell_$eq$jkff.v:18$9"/>
    <g s:x="0" s:y="10" s:pid="A"/>
    <g s:x="25" s:y="10" s:pid="Y"/>
  </g>
  <g s:type="not" transform="translate(77,456.5)" s:width="30" s:height="20" id="cell_$not$jkff.v:25$14">
    <s:alias val="$_NOT_"/>
    <s:alias val="$not"/>
    <s:alias val="$logic_not"/>
    <path d="M0,0 L0,20 L20,10 Z" class="cell_$not$jkff.v:25$14"/>
    <circle cx="23" cy="10" r="3" class="cell_$not$jkff.v:25$14"/>
    <g s:x="0" s:y="10" s:pid="A"/>
    <g s:x="25" s:y="10" s:pid="Y"/>
  </g>
  <g s:type="not" transform="translate(77,43)" s:width="30" s:height="20" id="cell_$not$jkff.v:26$15">
    <s:alias val="$_NOT_"/>
    <s:alias val="$not"/>
    <s:alias val="$logic_not"/>
    <path d="M0,0 L0,20 L20,10 Z" class="cell_$not$jkff.v:26$15"/>
    <circle cx="23" cy="10" r="3" class="cell_$not$jkff.v:26$15"/>
    <g s:x="0" s:y="10" s:pid="A"/>
    <g s:x="25" s:y="10" s:pid="Y"/>
  </g>
  <g s:type="dff" transform="translate(437,63)" s:width="30" s:height="40" id="cell_$procdff$38">
    <s:alias val="$dff"/>
    <s:alias val="$_DFF_"/>
    <s:alias val="$_DFF_P_"/>
    <rect width="30" height="40" x="0" y="0" class="cell_$procdff$38"/>
    <path d="M0,35 L5,30 L0,25" class="cell_$procdff$38"/>
    <g s:x="30" s:y="10" s:pid="Q"/>
    <g s:x="0" s:y="30" s:pid="CLK"/>
    <g s:x="0" s:y="30" s:pid="C"/>
    <g s:x="0" s:y="10" s:pid="D"/>
  </g>
  <g s:type="dff" transform="translate(437,476.5)" s:width="30" s:height="40" id="cell_$procdff$39">
    <s:alias val="$dff"/>
    <s:alias val="$_DFF_"/>
    <s:alias val="$_DFF_P_"/>
    <rect width="30" height="40" x="0" y="0" class="cell_$procdff$39"/>
    <path d="M0,35 L5,30 L0,25" class="cell_$procdff$39"/>
    <g s:x="30" s:y="10" s:pid="Q"/>
    <g s:x="0" s:y="30" s:pid="CLK"/>
    <g s:x="0" s:y="30" s:pid="C"/>
    <g s:x="0" s:y="10" s:pid="D"/>
  </g>
  <g s:type="mux" transform="translate(153.66666666666666,436.5)" s:width="20" s:height="40" id="cell_$procmux$16">
    <s:alias val="$pmux"/>
    <s:alias val="$mux"/>
    <s:alias val="$_MUX_"/>
    <path d="M0,0 L20,10 L20,30 L0,40 Z" class="cell_$procmux$16"/>
    <g s:x="0" s:y="10" s:pid="A"/>
    <g s:x="0" s:y="30" s:pid="B"/>
    <g s:x="10" s:y="35" s:pid="S"/>
    <g s:x="20" s:y="20" s:pid="Y"/>
  </g>
  <g s:type="mux" transform="translate(230.33333333333334,446.5)" s:width="20" s:height="40" id="cell_$procmux$19">
    <s:alias val="$pmux"/>
    <s:alias val="$mux"/>
    <s:alias val="$_MUX_"/>
    <path d="M0,0 L20,10 L20,30 L0,40 Z" class="cell_$procmux$19"/>
    <g s:x="0" s:y="10" s:pid="A"/>
    <g s:x="0" s:y="30" s:pid="B"/>
    <g s:x="10" s:y="35" s:pid="S"/>
    <g s:x="20" s:y="20" s:pid="Y"/>
  </g>
  <g s:type="mux" transform="translate(310.3333333333333,456.5)" s:width="20" s:height="40" id="cell_$procmux$22">
    <s:alias val="$pmux"/>
    <s:alias val="$mux"/>
    <s:alias val="$_MUX_"/>
    <path d="M0,0 L20,10 L20,30 L0,40 Z" class="cell_$procmux$22"/>
    <g s:x="0" s:y="10" s:pid="A"/>
    <g s:x="0" s:y="30" s:pid="B"/>
    <g s:x="10" s:y="35" s:pid="S"/>
    <g s:x="20" s:y="20" s:pid="Y"/>
  </g>
  <g s:type="mux" transform="translate(378.6666666666667,466.5)" s:width="20" s:height="40" id="cell_$procmux$25">
    <s:alias val="$pmux"/>
    <s:alias val="$mux"/>
    <s:alias val="$_MUX_"/>
    <path d="M0,0 L20,10 L20,30 L0,40 Z" class="cell_$procmux$25"/>
    <g s:x="0" s:y="10" s:pid="A"/>
    <g s:x="0" s:y="30" s:pid="B"/>
    <g s:x="10" s:y="35" s:pid="S"/>
    <g s:x="20" s:y="20" s:pid="Y"/>
  </g>
  <g s:type="mux" transform="translate(153.66666666666666,23)" s:width="20" s:height="40" id="cell_$procmux$27">
    <s:alias val="$pmux"/>
    <s:alias val="$mux"/>
    <s:alias val="$_MUX_"/>
    <path d="M0,0 L20,10 L20,30 L0,40 Z" class="cell_$procmux$27"/>
    <g s:x="0" s:y="10" s:pid="A"/>
    <g s:x="0" s:y="30" s:pid="B"/>
    <g s:x="10" s:y="35" s:pid="S"/>
    <g s:x="20" s:y="20" s:pid="Y"/>
  </g>
  <g s:type="mux" transform="translate(230.33333333333334,33)" s:width="20" s:height="40" id="cell_$procmux$30">
    <s:alias val="$pmux"/>
    <s:alias val="$mux"/>
    <s:alias val="$_MUX_"/>
    <path d="M0,0 L20,10 L20,30 L0,40 Z" class="cell_$procmux$30"/>
    <g s:x="0" s:y="10" s:pid="A"/>
    <g s:x="0" s:y="30" s:pid="B"/>
    <g s:x="10" s:y="35" s:pid="S"/>
    <g s:x="20" s:y="20" s:pid="Y"/>
  </g>
  <g s:type="mux" transform="translate(310.3333333333333,43)" s:width="20" s:height="40" id="cell_$procmux$33">
    <s:alias val="$pmux"/>
    <s:alias val="$mux"/>
    <s:alias val="$_MUX_"/>
    <path d="M0,0 L20,10 L20,30 L0,40 Z" class="cell_$procmux$33"/>
    <g s:x="0" s:y="10" s:pid="A"/>
    <g s:x="0" s:y="30" s:pid="B"/>
    <g s:x="10" s:y="35" s:pid="S"/>
    <g s:x="20" s:y="20" s:pid="Y"/>
  </g>
  <g s:type="mux" transform="translate(378.6666666666667,53)" s:width="20" s:height="40" id="cell_$procmux$36">
    <s:alias val="$pmux"/>
    <s:alias val="$mux"/>
    <s:alias val="$_MUX_"/>
    <path d="M0,0 L20,10 L20,30 L0,40 Z" class="cell_$procmux$36"/>
    <g s:x="0" s:y="10" s:pid="A"/>
    <g s:x="0" s:y="30" s:pid="B"/>
    <g s:x="10" s:y="35" s:pid="S"/>
    <g s:x="20" s:y="20" s:pid="Y"/>
  </g>
  <g s:type="inputExt" transform="translate(12,63)" s:width="30" s:height="20" id="cell_j">
    <text x="15" y="-4" class="nodelabel cell_j" s:attribute="ref">j</text>
    <s:alias val="$_inputExt_"/>
    <path d="M0,0 L0,20 L15,20 L30,10 L15,0 Z" class="cell_j"/>
    <g s:x="28" s:y="10" s:pid="Y"/>
  </g>
  <g s:type="inputExt" transform="translate(12,128)" s:width="30" s:height="20" id="cell_k">
    <text x="15" y="-4" class="nodelabel cell_k" s:attribute="ref">k</text>
    <s:alias val="$_inputExt_"/>
    <path d="M0,0 L0,20 L15,20 L30,10 L15,0 Z" class="cell_k"/>
    <g s:x="28" s:y="10" s:pid="Y"/>
  </g>
  <g s:type="inputExt" transform="translate(372,340.5)" s:width="30" s:height="20" id="cell_clock">
    <text x="15" y="-4" class="nodelabel cell_clock" s:attribute="ref">clock</text>
    <s:alias val="$_inputExt_"/>
    <path d="M0,0 L0,20 L15,20 L30,10 L15,0 Z" class="cell_clock"/>
    <g s:x="28" s:y="10" s:pid="Y"/>
  </g>
  <g s:type="outputExt" transform="translate(502,476.5)" s:width="30" s:height="20" id="cell_q">
    <text x="15" y="-4" class="nodelabel cell_q" s:attribute="ref">q</text>
    <s:alias val="$_outputExt_"/>
    <path d="M30,0 L30,20 L15,20 L0,10 L15,0 Z" class="cell_q"/>
    <g s:x="0" s:y="10" s:pid="A"/>
  </g>
  <g s:type="outputExt" transform="translate(502,63)" s:width="30" s:height="20" id="cell_qbar">
    <text x="15" y="-4" class="nodelabel cell_qbar" s:attribute="ref">qbar</text>
    <s:alias val="$_outputExt_"/>
    <path d="M30,0 L30,20 L15,20 L0,10 L15,0 Z" class="cell_qbar"/>
    <g s:x="0" s:y="10" s:pid="A"/>
  </g>
  <g s:type="constant" transform="translate(147,215.5)" s:width="30" s:height="20" id="cell_1">
    <text x="15" y="-4" class="nodelabel cell_1" s:attribute="ref">1</text>
    <s:alias val="$_constant_"/>
    <rect width="30" height="20" class="cell_1"/>
    <g s:x="30" s:y="10" s:pid="Y"/>
  </g>
  <g s:type="constant" transform="translate(147,335.5)" s:width="30" s:height="20" id="cell_0">
    <text x="15" y="-4" class="nodelabel cell_0" s:attribute="ref">0</text>
    <s:alias val="$_constant_"/>
    <rect width="30" height="20" class="cell_0"/>
    <g s:x="30" s:y="10" s:pid="Y"/>
  </g>
  <line x1="172" x2="227" y1="280.5" y2="280.5" class="net_7"/>
  <line x1="172" x2="217" y1="280.5" y2="280.5" class="net_7"/>
  <line x1="217" x2="217" y1="280.5" y2="127" class="net_7"/>
  <line x1="217" x2="297" y1="127" y2="127" class="net_7"/>
  <line x1="297" x2="297" y1="127" y2="303" class="net_7"/>
  <circle cx="217" cy="280.5" r="2" style="fill:#000" class="net_7"/>
  <line x1="297" x2="307" y1="303" y2="303" class="net_7"/>
  <line x1="40" x2="52" y1="138" y2="138" class="net_3"/>
  <line x1="52" x2="52" y1="138" y2="425.5" class="net_3"/>
  <line x1="52" x2="217" y1="425.5" y2="425.5" class="net_3"/>
  <line x1="217" x2="217" y1="425.5" y2="295.5" class="net_3"/>
  <circle cx="52" cy="138" r="2" style="fill:#000" class="net_3"/>
  <line x1="217" x2="227" y1="295.5" y2="295.5" class="net_3"/>
  <line x1="40" x2="52" y1="138" y2="138" class="net_3"/>
  <line x1="52" x2="52" y1="138" y2="203" class="net_3"/>
  <circle cx="52" cy="203" r="2" style="fill:#000" class="net_3"/>
  <line x1="52" x2="77" y1="203" y2="203" class="net_3"/>
  <line x1="40" x2="77" y1="138" y2="138" class="net_3"/>
  <line x1="40" x2="137" y1="73" y2="73" class="net_2"/>
  <line x1="137" x2="137" y1="73" y2="395.5" class="net_2"/>
  <line x1="137" x2="147" y1="395.5" y2="395.5" class="net_2"/>
  <line x1="40" x2="62" y1="73" y2="73" class="net_2"/>
  <line x1="62" x2="62" y1="73" y2="188" class="net_2"/>
  <circle cx="62" cy="73" r="2" style="fill:#000" class="net_2"/>
  <line x1="62" x2="77" y1="188" y2="188" class="net_2"/>
  <line x1="40" x2="137" y1="73" y2="73" class="net_2"/>
  <line x1="137" x2="137" y1="73" y2="280.5" class="net_2"/>
  <circle cx="137" cy="280.5" r="2" style="fill:#000" class="net_2"/>
  <line x1="137" x2="147" y1="280.5" y2="280.5" class="net_2"/>
  <line x1="102" x2="127" y1="138" y2="138" class="net_9"/>
  <line x1="127" x2="127" y1="138" y2="410.5" class="net_9"/>
  <circle cx="127" cy="138" r="2" style="fill:#000" class="net_9"/>
  <line x1="127" x2="147" y1="410.5" y2="410.5" class="net_9"/>
  <line x1="102" x2="287" y1="138" y2="138" class="net_9"/>
  <line x1="287" x2="287" y1="138" y2="318" class="net_9"/>
  <line x1="287" x2="307" y1="318" y2="318" class="net_9"/>
  <line x1="467" x2="477" y1="486.5" y2="486.5" class="net_5"/>
  <line x1="477" x2="477" y1="486.5" y2="526.5" class="net_5"/>
  <line x1="477" x2="62" y1="526.5" y2="526.5" class="net_5"/>
  <line x1="62" x2="62" y1="526.5" y2="466.5" class="net_5"/>
  <line x1="62" x2="77" y1="466.5" y2="466.5" class="net_5"/>
  <line x1="467" x2="477" y1="486.5" y2="486.5" class="net_5"/>
  <line x1="477" x2="477" y1="486.5" y2="526.5" class="net_5"/>
  <line x1="477" x2="127" y1="526.5" y2="526.5" class="net_5"/>
  <line x1="127" x2="127" y1="526.5" y2="446.5" class="net_5"/>
  <circle cx="127" cy="526.5" r="2" style="fill:#000" class="net_5"/>
  <line x1="127" x2="153.66666666666666" y1="446.5" y2="446.5" class="net_5"/>
  <line x1="467" x2="477" y1="486.5" y2="486.5" class="net_5"/>
  <line x1="477" x2="477" y1="486.5" y2="456.5" class="net_5"/>
  <line x1="477" x2="357" y1="456.5" y2="456.5" class="net_5"/>
  <line x1="357" x2="357" y1="456.5" y2="496.5" class="net_5"/>
  <circle cx="477" cy="486.5" r="2" style="fill:#000" class="net_5"/>
  <line x1="357" x2="378.6666666666667" y1="496.5" y2="496.5" class="net_5"/>
  <line x1="467" x2="502" y1="486.5" y2="486.5" class="net_5"/>
  <line x1="467" x2="477" y1="73" y2="73" class="net_6"/>
  <line x1="477" x2="477" y1="73" y2="12" class="net_6"/>
  <line x1="477" x2="62" y1="12" y2="12" class="net_6"/>
  <line x1="62" x2="62" y1="12" y2="53" class="net_6"/>
  <circle cx="477" cy="73" r="2" style="fill:#000" class="net_6"/>
  <line x1="62" x2="77" y1="53" y2="53" class="net_6"/>
  <line x1="467" x2="477" y1="73" y2="73" class="net_6"/>
  <line x1="477" x2="477" y1="73" y2="12" class="net_6"/>
  <line x1="477" x2="117" y1="12" y2="12" class="net_6"/>
  <line x1="117" x2="117" y1="12" y2="33" class="net_6"/>
  <circle cx="117" cy="12" r="2" style="fill:#000" class="net_6"/>
  <line x1="117" x2="153.66666666666666" y1="33" y2="33" class="net_6"/>
  <line x1="467" x2="477" y1="73" y2="73" class="net_6"/>
  <line x1="477" x2="477" y1="73" y2="320.5" class="net_6"/>
  <line x1="477" x2="357" y1="320.5" y2="320.5" class="net_6"/>
  <line x1="357" x2="357" y1="320.5" y2="83" class="net_6"/>
  <line x1="357" x2="378.6666666666667" y1="83" y2="83" class="net_6"/>
  <line x1="467" x2="502" y1="73" y2="73" class="net_6"/>
  <line x1="400" x2="412" y1="350.5" y2="350.5" class="net_4"/>
  <line x1="412" x2="412" y1="350.5" y2="93" class="net_4"/>
  <circle cx="412" cy="350.5" r="2" style="fill:#000" class="net_4"/>
  <line x1="412" x2="437" y1="93" y2="93" class="net_4"/>
  <line x1="400" x2="412" y1="350.5" y2="350.5" class="net_4"/>
  <line x1="412" x2="412" y1="350.5" y2="506.5" class="net_4"/>
  <line x1="412" x2="437" y1="506.5" y2="506.5" class="net_4"/>
  <line x1="398.6666666666667" x2="437" y1="73" y2="73" class="net_15"/>
  <line x1="398.6666666666667" x2="437" y1="486.5" y2="486.5" class="net_16"/>
  <line x1="102" x2="153.66666666666666" y1="466.5" y2="466.5" class="net_13"/>
  <line x1="107" x2="117" y1="195.5" y2="195.5" class="net_11"/>
  <line x1="117" x2="117" y1="195.5" y2="486.5" class="net_11"/>
  <line x1="117" x2="163.66666666666666" y1="486.5" y2="486.5" class="net_11"/>
  <circle cx="117" cy="195.5" r="2" style="fill:#000" class="net_11"/>
  <line x1="163.66666666666666" x2="163.66666666666666" y1="486.5" y2="471.5" class="net_11"/>
  <line x1="107" x2="163.66666666666666" y1="195.5" y2="195.5" class="net_11"/>
  <line x1="163.66666666666666" x2="163.66666666666666" y1="195.5" y2="58" class="net_11"/>
  <line x1="173.66666666666666" x2="230.33333333333334" y1="456.5" y2="456.5" class="net_17"/>
  <line x1="177" x2="207" y1="225.5" y2="225.5" class="net_23"/>
  <line x1="207" x2="207" y1="225.5" y2="476.5" class="net_23"/>
  <circle cx="207" cy="225.5" r="2" style="fill:#000" class="net_23"/>
  <line x1="207" x2="230.33333333333334" y1="476.5" y2="476.5" class="net_23"/>
  <line x1="177" x2="207" y1="225.5" y2="225.5" class="net_23"/>
  <line x1="207" x2="207" y1="225.5" y2="83" class="net_23"/>
  <line x1="207" x2="267" y1="83" y2="83" class="net_23"/>
  <line x1="267" x2="267" y1="83" y2="73" class="net_23"/>
  <line x1="267" x2="310.3333333333333" y1="73" y2="73" class="net_23"/>
  <line x1="177" x2="197" y1="403" y2="403" class="net_10"/>
  <line x1="197" x2="197" y1="403" y2="496.5" class="net_10"/>
  <line x1="197" x2="240.33333333333334" y1="496.5" y2="496.5" class="net_10"/>
  <circle cx="197" cy="403" r="2" style="fill:#000" class="net_10"/>
  <line x1="240.33333333333334" x2="240.33333333333334" y1="496.5" y2="481.5" class="net_10"/>
  <line x1="177" x2="197" y1="403" y2="403" class="net_10"/>
  <line x1="197" x2="197" y1="403" y2="117" class="net_10"/>
  <line x1="197" x2="240.33333333333334" y1="117" y2="117" class="net_10"/>
  <line x1="240.33333333333334" x2="240.33333333333334" y1="117" y2="68" class="net_10"/>
  <line x1="250.33333333333334" x2="310.3333333333333" y1="466.5" y2="466.5" class="net_18"/>
  <line x1="177" x2="187" y1="345.5" y2="345.5" class="net_24"/>
  <line x1="187" x2="187" y1="345.5" y2="506.5" class="net_24"/>
  <line x1="187" x2="267" y1="506.5" y2="506.5" class="net_24"/>
  <line x1="267" x2="267" y1="506.5" y2="486.5" class="net_24"/>
  <circle cx="187" cy="345.5" r="2" style="fill:#000" class="net_24"/>
  <line x1="267" x2="310.3333333333333" y1="486.5" y2="486.5" class="net_24"/>
  <line x1="177" x2="187" y1="345.5" y2="345.5" class="net_24"/>
  <line x1="187" x2="187" y1="345.5" y2="63" class="net_24"/>
  <line x1="187" x2="230.33333333333334" y1="63" y2="63" class="net_24"/>
  <line x1="257" x2="277" y1="288" y2="288" class="net_8"/>
  <line x1="277" x2="277" y1="288" y2="506.5" class="net_8"/>
  <line x1="277" x2="320.3333333333333" y1="506.5" y2="506.5" class="net_8"/>
  <circle cx="277" cy="288" r="2" style="fill:#000" class="net_8"/>
  <line x1="320.3333333333333" x2="320.3333333333333" y1="506.5" y2="491.5" class="net_8"/>
  <line x1="257" x2="320.3333333333333" y1="288" y2="288" class="net_8"/>
  <line x1="320.3333333333333" x2="320.3333333333333" y1="288" y2="78" class="net_8"/>
  <line x1="330.3333333333333" x2="378.6666666666667" y1="476.5" y2="476.5" class="net_19"/>
  <line x1="337" x2="347" y1="310.5" y2="310.5" class="net_12"/>
  <line x1="347" x2="347" y1="310.5" y2="516.5" class="net_12"/>
  <line x1="347" x2="388.6666666666667" y1="516.5" y2="516.5" class="net_12"/>
  <circle cx="347" cy="310.5" r="2" style="fill:#000" class="net_12"/>
  <line x1="388.6666666666667" x2="388.6666666666667" y1="516.5" y2="501.5" class="net_12"/>
  <line x1="337" x2="388.6666666666667" y1="310.5" y2="310.5" class="net_12"/>
  <line x1="388.6666666666667" x2="388.6666666666667" y1="310.5" y2="88" class="net_12"/>
  <line x1="102" x2="153.66666666666666" y1="53" y2="53" class="net_14"/>
  <line x1="173.66666666666666" x2="230.33333333333334" y1="43" y2="43" class="net_20"/>
  <line x1="250.33333333333334" x2="310.3333333333333" y1="53" y2="53" class="net_21"/>
  <line x1="330.3333333333333" x2="378.6666666666667" y1="63" y2="63" class="net_22"/>
</svg>
