<svg xmlns="http://www.w3.org/2000/svg" xmlns:xlink="http://www.w3.org/1999/xlink" xmlns:s="https://github.com/nturley/netlistsvg" width="249" height="149.5">
  <style>svg {
    stroke:#000;
    fill:none;
  }
  text {
    fill:#000;
    stroke:none;
    font-size:10px;
    font-weight: bold;
    font-family: "Courier New", monospace;
  }
  .nodelabel {
    text-anchor: middle;
  }
  .inputPortLabel {
    text-anchor: end;
  }
  .splitjoinBody {
    fill:#000;
  }</style>
  <g s:type="dff" transform="translate(142,32)" s:width="30" s:height="40" id="cell_$procdff$2">
    <s:alias val="$dff"/>
    <s:alias val="$_DFF_"/>
    <s:alias val="$_DFF_P_"/>
    <rect width="30" height="40" x="0" y="0" class="cell_$procdff$2"/>
    <path d="M0,35 L5,30 L0,25" class="cell_$procdff$2"/>
    <g s:x="30" s:y="10" s:pid="Q"/>
    <g s:x="0" s:y="30" s:pid="CLK"/>
    <g s:x="0" s:y="30" s:pid="C"/>
    <g s:x="0" s:y="10" s:pid="D"/>
  </g>
  <g s:type="inputExt" transform="translate(12,22)" s:width="30" s:height="20" id="cell_in">
    <text x="15" y="-4" class="nodelabel cell_in" s:attribute="ref">in</text>
    <s:alias val="$_inputExt_"/>
    <path d="M0,0 L0,20 L15,20 L30,10 L15,0 Z" class="cell_in"/>
    <g s:x="28" s:y="10" s:pid="Y"/>
  </g>
  <g s:type="inputExt" transform="translate(77,106.5)" s:width="30" s:height="20" id="cell_clk">
    <text x="15" y="-4" class="nodelabel cell_clk" s:attribute="ref">clk</text>
    <s:alias val="$_inputExt_"/>
    <path d="M0,0 L0,20 L15,20 L30,10 L15,0 Z" class="cell_clk"/>
    <g s:x="28" s:y="10" s:pid="Y"/>
  </g>
  <g s:type="outputExt" transform="translate(207,32)" s:width="30" s:height="20" id="cell_out">
    <text x="15" y="-4" class="nodelabel cell_out" s:attribute="ref">out</text>
    <s:alias val="$_outputExt_"/>
    <path d="M30,0 L30,20 L15,20 L0,10 L15,0 Z" class="cell_out"/>
    <g s:x="0" s:y="10" s:pid="A"/>
  </g>
  <g s:type="join" transform="translate(88,21.5)" s:width="4" s:height="40" id="cell_$join$,2,4,5,6,">
    <rect width="5" height="40" class="splitjoinBody" s:generic="body"/>
    <s:alias val="$_join_"/>
    <g s:x="5" s:y="20" s:pid="out"/>
    <g transform="translate(0,10)" s:x="0" s:y="10" s:pid="in0">
      <text x="-3" y="-4" class="inputPortLabel">0</text>
    </g>
    <g transform="translate(0,30)" s:x="0" s:y="10" s:pid="in0">
      <text x="-3" y="-4" class="inputPortLabel">1:3</text>
    </g>
  </g>
  <g s:type="split" transform="translate(18,77)" s:width="5" s:height="40" id="cell_$split$,4,5,6,7,">
    <rect width="5" height="20" class="splitjoinBody" s:generic="body"/>
    <s:alias val="$_split_"/>
    <g s:x="0" s:y="20" s:pid="in"/>
    <g transform="translate(4,10)" s:x="4" s:y="10" s:pid="out0">
      <text x="5" y="-4">0:2</text>
    </g>
  </g>
  <line x1="105" x2="117" y1="116.5" y2="116.5" class="net_3"/>
  <line x1="117" x2="117" y1="116.5" y2="62" class="net_3"/>
  <line x1="117" x2="142" y1="62" y2="62" class="net_3"/>
  <line x1="94" x2="142" y1="42" y2="42" class="net_2,4,5,6"/>
  <line x1="172" x2="207" y1="42" y2="42" class="net_4,5,6,7"/>
  <line x1="172" x2="182" y1="42" y2="42" class="net_4,5,6,7"/>
  <line x1="182" x2="182" y1="42" y2="136.5" class="net_4,5,6,7"/>
  <line x1="182" x2="18.5" y1="136.5" y2="136.5" class="net_4,5,6,7"/>
  <circle cx="182" cy="42" r="2" style="fill:#000" class="net_4,5,6,7"/>
  <line x1="18.5" x2="18.5" y1="136.5" y2="98" class="net_4,5,6,7"/>
  <line x1="40" x2="88" y1="32" y2="32" class="net_2"/>
  <line x1="23" x2="52" y1="87.5" y2="87.5" class="net_4,5,6"/>
  <line x1="52" x2="52" y1="87.5" y2="52" class="net_4,5,6"/>
  <line x1="52" x2="88" y1="52" y2="52" class="net_4,5,6"/>
</svg>
