<svg xmlns="http://www.w3.org/2000/svg" xmlns:xlink="http://www.w3.org/1999/xlink" xmlns:s="https://github.com/nturley/netlistsvg" width="376" height="247.5">
  <style>svg {
    stroke:#000;
    fill:none;
  }
  text {
    fill:#000;
    stroke:none;
    font-size:10px;
    font-weight: bold;
    font-family: "Courier New", monospace;
  }
  .nodelabel {
    text-anchor: middle;
  }
  .inputPortLabel {
    text-anchor: end;
  }
  .splitjoinBody {
    fill:#000;
  }</style>
  <g s:type="not" transform="translate(79,14.5)" s:width="30" s:height="20" id="cell_$not$johnsonCounter.v:12$3">
    <s:alias val="$_NOT_"/>
    <s:alias val="$not"/>
    <s:alias val="$logic_not"/>
    <path d="M0,0 L0,20 L20,10 Z" class="cell_$not$johnsonCounter.v:12$3"/>
    <circle cx="23" cy="10" r="3" class="cell_$not$johnsonCounter.v:12$3"/>
    <g s:x="0" s:y="10" s:pid="A"/>
    <g s:x="25" s:y="10" s:pid="Y"/>
  </g>
  <g s:type="dff" transform="translate(269,34.5)" s:width="30" s:height="40" id="cell_$procdff$10">
    <s:alias val="$dff"/>
    <s:alias val="$_DFF_"/>
    <s:alias val="$_DFF_P_"/>
    <rect width="30" height="40" x="0" y="0" class="cell_$procdff$10"/>
    <path d="M0,35 L5,30 L0,25" class="cell_$procdff$10"/>
    <g s:x="30" s:y="10" s:pid="Q"/>
    <g s:x="0" s:y="30" s:pid="CLK"/>
    <g s:x="0" s:y="30" s:pid="C"/>
    <g s:x="0" s:y="10" s:pid="D"/>
  </g>
  <g s:type="mux" transform="translate(149,99.5)" s:width="20" s:height="40" id="cell_$procmux$5">
    <s:alias val="$pmux"/>
    <s:alias val="$mux"/>
    <s:alias val="$_MUX_"/>
    <path d="M0,0 L20,10 L20,30 L0,40 Z" class="cell_$procmux$5"/>
    <g s:x="0" s:y="10" s:pid="A"/>
    <g s:x="0" s:y="30" s:pid="B"/>
    <g s:x="10" s:y="35" s:pid="S"/>
    <g s:x="20" s:y="20" s:pid="Y"/>
  </g>
  <g s:type="mux" transform="translate(149,14.5)" s:width="20" s:height="40" id="cell_$procmux$8">
    <s:alias val="$pmux"/>
    <s:alias val="$mux"/>
    <s:alias val="$_MUX_"/>
    <path d="M0,0 L20,10 L20,30 L0,40 Z" class="cell_$procmux$8"/>
    <g s:x="0" s:y="10" s:pid="A"/>
    <g s:x="0" s:y="30" s:pid="B"/>
    <g s:x="10" s:y="35" s:pid="S"/>
    <g s:x="20" s:y="20" s:pid="Y"/>
  </g>
  <g s:type="inputExt" transform="translate(204,109)" s:width="30" s:height="20" id="cell_clk">
    <text x="15" y="-4" class="nodelabel cell_clk" s:attribute="ref">clk</text>
    <s:alias val="$_inputExt_"/>
    <path d="M0,0 L0,20 L15,20 L30,10 L15,0 Z" class="cell_clk"/>
    <g s:x="28" s:y="10" s:pid="Y"/>
  </g>
  <g s:type="inputExt" transform="translate(79,139.5)" s:width="30" s:height="20" id="cell_init">
    <text x="15" y="-4" class="nodelabel cell_init" s:attribute="ref">init</text>
    <s:alias val="$_inputExt_"/>
    <path d="M0,0 L0,20 L15,20 L30,10 L15,0 Z" class="cell_init"/>
    <g s:x="28" s:y="10" s:pid="Y"/>
  </g>
  <g s:type="outputExt" transform="translate(334,34.5)" s:width="30" s:height="20" id="cell_count">
    <text x="15" y="-4" class="nodelabel cell_count" s:attribute="ref">count</text>
    <s:alias val="$_outputExt_"/>
    <path d="M30,0 L30,20 L15,20 L0,10 L15,0 Z" class="cell_count"/>
    <g s:x="0" s:y="10" s:pid="A"/>
  </g>
  <g s:type="constant" transform="translate(79,204.5)" s:width="30" s:height="20" id="cell_000">
    <text x="15" y="-4" class="nodelabel cell_000" s:attribute="ref">000</text>
    <s:alias val="$_constant_"/>
    <rect width="30" height="20" class="cell_000"/>
    <g s:x="30" s:y="10" s:pid="Y"/>
  </g>
  <g s:type="constant" transform="translate(79,79.5)" s:width="30" s:height="20" id="cell_0">
    <text x="15" y="-4" class="nodelabel cell_0" s:attribute="ref">0</text>
    <s:alias val="$_constant_"/>
    <rect width="30" height="20" class="cell_0"/>
    <g s:x="30" s:y="10" s:pid="Y"/>
  </g>
  <g s:type="join" transform="translate(215,24)" s:width="4" s:height="40" id="cell_$join$,9,10,11,12,">
    <rect width="5" height="40" class="splitjoinBody" s:generic="body"/>
    <s:alias val="$_join_"/>
    <g s:x="5" s:y="20" s:pid="out"/>
    <g transform="translate(0,10)" s:x="0" s:y="10" s:pid="in0">
      <text x="-3" y="-4" class="inputPortLabel">0</text>
    </g>
    <g transform="translate(0,30)" s:x="0" s:y="10" s:pid="in0">
      <text x="-3" y="-4" class="inputPortLabel">1:3</text>
    </g>
  </g>
  <g s:type="split" transform="translate(32,14)" s:width="5" s:height="40" id="cell_$split$,4,5,6,7,">
    <rect width="5" height="40" class="splitjoinBody" s:generic="body"/>
    <s:alias val="$_split_"/>
    <g s:x="0" s:y="20" s:pid="in"/>
    <g transform="translate(4,10)" s:x="4" s:y="10" s:pid="out0">
      <text x="5" y="-4">3</text>
    </g>
    <g transform="translate(4,30)" s:x="4" s:y="10" s:pid="out0">
      <text x="5" y="-4">0:2</text>
    </g>
  </g>
  <line x1="37" x2="79" y1="24.5" y2="24.5" class="net_7"/>
  <line x1="232" x2="244" y1="119" y2="119" class="net_2"/>
  <line x1="244" x2="244" y1="119" y2="64.5" class="net_2"/>
  <line x1="244" x2="269" y1="64.5" y2="64.5" class="net_2"/>
  <line x1="221" x2="269" y1="44.5" y2="44.5" class="net_9,10,11,12"/>
  <line x1="37" x2="54" y1="44.5" y2="44.5" class="net_4,5,6"/>
  <line x1="54" x2="54" y1="44.5" y2="109.5" class="net_4,5,6"/>
  <line x1="54" x2="149" y1="109.5" y2="109.5" class="net_4,5,6"/>
  <line x1="109" x2="139" y1="214.5" y2="214.5" class="net_13,14,15"/>
  <line x1="139" x2="139" y1="214.5" y2="129.5" class="net_13,14,15"/>
  <line x1="139" x2="149" y1="129.5" y2="129.5" class="net_13,14,15"/>
  <line x1="107" x2="159" y1="149.5" y2="149.5" class="net_3"/>
  <line x1="159" x2="159" y1="149.5" y2="134.5" class="net_3"/>
  <line x1="107" x2="129" y1="149.5" y2="149.5" class="net_3"/>
  <line x1="129" x2="129" y1="149.5" y2="89.5" class="net_3"/>
  <line x1="129" x2="159" y1="89.5" y2="89.5" class="net_3"/>
  <circle cx="129" cy="149.5" r="2" style="fill:#000" class="net_3"/>
  <line x1="159" x2="159" y1="89.5" y2="49.5" class="net_3"/>
  <line x1="104" x2="149" y1="24.5" y2="24.5" class="net_8"/>
  <line x1="109" x2="119" y1="89.5" y2="89.5" class="net_16"/>
  <line x1="119" x2="119" y1="89.5" y2="44.5" class="net_16"/>
  <line x1="119" x2="149" y1="44.5" y2="44.5" class="net_16"/>
  <line x1="299" x2="334" y1="44.5" y2="44.5" class="net_4,5,6,7"/>
  <line x1="299" x2="309" y1="44.5" y2="44.5" class="net_4,5,6,7"/>
  <line x1="309" x2="309" y1="44.5" y2="234.5" class="net_4,5,6,7"/>
  <line x1="309" x2="12" y1="234.5" y2="234.5" class="net_4,5,6,7"/>
  <line x1="12" x2="12" y1="234.5" y2="34.5" class="net_4,5,6,7"/>
  <circle cx="309" cy="44.5" r="2" style="fill:#000" class="net_4,5,6,7"/>
  <line x1="12" x2="32" y1="34.5" y2="34.5" class="net_4,5,6,7"/>
  <line x1="169" x2="215" y1="34.5" y2="34.5" class="net_9"/>
  <line x1="169" x2="179" y1="119.5" y2="119.5" class="net_10,11,12"/>
  <line x1="179" x2="179" y1="119.5" y2="54.5" class="net_10,11,12"/>
  <line x1="179" x2="215" y1="54.5" y2="54.5" class="net_10,11,12"/>
</svg>
