<svg xmlns="http://www.w3.org/2000/svg" xmlns:xlink="http://www.w3.org/1999/xlink" xmlns:s="https://github.com/nturley/netlistsvg" width="1011" height="625">
  <style>svg {
    stroke:#000;
    fill:none;
  }
  text {
    fill:#000;
    stroke:none;
    font-size:10px;
    font-weight: bold;
    font-family: "Courier New", monospace;
  }
  .nodelabel {
    text-anchor: middle;
  }
  .inputPortLabel {
    text-anchor: end;
  }
  .splitjoinBody {
    fill:#000;
  }</style>
  <g s:type="generic" transform="translate(409,456.5)" s:width="30" s:height="40" id="cell_$auto$opt_reduce.cc:126:opt_mux$22">
    <text x="15" y="-4" class="nodelabel cell_$auto$opt_reduce.cc:126:opt_mux$22" s:attribute="ref">$reduce_or</text>
    <rect width="30" height="20" s:generic="body" class="cell_$auto$opt_reduce.cc:126:opt_mux$22"/>
    <g transform="translate(0,10)" s:x="0" s:y="10" s:pid="in0" id="port_$auto$opt_reduce.cc:126:opt_mux$22~A">
      <text x="-3" y="-4" class="inputPortLabel cell_$auto$opt_reduce.cc:126:opt_mux$22">A</text>
    </g>
    <g transform="translate(30,10)" s:x="30" s:y="10" s:pid="out0" id="port_$auto$opt_reduce.cc:126:opt_mux$22~Y">
      <text x="5" y="-4" style="fill:#000; stroke:none" class="cell_$auto$opt_reduce.cc:126:opt_mux$22">Y</text>
    </g>
  </g>
  <g s:type="generic" transform="translate(655,532.5)" s:width="30" s:height="40" id="cell_$auto$opt_reduce.cc:126:opt_mux$24">
    <text x="15" y="-4" class="nodelabel cell_$auto$opt_reduce.cc:126:opt_mux$24" s:attribute="ref">$reduce_or</text>
    <rect width="30" height="20" s:generic="body" class="cell_$auto$opt_reduce.cc:126:opt_mux$24"/>
    <g transform="translate(0,10)" s:x="0" s:y="10" s:pid="in0" id="port_$auto$opt_reduce.cc:126:opt_mux$24~A">
      <text x="-3" y="-4" class="inputPortLabel cell_$auto$opt_reduce.cc:126:opt_mux$24">A</text>
    </g>
    <g transform="translate(30,10)" s:x="30" s:y="10" s:pid="out0" id="port_$auto$opt_reduce.cc:126:opt_mux$24~Y">
      <text x="5" y="-4" style="fill:#000; stroke:none" class="cell_$auto$opt_reduce.cc:126:opt_mux$24">Y</text>
    </g>
  </g>
  <g s:type="generic" transform="translate(127,360.5)" s:width="30" s:height="40" id="cell_$procdff$21">
    <text x="15" y="-4" class="nodelabel cell_$procdff$21" s:attribute="ref">$adff</text>
    <rect width="30" height="60" s:generic="body" class="cell_$procdff$21"/>
    <g transform="translate(0,10)" s:x="0" s:y="10" s:pid="in0" id="port_$procdff$21~ARST">
      <text x="-3" y="-4" class="inputPortLabel cell_$procdff$21">ARST</text>
    </g>
    <g transform="translate(0,30)" s:x="0" s:y="10" s:pid="in0" id="port_$procdff$21~CLK">
      <text x="-3" y="-4" class="inputPortLabel cell_$procdff$21">CLK</text>
    </g>
    <g transform="translate(0,50)" s:x="0" s:y="10" s:pid="in0" id="port_$procdff$21~D">
      <text x="-3" y="-4" class="inputPortLabel cell_$procdff$21">D</text>
    </g>
    <g transform="translate(30,10)" s:x="30" s:y="10" s:pid="out0" id="port_$procdff$21~Q">
      <text x="5" y="-4" style="fill:#000; stroke:none" class="cell_$procdff$21">Q</text>
    </g>
  </g>
  <g s:type="mux" transform="translate(959,457.5)" s:width="20" s:height="40" id="cell_$procmux$11">
    <s:alias val="$pmux"/>
    <s:alias val="$mux"/>
    <s:alias val="$_MUX_"/>
    <path d="M0,0 L20,10 L20,30 L0,40 Z" class="cell_$procmux$11"/>
    <g s:x="0" s:y="10" s:pid="A"/>
    <g s:x="0" s:y="30" s:pid="B"/>
    <g s:x="10" s:y="35" s:pid="S"/>
    <g s:x="20" s:y="20" s:pid="Y"/>
  </g>
  <g s:type="eq" transform="translate(325,423)" s:width="25" s:height="25" id="cell_$procmux$12_CMP0">
    <s:alias val="$eq"/>
    <circle r="12.5" cx="12.5" cy="12.5" class="cell_$procmux$12_CMP0"/>
    <line x1="7.5" x2="17.5" y1="10" y2="10" class="cell_$procmux$12_CMP0"/>
    <line x1="7.5" x2="17.5" y1="15" y2="15" class="cell_$procmux$12_CMP0"/>
    <g s:x="3" s:y="5" s:pid="A"/>
    <g s:x="3" s:y="20" s:pid="B"/>
    <g s:x="25" s:y="12.5" s:pid="Y"/>
  </g>
  <g s:type="eq" transform="translate(234.66666666666666,366)" s:width="25" s:height="25" id="cell_$procmux$13_CMP0">
    <s:alias val="$eq"/>
    <circle r="12.5" cx="12.5" cy="12.5" class="cell_$procmux$13_CMP0"/>
    <line x1="7.5" x2="17.5" y1="10" y2="10" class="cell_$procmux$13_CMP0"/>
    <line x1="7.5" x2="17.5" y1="15" y2="15" class="cell_$procmux$13_CMP0"/>
    <g s:x="3" s:y="5" s:pid="A"/>
    <g s:x="3" s:y="20" s:pid="B"/>
    <g s:x="25" s:y="12.5" s:pid="Y"/>
  </g>
  <g s:type="eq" transform="translate(234.66666666666666,306)" s:width="25" s:height="25" id="cell_$procmux$14_CMP0">
    <s:alias val="$eq"/>
    <circle r="12.5" cx="12.5" cy="12.5" class="cell_$procmux$14_CMP0"/>
    <line x1="7.5" x2="17.5" y1="10" y2="10" class="cell_$procmux$14_CMP0"/>
    <line x1="7.5" x2="17.5" y1="15" y2="15" class="cell_$procmux$14_CMP0"/>
    <g s:x="3" s:y="5" s:pid="A"/>
    <g s:x="3" s:y="20" s:pid="B"/>
    <g s:x="25" s:y="12.5" s:pid="Y"/>
  </g>
  <g s:type="not" transform="translate(233,251)" s:width="30" s:height="20" id="cell_$procmux$15_CMP0">
    <s:alias val="$_NOT_"/>
    <s:alias val="$not"/>
    <s:alias val="$logic_not"/>
    <path d="M0,0 L0,20 L20,10 Z" class="cell_$procmux$15_CMP0"/>
    <circle cx="23" cy="10" r="3" class="cell_$procmux$15_CMP0"/>
    <g s:x="0" s:y="10" s:pid="A"/>
    <g s:x="25" s:y="10" s:pid="Y"/>
  </g>
  <g s:type="mux" transform="translate(899,243)" s:width="20" s:height="40" id="cell_$procmux$16">
    <s:alias val="$pmux"/>
    <s:alias val="$mux"/>
    <s:alias val="$_MUX_"/>
    <path d="M0,0 L20,10 L20,30 L0,40 Z" class="cell_$procmux$16"/>
    <g s:x="0" s:y="10" s:pid="A"/>
    <g s:x="0" s:y="30" s:pid="B"/>
    <g s:x="10" s:y="35" s:pid="S"/>
    <g s:x="20" s:y="20" s:pid="Y"/>
  </g>
  <g s:type="mux" transform="translate(468,165)" s:width="20" s:height="40" id="cell_$ternary$mealyoverlapping.v:22$4">
    <s:alias val="$pmux"/>
    <s:alias val="$mux"/>
    <s:alias val="$_MUX_"/>
    <path d="M0,0 L20,10 L20,30 L0,40 Z" class="cell_$ternary$mealyoverlapping.v:22$4"/>
    <g s:x="0" s:y="10" s:pid="A"/>
    <g s:x="0" s:y="30" s:pid="B"/>
    <g s:x="10" s:y="35" s:pid="S"/>
    <g s:x="20" s:y="20" s:pid="Y"/>
  </g>
  <g s:type="mux" transform="translate(959,93)" s:width="20" s:height="40" id="cell_$ternary$mealyoverlapping.v:27$6">
    <s:alias val="$pmux"/>
    <s:alias val="$mux"/>
    <s:alias val="$_MUX_"/>
    <path d="M0,0 L20,10 L20,30 L0,40 Z" class="cell_$ternary$mealyoverlapping.v:27$6"/>
    <g s:x="0" s:y="10" s:pid="A"/>
    <g s:x="0" s:y="30" s:pid="B"/>
    <g s:x="10" s:y="35" s:pid="S"/>
    <g s:x="20" s:y="20" s:pid="Y"/>
  </g>
  <g s:type="mux" transform="translate(959,33)" s:width="20" s:height="40" id="cell_$ternary$mealyoverlapping.v:32$8">
    <s:alias val="$pmux"/>
    <s:alias val="$mux"/>
    <s:alias val="$_MUX_"/>
    <path d="M0,0 L20,10 L20,30 L0,40 Z" class="cell_$ternary$mealyoverlapping.v:32$8"/>
    <g s:x="0" s:y="10" s:pid="A"/>
    <g s:x="0" s:y="30" s:pid="B"/>
    <g s:x="10" s:y="35" s:pid="S"/>
    <g s:x="20" s:y="20" s:pid="Y"/>
  </g>
  <g s:type="inputExt" transform="translate(313,144)" s:width="30" s:height="20" id="cell_bitstream">
    <text x="15" y="-4" class="nodelabel cell_bitstream" s:attribute="ref">bitstream</text>
    <s:alias val="$_inputExt_"/>
    <path d="M0,0 L0,20 L15,20 L30,10 L15,0 Z" class="cell_bitstream"/>
    <g s:x="28" s:y="10" s:pid="Y"/>
  </g>
  <g s:type="inputExt" transform="translate(37,381)" s:width="30" s:height="20" id="cell_clk">
    <text x="15" y="-4" class="nodelabel cell_clk" s:attribute="ref">clk</text>
    <s:alias val="$_inputExt_"/>
    <path d="M0,0 L0,20 L15,20 L30,10 L15,0 Z" class="cell_clk"/>
    <g s:x="28" s:y="10" s:pid="Y"/>
  </g>
  <g s:type="outputExt" transform="translate(959,253)" s:width="30" s:height="20" id="cell_out">
    <text x="15" y="-4" class="nodelabel cell_out" s:attribute="ref">out</text>
    <s:alias val="$_outputExt_"/>
    <path d="M30,0 L30,20 L15,20 L0,10 L15,0 Z" class="cell_out"/>
    <g s:x="0" s:y="10" s:pid="A"/>
  </g>
  <g s:type="inputExt" transform="translate(37,316)" s:width="30" s:height="20" id="cell_reset">
    <text x="15" y="-4" class="nodelabel cell_reset" s:attribute="ref">reset</text>
    <s:alias val="$_inputExt_"/>
    <path d="M0,0 L0,20 L15,20 L30,10 L15,0 Z" class="cell_reset"/>
    <g s:x="28" s:y="10" s:pid="Y"/>
  </g>
  <g s:type="constant" transform="translate(313,273)" s:width="30" s:height="20" id="cell_0">
    <text x="15" y="-4" class="nodelabel cell_0" s:attribute="ref">0</text>
    <s:alias val="$_constant_"/>
    <rect width="30" height="20" class="cell_0"/>
    <g s:x="30" s:y="10" s:pid="Y"/>
  </g>
  <g s:type="constant" transform="translate(233,196)" s:width="30" s:height="20" id="cell_11">
    <text x="15" y="-4" class="nodelabel cell_11" s:attribute="ref">11</text>
    <s:alias val="$_constant_"/>
    <rect width="30" height="20" class="cell_11"/>
    <g s:x="30" s:y="10" s:pid="Y"/>
  </g>
  <g s:type="constant" transform="translate(127,113)" s:width="30" s:height="20" id="cell_10">
    <text x="15" y="-4" class="nodelabel cell_10" s:attribute="ref">10</text>
    <s:alias val="$_constant_"/>
    <rect width="30" height="20" class="cell_10"/>
    <g s:x="30" s:y="10" s:pid="Y"/>
  </g>
  <g s:type="constant" transform="translate(127,48)" s:width="30" s:height="20" id="cell_1">
    <text x="15" y="-4" class="nodelabel cell_1" s:attribute="ref">1</text>
    <s:alias val="$_constant_"/>
    <rect width="30" height="20" class="cell_1"/>
    <g s:x="30" s:y="10" s:pid="Y"/>
  </g>
  <g s:type="constant" transform="translate(894,33)" s:width="30" s:height="20" id="cell_01">
    <text x="15" y="-4" class="nodelabel cell_01" s:attribute="ref">01</text>
    <s:alias val="$_constant_"/>
    <rect width="30" height="20" class="cell_01"/>
    <g s:x="30" s:y="10" s:pid="Y"/>
  </g>
  <g s:type="join" transform="translate(329,328)" s:width="4" s:height="40" id="cell_$join$,6,7,8,">
    <rect width="5" height="60" class="splitjoinBody" s:generic="body"/>
    <s:alias val="$_join_"/>
    <g s:x="5" s:y="20" s:pid="out"/>
    <g transform="translate(0,10)" s:x="0" s:y="10" s:pid="in0">
      <text x="-3" y="-4" class="inputPortLabel">0</text>
    </g>
    <g transform="translate(0,30)" s:x="0" s:y="10" s:pid="in0">
      <text x="-3" y="-4" class="inputPortLabel">1</text>
    </g>
    <g transform="translate(0,50)" s:x="0" s:y="10" s:pid="in0">
      <text x="-3" y="-4" class="inputPortLabel">2</text>
    </g>
  </g>
  <g s:type="join" transform="translate(473.3333333333333,522.5)" s:width="4" s:height="40" id="cell_$join$,6,10,">
    <rect width="5" height="40" class="splitjoinBody" s:generic="body"/>
    <s:alias val="$_join_"/>
    <g s:x="5" s:y="20" s:pid="out"/>
    <g transform="translate(0,10)" s:x="0" s:y="10" s:pid="in0">
      <text x="-3" y="-4" class="inputPortLabel">0</text>
    </g>
    <g transform="translate(0,30)" s:x="0" s:y="10" s:pid="in0">
      <text x="-3" y="-4" class="inputPortLabel">1</text>
    </g>
  </g>
  <g s:type="join" transform="translate(19,12)" s:width="4" s:height="40" id="cell_$join$,x,x,">
    <rect width="5" height="40" class="splitjoinBody" s:generic="body"/>
    <s:alias val="$_join_"/>
    <g s:x="5" s:y="20" s:pid="out"/>
    <g transform="translate(0,10)" s:x="0" s:y="10" s:pid="in0">
      <text x="-3" y="-4" class="inputPortLabel">0</text>
    </g>
  </g>
  <g s:type="join" transform="translate(913,467)" s:width="4" s:height="40" id="cell_$join$,16,21,17,18,19,20,">
    <rect width="5" height="40" class="splitjoinBody" s:generic="body"/>
    <s:alias val="$_join_"/>
    <g s:x="5" s:y="20" s:pid="out"/>
    <g transform="translate(0,10)" s:x="0" s:y="10" s:pid="in0">
      <text x="-3" y="-4" class="inputPortLabel">0:1</text>
    </g>
  </g>
  <g s:type="join" transform="translate(719.3333333333334,252.5)" s:width="4" s:height="40" id="cell_$join$,16,21,">
    <rect width="5" height="40" class="splitjoinBody" s:generic="body"/>
    <s:alias val="$_join_"/>
    <g s:x="5" s:y="20" s:pid="out"/>
    <g transform="translate(0,10)" s:x="0" s:y="10" s:pid="in0">
      <text x="-3" y="-4" class="inputPortLabel">0</text>
    </g>
    <g transform="translate(0,30)" s:x="0" s:y="10" s:pid="in0">
      <text x="-3" y="-4" class="inputPortLabel">1</text>
    </g>
  </g>
  <g s:type="join" transform="translate(910,542)" s:width="4" s:height="40" id="cell_$join$,11,8,7,">
    <rect width="5" height="60" class="splitjoinBody" s:generic="body"/>
    <s:alias val="$_join_"/>
    <g s:x="5" s:y="20" s:pid="out"/>
    <g transform="translate(0,10)" s:x="0" s:y="10" s:pid="in0">
      <text x="-3" y="-4" class="inputPortLabel">0</text>
    </g>
    <g transform="translate(0,30)" s:x="0" s:y="10" s:pid="in0">
      <text x="-3" y="-4" class="inputPortLabel">1</text>
    </g>
    <g transform="translate(0,50)" s:x="0" s:y="10" s:pid="in0">
      <text x="-3" y="-4" class="inputPortLabel">2</text>
    </g>
  </g>
  <g s:type="join" transform="translate(719.3333333333334,436.5)" s:width="4" s:height="40" id="cell_$join$,10,9,">
    <rect width="5" height="40" class="splitjoinBody" s:generic="body"/>
    <s:alias val="$_join_"/>
    <g s:x="5" s:y="20" s:pid="out"/>
    <g transform="translate(0,10)" s:x="0" s:y="10" s:pid="in0">
      <text x="-3" y="-4" class="inputPortLabel">0</text>
    </g>
    <g transform="translate(0,30)" s:x="0" s:y="10" s:pid="in0">
      <text x="-3" y="-4" class="inputPortLabel">1</text>
    </g>
  </g>
  <line x1="335" x2="387" y1="348.5" y2="348.5" class="net_6,7,8"/>
  <line x1="387" x2="387" y1="348.5" y2="467" class="net_6,7,8"/>
  <line x1="387" x2="409" y1="467" y2="467" class="net_6,7,8"/>
  <line x1="479.3333333333333" x2="655" y1="543" y2="543" class="net_6,10"/>
  <line x1="65" x2="77" y1="326" y2="326" class="net_5"/>
  <line x1="77" x2="77" y1="326" y2="371" class="net_5"/>
  <line x1="77" x2="127" y1="371" y2="371" class="net_5"/>
  <line x1="65" x2="127" y1="391" y2="391" class="net_3"/>
  <line x1="979" x2="999" y1="477.5" y2="477.5" class="net_12,13"/>
  <line x1="999" x2="999" y1="477.5" y2="612" class="net_12,13"/>
  <line x1="999" x2="77" y1="612" y2="612" class="net_12,13"/>
  <line x1="77" x2="77" y1="612" y2="411" class="net_12,13"/>
  <line x1="77" x2="127" y1="411" y2="411" class="net_12,13"/>
  <line x1="919" x2="959" y1="487.5" y2="487.5" class="net_16,21,17,18,19,20"/>
  <line x1="916" x2="969" y1="562.5" y2="562.5" class="net_11,8,7"/>
  <line x1="969" x2="969" y1="562.5" y2="492.5" class="net_11,8,7"/>
  <line x1="158" x2="223" y1="371" y2="371" class="net_14,15"/>
  <line x1="223" x2="223" y1="371" y2="428" class="net_14,15"/>
  <circle cx="223" cy="371" r="2" style="fill:#000" class="net_14,15"/>
  <line x1="223" x2="328" y1="428" y2="428" class="net_14,15"/>
  <line x1="158" x2="237.66666666666666" y1="371" y2="371" class="net_14,15"/>
  <line x1="158" x2="223" y1="371" y2="371" class="net_14,15"/>
  <line x1="223" x2="223" y1="371" y2="311" class="net_14,15"/>
  <circle cx="223" cy="311" r="2" style="fill:#000" class="net_14,15"/>
  <line x1="223" x2="237.66666666666666" y1="311" y2="311" class="net_14,15"/>
  <line x1="158" x2="223" y1="371" y2="371" class="net_14,15"/>
  <line x1="223" x2="223" y1="371" y2="261" class="net_14,15"/>
  <line x1="223" x2="233" y1="261" y2="261" class="net_14,15"/>
  <line x1="263" x2="303" y1="206" y2="206" class="net_22,23"/>
  <line x1="303" x2="303" y1="206" y2="443" class="net_22,23"/>
  <circle cx="303" cy="206" r="2" style="fill:#000" class="net_22,23"/>
  <line x1="303" x2="328" y1="443" y2="443" class="net_22,23"/>
  <line x1="263" x2="303" y1="206" y2="206" class="net_22,23"/>
  <line x1="303" x2="303" y1="206" y2="12" class="net_22,23"/>
  <line x1="303" x2="944" y1="12" y2="12" class="net_22,23"/>
  <line x1="944" x2="944" y1="12" y2="63" class="net_22,23"/>
  <line x1="944" x2="959" y1="63" y2="63" class="net_22,23"/>
  <line x1="157" x2="203" y1="123" y2="123" class="net_24,25"/>
  <line x1="203" x2="203" y1="123" y2="386" class="net_24,25"/>
  <circle cx="203" cy="123" r="2" style="fill:#000" class="net_24,25"/>
  <line x1="203" x2="237.66666666666666" y1="386" y2="386" class="net_24,25"/>
  <line x1="157" x2="959" y1="123" y2="123" class="net_24,25"/>
  <line x1="157" x2="213" y1="58" y2="58" class="net_26"/>
  <line x1="213" x2="213" y1="58" y2="326" class="net_26"/>
  <line x1="213" x2="237.66666666666666" y1="326" y2="326" class="net_26"/>
  <line x1="157" x2="213" y1="58" y2="58" class="net_26"/>
  <line x1="213" x2="213" y1="58" y2="175" class="net_26"/>
  <circle cx="213" cy="175" r="2" style="fill:#000" class="net_26"/>
  <line x1="213" x2="468" y1="175" y2="175" class="net_26"/>
  <line x1="725.3333333333334" x2="899" y1="273" y2="273" class="net_16,21"/>
  <line x1="725.3333333333334" x2="869" y1="273" y2="273" class="net_16,21"/>
  <line x1="869" x2="869" y1="273" y2="477.5" class="net_16,21"/>
  <circle cx="869" cy="273" r="2" style="fill:#000" class="net_16,21"/>
  <line x1="869" x2="913" y1="477.5" y2="477.5" class="net_16,21"/>
  <line x1="725.3333333333334" x2="909" y1="457" y2="457" class="net_10,9"/>
  <line x1="909" x2="909" y1="457" y2="278" class="net_10,9"/>
  <line x1="343" x2="377" y1="283" y2="283" class="net_21"/>
  <line x1="377" x2="377" y1="283" y2="195" class="net_21"/>
  <circle cx="377" cy="283" r="2" style="fill:#000" class="net_21"/>
  <line x1="377" x2="468" y1="195" y2="195" class="net_21"/>
  <line x1="343" x2="719.3333333333334" y1="283" y2="283" class="net_21"/>
  <line x1="341" x2="387" y1="154" y2="154" class="net_2"/>
  <line x1="387" x2="387" y1="154" y2="215" class="net_2"/>
  <line x1="387" x2="478" y1="215" y2="215" class="net_2"/>
  <circle cx="387" cy="154" r="2" style="fill:#000" class="net_2"/>
  <line x1="478" x2="478" y1="215" y2="200" class="net_2"/>
  <line x1="341" x2="969" y1="154" y2="154" class="net_2"/>
  <line x1="969" x2="969" y1="154" y2="128" class="net_2"/>
  <line x1="341" x2="387" y1="154" y2="154" class="net_2"/>
  <line x1="387" x2="387" y1="154" y2="83" class="net_2"/>
  <line x1="387" x2="969" y1="83" y2="83" class="net_2"/>
  <line x1="969" x2="969" y1="83" y2="68" class="net_2"/>
  <line x1="924" x2="934" y1="43" y2="43" class="net_30,31"/>
  <line x1="934" x2="934" y1="43" y2="103" class="net_30,31"/>
  <circle cx="934" cy="43" r="2" style="fill:#000" class="net_30,31"/>
  <line x1="934" x2="959" y1="103" y2="103" class="net_30,31"/>
  <line x1="924" x2="959" y1="43" y2="43" class="net_30,31"/>
  <line x1="919" x2="959" y1="263" y2="263" class="net_4"/>
  <line x1="258" x2="293" y1="261" y2="261" class="net_6"/>
  <line x1="293" x2="293" y1="261" y2="338.5" class="net_6"/>
  <circle cx="293" cy="338.5" r="2" style="fill:#000" class="net_6"/>
  <line x1="293" x2="329" y1="338.5" y2="338.5" class="net_6"/>
  <line x1="258" x2="293" y1="261" y2="261" class="net_6"/>
  <line x1="293" x2="293" y1="261" y2="533" class="net_6"/>
  <line x1="293" x2="473.3333333333333" y1="533" y2="533" class="net_6"/>
  <line x1="259.66666666666663" x2="273" y1="318.5" y2="318.5" class="net_7"/>
  <line x1="273" x2="273" y1="318.5" y2="358.5" class="net_7"/>
  <circle cx="273" cy="358.5" r="2" style="fill:#000" class="net_7"/>
  <line x1="273" x2="329" y1="358.5" y2="358.5" class="net_7"/>
  <line x1="259.66666666666663" x2="273" y1="318.5" y2="318.5" class="net_7"/>
  <line x1="273" x2="273" y1="318.5" y2="592.5" class="net_7"/>
  <line x1="273" x2="910" y1="592.5" y2="592.5" class="net_7"/>
  <line x1="259.66666666666663" x2="329" y1="378.5" y2="378.5" class="net_8"/>
  <line x1="259.66666666666663" x2="283" y1="378.5" y2="378.5" class="net_8"/>
  <line x1="283" x2="283" y1="378.5" y2="572.5" class="net_8"/>
  <circle cx="283" cy="378.5" r="2" style="fill:#000" class="net_8"/>
  <line x1="283" x2="910" y1="572.5" y2="572.5" class="net_8"/>
  <line x1="350" x2="377" y1="435.5" y2="435.5" class="net_10"/>
  <line x1="377" x2="377" y1="435.5" y2="553" class="net_10"/>
  <circle cx="377" cy="435.5" r="2" style="fill:#000" class="net_10"/>
  <line x1="377" x2="473.3333333333333" y1="553" y2="553" class="net_10"/>
  <line x1="350" x2="623" y1="435.5" y2="435.5" class="net_10"/>
  <line x1="623" x2="623" y1="435.5" y2="447" class="net_10"/>
  <line x1="623" x2="719.3333333333334" y1="447" y2="447" class="net_10"/>
  <line x1="488" x2="623" y1="185" y2="185" class="net_16"/>
  <line x1="623" x2="623" y1="185" y2="263" class="net_16"/>
  <line x1="623" x2="719.3333333333334" y1="263" y2="263" class="net_16"/>
  <line x1="686" x2="869" y1="543" y2="543" class="net_11"/>
  <line x1="869" x2="869" y1="543" y2="552.5" class="net_11"/>
  <line x1="869" x2="910" y1="552.5" y2="552.5" class="net_11"/>
  <line x1="440" x2="719.3333333333334" y1="467" y2="467" class="net_9"/>
</svg>
