<svg xmlns="http://www.w3.org/2000/svg" xmlns:xlink="http://www.w3.org/1999/xlink" xmlns:s="https://github.com/nturley/netlistsvg" width="500" height="217.5">
  <style>svg {
    stroke:#000;
    fill:none;
  }
  text {
    fill:#000;
    stroke:none;
    font-size:10px;
    font-weight: bold;
    font-family: "Courier New", monospace;
  }
  .nodelabel {
    text-anchor: middle;
  }
  .inputPortLabel {
    text-anchor: end;
  }
  .splitjoinBody {
    fill:#000;
  }</style>
  <g s:type="generic" transform="translate(161,142.5)" s:width="30" s:height="40" id="cell_B320">
    <text x="15" y="-4" class="nodelabel cell_B320" s:attribute="ref">sixteenbitFA</text>
    <rect width="30" height="60" s:generic="body" class="cell_B320"/>
    <g transform="translate(0,10)" s:x="0" s:y="10" s:pid="in0" id="port_B320~a">
      <text x="-3" y="-4" class="inputPortLabel cell_B320">a</text>
    </g>
    <g transform="translate(0,30)" s:x="0" s:y="10" s:pid="in0" id="port_B320~b">
      <text x="-3" y="-4" class="inputPortLabel cell_B320">b</text>
    </g>
    <g transform="translate(0,50)" s:x="0" s:y="10" s:pid="in0" id="port_B320~cin">
      <text x="-3" y="-4" class="inputPortLabel cell_B320">cin</text>
    </g>
    <g transform="translate(30,10)" s:x="30" s:y="10" s:pid="out0" id="port_B320~cout">
      <text x="5" y="-4" style="fill:#000; stroke:none" class="cell_B320">cout</text>
    </g>
    <g transform="translate(30,30)" s:x="30" s:y="10" s:pid="out0" id="port_B320~sumout">
      <text x="5" y="-4" style="fill:#000; stroke:none" class="cell_B320">sumout</text>
    </g>
  </g>
  <g s:type="generic" transform="translate(283,91)" s:width="30" s:height="40" id="cell_B321">
    <text x="15" y="-4" class="nodelabel cell_B321" s:attribute="ref">sixteenbitFA</text>
    <rect width="30" height="60" s:generic="body" class="cell_B321"/>
    <g transform="translate(0,10)" s:x="0" s:y="10" s:pid="in0" id="port_B321~a">
      <text x="-3" y="-4" class="inputPortLabel cell_B321">a</text>
    </g>
    <g transform="translate(0,30)" s:x="0" s:y="10" s:pid="in0" id="port_B321~b">
      <text x="-3" y="-4" class="inputPortLabel cell_B321">b</text>
    </g>
    <g transform="translate(0,50)" s:x="0" s:y="10" s:pid="in0" id="port_B321~cin">
      <text x="-3" y="-4" class="inputPortLabel cell_B321">cin</text>
    </g>
    <g transform="translate(30,10)" s:x="30" s:y="10" s:pid="out0" id="port_B321~cout">
      <text x="5" y="-4" style="fill:#000; stroke:none" class="cell_B321">cout</text>
    </g>
    <g transform="translate(30,30)" s:x="30" s:y="10" s:pid="out0" id="port_B321~sumout">
      <text x="5" y="-4" style="fill:#000; stroke:none" class="cell_B321">sumout</text>
    </g>
  </g>
  <g s:type="outputExt" transform="translate(452,91.5)" s:width="30" s:height="20" id="cell_cout">
    <text x="15" y="-4" class="nodelabel cell_cout" s:attribute="ref">cout</text>
    <s:alias val="$_outputExt_"/>
    <path d="M30,0 L30,20 L15,20 L0,10 L15,0 Z" class="cell_cout"/>
    <g s:x="0" s:y="10" s:pid="A"/>
  </g>
  <g s:type="outputExt" transform="translate(452,173)" s:width="30" s:height="20" id="cell_sumout">
    <text x="15" y="-4" class="nodelabel cell_sumout" s:attribute="ref">sumout</text>
    <s:alias val="$_outputExt_"/>
    <path d="M30,0 L30,20 L15,20 L0,10 L15,0 Z" class="cell_sumout"/>
    <g s:x="0" s:y="10" s:pid="A"/>
  </g>
  <g s:type="inputExt" transform="translate(12,24.5)" s:width="30" s:height="20" id="cell_a">
    <text x="15" y="-4" class="nodelabel cell_a" s:attribute="ref">a</text>
    <s:alias val="$_inputExt_"/>
    <path d="M0,0 L0,20 L15,20 L30,10 L15,0 Z" class="cell_a"/>
    <g s:x="28" s:y="10" s:pid="Y"/>
  </g>
  <g s:type="inputExt" transform="translate(12,101.5)" s:width="30" s:height="20" id="cell_b">
    <text x="15" y="-4" class="nodelabel cell_b" s:attribute="ref">b</text>
    <s:alias val="$_inputExt_"/>
    <path d="M0,0 L0,20 L15,20 L30,10 L15,0 Z" class="cell_b"/>
    <g s:x="28" s:y="10" s:pid="Y"/>
  </g>
  <g s:type="inputExt" transform="translate(77,176)" s:width="30" s:height="20" id="cell_cin">
    <text x="15" y="-4" class="nodelabel cell_cin" s:attribute="ref">cin</text>
    <s:alias val="$_inputExt_"/>
    <path d="M0,0 L0,20 L15,20 L30,10 L15,0 Z" class="cell_cin"/>
    <g s:x="28" s:y="10" s:pid="Y"/>
  </g>
  <g s:type="join" transform="translate(411,162.5)" s:width="4" s:height="40" id="cell_$join$,3,4,5,6,7,8,9,10,11,12,13,14,15,16,17,18,19,20,21,22,23,24,25,26,27,28,29,30,31,32,33,34,">
    <rect width="5" height="40" class="splitjoinBody" s:generic="body"/>
    <s:alias val="$_join_"/>
    <g s:x="5" s:y="20" s:pid="out"/>
    <g transform="translate(0,10)" s:x="0" s:y="10" s:pid="in0">
      <text x="-3" y="-4" class="inputPortLabel">0:15</text>
    </g>
    <g transform="translate(0,30)" s:x="0" s:y="10" s:pid="in0">
      <text x="-3" y="-4" class="inputPortLabel">16:31</text>
    </g>
  </g>
  <g s:type="split" transform="translate(77,14)" s:width="5" s:height="40" id="cell_$split$,35,36,37,38,39,40,41,42,43,44,45,46,47,48,49,50,51,52,53,54,55,56,57,58,59,60,61,62,63,64,65,66,">
    <rect width="5" height="40" class="splitjoinBody" s:generic="body"/>
    <s:alias val="$_split_"/>
    <g s:x="0" s:y="20" s:pid="in"/>
    <g transform="translate(4,10)" s:x="4" s:y="10" s:pid="out0">
      <text x="5" y="-4">0:15</text>
    </g>
    <g transform="translate(4,30)" s:x="4" s:y="10" s:pid="out0">
      <text x="5" y="-4">16:31</text>
    </g>
  </g>
  <g s:type="split" transform="translate(77,91)" s:width="5" s:height="40" id="cell_$split$,67,68,69,70,71,72,73,74,75,76,77,78,79,80,81,82,83,84,85,86,87,88,89,90,91,92,93,94,95,96,97,98,">
    <rect width="5" height="40" class="splitjoinBody" s:generic="body"/>
    <s:alias val="$_split_"/>
    <g s:x="0" s:y="20" s:pid="in"/>
    <g transform="translate(4,10)" s:x="4" s:y="10" s:pid="out0">
      <text x="5" y="-4">0:15</text>
    </g>
    <g transform="translate(4,30)" s:x="4" s:y="10" s:pid="out0">
      <text x="5" y="-4">16:31</text>
    </g>
  </g>
  <line x1="82" x2="127" y1="24.5" y2="24.5" class="net_35,36,37,38,39,40,41,42,43,44,45,46,47,48,49,50"/>
  <line x1="127" x2="127" y1="24.5" y2="153" class="net_35,36,37,38,39,40,41,42,43,44,45,46,47,48,49,50"/>
  <line x1="127" x2="161" y1="153" y2="153" class="net_35,36,37,38,39,40,41,42,43,44,45,46,47,48,49,50"/>
  <line x1="82" x2="117" y1="101.5" y2="101.5" class="net_67,68,69,70,71,72,73,74,75,76,77,78,79,80,81,82"/>
  <line x1="117" x2="117" y1="101.5" y2="173" class="net_67,68,69,70,71,72,73,74,75,76,77,78,79,80,81,82"/>
  <line x1="117" x2="161" y1="173" y2="173" class="net_67,68,69,70,71,72,73,74,75,76,77,78,79,80,81,82"/>
  <line x1="105" x2="117" y1="186" y2="186" class="net_99"/>
  <line x1="117" x2="117" y1="186" y2="193" class="net_99"/>
  <line x1="117" x2="161" y1="193" y2="193" class="net_99"/>
  <line x1="82" x2="239" y1="44.5" y2="44.5" class="net_51,52,53,54,55,56,57,58,59,60,61,62,63,64,65,66"/>
  <line x1="239" x2="239" y1="44.5" y2="101.5" class="net_51,52,53,54,55,56,57,58,59,60,61,62,63,64,65,66"/>
  <line x1="239" x2="283" y1="101.5" y2="101.5" class="net_51,52,53,54,55,56,57,58,59,60,61,62,63,64,65,66"/>
  <line x1="82" x2="283" y1="121.5" y2="121.5" class="net_83,84,85,86,87,88,89,90,91,92,93,94,95,96,97,98"/>
  <line x1="192" x2="239" y1="153" y2="153" class="net_100"/>
  <line x1="239" x2="239" y1="153" y2="141.5" class="net_100"/>
  <line x1="239" x2="283" y1="141.5" y2="141.5" class="net_100"/>
  <line x1="314" x2="452" y1="101.5" y2="101.5" class="net_2"/>
  <line x1="417" x2="452" y1="183" y2="183" class="net_3,4,5,6,7,8,9,10,11,12,13,14,15,16,17,18,19,20,21,22,23,24,25,26,27,28,29,30,31,32,33,34"/>
  <line x1="192" x2="411" y1="173" y2="173" class="net_3,4,5,6,7,8,9,10,11,12,13,14,15,16,17,18"/>
  <line x1="314" x2="361" y1="121.5" y2="121.5" class="net_19,20,21,22,23,24,25,26,27,28,29,30,31,32,33,34"/>
  <line x1="361" x2="361" y1="121.5" y2="193" class="net_19,20,21,22,23,24,25,26,27,28,29,30,31,32,33,34"/>
  <line x1="361" x2="411" y1="193" y2="193" class="net_19,20,21,22,23,24,25,26,27,28,29,30,31,32,33,34"/>
  <line x1="40" x2="77" y1="34.5" y2="34.5" class="net_35,36,37,38,39,40,41,42,43,44,45,46,47,48,49,50,51,52,53,54,55,56,57,58,59,60,61,62,63,64,65,66"/>
  <line x1="40" x2="77" y1="111.5" y2="111.5" class="net_67,68,69,70,71,72,73,74,75,76,77,78,79,80,81,82,83,84,85,86,87,88,89,90,91,92,93,94,95,96,97,98"/>
</svg>
