<svg xmlns="http://www.w3.org/2000/svg" xmlns:xlink="http://www.w3.org/1999/xlink" xmlns:s="https://github.com/nturley/netlistsvg" width="505" height="923.5">
  <style>svg {
    stroke:#000;
    fill:none;
  }
  text {
    fill:#000;
    stroke:none;
    font-size:10px;
    font-weight: bold;
    font-family: "Courier New", monospace;
  }
  .nodelabel {
    text-anchor: middle;
  }
  .inputPortLabel {
    text-anchor: end;
  }
  .splitjoinBody {
    fill:#000;
  }</style>
  <g s:type="mux" transform="translate(293.3333333333333,103)" s:width="20" s:height="40" id="cell_$techmap\F1.$procmux$2">
    <s:alias val="$pmux"/>
    <s:alias val="$mux"/>
    <s:alias val="$_MUX_"/>
    <path d="M0,0 L20,10 L20,30 L0,40 Z" class="cell_$techmap\F1.$procmux$2"/>
    <g s:x="0" s:y="10" s:pid="A"/>
    <g s:x="0" s:y="30" s:pid="B"/>
    <g s:x="10" s:y="35" s:pid="S"/>
    <g s:x="20" s:y="20" s:pid="Y"/>
  </g>
  <g s:type="eq" transform="translate(148.66666666666666,626.5)" s:width="25" s:height="25" id="cell_$techmap\F1.$procmux$3_CMP0">
    <s:alias val="$eq"/>
    <circle r="12.5" cx="12.5" cy="12.5" class="cell_$techmap\F1.$procmux$3_CMP0"/>
    <line x1="7.5" x2="17.5" y1="10" y2="10" class="cell_$techmap\F1.$procmux$3_CMP0"/>
    <line x1="7.5" x2="17.5" y1="15" y2="15" class="cell_$techmap\F1.$procmux$3_CMP0"/>
    <g s:x="3" s:y="5" s:pid="A"/>
    <g s:x="3" s:y="20" s:pid="B"/>
    <g s:x="25" s:y="12.5" s:pid="Y"/>
  </g>
  <g s:type="eq" transform="translate(148.66666666666666,686.5)" s:width="25" s:height="25" id="cell_$techmap\F1.$procmux$4_CMP0">
    <s:alias val="$eq"/>
    <circle r="12.5" cx="12.5" cy="12.5" class="cell_$techmap\F1.$procmux$4_CMP0"/>
    <line x1="7.5" x2="17.5" y1="10" y2="10" class="cell_$techmap\F1.$procmux$4_CMP0"/>
    <line x1="7.5" x2="17.5" y1="15" y2="15" class="cell_$techmap\F1.$procmux$4_CMP0"/>
    <g s:x="3" s:y="5" s:pid="A"/>
    <g s:x="3" s:y="20" s:pid="B"/>
    <g s:x="25" s:y="12.5" s:pid="Y"/>
  </g>
  <g s:type="eq" transform="translate(148.66666666666666,801.5)" s:width="25" s:height="25" id="cell_$techmap\F1.$procmux$5_CMP0">
    <s:alias val="$eq"/>
    <circle r="12.5" cx="12.5" cy="12.5" class="cell_$techmap\F1.$procmux$5_CMP0"/>
    <line x1="7.5" x2="17.5" y1="10" y2="10" class="cell_$techmap\F1.$procmux$5_CMP0"/>
    <line x1="7.5" x2="17.5" y1="15" y2="15" class="cell_$techmap\F1.$procmux$5_CMP0"/>
    <g s:x="3" s:y="5" s:pid="A"/>
    <g s:x="3" s:y="20" s:pid="B"/>
    <g s:x="25" s:y="12.5" s:pid="Y"/>
  </g>
  <g s:type="not" transform="translate(147,746.5)" s:width="30" s:height="20" id="cell_$techmap\F1.$procmux$6_CMP0">
    <s:alias val="$_NOT_"/>
    <s:alias val="$not"/>
    <s:alias val="$logic_not"/>
    <path d="M0,0 L0,20 L20,10 Z" class="cell_$techmap\F1.$procmux$6_CMP0"/>
    <circle cx="23" cy="10" r="3" class="cell_$techmap\F1.$procmux$6_CMP0"/>
    <g s:x="0" s:y="10" s:pid="A"/>
    <g s:x="25" s:y="10" s:pid="Y"/>
  </g>
  <g s:type="mux" transform="translate(293.3333333333333,203)" s:width="20" s:height="40" id="cell_$techmap\F2.$procmux$2">
    <s:alias val="$pmux"/>
    <s:alias val="$mux"/>
    <s:alias val="$_MUX_"/>
    <path d="M0,0 L20,10 L20,30 L0,40 Z" class="cell_$techmap\F2.$procmux$2"/>
    <g s:x="0" s:y="10" s:pid="A"/>
    <g s:x="0" s:y="30" s:pid="B"/>
    <g s:x="10" s:y="35" s:pid="S"/>
    <g s:x="20" s:y="20" s:pid="Y"/>
  </g>
  <g s:type="mux" transform="translate(293.3333333333333,316)" s:width="20" s:height="40" id="cell_$techmap\F3.$procmux$2">
    <s:alias val="$pmux"/>
    <s:alias val="$mux"/>
    <s:alias val="$_MUX_"/>
    <path d="M0,0 L20,10 L20,30 L0,40 Z" class="cell_$techmap\F3.$procmux$2"/>
    <g s:x="0" s:y="10" s:pid="A"/>
    <g s:x="0" s:y="30" s:pid="B"/>
    <g s:x="10" s:y="35" s:pid="S"/>
    <g s:x="20" s:y="20" s:pid="Y"/>
  </g>
  <g s:type="mux" transform="translate(293.3333333333333,451)" s:width="20" s:height="40" id="cell_$techmap\F4.$procmux$2">
    <s:alias val="$pmux"/>
    <s:alias val="$mux"/>
    <s:alias val="$_MUX_"/>
    <path d="M0,0 L20,10 L20,30 L0,40 Z" class="cell_$techmap\F4.$procmux$2"/>
    <g s:x="0" s:y="10" s:pid="A"/>
    <g s:x="0" s:y="30" s:pid="B"/>
    <g s:x="10" s:y="35" s:pid="S"/>
    <g s:x="20" s:y="20" s:pid="Y"/>
  </g>
  <g s:type="mux" transform="translate(408,12)" s:width="20" s:height="40" id="cell_$techmap\F5.$procmux$2">
    <s:alias val="$pmux"/>
    <s:alias val="$mux"/>
    <s:alias val="$_MUX_"/>
    <path d="M0,0 L20,10 L20,30 L0,40 Z" class="cell_$techmap\F5.$procmux$2"/>
    <g s:x="0" s:y="10" s:pid="A"/>
    <g s:x="0" s:y="30" s:pid="B"/>
    <g s:x="10" s:y="35" s:pid="S"/>
    <g s:x="20" s:y="20" s:pid="Y"/>
  </g>
  <g s:type="eq" transform="translate(291.6666666666667,530.5)" s:width="25" s:height="25" id="cell_$techmap\F5.$procmux$3_CMP0">
    <s:alias val="$eq"/>
    <circle r="12.5" cx="12.5" cy="12.5" class="cell_$techmap\F5.$procmux$3_CMP0"/>
    <line x1="7.5" x2="17.5" y1="10" y2="10" class="cell_$techmap\F5.$procmux$3_CMP0"/>
    <line x1="7.5" x2="17.5" y1="15" y2="15" class="cell_$techmap\F5.$procmux$3_CMP0"/>
    <g s:x="3" s:y="5" s:pid="A"/>
    <g s:x="3" s:y="20" s:pid="B"/>
    <g s:x="25" s:y="12.5" s:pid="Y"/>
  </g>
  <g s:type="eq" transform="translate(291.6666666666667,595.5)" s:width="25" s:height="25" id="cell_$techmap\F5.$procmux$4_CMP0">
    <s:alias val="$eq"/>
    <circle r="12.5" cx="12.5" cy="12.5" class="cell_$techmap\F5.$procmux$4_CMP0"/>
    <line x1="7.5" x2="17.5" y1="10" y2="10" class="cell_$techmap\F5.$procmux$4_CMP0"/>
    <line x1="7.5" x2="17.5" y1="15" y2="15" class="cell_$techmap\F5.$procmux$4_CMP0"/>
    <g s:x="3" s:y="5" s:pid="A"/>
    <g s:x="3" s:y="20" s:pid="B"/>
    <g s:x="25" s:y="12.5" s:pid="Y"/>
  </g>
  <g s:type="eq" transform="translate(291.6666666666667,881.5)" s:width="25" s:height="25" id="cell_$techmap\F5.$procmux$5_CMP0">
    <s:alias val="$eq"/>
    <circle r="12.5" cx="12.5" cy="12.5" class="cell_$techmap\F5.$procmux$5_CMP0"/>
    <line x1="7.5" x2="17.5" y1="10" y2="10" class="cell_$techmap\F5.$procmux$5_CMP0"/>
    <line x1="7.5" x2="17.5" y1="15" y2="15" class="cell_$techmap\F5.$procmux$5_CMP0"/>
    <g s:x="3" s:y="5" s:pid="A"/>
    <g s:x="3" s:y="20" s:pid="B"/>
    <g s:x="25" s:y="12.5" s:pid="Y"/>
  </g>
  <g s:type="not" transform="translate(290,826.5)" s:width="30" s:height="20" id="cell_$techmap\F5.$procmux$6_CMP0">
    <s:alias val="$_NOT_"/>
    <s:alias val="$not"/>
    <s:alias val="$logic_not"/>
    <path d="M0,0 L0,20 L20,10 Z" class="cell_$techmap\F5.$procmux$6_CMP0"/>
    <circle cx="23" cy="10" r="3" class="cell_$techmap\F5.$procmux$6_CMP0"/>
    <g s:x="0" s:y="10" s:pid="A"/>
    <g s:x="25" s:y="10" s:pid="Y"/>
  </g>
  <g s:type="inputExt" transform="translate(77,143)" s:width="30" s:height="20" id="cell_A">
    <text x="15" y="-4" class="nodelabel cell_A" s:attribute="ref">A</text>
    <s:alias val="$_inputExt_"/>
    <path d="M0,0 L0,20 L15,20 L30,10 L15,0 Z" class="cell_A"/>
    <g s:x="28" s:y="10" s:pid="Y"/>
  </g>
  <g s:type="inputExt" transform="translate(12,806.5)" s:width="30" s:height="20" id="cell_S">
    <text x="15" y="-4" class="nodelabel cell_S" s:attribute="ref">S</text>
    <s:alias val="$_inputExt_"/>
    <path d="M0,0 L0,20 L15,20 L30,10 L15,0 Z" class="cell_S"/>
    <g s:x="28" s:y="10" s:pid="Y"/>
  </g>
  <g s:type="outputExt" transform="translate(463,22)" s:width="30" s:height="20" id="cell_Out">
    <text x="15" y="-4" class="nodelabel cell_Out" s:attribute="ref">Out</text>
    <s:alias val="$_outputExt_"/>
    <path d="M30,0 L30,20 L15,20 L0,10 L15,0 Z" class="cell_Out"/>
    <g s:x="0" s:y="10" s:pid="A"/>
  </g>
  <g s:type="constant" transform="translate(77,540.5)" s:width="30" s:height="20" id="cell_11">
    <text x="15" y="-4" class="nodelabel cell_11" s:attribute="ref">11</text>
    <s:alias val="$_constant_"/>
    <rect width="30" height="20" class="cell_11"/>
    <g s:x="30" s:y="10" s:pid="Y"/>
  </g>
  <g s:type="constant" transform="translate(77,605.5)" s:width="30" s:height="20" id="cell_10">
    <text x="15" y="-4" class="nodelabel cell_10" s:attribute="ref">10</text>
    <s:alias val="$_constant_"/>
    <rect width="30" height="20" class="cell_10"/>
    <g s:x="30" s:y="10" s:pid="Y"/>
  </g>
  <g s:type="constant" transform="translate(77,891.5)" s:width="30" s:height="20" id="cell_1">
    <text x="15" y="-4" class="nodelabel cell_1" s:attribute="ref">1</text>
    <s:alias val="$_constant_"/>
    <rect width="30" height="20" class="cell_1"/>
    <g s:x="30" s:y="10" s:pid="Y"/>
  </g>
  <g s:type="join" transform="translate(244,112.5)" s:width="4" s:height="40" id="cell_$join$,5,4,3,2,">
    <rect width="5" height="80" class="splitjoinBody" s:generic="body"/>
    <s:alias val="$_join_"/>
    <g s:x="5" s:y="20" s:pid="out"/>
    <g transform="translate(0,10)" s:x="0" s:y="10" s:pid="in0">
      <text x="-3" y="-4" class="inputPortLabel">0</text>
    </g>
    <g transform="translate(0,30)" s:x="0" s:y="10" s:pid="in0">
      <text x="-3" y="-4" class="inputPortLabel">1</text>
    </g>
    <g transform="translate(0,50)" s:x="0" s:y="10" s:pid="in0">
      <text x="-3" y="-4" class="inputPortLabel">2</text>
    </g>
    <g transform="translate(0,70)" s:x="0" s:y="10" s:pid="in0">
      <text x="-3" y="-4" class="inputPortLabel">3</text>
    </g>
  </g>
  <g s:type="join" transform="translate(244,628.5)" s:width="4" s:height="40" id="cell_$join$,23,24,25,26,">
    <rect width="5" height="80" class="splitjoinBody" s:generic="body"/>
    <s:alias val="$_join_"/>
    <g s:x="5" s:y="20" s:pid="out"/>
    <g transform="translate(0,10)" s:x="0" s:y="10" s:pid="in0">
      <text x="-3" y="-4" class="inputPortLabel">0</text>
    </g>
    <g transform="translate(0,30)" s:x="0" s:y="10" s:pid="in0">
      <text x="-3" y="-4" class="inputPortLabel">1</text>
    </g>
    <g transform="translate(0,50)" s:x="0" s:y="10" s:pid="in0">
      <text x="-3" y="-4" class="inputPortLabel">2</text>
    </g>
    <g transform="translate(0,70)" s:x="0" s:y="10" s:pid="in0">
      <text x="-3" y="-4" class="inputPortLabel">3</text>
    </g>
  </g>
  <g s:type="join" transform="translate(244,212.5)" s:width="4" s:height="40" id="cell_$join$,9,8,7,6,">
    <rect width="5" height="80" class="splitjoinBody" s:generic="body"/>
    <s:alias val="$_join_"/>
    <g s:x="5" s:y="20" s:pid="out"/>
    <g transform="translate(0,10)" s:x="0" s:y="10" s:pid="in0">
      <text x="-3" y="-4" class="inputPortLabel">0</text>
    </g>
    <g transform="translate(0,30)" s:x="0" s:y="10" s:pid="in0">
      <text x="-3" y="-4" class="inputPortLabel">1</text>
    </g>
    <g transform="translate(0,50)" s:x="0" s:y="10" s:pid="in0">
      <text x="-3" y="-4" class="inputPortLabel">2</text>
    </g>
    <g transform="translate(0,70)" s:x="0" s:y="10" s:pid="in0">
      <text x="-3" y="-4" class="inputPortLabel">3</text>
    </g>
  </g>
  <g s:type="join" transform="translate(244,325.5)" s:width="4" s:height="40" id="cell_$join$,13,12,11,10,">
    <rect width="5" height="80" class="splitjoinBody" s:generic="body"/>
    <s:alias val="$_join_"/>
    <g s:x="5" s:y="20" s:pid="out"/>
    <g transform="translate(0,10)" s:x="0" s:y="10" s:pid="in0">
      <text x="-3" y="-4" class="inputPortLabel">0</text>
    </g>
    <g transform="translate(0,30)" s:x="0" s:y="10" s:pid="in0">
      <text x="-3" y="-4" class="inputPortLabel">1</text>
    </g>
    <g transform="translate(0,50)" s:x="0" s:y="10" s:pid="in0">
      <text x="-3" y="-4" class="inputPortLabel">2</text>
    </g>
    <g transform="translate(0,70)" s:x="0" s:y="10" s:pid="in0">
      <text x="-3" y="-4" class="inputPortLabel">3</text>
    </g>
  </g>
  <g s:type="join" transform="translate(244,460.5)" s:width="4" s:height="40" id="cell_$join$,17,16,15,14,">
    <rect width="5" height="80" class="splitjoinBody" s:generic="body"/>
    <s:alias val="$_join_"/>
    <g s:x="5" s:y="20" s:pid="out"/>
    <g transform="translate(0,10)" s:x="0" s:y="10" s:pid="in0">
      <text x="-3" y="-4" class="inputPortLabel">0</text>
    </g>
    <g transform="translate(0,30)" s:x="0" s:y="10" s:pid="in0">
      <text x="-3" y="-4" class="inputPortLabel">1</text>
    </g>
    <g transform="translate(0,50)" s:x="0" s:y="10" s:pid="in0">
      <text x="-3" y="-4" class="inputPortLabel">2</text>
    </g>
    <g transform="translate(0,70)" s:x="0" s:y="10" s:pid="in0">
      <text x="-3" y="-4" class="inputPortLabel">3</text>
    </g>
  </g>
  <g s:type="join" transform="translate(367,33)" s:width="4" s:height="40" id="cell_$join$,30,29,28,27,">
    <rect width="5" height="80" class="splitjoinBody" s:generic="body"/>
    <s:alias val="$_join_"/>
    <g s:x="5" s:y="20" s:pid="out"/>
    <g transform="translate(0,10)" s:x="0" s:y="10" s:pid="in0">
      <text x="-3" y="-4" class="inputPortLabel">0</text>
    </g>
    <g transform="translate(0,30)" s:x="0" s:y="10" s:pid="in0">
      <text x="-3" y="-4" class="inputPortLabel">1</text>
    </g>
    <g transform="translate(0,50)" s:x="0" s:y="10" s:pid="in0">
      <text x="-3" y="-4" class="inputPortLabel">2</text>
    </g>
    <g transform="translate(0,70)" s:x="0" s:y="10" s:pid="in0">
      <text x="-3" y="-4" class="inputPortLabel">3</text>
    </g>
  </g>
  <g s:type="join" transform="translate(367,532.5)" s:width="4" s:height="40" id="cell_$join$,31,32,33,34,">
    <rect width="5" height="80" class="splitjoinBody" s:generic="body"/>
    <s:alias val="$_join_"/>
    <g s:x="5" s:y="20" s:pid="out"/>
    <g transform="translate(0,10)" s:x="0" s:y="10" s:pid="in0">
      <text x="-3" y="-4" class="inputPortLabel">0</text>
    </g>
    <g transform="translate(0,30)" s:x="0" s:y="10" s:pid="in0">
      <text x="-3" y="-4" class="inputPortLabel">1</text>
    </g>
    <g transform="translate(0,50)" s:x="0" s:y="10" s:pid="in0">
      <text x="-3" y="-4" class="inputPortLabel">2</text>
    </g>
    <g transform="translate(0,70)" s:x="0" s:y="10" s:pid="in0">
      <text x="-3" y="-4" class="inputPortLabel">3</text>
    </g>
  </g>
  <g s:type="split" transform="translate(165,165)" s:width="5" s:height="40" id="cell_$split$,2,3,4,5,6,7,8,9,10,11,12,13,14,15,16,17,">
    <rect width="5" height="320" class="splitjoinBody" s:generic="body"/>
    <s:alias val="$_split_"/>
    <g s:x="0" s:y="20" s:pid="in"/>
    <g transform="translate(4,10)" s:x="4" s:y="10" s:pid="out0">
      <text x="5" y="-4">3</text>
    </g>
    <g transform="translate(4,30)" s:x="4" s:y="10" s:pid="out0">
      <text x="5" y="-4">2</text>
    </g>
    <g transform="translate(4,50)" s:x="4" s:y="10" s:pid="out0">
      <text x="5" y="-4">1</text>
    </g>
    <g transform="translate(4,70)" s:x="4" s:y="10" s:pid="out0">
      <text x="5" y="-4">0</text>
    </g>
    <g transform="translate(4,90)" s:x="4" s:y="10" s:pid="out0">
      <text x="5" y="-4">7</text>
    </g>
    <g transform="translate(4,110)" s:x="4" s:y="10" s:pid="out0">
      <text x="5" y="-4">6</text>
    </g>
    <g transform="translate(4,130)" s:x="4" s:y="10" s:pid="out0">
      <text x="5" y="-4">5</text>
    </g>
    <g transform="translate(4,150)" s:x="4" s:y="10" s:pid="out0">
      <text x="5" y="-4">4</text>
    </g>
    <g transform="translate(4,170)" s:x="4" s:y="10" s:pid="out0">
      <text x="5" y="-4">11</text>
    </g>
    <g transform="translate(4,190)" s:x="4" s:y="10" s:pid="out0">
      <text x="5" y="-4">10</text>
    </g>
    <g transform="translate(4,210)" s:x="4" s:y="10" s:pid="out0">
      <text x="5" y="-4">9</text>
    </g>
    <g transform="translate(4,230)" s:x="4" s:y="10" s:pid="out0">
      <text x="5" y="-4">8</text>
    </g>
    <g transform="translate(4,250)" s:x="4" s:y="10" s:pid="out0">
      <text x="5" y="-4">15</text>
    </g>
    <g transform="translate(4,270)" s:x="4" s:y="10" s:pid="out0">
      <text x="5" y="-4">14</text>
    </g>
    <g transform="translate(4,290)" s:x="4" s:y="10" s:pid="out0">
      <text x="5" y="-4">13</text>
    </g>
    <g transform="translate(4,310)" s:x="4" s:y="10" s:pid="out0">
      <text x="5" y="-4">12</text>
    </g>
  </g>
  <g s:type="split" transform="translate(83,796)" s:width="5" s:height="40" id="cell_$split$,18,19,20,21,">
    <rect width="5" height="40" class="splitjoinBody" s:generic="body"/>
    <s:alias val="$_split_"/>
    <g s:x="0" s:y="20" s:pid="in"/>
    <g transform="translate(4,10)" s:x="4" s:y="10" s:pid="out0">
      <text x="5" y="-4">0:1</text>
    </g>
    <g transform="translate(4,30)" s:x="4" s:y="10" s:pid="out0">
      <text x="5" y="-4">2:3</text>
    </g>
  </g>
  <line x1="260" x2="260" y1="425.5" y2="113" class="net_x"/>
  <circle cx="260" cy="113" r="2" style="fill:#000" class="net_x"/>
  <line x1="260" x2="293.3333333333333" y1="113" y2="113" class="net_x"/>
  <line x1="260" x2="260" y1="425.5" y2="213" class="net_x"/>
  <circle cx="260" cy="213" r="2" style="fill:#000" class="net_x"/>
  <line x1="260" x2="293.3333333333333" y1="213" y2="213" class="net_x"/>
  <line x1="260" x2="260" y1="425.5" y2="326" class="net_x"/>
  <circle cx="260" cy="326" r="2" style="fill:#000" class="net_x"/>
  <line x1="260" x2="293.3333333333333" y1="326" y2="326" class="net_x"/>
  <line x1="260" x2="260" y1="425.5" y2="461" class="net_x"/>
  <line x1="260" x2="293.3333333333333" y1="461" y2="461" class="net_x"/>
  <line x1="260" x2="260" y1="425.5" y2="22" class="net_x"/>
  <line x1="260" x2="408" y1="22" y2="22" class="net_x"/>
  <line x1="250" x2="293.3333333333333" y1="133" y2="133" class="net_5,4,3,2"/>
  <line x1="250" x2="270" y1="649" y2="649" class="net_23,24,25,26"/>
  <line x1="270" x2="270" y1="649" y2="153" class="net_23,24,25,26"/>
  <line x1="270" x2="303.3333333333333" y1="153" y2="153" class="net_23,24,25,26"/>
  <line x1="303.3333333333333" x2="303.3333333333333" y1="153" y2="138" class="net_23,24,25,26"/>
  <line x1="250" x2="270" y1="649" y2="649" class="net_23,24,25,26"/>
  <line x1="270" x2="270" y1="649" y2="306" class="net_23,24,25,26"/>
  <line x1="270" x2="303.3333333333333" y1="306" y2="306" class="net_23,24,25,26"/>
  <circle cx="270" cy="306" r="2" style="fill:#000" class="net_23,24,25,26"/>
  <line x1="303.3333333333333" x2="303.3333333333333" y1="306" y2="238" class="net_23,24,25,26"/>
  <line x1="250" x2="270" y1="649" y2="649" class="net_23,24,25,26"/>
  <line x1="270" x2="270" y1="649" y2="441" class="net_23,24,25,26"/>
  <line x1="270" x2="303.3333333333333" y1="441" y2="441" class="net_23,24,25,26"/>
  <circle cx="270" cy="441" r="2" style="fill:#000" class="net_23,24,25,26"/>
  <line x1="303.3333333333333" x2="303.3333333333333" y1="441" y2="351" class="net_23,24,25,26"/>
  <line x1="250" x2="270" y1="649" y2="649" class="net_23,24,25,26"/>
  <line x1="270" x2="270" y1="649" y2="520.5" class="net_23,24,25,26"/>
  <line x1="270" x2="303.3333333333333" y1="520.5" y2="520.5" class="net_23,24,25,26"/>
  <circle cx="270" cy="520.5" r="2" style="fill:#000" class="net_23,24,25,26"/>
  <line x1="303.3333333333333" x2="303.3333333333333" y1="520.5" y2="486" class="net_23,24,25,26"/>
  <line x1="88" x2="127" y1="806.5" y2="806.5" class="net_18,19"/>
  <line x1="127" x2="127" y1="806.5" y2="631.5" class="net_18,19"/>
  <circle cx="127" cy="806.5" r="2" style="fill:#000" class="net_18,19"/>
  <line x1="127" x2="151.66666666666666" y1="631.5" y2="631.5" class="net_18,19"/>
  <line x1="88" x2="127" y1="806.5" y2="806.5" class="net_18,19"/>
  <line x1="127" x2="127" y1="806.5" y2="691.5" class="net_18,19"/>
  <circle cx="127" cy="691.5" r="2" style="fill:#000" class="net_18,19"/>
  <line x1="127" x2="151.66666666666666" y1="691.5" y2="691.5" class="net_18,19"/>
  <line x1="88" x2="151.66666666666666" y1="806.5" y2="806.5" class="net_18,19"/>
  <line x1="88" x2="127" y1="806.5" y2="806.5" class="net_18,19"/>
  <line x1="127" x2="127" y1="806.5" y2="756.5" class="net_18,19"/>
  <circle cx="127" cy="756.5" r="2" style="fill:#000" class="net_18,19"/>
  <line x1="127" x2="147" y1="756.5" y2="756.5" class="net_18,19"/>
  <line x1="107" x2="137" y1="550.5" y2="550.5" class="net_35,36"/>
  <line x1="137" x2="137" y1="550.5" y2="646.5" class="net_35,36"/>
  <circle cx="137" cy="550.5" r="2" style="fill:#000" class="net_35,36"/>
  <line x1="137" x2="151.66666666666666" y1="646.5" y2="646.5" class="net_35,36"/>
  <line x1="107" x2="294.6666666666667" y1="550.5" y2="550.5" class="net_35,36"/>
  <line x1="107" x2="117" y1="615.5" y2="615.5" class="net_37,38"/>
  <line x1="117" x2="117" y1="615.5" y2="706.5" class="net_37,38"/>
  <circle cx="117" cy="615.5" r="2" style="fill:#000" class="net_37,38"/>
  <line x1="117" x2="151.66666666666666" y1="706.5" y2="706.5" class="net_37,38"/>
  <line x1="107" x2="294.6666666666667" y1="615.5" y2="615.5" class="net_37,38"/>
  <line x1="107" x2="117" y1="901.5" y2="901.5" class="net_39"/>
  <line x1="117" x2="117" y1="901.5" y2="821.5" class="net_39"/>
  <circle cx="117" cy="901.5" r="2" style="fill:#000" class="net_39"/>
  <line x1="117" x2="151.66666666666666" y1="821.5" y2="821.5" class="net_39"/>
  <line x1="107" x2="294.6666666666667" y1="901.5" y2="901.5" class="net_39"/>
  <line x1="250" x2="293.3333333333333" y1="233" y2="233" class="net_9,8,7,6"/>
  <line x1="250" x2="293.3333333333333" y1="346" y2="346" class="net_13,12,11,10"/>
  <line x1="250" x2="293.3333333333333" y1="481" y2="481" class="net_17,16,15,14"/>
  <line x1="373" x2="383" y1="53.5" y2="53.5" class="net_30,29,28,27"/>
  <line x1="383" x2="383" y1="53.5" y2="42" class="net_30,29,28,27"/>
  <line x1="383" x2="408" y1="42" y2="42" class="net_30,29,28,27"/>
  <line x1="373" x2="418" y1="553" y2="553" class="net_31,32,33,34"/>
  <line x1="418" x2="418" y1="553" y2="47" class="net_31,32,33,34"/>
  <line x1="88" x2="127" y1="826.5" y2="826.5" class="net_20,21"/>
  <line x1="127" x2="127" y1="826.5" y2="836.5" class="net_20,21"/>
  <line x1="127" x2="280" y1="836.5" y2="836.5" class="net_20,21"/>
  <line x1="280" x2="280" y1="836.5" y2="535.5" class="net_20,21"/>
  <circle cx="280" cy="836.5" r="2" style="fill:#000" class="net_20,21"/>
  <line x1="280" x2="294.6666666666667" y1="535.5" y2="535.5" class="net_20,21"/>
  <line x1="88" x2="127" y1="826.5" y2="826.5" class="net_20,21"/>
  <line x1="127" x2="127" y1="826.5" y2="836.5" class="net_20,21"/>
  <line x1="127" x2="280" y1="836.5" y2="836.5" class="net_20,21"/>
  <line x1="280" x2="280" y1="836.5" y2="600.5" class="net_20,21"/>
  <circle cx="280" cy="600.5" r="2" style="fill:#000" class="net_20,21"/>
  <line x1="280" x2="294.6666666666667" y1="600.5" y2="600.5" class="net_20,21"/>
  <line x1="88" x2="127" y1="826.5" y2="826.5" class="net_20,21"/>
  <line x1="127" x2="127" y1="826.5" y2="836.5" class="net_20,21"/>
  <line x1="127" x2="280" y1="836.5" y2="836.5" class="net_20,21"/>
  <line x1="280" x2="280" y1="836.5" y2="886.5" class="net_20,21"/>
  <line x1="280" x2="294.6666666666667" y1="886.5" y2="886.5" class="net_20,21"/>
  <line x1="88" x2="127" y1="826.5" y2="826.5" class="net_20,21"/>
  <line x1="127" x2="127" y1="826.5" y2="836.5" class="net_20,21"/>
  <line x1="127" x2="290" y1="836.5" y2="836.5" class="net_20,21"/>
  <line x1="428" x2="463" y1="32" y2="32" class="net_22"/>
  <line x1="169.5" x2="169.5" y1="175" y2="123" class="net_5"/>
  <line x1="169.5" x2="244" y1="123" y2="123" class="net_5"/>
  <line x1="169.5" x2="169.5" y1="195" y2="143" class="net_4"/>
  <line x1="169.5" x2="244" y1="143" y2="143" class="net_4"/>
  <line x1="170" x2="187" y1="215.5" y2="215.5" class="net_3"/>
  <line x1="187" x2="187" y1="215.5" y2="163" class="net_3"/>
  <line x1="187" x2="244" y1="163" y2="163" class="net_3"/>
  <line x1="170" x2="197" y1="235.5" y2="235.5" class="net_2"/>
  <line x1="197" x2="197" y1="235.5" y2="202.5" class="net_2"/>
  <line x1="197" x2="244.5" y1="202.5" y2="202.5" class="net_2"/>
  <line x1="244.5" x2="244.5" y1="202.5" y2="183.5" class="net_2"/>
  <line x1="173.66666666666666" x2="244" y1="639" y2="639" class="net_23"/>
  <line x1="173.66666666666666" x2="187" y1="699" y2="699" class="net_24"/>
  <line x1="187" x2="187" y1="699" y2="659" class="net_24"/>
  <line x1="187" x2="244" y1="659" y2="659" class="net_24"/>
  <line x1="173.66666666666666" x2="197" y1="814" y2="814" class="net_25"/>
  <line x1="197" x2="197" y1="814" y2="679" class="net_25"/>
  <line x1="197" x2="244" y1="679" y2="679" class="net_25"/>
  <line x1="172" x2="244.5" y1="756.5" y2="756.5" class="net_26"/>
  <line x1="244.5" x2="244.5" y1="756.5" y2="699.5" class="net_26"/>
  <line x1="170" x2="207" y1="255.5" y2="255.5" class="net_9"/>
  <line x1="207" x2="207" y1="255.5" y2="223" class="net_9"/>
  <line x1="207" x2="244" y1="223" y2="223" class="net_9"/>
  <line x1="170" x2="217" y1="275.5" y2="275.5" class="net_8"/>
  <line x1="217" x2="217" y1="275.5" y2="243" class="net_8"/>
  <line x1="217" x2="244" y1="243" y2="243" class="net_8"/>
  <line x1="170" x2="227" y1="295.5" y2="295.5" class="net_7"/>
  <line x1="227" x2="227" y1="295.5" y2="263" class="net_7"/>
  <line x1="227" x2="244" y1="263" y2="263" class="net_7"/>
  <line x1="170" x2="244.5" y1="315.5" y2="315.5" class="net_6"/>
  <line x1="244.5" x2="244.5" y1="315.5" y2="283.5" class="net_6"/>
  <line x1="170" x2="187" y1="335.5" y2="335.5" class="net_13"/>
  <line x1="187" x2="187" y1="335.5" y2="336" class="net_13"/>
  <line x1="187" x2="244" y1="336" y2="336" class="net_13"/>
  <line x1="170" x2="187" y1="355.5" y2="355.5" class="net_12"/>
  <line x1="187" x2="187" y1="355.5" y2="356" class="net_12"/>
  <line x1="187" x2="244" y1="356" y2="356" class="net_12"/>
  <line x1="170" x2="187" y1="375.5" y2="375.5" class="net_11"/>
  <line x1="187" x2="187" y1="375.5" y2="376" class="net_11"/>
  <line x1="187" x2="244" y1="376" y2="376" class="net_11"/>
  <line x1="170" x2="207" y1="395.5" y2="395.5" class="net_10"/>
  <line x1="207" x2="207" y1="395.5" y2="415.5" class="net_10"/>
  <line x1="207" x2="244.5" y1="415.5" y2="415.5" class="net_10"/>
  <line x1="244.5" x2="244.5" y1="415.5" y2="396.5" class="net_10"/>
  <line x1="170" x2="197" y1="415.5" y2="415.5" class="net_17"/>
  <line x1="197" x2="197" y1="415.5" y2="471" class="net_17"/>
  <line x1="197" x2="244" y1="471" y2="471" class="net_17"/>
  <line x1="170" x2="187" y1="435.5" y2="435.5" class="net_16"/>
  <line x1="187" x2="187" y1="435.5" y2="491" class="net_16"/>
  <line x1="187" x2="244" y1="491" y2="491" class="net_16"/>
  <line x1="169.5" x2="169.5" y1="456" y2="511" class="net_15"/>
  <line x1="169.5" x2="244" y1="511" y2="511" class="net_15"/>
  <line x1="169.5" x2="169.5" y1="476" y2="561.5" class="net_14"/>
  <line x1="169.5" x2="244.5" y1="561.5" y2="561.5" class="net_14"/>
  <line x1="244.5" x2="244.5" y1="561.5" y2="531.5" class="net_14"/>
  <line x1="313.3333333333333" x2="330" y1="471" y2="471" class="net_30"/>
  <line x1="330" x2="330" y1="471" y2="43.5" class="net_30"/>
  <line x1="330" x2="367" y1="43.5" y2="43.5" class="net_30"/>
  <line x1="313.3333333333333" x2="340" y1="336" y2="336" class="net_29"/>
  <line x1="340" x2="340" y1="336" y2="63.5" class="net_29"/>
  <line x1="340" x2="367" y1="63.5" y2="63.5" class="net_29"/>
  <line x1="313.3333333333333" x2="350" y1="223" y2="223" class="net_28"/>
  <line x1="350" x2="350" y1="223" y2="83.5" class="net_28"/>
  <line x1="350" x2="367" y1="83.5" y2="83.5" class="net_28"/>
  <line x1="313.3333333333333" x2="367.5" y1="123" y2="123" class="net_27"/>
  <line x1="367.5" x2="367.5" y1="123" y2="104" class="net_27"/>
  <line x1="316.6666666666667" x2="367" y1="543" y2="543" class="net_31"/>
  <line x1="316.6666666666667" x2="330" y1="608" y2="608" class="net_32"/>
  <line x1="330" x2="330" y1="608" y2="563" class="net_32"/>
  <line x1="330" x2="367" y1="563" y2="563" class="net_32"/>
  <line x1="316.6666666666667" x2="340" y1="894" y2="894" class="net_33"/>
  <line x1="340" x2="340" y1="894" y2="583" class="net_33"/>
  <line x1="340" x2="367" y1="583" y2="583" class="net_33"/>
  <line x1="315" x2="367.5" y1="836.5" y2="836.5" class="net_34"/>
  <line x1="367.5" x2="367.5" y1="836.5" y2="603.5" class="net_34"/>
  <line x1="105" x2="165.5" y1="153" y2="153" class="net_2,3,4,5,6,7,8,9,10,11,12,13,14,15,16,17"/>
  <line x1="165.5" x2="165.5" y1="153" y2="185" class="net_2,3,4,5,6,7,8,9,10,11,12,13,14,15,16,17"/>
  <line x1="40" x2="83" y1="816.5" y2="816.5" class="net_18,19,20,21"/>
</svg>
