<svg xmlns="http://www.w3.org/2000/svg" xmlns:xlink="http://www.w3.org/1999/xlink" xmlns:s="https://github.com/nturley/netlistsvg" width="331" height="213">
  <style>svg {
    stroke:#000;
    fill:none;
  }
  text {
    fill:#000;
    stroke:none;
    font-size:10px;
    font-weight: bold;
    font-family: "Courier New", monospace;
  }
  .nodelabel {
    text-anchor: middle;
  }
  .inputPortLabel {
    text-anchor: end;
  }
  .splitjoinBody {
    fill:#000;
  }</style>
  <g s:type="and" transform="translate(82,43)" s:width="30" s:height="25" id="cell_$techmap\C1.$and$oneBitFA.v:25$3">
    <s:alias val="$and"/>
    <s:alias val="$logic_and"/>
    <s:alias val="$_AND_"/>
    <path d="M0,0 L0,25 L15,25 A15 12.5 0 0 0 15,0 Z" class="cell_$techmap\C1.$and$oneBitFA.v:25$3"/>
    <g s:x="0" s:y="5" s:pid="A"/>
    <g s:x="0" s:y="20" s:pid="B"/>
    <g s:x="30" s:y="12.5" s:pid="Y"/>
  </g>
  <g s:type="and" transform="translate(82,165)" s:width="30" s:height="25" id="cell_$techmap\C1.$and$oneBitFA.v:26$4">
    <s:alias val="$and"/>
    <s:alias val="$logic_and"/>
    <s:alias val="$_AND_"/>
    <path d="M0,0 L0,25 L15,25 A15 12.5 0 0 0 15,0 Z" class="cell_$techmap\C1.$and$oneBitFA.v:26$4"/>
    <g s:x="0" s:y="5" s:pid="A"/>
    <g s:x="0" s:y="20" s:pid="B"/>
    <g s:x="30" s:y="12.5" s:pid="Y"/>
  </g>
  <g s:type="and" transform="translate(148,149)" s:width="30" s:height="25" id="cell_$techmap\C1.$and$oneBitFA.v:27$5">
    <s:alias val="$and"/>
    <s:alias val="$logic_and"/>
    <s:alias val="$_AND_"/>
    <path d="M0,0 L0,25 L15,25 A15 12.5 0 0 0 15,0 Z" class="cell_$techmap\C1.$and$oneBitFA.v:27$5"/>
    <g s:x="0" s:y="5" s:pid="A"/>
    <g s:x="0" s:y="20" s:pid="B"/>
    <g s:x="30" s:y="12.5" s:pid="Y"/>
  </g>
  <g s:type="or" transform="translate(148,89)" s:width="30" s:height="25" id="cell_$techmap\C1.$or$oneBitFA.v:28$6">
    <s:alias val="$or"/>
    <s:alias val="$logic_or"/>
    <s:alias val="$_OR_"/>
    <path d="M0,25 L0,25 L15,25 A15 12.5 0 0 0 15,0 L0,0" class="cell_$techmap\C1.$or$oneBitFA.v:28$6"/>
    <path d="M0,0 A30 25 0 0 1 0,25" class="cell_$techmap\C1.$or$oneBitFA.v:28$6"/>
    <g s:x="3" s:y="5" s:pid="A"/>
    <g s:x="3" s:y="20" s:pid="B"/>
    <g s:x="30" s:y="12.5" s:pid="Y"/>
  </g>
  <g s:type="or" transform="translate(216,96.5)" s:width="30" s:height="25" id="cell_$techmap\C1.$or$oneBitFA.v:28$7">
    <s:alias val="$or"/>
    <s:alias val="$logic_or"/>
    <s:alias val="$_OR_"/>
    <path d="M0,25 L0,25 L15,25 A15 12.5 0 0 0 15,0 L0,0" class="cell_$techmap\C1.$or$oneBitFA.v:28$7"/>
    <path d="M0,0 A30 25 0 0 1 0,25" class="cell_$techmap\C1.$or$oneBitFA.v:28$7"/>
    <g s:x="3" s:y="5" s:pid="A"/>
    <g s:x="3" s:y="20" s:pid="B"/>
    <g s:x="30" s:y="12.5" s:pid="Y"/>
  </g>
  <g s:type="reduce_xor" transform="translate(147,12)" s:width="33" s:height="25" id="cell_$techmap\S1.$xor$oneBitFA.v:15$1">
    <s:alias val="$xor"/>
    <s:alias val="$reduce_xor"/>
    <s:alias val="$_XOR_"/>
    <path d="M3,0 A30 25 0 0 1 3,25 A30 25 0 0 0 33,12.5 A30 25 0 0 0 3,0" class="cell_$techmap\S1.$xor$oneBitFA.v:15$1"/>
    <path d="M0,0 A30 25 0 0 1 0,25" class="cell_$techmap\S1.$xor$oneBitFA.v:15$1"/>
    <g s:x="3" s:y="5" s:pid="A"/>
    <g s:x="3" s:y="20" s:pid="B"/>
    <g s:x="33" s:y="12.5" s:pid="Y"/>
  </g>
  <g s:type="reduce_xor" transform="translate(215,19.5)" s:width="33" s:height="25" id="cell_$techmap\S1.$xor$oneBitFA.v:16$2">
    <s:alias val="$xor"/>
    <s:alias val="$reduce_xor"/>
    <s:alias val="$_XOR_"/>
    <path d="M3,0 A30 25 0 0 1 3,25 A30 25 0 0 0 33,12.5 A30 25 0 0 0 3,0" class="cell_$techmap\S1.$xor$oneBitFA.v:16$2"/>
    <path d="M0,0 A30 25 0 0 1 0,25" class="cell_$techmap\S1.$xor$oneBitFA.v:16$2"/>
    <g s:x="3" s:y="5" s:pid="A"/>
    <g s:x="3" s:y="20" s:pid="B"/>
    <g s:x="33" s:y="12.5" s:pid="Y"/>
  </g>
  <g s:type="outputExt" transform="translate(283,99)" s:width="30" s:height="20" id="cell_cout">
    <text x="15" y="-4" class="nodelabel cell_cout" s:attribute="ref">cout</text>
    <s:alias val="$_outputExt_"/>
    <path d="M30,0 L30,20 L15,20 L0,10 L15,0 Z" class="cell_cout"/>
    <g s:x="0" s:y="10" s:pid="A"/>
  </g>
  <g s:type="outputExt" transform="translate(283,22)" s:width="30" s:height="20" id="cell_sumout">
    <text x="15" y="-4" class="nodelabel cell_sumout" s:attribute="ref">sumout</text>
    <s:alias val="$_outputExt_"/>
    <path d="M30,0 L30,20 L15,20 L0,10 L15,0 Z" class="cell_sumout"/>
    <g s:x="0" s:y="10" s:pid="A"/>
  </g>
  <g s:type="inputExt" transform="translate(12,38)" s:width="30" s:height="20" id="cell_a">
    <text x="15" y="-4" class="nodelabel cell_a" s:attribute="ref">a</text>
    <s:alias val="$_inputExt_"/>
    <path d="M0,0 L0,20 L15,20 L30,10 L15,0 Z" class="cell_a"/>
    <g s:x="28" s:y="10" s:pid="Y"/>
  </g>
  <g s:type="inputExt" transform="translate(12,103)" s:width="30" s:height="20" id="cell_b">
    <text x="15" y="-4" class="nodelabel cell_b" s:attribute="ref">b</text>
    <s:alias val="$_inputExt_"/>
    <path d="M0,0 L0,20 L15,20 L30,10 L15,0 Z" class="cell_b"/>
    <g s:x="28" s:y="10" s:pid="Y"/>
  </g>
  <g s:type="inputExt" transform="translate(12,175)" s:width="30" s:height="20" id="cell_cin">
    <text x="15" y="-4" class="nodelabel cell_cin" s:attribute="ref">cin</text>
    <s:alias val="$_inputExt_"/>
    <path d="M0,0 L0,20 L15,20 L30,10 L15,0 Z" class="cell_cin"/>
    <g s:x="28" s:y="10" s:pid="Y"/>
  </g>
  <line x1="40" x2="82" y1="48" y2="48" class="net_4"/>
  <line x1="40" x2="72" y1="48" y2="48" class="net_4"/>
  <line x1="72" x2="72" y1="48" y2="154" class="net_4"/>
  <circle cx="72" cy="48" r="2" style="fill:#000" class="net_4"/>
  <line x1="72" x2="148" y1="154" y2="154" class="net_4"/>
  <line x1="40" x2="72" y1="48" y2="48" class="net_4"/>
  <line x1="72" x2="72" y1="48" y2="17" class="net_4"/>
  <line x1="72" x2="150" y1="17" y2="17" class="net_4"/>
  <line x1="40" x2="52" y1="113" y2="113" class="net_5"/>
  <line x1="52" x2="52" y1="113" y2="63" class="net_5"/>
  <circle cx="52" cy="113" r="2" style="fill:#000" class="net_5"/>
  <circle cx="52" cy="63" r="2" style="fill:#000" class="net_5"/>
  <line x1="52" x2="82" y1="63" y2="63" class="net_5"/>
  <line x1="40" x2="52" y1="113" y2="113" class="net_5"/>
  <line x1="52" x2="52" y1="113" y2="170" class="net_5"/>
  <line x1="52" x2="82" y1="170" y2="170" class="net_5"/>
  <line x1="40" x2="52" y1="113" y2="113" class="net_5"/>
  <line x1="52" x2="52" y1="113" y2="32" class="net_5"/>
  <line x1="52" x2="150" y1="32" y2="32" class="net_5"/>
  <line x1="40" x2="82" y1="185" y2="185" class="net_6"/>
  <line x1="40" x2="62" y1="185" y2="185" class="net_6"/>
  <line x1="62" x2="62" y1="185" y2="200" class="net_6"/>
  <line x1="62" x2="132" y1="200" y2="200" class="net_6"/>
  <line x1="132" x2="132" y1="200" y2="169" class="net_6"/>
  <circle cx="62" cy="185" r="2" style="fill:#000" class="net_6"/>
  <line x1="132" x2="148" y1="169" y2="169" class="net_6"/>
  <line x1="40" x2="62" y1="185" y2="185" class="net_6"/>
  <line x1="62" x2="62" y1="185" y2="78" class="net_6"/>
  <line x1="62" x2="190" y1="78" y2="78" class="net_6"/>
  <line x1="190" x2="190" y1="78" y2="39.5" class="net_6"/>
  <line x1="190" x2="218" y1="39.5" y2="39.5" class="net_6"/>
  <line x1="112" x2="122" y1="55.5" y2="55.5" class="net_7"/>
  <line x1="122" x2="122" y1="55.5" y2="94" class="net_7"/>
  <line x1="122" x2="151" y1="94" y2="94" class="net_7"/>
  <line x1="112" x2="122" y1="177.5" y2="177.5" class="net_8"/>
  <line x1="122" x2="122" y1="177.5" y2="109" class="net_8"/>
  <line x1="122" x2="151" y1="109" y2="109" class="net_8"/>
  <line x1="178" x2="219" y1="101.5" y2="101.5" class="net_10"/>
  <line x1="178" x2="190" y1="161.5" y2="161.5" class="net_9"/>
  <line x1="190" x2="190" y1="161.5" y2="116.5" class="net_9"/>
  <line x1="190" x2="219" y1="116.5" y2="116.5" class="net_9"/>
  <line x1="180" x2="218" y1="24.5" y2="24.5" class="net_11"/>
  <line x1="246" x2="283" y1="109" y2="109" class="net_2"/>
  <line x1="248" x2="283" y1="32" y2="32" class="net_3"/>
</svg>
