<svg xmlns="http://www.w3.org/2000/svg" xmlns:xlink="http://www.w3.org/1999/xlink" xmlns:s="https://github.com/nturley/netlistsvg" width="276" height="509">
  <style>svg {
    stroke:#000;
    fill:none;
  }
  text {
    fill:#000;
    stroke:none;
    font-size:10px;
    font-weight: bold;
    font-family: "Courier New", monospace;
  }
  .nodelabel {
    text-anchor: middle;
  }
  .inputPortLabel {
    text-anchor: end;
  }
  .splitjoinBody {
    fill:#000;
  }</style>
  <g s:type="and" transform="translate(78,409.5)" s:width="30" s:height="25" id="cell_$and$gatePrimitive.v:5$1">
    <s:alias val="$and"/>
    <s:alias val="$logic_and"/>
    <s:alias val="$_AND_"/>
    <path d="M0,0 L0,25 L15,25 A15 12.5 0 0 0 15,0 Z" class="cell_$and$gatePrimitive.v:5$1"/>
    <g s:x="0" s:y="5" s:pid="A"/>
    <g s:x="0" s:y="20" s:pid="B"/>
    <g s:x="30" s:y="12.5" s:pid="Y"/>
  </g>
  <g s:type="not" transform="translate(145,347)" s:width="30" s:height="20" id="cell_$not$gatePrimitive.v:11$10">
    <s:alias val="$_NOT_"/>
    <s:alias val="$not"/>
    <s:alias val="$logic_not"/>
    <path d="M0,0 L0,20 L20,10 Z" class="cell_$not$gatePrimitive.v:11$10"/>
    <circle cx="23" cy="10" r="3" class="cell_$not$gatePrimitive.v:11$10"/>
    <g s:x="0" s:y="10" s:pid="A"/>
    <g s:x="25" s:y="10" s:pid="Y"/>
  </g>
  <g s:type="not" transform="translate(145,477)" s:width="30" s:height="20" id="cell_$not$gatePrimitive.v:7$4">
    <s:alias val="$_NOT_"/>
    <s:alias val="$not"/>
    <s:alias val="$logic_not"/>
    <path d="M0,0 L0,20 L20,10 Z" class="cell_$not$gatePrimitive.v:7$4"/>
    <circle cx="23" cy="10" r="3" class="cell_$not$gatePrimitive.v:7$4"/>
    <g s:x="0" s:y="10" s:pid="A"/>
    <g s:x="25" s:y="10" s:pid="Y"/>
  </g>
  <g s:type="not" transform="translate(145,152)" s:width="30" s:height="20" id="cell_$not$gatePrimitive.v:8$6">
    <s:alias val="$_NOT_"/>
    <s:alias val="$not"/>
    <s:alias val="$logic_not"/>
    <path d="M0,0 L0,20 L20,10 Z" class="cell_$not$gatePrimitive.v:8$6"/>
    <circle cx="23" cy="10" r="3" class="cell_$not$gatePrimitive.v:8$6"/>
    <g s:x="0" s:y="10" s:pid="A"/>
    <g s:x="25" s:y="10" s:pid="Y"/>
  </g>
  <g s:type="not" transform="translate(145,22)" s:width="30" s:height="20" id="cell_$not$gatePrimitive.v:9$7">
    <s:alias val="$_NOT_"/>
    <s:alias val="$not"/>
    <s:alias val="$logic_not"/>
    <path d="M0,0 L0,20 L20,10 Z" class="cell_$not$gatePrimitive.v:9$7"/>
    <circle cx="23" cy="10" r="3" class="cell_$not$gatePrimitive.v:9$7"/>
    <g s:x="0" s:y="10" s:pid="A"/>
    <g s:x="25" s:y="10" s:pid="Y"/>
  </g>
  <g s:type="or" transform="translate(78,149.5)" s:width="30" s:height="25" id="cell_$or$gatePrimitive.v:6$2">
    <s:alias val="$or"/>
    <s:alias val="$logic_or"/>
    <s:alias val="$_OR_"/>
    <path d="M0,25 L0,25 L15,25 A15 12.5 0 0 0 15,0 L0,0" class="cell_$or$gatePrimitive.v:6$2"/>
    <path d="M0,0 A30 25 0 0 1 0,25" class="cell_$or$gatePrimitive.v:6$2"/>
    <g s:x="3" s:y="5" s:pid="A"/>
    <g s:x="3" s:y="20" s:pid="B"/>
    <g s:x="30" s:y="12.5" s:pid="Y"/>
  </g>
  <g s:type="reduce_xor" transform="translate(77,279.5)" s:width="33" s:height="25" id="cell_$xor$gatePrimitive.v:10$8">
    <s:alias val="$xor"/>
    <s:alias val="$reduce_xor"/>
    <s:alias val="$_XOR_"/>
    <path d="M3,0 A30 25 0 0 1 3,25 A30 25 0 0 0 33,12.5 A30 25 0 0 0 3,0" class="cell_$xor$gatePrimitive.v:10$8"/>
    <path d="M0,0 A30 25 0 0 1 0,25" class="cell_$xor$gatePrimitive.v:10$8"/>
    <g s:x="3" s:y="5" s:pid="A"/>
    <g s:x="3" s:y="20" s:pid="B"/>
    <g s:x="33" s:y="12.5" s:pid="Y"/>
  </g>
  <g s:type="inputExt" transform="translate(12,22)" s:width="30" s:height="20" id="cell_in1">
    <text x="15" y="-4" class="nodelabel cell_in1" s:attribute="ref">in1</text>
    <s:alias val="$_inputExt_"/>
    <path d="M0,0 L0,20 L15,20 L30,10 L15,0 Z" class="cell_in1"/>
    <g s:x="28" s:y="10" s:pid="Y"/>
  </g>
  <g s:type="inputExt" transform="translate(12,159.5)" s:width="30" s:height="20" id="cell_in2">
    <text x="15" y="-4" class="nodelabel cell_in2" s:attribute="ref">in2</text>
    <s:alias val="$_inputExt_"/>
    <path d="M0,0 L0,20 L15,20 L30,10 L15,0 Z" class="cell_in2"/>
    <g s:x="28" s:y="10" s:pid="Y"/>
  </g>
  <g s:type="outputExt" transform="translate(210,412)" s:width="30" s:height="20" id="cell_outAnd">
    <text x="15" y="-4" class="nodelabel cell_outAnd" s:attribute="ref">outAnd</text>
    <s:alias val="$_outputExt_"/>
    <path d="M30,0 L30,20 L15,20 L0,10 L15,0 Z" class="cell_outAnd"/>
    <g s:x="0" s:y="10" s:pid="A"/>
  </g>
  <g s:type="outputExt" transform="translate(210,217)" s:width="30" s:height="20" id="cell_outOr">
    <text x="15" y="-4" class="nodelabel cell_outOr" s:attribute="ref">outOr</text>
    <s:alias val="$_outputExt_"/>
    <path d="M30,0 L30,20 L15,20 L0,10 L15,0 Z" class="cell_outOr"/>
    <g s:x="0" s:y="10" s:pid="A"/>
  </g>
  <g s:type="outputExt" transform="translate(210,22)" s:width="30" s:height="20" id="cell_outNot">
    <text x="15" y="-4" class="nodelabel cell_outNot" s:attribute="ref">outNot</text>
    <s:alias val="$_outputExt_"/>
    <path d="M30,0 L30,20 L15,20 L0,10 L15,0 Z" class="cell_outNot"/>
    <g s:x="0" s:y="10" s:pid="A"/>
  </g>
  <g s:type="outputExt" transform="translate(210,477)" s:width="30" s:height="20" id="cell_outNand">
    <text x="15" y="-4" class="nodelabel cell_outNand" s:attribute="ref">outNand</text>
    <s:alias val="$_outputExt_"/>
    <path d="M30,0 L30,20 L15,20 L0,10 L15,0 Z" class="cell_outNand"/>
    <g s:x="0" s:y="10" s:pid="A"/>
  </g>
  <g s:type="outputExt" transform="translate(210,152)" s:width="30" s:height="20" id="cell_outNor">
    <text x="15" y="-4" class="nodelabel cell_outNor" s:attribute="ref">outNor</text>
    <s:alias val="$_outputExt_"/>
    <path d="M30,0 L30,20 L15,20 L0,10 L15,0 Z" class="cell_outNor"/>
    <g s:x="0" s:y="10" s:pid="A"/>
  </g>
  <g s:type="outputExt" transform="translate(210,282)" s:width="30" s:height="20" id="cell_outExor">
    <text x="15" y="-4" class="nodelabel cell_outExor" s:attribute="ref">outExor</text>
    <s:alias val="$_outputExt_"/>
    <path d="M30,0 L30,20 L15,20 L0,10 L15,0 Z" class="cell_outExor"/>
    <g s:x="0" s:y="10" s:pid="A"/>
  </g>
  <g s:type="outputExt" transform="translate(210,347)" s:width="30" s:height="20" id="cell_outExnor">
    <text x="15" y="-4" class="nodelabel cell_outExnor" s:attribute="ref">outExnor</text>
    <s:alias val="$_outputExt_"/>
    <path d="M30,0 L30,20 L15,20 L0,10 L15,0 Z" class="cell_outExnor"/>
    <g s:x="0" s:y="10" s:pid="A"/>
  </g>
  <g s:type="outputExt" transform="translate(210,87)" s:width="30" s:height="20" id="cell_outBuffer">
    <text x="15" y="-4" class="nodelabel cell_outBuffer" s:attribute="ref">outBuffer</text>
    <s:alias val="$_outputExt_"/>
    <path d="M30,0 L30,20 L15,20 L0,10 L15,0 Z" class="cell_outBuffer"/>
    <g s:x="0" s:y="10" s:pid="A"/>
  </g>
  <line x1="40" x2="62" y1="32" y2="32" class="net_2"/>
  <line x1="62" x2="62" y1="32" y2="414.5" class="net_2"/>
  <circle cx="62" cy="32" r="2" style="fill:#000" class="net_2"/>
  <line x1="62" x2="78" y1="414.5" y2="414.5" class="net_2"/>
  <line x1="40" x2="145" y1="32" y2="32" class="net_2"/>
  <line x1="40" x2="62" y1="32" y2="32" class="net_2"/>
  <line x1="62" x2="62" y1="32" y2="154.5" class="net_2"/>
  <circle cx="62" cy="154.5" r="2" style="fill:#000" class="net_2"/>
  <line x1="62" x2="81" y1="154.5" y2="154.5" class="net_2"/>
  <line x1="40" x2="62" y1="32" y2="32" class="net_2"/>
  <line x1="62" x2="62" y1="32" y2="284.5" class="net_2"/>
  <circle cx="62" cy="284.5" r="2" style="fill:#000" class="net_2"/>
  <line x1="62" x2="80" y1="284.5" y2="284.5" class="net_2"/>
  <line x1="40" x2="120" y1="32" y2="32" class="net_2"/>
  <line x1="120" x2="120" y1="32" y2="97" class="net_2"/>
  <circle cx="120" cy="32" r="2" style="fill:#000" class="net_2"/>
  <line x1="120" x2="210" y1="97" y2="97" class="net_2"/>
  <line x1="40" x2="52" y1="169.5" y2="169.5" class="net_3"/>
  <line x1="52" x2="52" y1="169.5" y2="429.5" class="net_3"/>
  <circle cx="52" cy="169.5" r="2" style="fill:#000" class="net_3"/>
  <line x1="52" x2="78" y1="429.5" y2="429.5" class="net_3"/>
  <line x1="40" x2="81" y1="169.5" y2="169.5" class="net_3"/>
  <line x1="40" x2="52" y1="169.5" y2="169.5" class="net_3"/>
  <line x1="52" x2="52" y1="169.5" y2="299.5" class="net_3"/>
  <circle cx="52" cy="299.5" r="2" style="fill:#000" class="net_3"/>
  <line x1="52" x2="80" y1="299.5" y2="299.5" class="net_3"/>
  <line x1="110" x2="120" y1="292" y2="292" class="net_9"/>
  <line x1="120" x2="120" y1="292" y2="357" class="net_9"/>
  <circle cx="120" cy="292" r="2" style="fill:#000" class="net_9"/>
  <line x1="120" x2="145" y1="357" y2="357" class="net_9"/>
  <line x1="110" x2="210" y1="292" y2="292" class="net_9"/>
  <line x1="108" x2="120" y1="422" y2="422" class="net_4"/>
  <line x1="120" x2="120" y1="422" y2="487" class="net_4"/>
  <circle cx="120" cy="422" r="2" style="fill:#000" class="net_4"/>
  <line x1="120" x2="145" y1="487" y2="487" class="net_4"/>
  <line x1="108" x2="210" y1="422" y2="422" class="net_4"/>
  <line x1="108" x2="145" y1="162" y2="162" class="net_5"/>
  <line x1="108" x2="120" y1="162" y2="162" class="net_5"/>
  <line x1="120" x2="120" y1="162" y2="227" class="net_5"/>
  <circle cx="120" cy="162" r="2" style="fill:#000" class="net_5"/>
  <line x1="120" x2="210" y1="227" y2="227" class="net_5"/>
  <line x1="170" x2="210" y1="32" y2="32" class="net_6"/>
  <line x1="170" x2="210" y1="487" y2="487" class="net_7"/>
  <line x1="170" x2="210" y1="162" y2="162" class="net_8"/>
  <line x1="170" x2="210" y1="357" y2="357" class="net_10"/>
</svg>
