<svg xmlns="http://www.w3.org/2000/svg" xmlns:xlink="http://www.w3.org/1999/xlink" xmlns:s="https://github.com/nturley/netlistsvg" width="372" height="340">
  <style>svg {
    stroke:#000;
    fill:none;
  }
  text {
    fill:#000;
    stroke:none;
    font-size:10px;
    font-weight: bold;
    font-family: "Courier New", monospace;
  }
  .nodelabel {
    text-anchor: middle;
  }
  .inputPortLabel {
    text-anchor: end;
  }
  .splitjoinBody {
    fill:#000;
  }</style>
  <g s:type="add" transform="translate(185.66666666666666,143)" s:width="25" s:height="25" id="cell_$add$updowncount.v:16$3">
    <s:alias val="$add"/>
    <circle r="12.5" cx="12.5" cy="12.5" class="cell_$add$updowncount.v:16$3"/>
    <line x1="7.5" x2="17.5" y1="12.5" y2="12.5" class="cell_$add$updowncount.v:16$3"/>
    <line x1="12.5" x2="12.5" y1="7.5" y2="17.5" class="cell_$add$updowncount.v:16$3"/>
    <g s:x="3" s:y="5" s:pid="A"/>
    <g s:x="3" s:y="20" s:pid="B"/>
    <g s:x="25" s:y="12.5" s:pid="Y"/>
  </g>
  <g s:type="mux" transform="translate(320,223)" s:width="20" s:height="40" id="cell_$procmux$12">
    <s:alias val="$pmux"/>
    <s:alias val="$mux"/>
    <s:alias val="$_MUX_"/>
    <path d="M0,0 L20,10 L20,30 L0,40 Z" class="cell_$procmux$12"/>
    <g s:x="0" s:y="10" s:pid="A"/>
    <g s:x="0" s:y="30" s:pid="B"/>
    <g s:x="10" s:y="35" s:pid="S"/>
    <g s:x="20" s:y="20" s:pid="Y"/>
  </g>
  <g s:type="mux" transform="translate(125.66666666666667,38)" s:width="20" s:height="40" id="cell_$procmux$15">
    <s:alias val="$pmux"/>
    <s:alias val="$mux"/>
    <s:alias val="$_MUX_"/>
    <path d="M0,0 L20,10 L20,30 L0,40 Z" class="cell_$procmux$15"/>
    <g s:x="0" s:y="10" s:pid="A"/>
    <g s:x="0" s:y="30" s:pid="B"/>
    <g s:x="10" s:y="35" s:pid="S"/>
    <g s:x="20" s:y="20" s:pid="Y"/>
  </g>
  <g s:type="mux" transform="translate(254.33333333333334,125.5)" s:width="20" s:height="40" id="cell_$procmux$9">
    <s:alias val="$pmux"/>
    <s:alias val="$mux"/>
    <s:alias val="$_MUX_"/>
    <path d="M0,0 L20,10 L20,30 L0,40 Z" class="cell_$procmux$9"/>
    <g s:x="0" s:y="10" s:pid="A"/>
    <g s:x="0" s:y="30" s:pid="B"/>
    <g s:x="10" s:y="35" s:pid="S"/>
    <g s:x="20" s:y="20" s:pid="Y"/>
  </g>
  <g s:type="sub" transform="translate(185.66666666666666,53)" s:width="25" s:height="25" id="cell_$sub$updowncount.v:18$5">
    <s:alias val="$sub"/>
    <circle r="12.5" cx="12.5" cy="12.5" class="cell_$sub$updowncount.v:18$5"/>
    <line x1="7.5" x2="17.5" y1="12.5" y2="12.5" class="cell_$sub$updowncount.v:18$5"/>
    <g s:x="3" s:y="5" s:pid="A"/>
    <g s:x="3" s:y="20" s:pid="B"/>
    <g s:x="25" s:y="12.5" s:pid="Y"/>
  </g>
  <g s:type="inputExt" transform="translate(12,22)" s:width="30" s:height="20" id="cell_clk">
    <text x="15" y="-4" class="nodelabel cell_clk" s:attribute="ref">clk</text>
    <s:alias val="$_inputExt_"/>
    <path d="M0,0 L0,20 L15,20 L30,10 L15,0 Z" class="cell_clk"/>
    <g s:x="28" s:y="10" s:pid="Y"/>
  </g>
  <g s:type="inputExt" transform="translate(54,123)" s:width="30" s:height="20" id="cell_reset">
    <text x="15" y="-4" class="nodelabel cell_reset" s:attribute="ref">reset</text>
    <s:alias val="$_inputExt_"/>
    <path d="M0,0 L0,20 L15,20 L30,10 L15,0 Z" class="cell_reset"/>
    <g s:x="28" s:y="10" s:pid="Y"/>
  </g>
  <g s:type="inputExt" transform="translate(249,308)" s:width="30" s:height="20" id="cell_preset">
    <text x="15" y="-4" class="nodelabel cell_preset" s:attribute="ref">preset</text>
    <s:alias val="$_inputExt_"/>
    <path d="M0,0 L0,20 L15,20 L30,10 L15,0 Z" class="cell_preset"/>
    <g s:x="28" s:y="10" s:pid="Y"/>
  </g>
  <g s:type="inputExt" transform="translate(184,213)" s:width="30" s:height="20" id="cell_mode">
    <text x="15" y="-4" class="nodelabel cell_mode" s:attribute="ref">mode</text>
    <s:alias val="$_inputExt_"/>
    <path d="M0,0 L0,20 L15,20 L30,10 L15,0 Z" class="cell_mode"/>
    <g s:x="28" s:y="10" s:pid="Y"/>
  </g>
  <g s:type="outputExt" transform="translate(320,32)" s:width="30" s:height="20" id="cell_count">
    <text x="15" y="-4" class="nodelabel cell_count" s:attribute="ref">count</text>
    <s:alias val="$_outputExt_"/>
    <path d="M30,0 L30,20 L15,20 L0,10 L15,0 Z" class="cell_count"/>
    <g s:x="0" s:y="10" s:pid="A"/>
  </g>
  <g s:type="constant" transform="translate(119,153)" s:width="30" s:height="20" id="cell_1">
    <text x="15" y="-4" class="nodelabel cell_1" s:attribute="ref">1</text>
    <s:alias val="$_constant_"/>
    <rect width="30" height="20" class="cell_1"/>
    <g s:x="30" s:y="10" s:pid="Y"/>
  </g>
  <g s:type="constant" transform="translate(249,243)" s:width="30" s:height="20" id="cell_11111">
    <text x="15" y="-4" class="nodelabel cell_11111" s:attribute="ref">0x1f</text>
    <s:alias val="$_constant_"/>
    <rect width="30" height="20" class="cell_11111"/>
    <g s:x="30" s:y="10" s:pid="Y"/>
  </g>
  <g s:type="constant" transform="translate(54,58)" s:width="30" s:height="20" id="cell_00000">
    <text x="15" y="-4" class="nodelabel cell_00000" s:attribute="ref">0x0</text>
    <s:alias val="$_constant_"/>
    <rect width="30" height="20" class="cell_00000"/>
    <g s:x="30" s:y="10" s:pid="Y"/>
  </g>
  <line x1="145.66666666666669" x2="169" y1="58" y2="58" class="net_6,7,8,9,10"/>
  <line x1="169" x2="169" y1="58" y2="148" class="net_6,7,8,9,10"/>
  <circle cx="169" cy="58" r="2" style="fill:#000" class="net_6,7,8,9,10"/>
  <line x1="169" x2="188.66666666666666" y1="148" y2="148" class="net_6,7,8,9,10"/>
  <line x1="145.66666666666669" x2="188.66666666666666" y1="58" y2="58" class="net_6,7,8,9,10"/>
  <line x1="145.66666666666669" x2="169" y1="58" y2="58" class="net_6,7,8,9,10"/>
  <line x1="169" x2="169" y1="58" y2="42" class="net_6,7,8,9,10"/>
  <line x1="169" x2="320" y1="42" y2="42" class="net_6,7,8,9,10"/>
  <line x1="149" x2="188.66666666666666" y1="163" y2="163" class="net_31"/>
  <line x1="149" x2="159" y1="163" y2="163" class="net_31"/>
  <line x1="159" x2="159" y1="163" y2="73" class="net_31"/>
  <circle cx="159" cy="163" r="2" style="fill:#000" class="net_31"/>
  <line x1="159" x2="188.66666666666666" y1="73" y2="73" class="net_31"/>
  <line x1="274.33333333333337" x2="295" y1="145.5" y2="145.5" class="net_16,17,18,19,20"/>
  <line x1="295" x2="295" y1="145.5" y2="233" class="net_16,17,18,19,20"/>
  <line x1="295" x2="320" y1="233" y2="233" class="net_16,17,18,19,20"/>
  <line x1="279" x2="320" y1="253" y2="253" class="net_32,33,34,35,36"/>
  <line x1="277" x2="330" y1="318" y2="318" class="net_4"/>
  <line x1="330" x2="330" y1="318" y2="258" class="net_4"/>
  <line x1="340" x2="360" y1="243" y2="243" class="net_21,22,23,24,25"/>
  <line x1="360" x2="360" y1="243" y2="12" class="net_21,22,23,24,25"/>
  <line x1="360" x2="94" y1="12" y2="12" class="net_21,22,23,24,25"/>
  <line x1="94" x2="94" y1="12" y2="48" class="net_21,22,23,24,25"/>
  <line x1="94" x2="125.66666666666667" y1="48" y2="48" class="net_21,22,23,24,25"/>
  <line x1="84" x2="125.66666666666667" y1="68" y2="68" class="net_37,38,39,40,41"/>
  <line x1="82" x2="135.66666666666669" y1="133" y2="133" class="net_3"/>
  <line x1="135.66666666666669" x2="135.66666666666669" y1="133" y2="73" class="net_3"/>
  <line x1="210.66666666666666" x2="224" y1="65.5" y2="65.5" class="net_26,27,28,29,30"/>
  <line x1="224" x2="224" y1="65.5" y2="135.5" class="net_26,27,28,29,30"/>
  <line x1="224" x2="254.33333333333334" y1="135.5" y2="135.5" class="net_26,27,28,29,30"/>
  <line x1="210.66666666666666" x2="254.33333333333334" y1="155.5" y2="155.5" class="net_11,12,13,14,15"/>
  <line x1="212" x2="264.33333333333337" y1="223" y2="223" class="net_5"/>
  <line x1="264.33333333333337" x2="264.33333333333337" y1="223" y2="160.5" class="net_5"/>
</svg>
