<svg xmlns="http://www.w3.org/2000/svg" xmlns:xlink="http://www.w3.org/1999/xlink" xmlns:s="https://github.com/nturley/netlistsvg" width="455" height="421">
  <style>svg {
    stroke:#000;
    fill:none;
  }
  text {
    fill:#000;
    stroke:none;
    font-size:10px;
    font-weight: bold;
    font-family: "Courier New", monospace;
  }
  .nodelabel {
    text-anchor: middle;
  }
  .inputPortLabel {
    text-anchor: end;
  }
  .splitjoinBody {
    fill:#000;
  }</style>
  <g s:type="add" transform="translate(80.33333333333333,82)" s:width="25" s:height="25" id="cell_$add$updowncount.v:16$5">
    <s:alias val="$add"/>
    <circle r="12.5" cx="12.5" cy="12.5" class="cell_$add$updowncount.v:16$5"/>
    <line x1="7.5" x2="17.5" y1="12.5" y2="12.5" class="cell_$add$updowncount.v:16$5"/>
    <line x1="12.5" x2="12.5" y1="7.5" y2="17.5" class="cell_$add$updowncount.v:16$5"/>
    <g s:x="3" s:y="5" s:pid="A"/>
    <g s:x="3" s:y="20" s:pid="B"/>
    <g s:x="25" s:y="12.5" s:pid="Y"/>
  </g>
  <g s:type="or" transform="translate(213,318)" s:width="30" s:height="25" id="cell_$or$updowncount.v:7$2">
    <s:alias val="$or"/>
    <s:alias val="$logic_or"/>
    <s:alias val="$_OR_"/>
    <path d="M0,25 L0,25 L15,25 A15 12.5 0 0 0 15,0 L0,0" class="cell_$or$updowncount.v:7$2"/>
    <path d="M0,0 A30 25 0 0 1 0,25" class="cell_$or$updowncount.v:7$2"/>
    <g s:x="3" s:y="5" s:pid="A"/>
    <g s:x="3" s:y="20" s:pid="B"/>
    <g s:x="30" s:y="12.5" s:pid="Y"/>
  </g>
  <g s:type="or" transform="translate(283,287)" s:width="30" s:height="25" id="cell_$or$updowncount.v:7$3">
    <s:alias val="$or"/>
    <s:alias val="$logic_or"/>
    <s:alias val="$_OR_"/>
    <path d="M0,25 L0,25 L15,25 A15 12.5 0 0 0 15,0 L0,0" class="cell_$or$updowncount.v:7$3"/>
    <path d="M0,0 A30 25 0 0 1 0,25" class="cell_$or$updowncount.v:7$3"/>
    <g s:x="3" s:y="5" s:pid="A"/>
    <g s:x="3" s:y="20" s:pid="B"/>
    <g s:x="30" s:y="12.5" s:pid="Y"/>
  </g>
  <g s:type="dff" transform="translate(348,54.5)" s:width="30" s:height="40" id="cell_$procdff$19">
    <s:alias val="$dff"/>
    <s:alias val="$_DFF_"/>
    <s:alias val="$_DFF_P_"/>
    <rect width="30" height="40" x="0" y="0" class="cell_$procdff$19"/>
    <path d="M0,35 L5,30 L0,25" class="cell_$procdff$19"/>
    <g s:x="30" s:y="10" s:pid="Q"/>
    <g s:x="0" s:y="30" s:pid="CLK"/>
    <g s:x="0" s:y="30" s:pid="C"/>
    <g s:x="0" s:y="10" s:pid="D"/>
  </g>
  <g s:type="mux" transform="translate(147.33333333333334,24.5)" s:width="20" s:height="40" id="cell_$procmux$11">
    <s:alias val="$pmux"/>
    <s:alias val="$mux"/>
    <s:alias val="$_MUX_"/>
    <path d="M0,0 L20,10 L20,30 L0,40 Z" class="cell_$procmux$11"/>
    <g s:x="0" s:y="10" s:pid="A"/>
    <g s:x="0" s:y="30" s:pid="B"/>
    <g s:x="10" s:y="35" s:pid="S"/>
    <g s:x="20" s:y="20" s:pid="Y"/>
  </g>
  <g s:type="mux" transform="translate(216.33333333333334,34.5)" s:width="20" s:height="40" id="cell_$procmux$14">
    <s:alias val="$pmux"/>
    <s:alias val="$mux"/>
    <s:alias val="$_MUX_"/>
    <path d="M0,0 L20,10 L20,30 L0,40 Z" class="cell_$procmux$14"/>
    <g s:x="0" s:y="10" s:pid="A"/>
    <g s:x="0" s:y="30" s:pid="B"/>
    <g s:x="10" s:y="35" s:pid="S"/>
    <g s:x="20" s:y="20" s:pid="Y"/>
  </g>
  <g s:type="mux" transform="translate(286.3333333333333,44.5)" s:width="20" s:height="40" id="cell_$procmux$17">
    <s:alias val="$pmux"/>
    <s:alias val="$mux"/>
    <s:alias val="$_MUX_"/>
    <path d="M0,0 L20,10 L20,30 L0,40 Z" class="cell_$procmux$17"/>
    <g s:x="0" s:y="10" s:pid="A"/>
    <g s:x="0" s:y="30" s:pid="B"/>
    <g s:x="10" s:y="35" s:pid="S"/>
    <g s:x="20" s:y="20" s:pid="Y"/>
  </g>
  <g s:type="sub" transform="translate(80.33333333333333,22)" s:width="25" s:height="25" id="cell_$sub$updowncount.v:18$7">
    <s:alias val="$sub"/>
    <circle r="12.5" cx="12.5" cy="12.5" class="cell_$sub$updowncount.v:18$7"/>
    <line x1="7.5" x2="17.5" y1="12.5" y2="12.5" class="cell_$sub$updowncount.v:18$7"/>
    <g s:x="3" s:y="5" s:pid="A"/>
    <g s:x="3" s:y="20" s:pid="B"/>
    <g s:x="25" s:y="12.5" s:pid="Y"/>
  </g>
  <g s:type="inputExt" transform="translate(142,313)" s:width="30" s:height="20" id="cell_clk">
    <text x="15" y="-4" class="nodelabel cell_clk" s:attribute="ref">clk</text>
    <s:alias val="$_inputExt_"/>
    <path d="M0,0 L0,20 L15,20 L30,10 L15,0 Z" class="cell_clk"/>
    <g s:x="28" s:y="10" s:pid="Y"/>
  </g>
  <g s:type="inputExt" transform="translate(142,378)" s:width="30" s:height="20" id="cell_reset">
    <text x="15" y="-4" class="nodelabel cell_reset" s:attribute="ref">reset</text>
    <s:alias val="$_inputExt_"/>
    <path d="M0,0 L0,20 L15,20 L30,10 L15,0 Z" class="cell_reset"/>
    <g s:x="28" s:y="10" s:pid="Y"/>
  </g>
  <g s:type="inputExt" transform="translate(142,247)" s:width="30" s:height="20" id="cell_preset">
    <text x="15" y="-4" class="nodelabel cell_preset" s:attribute="ref">preset</text>
    <s:alias val="$_inputExt_"/>
    <path d="M0,0 L0,20 L15,20 L30,10 L15,0 Z" class="cell_preset"/>
    <g s:x="28" s:y="10" s:pid="Y"/>
  </g>
  <g s:type="inputExt" transform="translate(77,152)" s:width="30" s:height="20" id="cell_mode">
    <text x="15" y="-4" class="nodelabel cell_mode" s:attribute="ref">mode</text>
    <s:alias val="$_inputExt_"/>
    <path d="M0,0 L0,20 L15,20 L30,10 L15,0 Z" class="cell_mode"/>
    <g s:x="28" s:y="10" s:pid="Y"/>
  </g>
  <g s:type="outputExt" transform="translate(413,54.5)" s:width="30" s:height="20" id="cell_count">
    <text x="15" y="-4" class="nodelabel cell_count" s:attribute="ref">count</text>
    <s:alias val="$_outputExt_"/>
    <path d="M30,0 L30,20 L15,20 L0,10 L15,0 Z" class="cell_count"/>
    <g s:x="0" s:y="10" s:pid="A"/>
  </g>
  <g s:type="constant" transform="translate(12,32)" s:width="30" s:height="20" id="cell_1">
    <text x="15" y="-4" class="nodelabel cell_1" s:attribute="ref">1</text>
    <s:alias val="$_constant_"/>
    <rect width="30" height="20" class="cell_1"/>
    <g s:x="30" s:y="10" s:pid="Y"/>
  </g>
  <g s:type="constant" transform="translate(142,182)" s:width="30" s:height="20" id="cell_11111">
    <text x="15" y="-4" class="nodelabel cell_11111" s:attribute="ref">0x1f</text>
    <s:alias val="$_constant_"/>
    <rect width="30" height="20" class="cell_11111"/>
    <g s:x="30" s:y="10" s:pid="Y"/>
  </g>
  <g s:type="constant" transform="translate(213,277)" s:width="30" s:height="20" id="cell_00000">
    <text x="15" y="-4" class="nodelabel cell_00000" s:attribute="ref">0x0</text>
    <s:alias val="$_constant_"/>
    <rect width="30" height="20" class="cell_00000"/>
    <g s:x="30" s:y="10" s:pid="Y"/>
  </g>
  <line x1="378" x2="388" y1="64.5" y2="64.5" class="net_6,7,8,9,10"/>
  <line x1="388" x2="388" y1="64.5" y2="408" class="net_6,7,8,9,10"/>
  <line x1="388" x2="52" y1="408" y2="408" class="net_6,7,8,9,10"/>
  <line x1="52" x2="52" y1="408" y2="87" class="net_6,7,8,9,10"/>
  <line x1="52" x2="83.33333333333333" y1="87" y2="87" class="net_6,7,8,9,10"/>
  <line x1="378" x2="388" y1="64.5" y2="64.5" class="net_6,7,8,9,10"/>
  <line x1="388" x2="388" y1="64.5" y2="12" class="net_6,7,8,9,10"/>
  <line x1="388" x2="62" y1="12" y2="12" class="net_6,7,8,9,10"/>
  <line x1="62" x2="62" y1="12" y2="27" class="net_6,7,8,9,10"/>
  <circle cx="388" cy="64.5" r="2" style="fill:#000" class="net_6,7,8,9,10"/>
  <line x1="62" x2="83.33333333333333" y1="27" y2="27" class="net_6,7,8,9,10"/>
  <line x1="378" x2="413" y1="64.5" y2="64.5" class="net_6,7,8,9,10"/>
  <line x1="42" x2="62" y1="42" y2="42" class="net_38"/>
  <line x1="62" x2="62" y1="42" y2="102" class="net_38"/>
  <circle cx="62" cy="42" r="2" style="fill:#000" class="net_38"/>
  <line x1="62" x2="83.33333333333333" y1="102" y2="102" class="net_38"/>
  <line x1="42" x2="83.33333333333333" y1="42" y2="42" class="net_38"/>
  <line x1="170" x2="216" y1="323" y2="323" class="net_2"/>
  <line x1="170" x2="188" y1="388" y2="388" class="net_3"/>
  <line x1="188" x2="188" y1="388" y2="338" class="net_3"/>
  <circle cx="188" cy="388" r="2" style="fill:#000" class="net_3"/>
  <line x1="188" x2="216" y1="338" y2="338" class="net_3"/>
  <line x1="170" x2="263" y1="388" y2="388" class="net_3"/>
  <line x1="263" x2="263" y1="388" y2="94.5" class="net_3"/>
  <line x1="263" x2="296.3333333333333" y1="94.5" y2="94.5" class="net_3"/>
  <line x1="296.3333333333333" x2="296.3333333333333" y1="94.5" y2="79.5" class="net_3"/>
  <line x1="243" x2="273" y1="330.5" y2="330.5" class="net_16"/>
  <line x1="273" x2="273" y1="330.5" y2="292" class="net_16"/>
  <line x1="273" x2="286" y1="292" y2="292" class="net_16"/>
  <line x1="170" x2="188" y1="257" y2="257" class="net_4"/>
  <line x1="188" x2="188" y1="257" y2="307" class="net_4"/>
  <circle cx="188" cy="257" r="2" style="fill:#000" class="net_4"/>
  <line x1="188" x2="286" y1="307" y2="307" class="net_4"/>
  <line x1="170" x2="226.33333333333334" y1="257" y2="257" class="net_4"/>
  <line x1="226.33333333333334" x2="226.33333333333334" y1="257" y2="69.5" class="net_4"/>
  <line x1="313" x2="323" y1="299.5" y2="299.5" class="net_17"/>
  <line x1="323" x2="323" y1="299.5" y2="84.5" class="net_17"/>
  <line x1="323" x2="348" y1="84.5" y2="84.5" class="net_17"/>
  <line x1="306.3333333333333" x2="348" y1="64.5" y2="64.5" class="net_18,19,20,21,22"/>
  <line x1="105.33333333333333" x2="147.33333333333334" y1="34.5" y2="34.5" class="net_23,24,25,26,27"/>
  <line x1="105.33333333333333" x2="117" y1="94.5" y2="94.5" class="net_11,12,13,14,15"/>
  <line x1="117" x2="117" y1="94.5" y2="54.5" class="net_11,12,13,14,15"/>
  <line x1="117" x2="147.33333333333334" y1="54.5" y2="54.5" class="net_11,12,13,14,15"/>
  <line x1="105" x2="157.33333333333334" y1="162" y2="162" class="net_5"/>
  <line x1="157.33333333333334" x2="157.33333333333334" y1="162" y2="59.5" class="net_5"/>
  <line x1="167.33333333333334" x2="216.33333333333334" y1="44.5" y2="44.5" class="net_28,29,30,31,32"/>
  <line x1="172" x2="188" y1="192" y2="192" class="net_39,40,41,42,43"/>
  <line x1="188" x2="188" y1="192" y2="64.5" class="net_39,40,41,42,43"/>
  <line x1="188" x2="216.33333333333334" y1="64.5" y2="64.5" class="net_39,40,41,42,43"/>
  <line x1="236.33333333333334" x2="286.3333333333333" y1="54.5" y2="54.5" class="net_33,34,35,36,37"/>
  <line x1="243" x2="253" y1="287" y2="287" class="net_44,45,46,47,48"/>
  <line x1="253" x2="253" y1="287" y2="74.5" class="net_44,45,46,47,48"/>
  <line x1="253" x2="286.3333333333333" y1="74.5" y2="74.5" class="net_44,45,46,47,48"/>
</svg>
