<svg xmlns="http://www.w3.org/2000/svg" xmlns:xlink="http://www.w3.org/1999/xlink" xmlns:s="https://github.com/nturley/netlistsvg" width="1184" height="804.5">
  <style>svg {
    stroke:#000;
    fill:none;
  }
  text {
    fill:#000;
    stroke:none;
    font-size:10px;
    font-weight: bold;
    font-family: "Courier New", monospace;
  }
  .nodelabel {
    text-anchor: middle;
  }
  .inputPortLabel {
    text-anchor: end;
  }
  .splitjoinBody {
    fill:#000;
  }</style>
  <g s:type="generic" transform="translate(458,42)" s:width="30" s:height="40" id="cell_$auto$proc_dlatch.cc:247:make_hold$102">
    <text x="15" y="-4" class="nodelabel cell_$auto$proc_dlatch.cc:247:make_hold$102" s:attribute="ref">$reduce_or</text>
    <rect width="30" height="20" s:generic="body" class="cell_$auto$proc_dlatch.cc:247:make_hold$102"/>
    <g transform="translate(0,10)" s:x="0" s:y="10" s:pid="in0" id="port_$auto$proc_dlatch.cc:247:make_hold$102~A">
      <text x="-3" y="-4" class="inputPortLabel cell_$auto$proc_dlatch.cc:247:make_hold$102">A</text>
    </g>
    <g transform="translate(30,10)" s:x="30" s:y="10" s:pid="out0" id="port_$auto$proc_dlatch.cc:247:make_hold$102~Y">
      <text x="5" y="-4" style="fill:#000; stroke:none" class="cell_$auto$proc_dlatch.cc:247:make_hold$102">Y</text>
    </g>
  </g>
  <g s:type="generic" transform="translate(458,130)" s:width="30" s:height="40" id="cell_$auto$proc_dlatch.cc:247:make_hold$135">
    <text x="15" y="-4" class="nodelabel cell_$auto$proc_dlatch.cc:247:make_hold$135" s:attribute="ref">$reduce_or</text>
    <rect width="30" height="20" s:generic="body" class="cell_$auto$proc_dlatch.cc:247:make_hold$135"/>
    <g transform="translate(0,10)" s:x="0" s:y="10" s:pid="in0" id="port_$auto$proc_dlatch.cc:247:make_hold$135~A">
      <text x="-3" y="-4" class="inputPortLabel cell_$auto$proc_dlatch.cc:247:make_hold$135">A</text>
    </g>
    <g transform="translate(30,10)" s:x="30" s:y="10" s:pid="out0" id="port_$auto$proc_dlatch.cc:247:make_hold$135~Y">
      <text x="5" y="-4" style="fill:#000; stroke:none" class="cell_$auto$proc_dlatch.cc:247:make_hold$135">Y</text>
    </g>
  </g>
  <g s:type="generic" transform="translate(458,218)" s:width="30" s:height="40" id="cell_$auto$proc_dlatch.cc:247:make_hold$168">
    <text x="15" y="-4" class="nodelabel cell_$auto$proc_dlatch.cc:247:make_hold$168" s:attribute="ref">$reduce_or</text>
    <rect width="30" height="20" s:generic="body" class="cell_$auto$proc_dlatch.cc:247:make_hold$168"/>
    <g transform="translate(0,10)" s:x="0" s:y="10" s:pid="in0" id="port_$auto$proc_dlatch.cc:247:make_hold$168~A">
      <text x="-3" y="-4" class="inputPortLabel cell_$auto$proc_dlatch.cc:247:make_hold$168">A</text>
    </g>
    <g transform="translate(30,10)" s:x="30" s:y="10" s:pid="out0" id="port_$auto$proc_dlatch.cc:247:make_hold$168~Y">
      <text x="5" y="-4" style="fill:#000; stroke:none" class="cell_$auto$proc_dlatch.cc:247:make_hold$168">Y</text>
    </g>
  </g>
  <g s:type="generic" transform="translate(458,341)" s:width="30" s:height="40" id="cell_$auto$proc_dlatch.cc:247:make_hold$201">
    <text x="15" y="-4" class="nodelabel cell_$auto$proc_dlatch.cc:247:make_hold$201" s:attribute="ref">$reduce_or</text>
    <rect width="30" height="20" s:generic="body" class="cell_$auto$proc_dlatch.cc:247:make_hold$201"/>
    <g transform="translate(0,10)" s:x="0" s:y="10" s:pid="in0" id="port_$auto$proc_dlatch.cc:247:make_hold$201~A">
      <text x="-3" y="-4" class="inputPortLabel cell_$auto$proc_dlatch.cc:247:make_hold$201">A</text>
    </g>
    <g transform="translate(30,10)" s:x="30" s:y="10" s:pid="out0" id="port_$auto$proc_dlatch.cc:247:make_hold$201~Y">
      <text x="5" y="-4" style="fill:#000; stroke:none" class="cell_$auto$proc_dlatch.cc:247:make_hold$201">Y</text>
    </g>
  </g>
  <g s:type="generic" transform="translate(458,436)" s:width="30" s:height="40" id="cell_$auto$proc_dlatch.cc:247:make_hold$234">
    <text x="15" y="-4" class="nodelabel cell_$auto$proc_dlatch.cc:247:make_hold$234" s:attribute="ref">$reduce_or</text>
    <rect width="30" height="20" s:generic="body" class="cell_$auto$proc_dlatch.cc:247:make_hold$234"/>
    <g transform="translate(0,10)" s:x="0" s:y="10" s:pid="in0" id="port_$auto$proc_dlatch.cc:247:make_hold$234~A">
      <text x="-3" y="-4" class="inputPortLabel cell_$auto$proc_dlatch.cc:247:make_hold$234">A</text>
    </g>
    <g transform="translate(30,10)" s:x="30" s:y="10" s:pid="out0" id="port_$auto$proc_dlatch.cc:247:make_hold$234~Y">
      <text x="5" y="-4" style="fill:#000; stroke:none" class="cell_$auto$proc_dlatch.cc:247:make_hold$234">Y</text>
    </g>
  </g>
  <g s:type="generic" transform="translate(458,531)" s:width="30" s:height="40" id="cell_$auto$proc_dlatch.cc:247:make_hold$267">
    <text x="15" y="-4" class="nodelabel cell_$auto$proc_dlatch.cc:247:make_hold$267" s:attribute="ref">$reduce_or</text>
    <rect width="30" height="20" s:generic="body" class="cell_$auto$proc_dlatch.cc:247:make_hold$267"/>
    <g transform="translate(0,10)" s:x="0" s:y="10" s:pid="in0" id="port_$auto$proc_dlatch.cc:247:make_hold$267~A">
      <text x="-3" y="-4" class="inputPortLabel cell_$auto$proc_dlatch.cc:247:make_hold$267">A</text>
    </g>
    <g transform="translate(30,10)" s:x="30" s:y="10" s:pid="out0" id="port_$auto$proc_dlatch.cc:247:make_hold$267~Y">
      <text x="5" y="-4" style="fill:#000; stroke:none" class="cell_$auto$proc_dlatch.cc:247:make_hold$267">Y</text>
    </g>
  </g>
  <g s:type="generic" transform="translate(458,665.5)" s:width="30" s:height="40" id="cell_$auto$proc_dlatch.cc:247:make_hold$300">
    <text x="15" y="-4" class="nodelabel cell_$auto$proc_dlatch.cc:247:make_hold$300" s:attribute="ref">$reduce_or</text>
    <rect width="30" height="20" s:generic="body" class="cell_$auto$proc_dlatch.cc:247:make_hold$300"/>
    <g transform="translate(0,10)" s:x="0" s:y="10" s:pid="in0" id="port_$auto$proc_dlatch.cc:247:make_hold$300~A">
      <text x="-3" y="-4" class="inputPortLabel cell_$auto$proc_dlatch.cc:247:make_hold$300">A</text>
    </g>
    <g transform="translate(30,10)" s:x="30" s:y="10" s:pid="out0" id="port_$auto$proc_dlatch.cc:247:make_hold$300~Y">
      <text x="5" y="-4" style="fill:#000; stroke:none" class="cell_$auto$proc_dlatch.cc:247:make_hold$300">Y</text>
    </g>
  </g>
  <g s:type="generic" transform="translate(458,762.5)" s:width="30" s:height="40" id="cell_$auto$proc_dlatch.cc:247:make_hold$333">
    <text x="15" y="-4" class="nodelabel cell_$auto$proc_dlatch.cc:247:make_hold$333" s:attribute="ref">$reduce_or</text>
    <rect width="30" height="20" s:generic="body" class="cell_$auto$proc_dlatch.cc:247:make_hold$333"/>
    <g transform="translate(0,10)" s:x="0" s:y="10" s:pid="in0" id="port_$auto$proc_dlatch.cc:247:make_hold$333~A">
      <text x="-3" y="-4" class="inputPortLabel cell_$auto$proc_dlatch.cc:247:make_hold$333">A</text>
    </g>
    <g transform="translate(30,10)" s:x="30" s:y="10" s:pid="out0" id="port_$auto$proc_dlatch.cc:247:make_hold$333~Y">
      <text x="5" y="-4" style="fill:#000; stroke:none" class="cell_$auto$proc_dlatch.cc:247:make_hold$333">Y</text>
    </g>
  </g>
  <g s:type="not" transform="translate(721,42.5)" s:width="30" s:height="20" id="cell_$auto$proc_dlatch.cc:409:proc_dlatch$104">
    <s:alias val="$_NOT_"/>
    <s:alias val="$not"/>
    <s:alias val="$logic_not"/>
    <path d="M0,0 L0,20 L20,10 Z" class="cell_$auto$proc_dlatch.cc:409:proc_dlatch$104"/>
    <circle cx="23" cy="10" r="3" class="cell_$auto$proc_dlatch.cc:409:proc_dlatch$104"/>
    <g s:x="0" s:y="10" s:pid="A"/>
    <g s:x="25" s:y="10" s:pid="Y"/>
  </g>
  <g s:type="generic" transform="translate(799,22)" s:width="30" s:height="40" id="cell_$auto$proc_dlatch.cc:409:proc_dlatch$106">
    <text x="15" y="-4" class="nodelabel cell_$auto$proc_dlatch.cc:409:proc_dlatch$106" s:attribute="ref">$dlatch</text>
    <rect width="30" height="40" s:generic="body" class="cell_$auto$proc_dlatch.cc:409:proc_dlatch$106"/>
    <g transform="translate(0,10)" s:x="0" s:y="10" s:pid="in0" id="port_$auto$proc_dlatch.cc:409:proc_dlatch$106~D">
      <text x="-3" y="-4" class="inputPortLabel cell_$auto$proc_dlatch.cc:409:proc_dlatch$106">D</text>
    </g>
    <g transform="translate(0,30)" s:x="0" s:y="10" s:pid="in0" id="port_$auto$proc_dlatch.cc:409:proc_dlatch$106~EN">
      <text x="-3" y="-4" class="inputPortLabel cell_$auto$proc_dlatch.cc:409:proc_dlatch$106">EN</text>
    </g>
    <g transform="translate(30,10)" s:x="30" s:y="10" s:pid="out0" id="port_$auto$proc_dlatch.cc:409:proc_dlatch$106~Q">
      <text x="5" y="-4" style="fill:#000; stroke:none" class="cell_$auto$proc_dlatch.cc:409:proc_dlatch$106">Q</text>
    </g>
  </g>
  <g s:type="not" transform="translate(721,130.5)" s:width="30" s:height="20" id="cell_$auto$proc_dlatch.cc:409:proc_dlatch$137">
    <s:alias val="$_NOT_"/>
    <s:alias val="$not"/>
    <s:alias val="$logic_not"/>
    <path d="M0,0 L0,20 L20,10 Z" class="cell_$auto$proc_dlatch.cc:409:proc_dlatch$137"/>
    <circle cx="23" cy="10" r="3" class="cell_$auto$proc_dlatch.cc:409:proc_dlatch$137"/>
    <g s:x="0" s:y="10" s:pid="A"/>
    <g s:x="25" s:y="10" s:pid="Y"/>
  </g>
  <g s:type="generic" transform="translate(799,110)" s:width="30" s:height="40" id="cell_$auto$proc_dlatch.cc:409:proc_dlatch$139">
    <text x="15" y="-4" class="nodelabel cell_$auto$proc_dlatch.cc:409:proc_dlatch$139" s:attribute="ref">$dlatch</text>
    <rect width="30" height="40" s:generic="body" class="cell_$auto$proc_dlatch.cc:409:proc_dlatch$139"/>
    <g transform="translate(0,10)" s:x="0" s:y="10" s:pid="in0" id="port_$auto$proc_dlatch.cc:409:proc_dlatch$139~D">
      <text x="-3" y="-4" class="inputPortLabel cell_$auto$proc_dlatch.cc:409:proc_dlatch$139">D</text>
    </g>
    <g transform="translate(0,30)" s:x="0" s:y="10" s:pid="in0" id="port_$auto$proc_dlatch.cc:409:proc_dlatch$139~EN">
      <text x="-3" y="-4" class="inputPortLabel cell_$auto$proc_dlatch.cc:409:proc_dlatch$139">EN</text>
    </g>
    <g transform="translate(30,10)" s:x="30" s:y="10" s:pid="out0" id="port_$auto$proc_dlatch.cc:409:proc_dlatch$139~Q">
      <text x="5" y="-4" style="fill:#000; stroke:none" class="cell_$auto$proc_dlatch.cc:409:proc_dlatch$139">Q</text>
    </g>
  </g>
  <g s:type="not" transform="translate(721,218.5)" s:width="30" s:height="20" id="cell_$auto$proc_dlatch.cc:409:proc_dlatch$170">
    <s:alias val="$_NOT_"/>
    <s:alias val="$not"/>
    <s:alias val="$logic_not"/>
    <path d="M0,0 L0,20 L20,10 Z" class="cell_$auto$proc_dlatch.cc:409:proc_dlatch$170"/>
    <circle cx="23" cy="10" r="3" class="cell_$auto$proc_dlatch.cc:409:proc_dlatch$170"/>
    <g s:x="0" s:y="10" s:pid="A"/>
    <g s:x="25" s:y="10" s:pid="Y"/>
  </g>
  <g s:type="generic" transform="translate(799,198)" s:width="30" s:height="40" id="cell_$auto$proc_dlatch.cc:409:proc_dlatch$172">
    <text x="15" y="-4" class="nodelabel cell_$auto$proc_dlatch.cc:409:proc_dlatch$172" s:attribute="ref">$dlatch</text>
    <rect width="30" height="40" s:generic="body" class="cell_$auto$proc_dlatch.cc:409:proc_dlatch$172"/>
    <g transform="translate(0,10)" s:x="0" s:y="10" s:pid="in0" id="port_$auto$proc_dlatch.cc:409:proc_dlatch$172~D">
      <text x="-3" y="-4" class="inputPortLabel cell_$auto$proc_dlatch.cc:409:proc_dlatch$172">D</text>
    </g>
    <g transform="translate(0,30)" s:x="0" s:y="10" s:pid="in0" id="port_$auto$proc_dlatch.cc:409:proc_dlatch$172~EN">
      <text x="-3" y="-4" class="inputPortLabel cell_$auto$proc_dlatch.cc:409:proc_dlatch$172">EN</text>
    </g>
    <g transform="translate(30,10)" s:x="30" s:y="10" s:pid="out0" id="port_$auto$proc_dlatch.cc:409:proc_dlatch$172~Q">
      <text x="5" y="-4" style="fill:#000; stroke:none" class="cell_$auto$proc_dlatch.cc:409:proc_dlatch$172">Q</text>
    </g>
  </g>
  <g s:type="not" transform="translate(721,341.5)" s:width="30" s:height="20" id="cell_$auto$proc_dlatch.cc:409:proc_dlatch$203">
    <s:alias val="$_NOT_"/>
    <s:alias val="$not"/>
    <s:alias val="$logic_not"/>
    <path d="M0,0 L0,20 L20,10 Z" class="cell_$auto$proc_dlatch.cc:409:proc_dlatch$203"/>
    <circle cx="23" cy="10" r="3" class="cell_$auto$proc_dlatch.cc:409:proc_dlatch$203"/>
    <g s:x="0" s:y="10" s:pid="A"/>
    <g s:x="25" s:y="10" s:pid="Y"/>
  </g>
  <g s:type="generic" transform="translate(799,286)" s:width="30" s:height="40" id="cell_$auto$proc_dlatch.cc:409:proc_dlatch$205">
    <text x="15" y="-4" class="nodelabel cell_$auto$proc_dlatch.cc:409:proc_dlatch$205" s:attribute="ref">$dlatch</text>
    <rect width="30" height="40" s:generic="body" class="cell_$auto$proc_dlatch.cc:409:proc_dlatch$205"/>
    <g transform="translate(0,10)" s:x="0" s:y="10" s:pid="in0" id="port_$auto$proc_dlatch.cc:409:proc_dlatch$205~D">
      <text x="-3" y="-4" class="inputPortLabel cell_$auto$proc_dlatch.cc:409:proc_dlatch$205">D</text>
    </g>
    <g transform="translate(0,30)" s:x="0" s:y="10" s:pid="in0" id="port_$auto$proc_dlatch.cc:409:proc_dlatch$205~EN">
      <text x="-3" y="-4" class="inputPortLabel cell_$auto$proc_dlatch.cc:409:proc_dlatch$205">EN</text>
    </g>
    <g transform="translate(30,10)" s:x="30" s:y="10" s:pid="out0" id="port_$auto$proc_dlatch.cc:409:proc_dlatch$205~Q">
      <text x="5" y="-4" style="fill:#000; stroke:none" class="cell_$auto$proc_dlatch.cc:409:proc_dlatch$205">Q</text>
    </g>
  </g>
  <g s:type="not" transform="translate(721,436.5)" s:width="30" s:height="20" id="cell_$auto$proc_dlatch.cc:409:proc_dlatch$236">
    <s:alias val="$_NOT_"/>
    <s:alias val="$not"/>
    <s:alias val="$logic_not"/>
    <path d="M0,0 L0,20 L20,10 Z" class="cell_$auto$proc_dlatch.cc:409:proc_dlatch$236"/>
    <circle cx="23" cy="10" r="3" class="cell_$auto$proc_dlatch.cc:409:proc_dlatch$236"/>
    <g s:x="0" s:y="10" s:pid="A"/>
    <g s:x="25" s:y="10" s:pid="Y"/>
  </g>
  <g s:type="generic" transform="translate(799,416)" s:width="30" s:height="40" id="cell_$auto$proc_dlatch.cc:409:proc_dlatch$238">
    <text x="15" y="-4" class="nodelabel cell_$auto$proc_dlatch.cc:409:proc_dlatch$238" s:attribute="ref">$dlatch</text>
    <rect width="30" height="40" s:generic="body" class="cell_$auto$proc_dlatch.cc:409:proc_dlatch$238"/>
    <g transform="translate(0,10)" s:x="0" s:y="10" s:pid="in0" id="port_$auto$proc_dlatch.cc:409:proc_dlatch$238~D">
      <text x="-3" y="-4" class="inputPortLabel cell_$auto$proc_dlatch.cc:409:proc_dlatch$238">D</text>
    </g>
    <g transform="translate(0,30)" s:x="0" s:y="10" s:pid="in0" id="port_$auto$proc_dlatch.cc:409:proc_dlatch$238~EN">
      <text x="-3" y="-4" class="inputPortLabel cell_$auto$proc_dlatch.cc:409:proc_dlatch$238">EN</text>
    </g>
    <g transform="translate(30,10)" s:x="30" s:y="10" s:pid="out0" id="port_$auto$proc_dlatch.cc:409:proc_dlatch$238~Q">
      <text x="5" y="-4" style="fill:#000; stroke:none" class="cell_$auto$proc_dlatch.cc:409:proc_dlatch$238">Q</text>
    </g>
  </g>
  <g s:type="not" transform="translate(721,531.5)" s:width="30" s:height="20" id="cell_$auto$proc_dlatch.cc:409:proc_dlatch$269">
    <s:alias val="$_NOT_"/>
    <s:alias val="$not"/>
    <s:alias val="$logic_not"/>
    <path d="M0,0 L0,20 L20,10 Z" class="cell_$auto$proc_dlatch.cc:409:proc_dlatch$269"/>
    <circle cx="23" cy="10" r="3" class="cell_$auto$proc_dlatch.cc:409:proc_dlatch$269"/>
    <g s:x="0" s:y="10" s:pid="A"/>
    <g s:x="25" s:y="10" s:pid="Y"/>
  </g>
  <g s:type="generic" transform="translate(799,511)" s:width="30" s:height="40" id="cell_$auto$proc_dlatch.cc:409:proc_dlatch$271">
    <text x="15" y="-4" class="nodelabel cell_$auto$proc_dlatch.cc:409:proc_dlatch$271" s:attribute="ref">$dlatch</text>
    <rect width="30" height="40" s:generic="body" class="cell_$auto$proc_dlatch.cc:409:proc_dlatch$271"/>
    <g transform="translate(0,10)" s:x="0" s:y="10" s:pid="in0" id="port_$auto$proc_dlatch.cc:409:proc_dlatch$271~D">
      <text x="-3" y="-4" class="inputPortLabel cell_$auto$proc_dlatch.cc:409:proc_dlatch$271">D</text>
    </g>
    <g transform="translate(0,30)" s:x="0" s:y="10" s:pid="in0" id="port_$auto$proc_dlatch.cc:409:proc_dlatch$271~EN">
      <text x="-3" y="-4" class="inputPortLabel cell_$auto$proc_dlatch.cc:409:proc_dlatch$271">EN</text>
    </g>
    <g transform="translate(30,10)" s:x="30" s:y="10" s:pid="out0" id="port_$auto$proc_dlatch.cc:409:proc_dlatch$271~Q">
      <text x="5" y="-4" style="fill:#000; stroke:none" class="cell_$auto$proc_dlatch.cc:409:proc_dlatch$271">Q</text>
    </g>
  </g>
  <g s:type="not" transform="translate(721,666)" s:width="30" s:height="20" id="cell_$auto$proc_dlatch.cc:409:proc_dlatch$302">
    <s:alias val="$_NOT_"/>
    <s:alias val="$not"/>
    <s:alias val="$logic_not"/>
    <path d="M0,0 L0,20 L20,10 Z" class="cell_$auto$proc_dlatch.cc:409:proc_dlatch$302"/>
    <circle cx="23" cy="10" r="3" class="cell_$auto$proc_dlatch.cc:409:proc_dlatch$302"/>
    <g s:x="0" s:y="10" s:pid="A"/>
    <g s:x="25" s:y="10" s:pid="Y"/>
  </g>
  <g s:type="generic" transform="translate(799,645.5)" s:width="30" s:height="40" id="cell_$auto$proc_dlatch.cc:409:proc_dlatch$304">
    <text x="15" y="-4" class="nodelabel cell_$auto$proc_dlatch.cc:409:proc_dlatch$304" s:attribute="ref">$dlatch</text>
    <rect width="30" height="40" s:generic="body" class="cell_$auto$proc_dlatch.cc:409:proc_dlatch$304"/>
    <g transform="translate(0,10)" s:x="0" s:y="10" s:pid="in0" id="port_$auto$proc_dlatch.cc:409:proc_dlatch$304~D">
      <text x="-3" y="-4" class="inputPortLabel cell_$auto$proc_dlatch.cc:409:proc_dlatch$304">D</text>
    </g>
    <g transform="translate(0,30)" s:x="0" s:y="10" s:pid="in0" id="port_$auto$proc_dlatch.cc:409:proc_dlatch$304~EN">
      <text x="-3" y="-4" class="inputPortLabel cell_$auto$proc_dlatch.cc:409:proc_dlatch$304">EN</text>
    </g>
    <g transform="translate(30,10)" s:x="30" s:y="10" s:pid="out0" id="port_$auto$proc_dlatch.cc:409:proc_dlatch$304~Q">
      <text x="5" y="-4" style="fill:#000; stroke:none" class="cell_$auto$proc_dlatch.cc:409:proc_dlatch$304">Q</text>
    </g>
  </g>
  <g s:type="not" transform="translate(721,763)" s:width="30" s:height="20" id="cell_$auto$proc_dlatch.cc:409:proc_dlatch$335">
    <s:alias val="$_NOT_"/>
    <s:alias val="$not"/>
    <s:alias val="$logic_not"/>
    <path d="M0,0 L0,20 L20,10 Z" class="cell_$auto$proc_dlatch.cc:409:proc_dlatch$335"/>
    <circle cx="23" cy="10" r="3" class="cell_$auto$proc_dlatch.cc:409:proc_dlatch$335"/>
    <g s:x="0" s:y="10" s:pid="A"/>
    <g s:x="25" s:y="10" s:pid="Y"/>
  </g>
  <g s:type="generic" transform="translate(799,742.5)" s:width="30" s:height="40" id="cell_$auto$proc_dlatch.cc:409:proc_dlatch$337">
    <text x="15" y="-4" class="nodelabel cell_$auto$proc_dlatch.cc:409:proc_dlatch$337" s:attribute="ref">$dlatch</text>
    <rect width="30" height="40" s:generic="body" class="cell_$auto$proc_dlatch.cc:409:proc_dlatch$337"/>
    <g transform="translate(0,10)" s:x="0" s:y="10" s:pid="in0" id="port_$auto$proc_dlatch.cc:409:proc_dlatch$337~D">
      <text x="-3" y="-4" class="inputPortLabel cell_$auto$proc_dlatch.cc:409:proc_dlatch$337">D</text>
    </g>
    <g transform="translate(0,30)" s:x="0" s:y="10" s:pid="in0" id="port_$auto$proc_dlatch.cc:409:proc_dlatch$337~EN">
      <text x="-3" y="-4" class="inputPortLabel cell_$auto$proc_dlatch.cc:409:proc_dlatch$337">EN</text>
    </g>
    <g transform="translate(30,10)" s:x="30" s:y="10" s:pid="out0" id="port_$auto$proc_dlatch.cc:409:proc_dlatch$337~Q">
      <text x="5" y="-4" style="fill:#000; stroke:none" class="cell_$auto$proc_dlatch.cc:409:proc_dlatch$337">Q</text>
    </g>
  </g>
  <g s:type="not" transform="translate(191,208.5)" s:width="30" s:height="20" id="cell_$procmux$10_CMP0">
    <s:alias val="$_NOT_"/>
    <s:alias val="$not"/>
    <s:alias val="$logic_not"/>
    <path d="M0,0 L0,20 L20,10 Z" class="cell_$procmux$10_CMP0"/>
    <circle cx="23" cy="10" r="3" class="cell_$procmux$10_CMP0"/>
    <g s:x="0" s:y="10" s:pid="A"/>
    <g s:x="25" s:y="10" s:pid="Y"/>
  </g>
  <g s:type="eq" transform="translate(83,673.5)" s:width="25" s:height="25" id="cell_$procmux$12_CMP0">
    <s:alias val="$eq"/>
    <circle r="12.5" cx="12.5" cy="12.5" class="cell_$procmux$12_CMP0"/>
    <line x1="7.5" x2="17.5" y1="10" y2="10" class="cell_$procmux$12_CMP0"/>
    <line x1="7.5" x2="17.5" y1="15" y2="15" class="cell_$procmux$12_CMP0"/>
    <g s:x="3" s:y="5" s:pid="A"/>
    <g s:x="3" s:y="20" s:pid="B"/>
    <g s:x="25" s:y="12.5" s:pid="Y"/>
  </g>
  <g s:type="eq" transform="translate(83,589)" s:width="25" s:height="25" id="cell_$procmux$13_CMP0">
    <s:alias val="$eq"/>
    <circle r="12.5" cx="12.5" cy="12.5" class="cell_$procmux$13_CMP0"/>
    <line x1="7.5" x2="17.5" y1="10" y2="10" class="cell_$procmux$13_CMP0"/>
    <line x1="7.5" x2="17.5" y1="15" y2="15" class="cell_$procmux$13_CMP0"/>
    <g s:x="3" s:y="5" s:pid="A"/>
    <g s:x="3" s:y="20" s:pid="B"/>
    <g s:x="25" s:y="12.5" s:pid="Y"/>
  </g>
  <g s:type="eq" transform="translate(83,409)" s:width="25" s:height="25" id="cell_$procmux$15_CMP0">
    <s:alias val="$eq"/>
    <circle r="12.5" cx="12.5" cy="12.5" class="cell_$procmux$15_CMP0"/>
    <line x1="7.5" x2="17.5" y1="10" y2="10" class="cell_$procmux$15_CMP0"/>
    <line x1="7.5" x2="17.5" y1="15" y2="15" class="cell_$procmux$15_CMP0"/>
    <g s:x="3" s:y="5" s:pid="A"/>
    <g s:x="3" s:y="20" s:pid="B"/>
    <g s:x="25" s:y="12.5" s:pid="Y"/>
  </g>
  <g s:type="eq" transform="translate(83,329)" s:width="25" s:height="25" id="cell_$procmux$16_CMP0">
    <s:alias val="$eq"/>
    <circle r="12.5" cx="12.5" cy="12.5" class="cell_$procmux$16_CMP0"/>
    <line x1="7.5" x2="17.5" y1="10" y2="10" class="cell_$procmux$16_CMP0"/>
    <line x1="7.5" x2="17.5" y1="15" y2="15" class="cell_$procmux$16_CMP0"/>
    <g s:x="3" s:y="5" s:pid="A"/>
    <g s:x="3" s:y="20" s:pid="B"/>
    <g s:x="25" s:y="12.5" s:pid="Y"/>
  </g>
  <g s:type="eq" transform="translate(83,229.5)" s:width="25" s:height="25" id="cell_$procmux$17_CMP0">
    <s:alias val="$eq"/>
    <circle r="12.5" cx="12.5" cy="12.5" class="cell_$procmux$17_CMP0"/>
    <line x1="7.5" x2="17.5" y1="10" y2="10" class="cell_$procmux$17_CMP0"/>
    <line x1="7.5" x2="17.5" y1="15" y2="15" class="cell_$procmux$17_CMP0"/>
    <g s:x="3" s:y="5" s:pid="A"/>
    <g s:x="3" s:y="20" s:pid="B"/>
    <g s:x="25" s:y="12.5" s:pid="Y"/>
  </g>
  <g s:type="eq" transform="translate(326,619)" s:width="25" s:height="25" id="cell_$procmux$18_CMP0">
    <s:alias val="$eq"/>
    <circle r="12.5" cx="12.5" cy="12.5" class="cell_$procmux$18_CMP0"/>
    <line x1="7.5" x2="17.5" y1="10" y2="10" class="cell_$procmux$18_CMP0"/>
    <line x1="7.5" x2="17.5" y1="15" y2="15" class="cell_$procmux$18_CMP0"/>
    <g s:x="3" s:y="5" s:pid="A"/>
    <g s:x="3" s:y="20" s:pid="B"/>
    <g s:x="25" s:y="12.5" s:pid="Y"/>
  </g>
  <g s:type="eq" transform="translate(83,524)" s:width="25" s:height="25" id="cell_$procmux$23_CMP0">
    <s:alias val="$eq"/>
    <circle r="12.5" cx="12.5" cy="12.5" class="cell_$procmux$23_CMP0"/>
    <line x1="7.5" x2="17.5" y1="10" y2="10" class="cell_$procmux$23_CMP0"/>
    <line x1="7.5" x2="17.5" y1="15" y2="15" class="cell_$procmux$23_CMP0"/>
    <g s:x="3" s:y="5" s:pid="A"/>
    <g s:x="3" s:y="20" s:pid="B"/>
    <g s:x="25" s:y="12.5" s:pid="Y"/>
  </g>
  <g s:type="inputExt" transform="translate(721,286.5)" s:width="30" s:height="20" id="cell_a">
    <text x="15" y="-4" class="nodelabel cell_a" s:attribute="ref">a</text>
    <s:alias val="$_inputExt_"/>
    <path d="M0,0 L0,20 L15,20 L30,10 L15,0 Z" class="cell_a"/>
    <g s:x="28" s:y="10" s:pid="Y"/>
  </g>
  <g s:type="inputExt" transform="translate(12,404)" s:width="30" s:height="20" id="cell_select">
    <text x="15" y="-4" class="nodelabel cell_select" s:attribute="ref">select</text>
    <s:alias val="$_inputExt_"/>
    <path d="M0,0 L0,20 L15,20 L30,10 L15,0 Z" class="cell_select"/>
    <g s:x="28" s:y="10" s:pid="Y"/>
  </g>
  <g s:type="outputExt" transform="translate(1142,100.5)" s:width="30" s:height="20" id="cell_out">
    <text x="15" y="-4" class="nodelabel cell_out" s:attribute="ref">out</text>
    <s:alias val="$_outputExt_"/>
    <path d="M30,0 L30,20 L15,20 L0,10 L15,0 Z" class="cell_out"/>
    <g s:x="0" s:y="10" s:pid="A"/>
  </g>
  <g s:type="constant" transform="translate(12,683.5)" s:width="30" s:height="20" id="cell_111">
    <text x="15" y="-4" class="nodelabel cell_111" s:attribute="ref">111</text>
    <s:alias val="$_constant_"/>
    <rect width="30" height="20" class="cell_111"/>
    <g s:x="30" s:y="10" s:pid="Y"/>
  </g>
  <g s:type="constant" transform="translate(12,599)" s:width="30" s:height="20" id="cell_110">
    <text x="15" y="-4" class="nodelabel cell_110" s:attribute="ref">110</text>
    <s:alias val="$_constant_"/>
    <rect width="30" height="20" class="cell_110"/>
    <g s:x="30" s:y="10" s:pid="Y"/>
  </g>
  <g s:type="constant" transform="translate(12,469)" s:width="30" s:height="20" id="cell_100">
    <text x="15" y="-4" class="nodelabel cell_100" s:attribute="ref">100</text>
    <s:alias val="$_constant_"/>
    <rect width="30" height="20" class="cell_100"/>
    <g s:x="30" s:y="10" s:pid="Y"/>
  </g>
  <g s:type="constant" transform="translate(12,339)" s:width="30" s:height="20" id="cell_11">
    <text x="15" y="-4" class="nodelabel cell_11" s:attribute="ref">11</text>
    <s:alias val="$_constant_"/>
    <rect width="30" height="20" class="cell_11"/>
    <g s:x="30" s:y="10" s:pid="Y"/>
  </g>
  <g s:type="constant" transform="translate(12,239.5)" s:width="30" s:height="20" id="cell_10">
    <text x="15" y="-4" class="nodelabel cell_10" s:attribute="ref">10</text>
    <s:alias val="$_constant_"/>
    <rect width="30" height="20" class="cell_10"/>
    <g s:x="30" s:y="10" s:pid="Y"/>
  </g>
  <g s:type="constant" transform="translate(261,645)" s:width="30" s:height="20" id="cell_1">
    <text x="15" y="-4" class="nodelabel cell_1" s:attribute="ref">1</text>
    <s:alias val="$_constant_"/>
    <rect width="30" height="20" class="cell_1"/>
    <g s:x="30" s:y="10" s:pid="Y"/>
  </g>
  <g s:type="constant" transform="translate(12,534)" s:width="30" s:height="20" id="cell_101">
    <text x="15" y="-4" class="nodelabel cell_101" s:attribute="ref">101</text>
    <s:alias val="$_constant_"/>
    <rect width="30" height="20" class="cell_101"/>
    <g s:x="30" s:y="10" s:pid="Y"/>
  </g>
  <g s:type="join" transform="translate(410,32)" s:width="4" s:height="40" id="cell_$join$,14,15,16,17,18,19,20,">
    <rect width="5" height="40" class="splitjoinBody" s:generic="body"/>
    <s:alias val="$_join_"/>
    <g s:x="5" s:y="20" s:pid="out"/>
    <g transform="translate(0,10)" s:x="0" s:y="10" s:pid="in0">
      <text x="-3" y="-4" class="inputPortLabel">0:5</text>
    </g>
  </g>
  <g s:type="join" transform="translate(148,311)" s:width="4" s:height="40" id="cell_$join$,14,15,16,17,18,19,">
    <rect width="5" height="120" class="splitjoinBody" s:generic="body"/>
    <s:alias val="$_join_"/>
    <g s:x="5" s:y="20" s:pid="out"/>
    <g transform="translate(0,10)" s:x="0" s:y="10" s:pid="in0">
      <text x="-3" y="-4" class="inputPortLabel">0</text>
    </g>
    <g transform="translate(0,30)" s:x="0" s:y="10" s:pid="in0">
      <text x="-3" y="-4" class="inputPortLabel">1</text>
    </g>
    <g transform="translate(0,50)" s:x="0" s:y="10" s:pid="in0">
      <text x="-3" y="-4" class="inputPortLabel">2</text>
    </g>
    <g transform="translate(0,70)" s:x="0" s:y="10" s:pid="in0">
      <text x="-3" y="-4" class="inputPortLabel">3</text>
    </g>
    <g transform="translate(0,90)" s:x="0" s:y="10" s:pid="in0">
      <text x="-3" y="-4" class="inputPortLabel">4</text>
    </g>
    <g transform="translate(0,110)" s:x="0" s:y="10" s:pid="in0">
      <text x="-3" y="-4" class="inputPortLabel">5</text>
    </g>
  </g>
  <g s:type="join" transform="translate(410,120)" s:width="4" s:height="40" id="cell_$join$,22,14,15,16,17,18,19,">
    <rect width="5" height="40" class="splitjoinBody" s:generic="body"/>
    <s:alias val="$_join_"/>
    <g s:x="5" s:y="20" s:pid="out"/>
    <g transform="translate(0,10)" s:x="0" s:y="10" s:pid="in0">
      <text x="-3" y="-4" class="inputPortLabel">0:5</text>
    </g>
  </g>
  <g s:type="join" transform="translate(272,481)" s:width="4" s:height="40" id="cell_$join$,22,14,15,16,17,18,">
    <rect width="5" height="40" class="splitjoinBody" s:generic="body"/>
    <s:alias val="$_join_"/>
    <g s:x="5" s:y="20" s:pid="out"/>
    <g transform="translate(0,10)" s:x="0" s:y="10" s:pid="in0">
      <text x="-3" y="-4" class="inputPortLabel">0</text>
    </g>
    <g transform="translate(0,30)" s:x="0" s:y="10" s:pid="in0">
      <text x="-3" y="-4" class="inputPortLabel">1:5</text>
    </g>
  </g>
  <g s:type="join" transform="translate(405.75,208)" s:width="4" s:height="40" id="cell_$join$,22,15,16,17,18,19,20,">
    <rect width="5" height="60" class="splitjoinBody" s:generic="body"/>
    <s:alias val="$_join_"/>
    <g s:x="5" s:y="20" s:pid="out"/>
    <g transform="translate(0,10)" s:x="0" s:y="10" s:pid="in0">
      <text x="-3" y="-4" class="inputPortLabel">0</text>
    </g>
    <g transform="translate(0,30)" s:x="0" s:y="10" s:pid="in0">
      <text x="-3" y="-4" class="inputPortLabel">1:5</text>
    </g>
    <g transform="translate(0,50)" s:x="0" s:y="10" s:pid="in0">
      <text x="-3" y="-4" class="inputPortLabel">6</text>
    </g>
  </g>
  <g s:type="join" transform="translate(410,331)" s:width="4" s:height="40" id="cell_$join$,22,14,16,17,18,19,20,">
    <rect width="5" height="60" class="splitjoinBody" s:generic="body"/>
    <s:alias val="$_join_"/>
    <g s:x="5" s:y="20" s:pid="out"/>
    <g transform="translate(0,10)" s:x="0" s:y="10" s:pid="in0">
      <text x="-3" y="-4" class="inputPortLabel">0:1</text>
    </g>
    <g transform="translate(0,30)" s:x="0" s:y="10" s:pid="in0">
      <text x="-3" y="-4" class="inputPortLabel">2:5</text>
    </g>
    <g transform="translate(0,50)" s:x="0" s:y="10" s:pid="in0">
      <text x="-3" y="-4" class="inputPortLabel">6</text>
    </g>
  </g>
  <g s:type="join" transform="translate(410,426)" s:width="4" s:height="40" id="cell_$join$,22,14,15,17,18,19,20,">
    <rect width="5" height="60" class="splitjoinBody" s:generic="body"/>
    <s:alias val="$_join_"/>
    <g s:x="5" s:y="20" s:pid="out"/>
    <g transform="translate(0,10)" s:x="0" s:y="10" s:pid="in0">
      <text x="-3" y="-4" class="inputPortLabel">0:2</text>
    </g>
    <g transform="translate(0,30)" s:x="0" s:y="10" s:pid="in0">
      <text x="-3" y="-4" class="inputPortLabel">3:5</text>
    </g>
    <g transform="translate(0,50)" s:x="0" s:y="10" s:pid="in0">
      <text x="-3" y="-4" class="inputPortLabel">6</text>
    </g>
  </g>
  <g s:type="join" transform="translate(410,521)" s:width="4" s:height="40" id="cell_$join$,22,14,15,16,18,19,20,">
    <rect width="5" height="60" class="splitjoinBody" s:generic="body"/>
    <s:alias val="$_join_"/>
    <g s:x="5" s:y="20" s:pid="out"/>
    <g transform="translate(0,10)" s:x="0" s:y="10" s:pid="in0">
      <text x="-3" y="-4" class="inputPortLabel">0:3</text>
    </g>
    <g transform="translate(0,30)" s:x="0" s:y="10" s:pid="in0">
      <text x="-3" y="-4" class="inputPortLabel">4:5</text>
    </g>
    <g transform="translate(0,50)" s:x="0" s:y="10" s:pid="in0">
      <text x="-3" y="-4" class="inputPortLabel">6</text>
    </g>
  </g>
  <g s:type="join" transform="translate(410,655.5)" s:width="4" s:height="40" id="cell_$join$,22,14,15,16,17,19,20,">
    <rect width="5" height="60" class="splitjoinBody" s:generic="body"/>
    <s:alias val="$_join_"/>
    <g s:x="5" s:y="20" s:pid="out"/>
    <g transform="translate(0,10)" s:x="0" s:y="10" s:pid="in0">
      <text x="-3" y="-4" class="inputPortLabel">0:4</text>
    </g>
    <g transform="translate(0,30)" s:x="0" s:y="10" s:pid="in0">
      <text x="-3" y="-4" class="inputPortLabel">5</text>
    </g>
    <g transform="translate(0,50)" s:x="0" s:y="10" s:pid="in0">
      <text x="-3" y="-4" class="inputPortLabel">6</text>
    </g>
  </g>
  <g s:type="join" transform="translate(410,752.5)" s:width="4" s:height="40" id="cell_$join$,22,14,15,16,17,18,20,">
    <rect width="5" height="40" class="splitjoinBody" s:generic="body"/>
    <s:alias val="$_join_"/>
    <g s:x="5" s:y="20" s:pid="out"/>
    <g transform="translate(0,10)" s:x="0" s:y="10" s:pid="in0">
      <text x="-3" y="-4" class="inputPortLabel">0:5</text>
    </g>
    <g transform="translate(0,30)" s:x="0" s:y="10" s:pid="in0">
      <text x="-3" y="-4" class="inputPortLabel">6</text>
    </g>
  </g>
  <g s:type="join" transform="translate(1099,90)" s:width="4" s:height="40" id="cell_$join$,6,7,8,9,10,11,12,13,">
    <rect width="5" height="160" class="splitjoinBody" s:generic="body"/>
    <s:alias val="$_join_"/>
    <g s:x="5" s:y="20" s:pid="out"/>
    <g transform="translate(0,10)" s:x="0" s:y="10" s:pid="in0">
      <text x="-3" y="-4" class="inputPortLabel">0</text>
    </g>
    <g transform="translate(0,30)" s:x="0" s:y="10" s:pid="in0">
      <text x="-3" y="-4" class="inputPortLabel">1</text>
    </g>
    <g transform="translate(0,50)" s:x="0" s:y="10" s:pid="in0">
      <text x="-3" y="-4" class="inputPortLabel">2</text>
    </g>
    <g transform="translate(0,70)" s:x="0" s:y="10" s:pid="in0">
      <text x="-3" y="-4" class="inputPortLabel">3</text>
    </g>
    <g transform="translate(0,90)" s:x="0" s:y="10" s:pid="in0">
      <text x="-3" y="-4" class="inputPortLabel">4</text>
    </g>
    <g transform="translate(0,110)" s:x="0" s:y="10" s:pid="in0">
      <text x="-3" y="-4" class="inputPortLabel">5</text>
    </g>
    <g transform="translate(0,130)" s:x="0" s:y="10" s:pid="in0">
      <text x="-3" y="-4" class="inputPortLabel">6</text>
    </g>
    <g transform="translate(0,150)" s:x="0" s:y="10" s:pid="in0">
      <text x="-3" y="-4" class="inputPortLabel">7</text>
    </g>
  </g>
  <g s:type="split" transform="translate(197,311)" s:width="5" s:height="40" id="cell_$split$,14,15,16,17,18,19,">
    <rect width="5" height="100" class="splitjoinBody" s:generic="body"/>
    <s:alias val="$_split_"/>
    <g s:x="0" s:y="20" s:pid="in"/>
    <g transform="translate(4,10)" s:x="4" s:y="10" s:pid="out0">
      <text x="5" y="-4">0:4</text>
    </g>
    <g transform="translate(4,30)" s:x="4" s:y="10" s:pid="out0">
      <text x="5" y="-4">1:5</text>
    </g>
    <g transform="translate(4,50)" s:x="4" s:y="10" s:pid="out0">
      <text x="5" y="-4">2:5</text>
    </g>
    <g transform="translate(4,70)" s:x="4" s:y="10" s:pid="out0">
      <text x="5" y="-4">3:5</text>
    </g>
    <g transform="translate(4,90)" s:x="4" s:y="10" s:pid="out0">
      <text x="5" y="-4">4:5</text>
    </g>
  </g>
  <g s:type="split" transform="translate(327,481)" s:width="5" s:height="40" id="cell_$split$,22,14,15,16,17,18,">
    <rect width="5" height="80" class="splitjoinBody" s:generic="body"/>
    <s:alias val="$_split_"/>
    <g s:x="0" s:y="20" s:pid="in"/>
    <g transform="translate(4,10)" s:x="4" s:y="10" s:pid="out0">
      <text x="5" y="-4">0:1</text>
    </g>
    <g transform="translate(4,30)" s:x="4" s:y="10" s:pid="out0">
      <text x="5" y="-4">0:2</text>
    </g>
    <g transform="translate(4,50)" s:x="4" s:y="10" s:pid="out0">
      <text x="5" y="-4">0:3</text>
    </g>
    <g transform="translate(4,70)" s:x="4" s:y="10" s:pid="out0">
      <text x="5" y="-4">0:4</text>
    </g>
  </g>
  <line x1="416" x2="458" y1="52.5" y2="52.5" class="net_14,15,16,17,18,19,20"/>
  <line x1="416" x2="458" y1="140.5" y2="140.5" class="net_22,14,15,16,17,18,19"/>
  <line x1="411.75" x2="458" y1="228.5" y2="228.5" class="net_22,15,16,17,18,19,20"/>
  <line x1="416" x2="458" y1="351.5" y2="351.5" class="net_22,14,16,17,18,19,20"/>
  <line x1="416" x2="458" y1="446.5" y2="446.5" class="net_22,14,15,17,18,19,20"/>
  <line x1="416" x2="458" y1="541.5" y2="541.5" class="net_22,14,15,16,18,19,20"/>
  <line x1="416" x2="458" y1="676" y2="676" class="net_22,14,15,16,17,19,20"/>
  <line x1="416" x2="458" y1="773" y2="773" class="net_22,14,15,16,17,18,20"/>
  <line x1="489" x2="721" y1="52.5" y2="52.5" class="net_21"/>
  <line x1="749" x2="771" y1="296.5" y2="296.5" class="net_2"/>
  <line x1="771" x2="771" y1="296.5" y2="32.5" class="net_2"/>
  <circle cx="771" cy="296.5" r="2" style="fill:#000" class="net_2"/>
  <line x1="771" x2="799" y1="32.5" y2="32.5" class="net_2"/>
  <line x1="749" x2="771" y1="296.5" y2="296.5" class="net_2"/>
  <line x1="771" x2="771" y1="296.5" y2="120.5" class="net_2"/>
  <circle cx="771" cy="120.5" r="2" style="fill:#000" class="net_2"/>
  <line x1="771" x2="799" y1="120.5" y2="120.5" class="net_2"/>
  <line x1="749" x2="771" y1="296.5" y2="296.5" class="net_2"/>
  <line x1="771" x2="771" y1="296.5" y2="208.5" class="net_2"/>
  <circle cx="771" cy="208.5" r="2" style="fill:#000" class="net_2"/>
  <line x1="771" x2="799" y1="208.5" y2="208.5" class="net_2"/>
  <line x1="749" x2="799" y1="296.5" y2="296.5" class="net_2"/>
  <line x1="749" x2="771" y1="296.5" y2="296.5" class="net_2"/>
  <line x1="771" x2="771" y1="296.5" y2="426.5" class="net_2"/>
  <circle cx="771" cy="426.5" r="2" style="fill:#000" class="net_2"/>
  <line x1="771" x2="799" y1="426.5" y2="426.5" class="net_2"/>
  <line x1="749" x2="771" y1="296.5" y2="296.5" class="net_2"/>
  <line x1="771" x2="771" y1="296.5" y2="521.5" class="net_2"/>
  <circle cx="771" cy="521.5" r="2" style="fill:#000" class="net_2"/>
  <line x1="771" x2="799" y1="521.5" y2="521.5" class="net_2"/>
  <line x1="749" x2="771" y1="296.5" y2="296.5" class="net_2"/>
  <line x1="771" x2="771" y1="296.5" y2="656" class="net_2"/>
  <circle cx="771" cy="656" r="2" style="fill:#000" class="net_2"/>
  <line x1="771" x2="799" y1="656" y2="656" class="net_2"/>
  <line x1="749" x2="771" y1="296.5" y2="296.5" class="net_2"/>
  <line x1="771" x2="771" y1="296.5" y2="753" class="net_2"/>
  <line x1="771" x2="799" y1="753" y2="753" class="net_2"/>
  <line x1="746" x2="799" y1="52.5" y2="52.5" class="net_30"/>
  <line x1="489" x2="721" y1="140.5" y2="140.5" class="net_23"/>
  <line x1="746" x2="799" y1="140.5" y2="140.5" class="net_31"/>
  <line x1="489" x2="721" y1="228.5" y2="228.5" class="net_24"/>
  <line x1="746" x2="799" y1="228.5" y2="228.5" class="net_32"/>
  <line x1="489" x2="721" y1="351.5" y2="351.5" class="net_25"/>
  <line x1="746" x2="761" y1="351.5" y2="351.5" class="net_33"/>
  <line x1="761" x2="761" y1="351.5" y2="316.5" class="net_33"/>
  <line x1="761" x2="799" y1="316.5" y2="316.5" class="net_33"/>
  <line x1="489" x2="721" y1="446.5" y2="446.5" class="net_26"/>
  <line x1="746" x2="799" y1="446.5" y2="446.5" class="net_34"/>
  <line x1="489" x2="721" y1="541.5" y2="541.5" class="net_27"/>
  <line x1="746" x2="799" y1="541.5" y2="541.5" class="net_35"/>
  <line x1="489" x2="721" y1="676" y2="676" class="net_28"/>
  <line x1="746" x2="799" y1="676" y2="676" class="net_36"/>
  <line x1="489" x2="721" y1="773" y2="773" class="net_29"/>
  <line x1="746" x2="799" y1="773" y2="773" class="net_37"/>
  <line x1="40" x2="68" y1="414" y2="414" class="net_3,4,5"/>
  <line x1="68" x2="68" y1="414" y2="218.5" class="net_3,4,5"/>
  <circle cx="68" cy="414" r="2" style="fill:#000" class="net_3,4,5"/>
  <line x1="68" x2="191" y1="218.5" y2="218.5" class="net_3,4,5"/>
  <line x1="40" x2="68" y1="414" y2="414" class="net_3,4,5"/>
  <line x1="68" x2="68" y1="414" y2="678.5" class="net_3,4,5"/>
  <line x1="68" x2="86" y1="678.5" y2="678.5" class="net_3,4,5"/>
  <line x1="40" x2="68" y1="414" y2="414" class="net_3,4,5"/>
  <line x1="68" x2="68" y1="414" y2="594" class="net_3,4,5"/>
  <circle cx="68" cy="594" r="2" style="fill:#000" class="net_3,4,5"/>
  <line x1="68" x2="86" y1="594" y2="594" class="net_3,4,5"/>
  <line x1="40" x2="86" y1="414" y2="414" class="net_3,4,5"/>
  <line x1="40" x2="68" y1="414" y2="414" class="net_3,4,5"/>
  <line x1="68" x2="68" y1="414" y2="334" class="net_3,4,5"/>
  <circle cx="68" cy="334" r="2" style="fill:#000" class="net_3,4,5"/>
  <line x1="68" x2="86" y1="334" y2="334" class="net_3,4,5"/>
  <line x1="40" x2="68" y1="414" y2="414" class="net_3,4,5"/>
  <line x1="68" x2="68" y1="414" y2="234.5" class="net_3,4,5"/>
  <circle cx="68" cy="234.5" r="2" style="fill:#000" class="net_3,4,5"/>
  <line x1="68" x2="86" y1="234.5" y2="234.5" class="net_3,4,5"/>
  <line x1="40" x2="68" y1="414" y2="414" class="net_3,4,5"/>
  <line x1="68" x2="68" y1="414" y2="624" class="net_3,4,5"/>
  <circle cx="68" cy="624" r="2" style="fill:#000" class="net_3,4,5"/>
  <line x1="68" x2="329" y1="624" y2="624" class="net_3,4,5"/>
  <line x1="40" x2="68" y1="414" y2="414" class="net_3,4,5"/>
  <line x1="68" x2="68" y1="414" y2="529" class="net_3,4,5"/>
  <circle cx="68" cy="529" r="2" style="fill:#000" class="net_3,4,5"/>
  <line x1="68" x2="86" y1="529" y2="529" class="net_3,4,5"/>
  <line x1="42" x2="86" y1="693.5" y2="693.5" class="net_38,39,40"/>
  <line x1="42" x2="86" y1="609" y2="609" class="net_41,42,43"/>
  <line x1="42" x2="58" y1="479" y2="479" class="net_44,45,46"/>
  <line x1="58" x2="58" y1="479" y2="429" class="net_44,45,46"/>
  <line x1="58" x2="86" y1="429" y2="429" class="net_44,45,46"/>
  <line x1="42" x2="86" y1="349" y2="349" class="net_47,48"/>
  <line x1="42" x2="86" y1="249.5" y2="249.5" class="net_49,50"/>
  <line x1="291" x2="301" y1="655" y2="655" class="net_51"/>
  <line x1="301" x2="301" y1="655" y2="639" class="net_51"/>
  <line x1="301" x2="329" y1="639" y2="639" class="net_51"/>
  <line x1="42" x2="86" y1="544" y2="544" class="net_52,53,54"/>
  <line x1="1105" x2="1142" y1="110.5" y2="110.5" class="net_6,7,8,9,10,11,12,13"/>
  <line x1="154" x2="166" y1="331.5" y2="331.5" class="net_14,15,16,17,18,19"/>
  <line x1="166" x2="166" y1="331.5" y2="42.5" class="net_14,15,16,17,18,19"/>
  <circle cx="166" cy="331.5" r="2" style="fill:#000" class="net_14,15,16,17,18,19"/>
  <line x1="166" x2="410" y1="42.5" y2="42.5" class="net_14,15,16,17,18,19"/>
  <line x1="154" x2="197" y1="331.5" y2="331.5" class="net_14,15,16,17,18,19"/>
  <line x1="108" x2="148.5" y1="242" y2="242" class="net_14"/>
  <line x1="148.5" x2="148.5" y1="242" y2="321" class="net_14"/>
  <line x1="108" x2="148" y1="341.5" y2="341.5" class="net_15"/>
  <line x1="108" x2="118" y1="421.5" y2="421.5" class="net_16"/>
  <line x1="118" x2="118" y1="421.5" y2="361.5" class="net_16"/>
  <line x1="118" x2="148" y1="361.5" y2="361.5" class="net_16"/>
  <line x1="108" x2="128" y1="536.5" y2="536.5" class="net_17"/>
  <line x1="128" x2="128" y1="536.5" y2="381.5" class="net_17"/>
  <line x1="128" x2="148" y1="381.5" y2="381.5" class="net_17"/>
  <line x1="108" x2="138" y1="601.5" y2="601.5" class="net_18"/>
  <line x1="138" x2="138" y1="601.5" y2="401.5" class="net_18"/>
  <line x1="138" x2="148" y1="401.5" y2="401.5" class="net_18"/>
  <line x1="108" x2="118" y1="686" y2="686" class="net_19"/>
  <line x1="118" x2="118" y1="686" y2="614" class="net_19"/>
  <line x1="118" x2="148.5" y1="614" y2="614" class="net_19"/>
  <circle cx="118" cy="686" r="2" style="fill:#000" class="net_19"/>
  <line x1="148.5" x2="148.5" y1="614" y2="422" class="net_19"/>
  <line x1="108" x2="410" y1="686" y2="686" class="net_19"/>
  <line x1="278" x2="311" y1="501.5" y2="501.5" class="net_22,14,15,16,17,18"/>
  <line x1="311" x2="311" y1="501.5" y2="130.5" class="net_22,14,15,16,17,18"/>
  <circle cx="311" cy="501.5" r="2" style="fill:#000" class="net_22,14,15,16,17,18"/>
  <line x1="311" x2="410" y1="130.5" y2="130.5" class="net_22,14,15,16,17,18"/>
  <line x1="278" x2="311" y1="501.5" y2="501.5" class="net_22,14,15,16,17,18"/>
  <line x1="311" x2="311" y1="501.5" y2="763" class="net_22,14,15,16,17,18"/>
  <line x1="311" x2="410" y1="763" y2="763" class="net_22,14,15,16,17,18"/>
  <line x1="278" x2="327" y1="501.5" y2="501.5" class="net_22,14,15,16,17,18"/>
  <line x1="216" x2="251" y1="218.5" y2="218.5" class="net_22"/>
  <line x1="251" x2="251" y1="218.5" y2="491.5" class="net_22"/>
  <circle cx="251" cy="218.5" r="2" style="fill:#000" class="net_22"/>
  <line x1="251" x2="272" y1="491.5" y2="491.5" class="net_22"/>
  <line x1="216" x2="405.75" y1="218.5" y2="218.5" class="net_22"/>
  <line x1="202" x2="231" y1="321.5" y2="321.5" class="net_14,15,16,17,18"/>
  <line x1="231" x2="231" y1="321.5" y2="511.5" class="net_14,15,16,17,18"/>
  <line x1="231" x2="272" y1="511.5" y2="511.5" class="net_14,15,16,17,18"/>
  <line x1="202" x2="241" y1="341.5" y2="341.5" class="net_15,16,17,18,19"/>
  <line x1="241" x2="241" y1="341.5" y2="238.5" class="net_15,16,17,18,19"/>
  <line x1="241" x2="405.75" y1="238.5" y2="238.5" class="net_15,16,17,18,19"/>
  <line x1="351" x2="381" y1="631.5" y2="631.5" class="net_20"/>
  <line x1="381" x2="381" y1="631.5" y2="258.5" class="net_20"/>
  <circle cx="381" cy="631.5" r="2" style="fill:#000" class="net_20"/>
  <line x1="381" x2="405.75" y1="258.5" y2="258.5" class="net_20"/>
  <line x1="351" x2="381" y1="631.5" y2="631.5" class="net_20"/>
  <line x1="381" x2="381" y1="631.5" y2="381.5" class="net_20"/>
  <circle cx="381" cy="381.5" r="2" style="fill:#000" class="net_20"/>
  <line x1="381" x2="410" y1="381.5" y2="381.5" class="net_20"/>
  <line x1="351" x2="381" y1="631.5" y2="631.5" class="net_20"/>
  <line x1="381" x2="381" y1="631.5" y2="476.5" class="net_20"/>
  <circle cx="381" cy="476.5" r="2" style="fill:#000" class="net_20"/>
  <line x1="381" x2="410" y1="476.5" y2="476.5" class="net_20"/>
  <line x1="351" x2="381" y1="631.5" y2="631.5" class="net_20"/>
  <line x1="381" x2="381" y1="631.5" y2="571.5" class="net_20"/>
  <circle cx="381" cy="571.5" r="2" style="fill:#000" class="net_20"/>
  <line x1="381" x2="410" y1="571.5" y2="571.5" class="net_20"/>
  <line x1="351" x2="381" y1="631.5" y2="631.5" class="net_20"/>
  <line x1="381" x2="381" y1="631.5" y2="706" class="net_20"/>
  <circle cx="381" cy="706" r="2" style="fill:#000" class="net_20"/>
  <line x1="381" x2="410" y1="706" y2="706" class="net_20"/>
  <line x1="351" x2="381" y1="631.5" y2="631.5" class="net_20"/>
  <line x1="381" x2="381" y1="631.5" y2="783" class="net_20"/>
  <line x1="381" x2="410" y1="783" y2="783" class="net_20"/>
  <line x1="332" x2="361" y1="491.5" y2="491.5" class="net_22,14"/>
  <line x1="361" x2="361" y1="491.5" y2="341.5" class="net_22,14"/>
  <line x1="361" x2="410" y1="341.5" y2="341.5" class="net_22,14"/>
  <line x1="202" x2="410" y1="361.5" y2="361.5" class="net_16,17,18,19"/>
  <line x1="332" x2="371" y1="511.5" y2="511.5" class="net_22,14,15"/>
  <line x1="371" x2="371" y1="511.5" y2="436.5" class="net_22,14,15"/>
  <line x1="371" x2="410" y1="436.5" y2="436.5" class="net_22,14,15"/>
  <line x1="202" x2="241" y1="381.5" y2="381.5" class="net_17,18,19"/>
  <line x1="241" x2="241" y1="381.5" y2="456.5" class="net_17,18,19"/>
  <line x1="241" x2="410" y1="456.5" y2="456.5" class="net_17,18,19"/>
  <line x1="332" x2="410" y1="531.5" y2="531.5" class="net_22,14,15,16"/>
  <line x1="201.5" x2="201.5" y1="402" y2="675" class="net_18,19"/>
  <line x1="201.5" x2="371" y1="675" y2="675" class="net_18,19"/>
  <line x1="371" x2="371" y1="675" y2="551.5" class="net_18,19"/>
  <line x1="371" x2="410" y1="551.5" y2="551.5" class="net_18,19"/>
  <line x1="332" x2="361" y1="551.5" y2="551.5" class="net_22,14,15,16,17"/>
  <line x1="361" x2="361" y1="551.5" y2="666" class="net_22,14,15,16,17"/>
  <line x1="361" x2="410" y1="666" y2="666" class="net_22,14,15,16,17"/>
  <line x1="830" x2="1099.5" y1="32.5" y2="32.5" class="net_6"/>
  <line x1="1099.5" x2="1099.5" y1="32.5" y2="100" class="net_6"/>
  <line x1="830" x2="1099" y1="120.5" y2="120.5" class="net_7"/>
  <line x1="830" x2="1049" y1="208.5" y2="208.5" class="net_8"/>
  <line x1="1049" x2="1049" y1="208.5" y2="140.5" class="net_8"/>
  <line x1="1049" x2="1099" y1="140.5" y2="140.5" class="net_8"/>
  <line x1="830" x2="1059" y1="296.5" y2="296.5" class="net_9"/>
  <line x1="1059" x2="1059" y1="296.5" y2="160.5" class="net_9"/>
  <line x1="1059" x2="1099" y1="160.5" y2="160.5" class="net_9"/>
  <line x1="830" x2="1069" y1="426.5" y2="426.5" class="net_10"/>
  <line x1="1069" x2="1069" y1="426.5" y2="180.5" class="net_10"/>
  <line x1="1069" x2="1099" y1="180.5" y2="180.5" class="net_10"/>
  <line x1="830" x2="1079" y1="521.5" y2="521.5" class="net_11"/>
  <line x1="1079" x2="1079" y1="521.5" y2="200.5" class="net_11"/>
  <line x1="1079" x2="1099" y1="200.5" y2="200.5" class="net_11"/>
  <line x1="830" x2="1089" y1="656" y2="656" class="net_12"/>
  <line x1="1089" x2="1089" y1="656" y2="220.5" class="net_12"/>
  <line x1="1089" x2="1099" y1="220.5" y2="220.5" class="net_12"/>
  <line x1="830" x2="1099.5" y1="753" y2="753" class="net_13"/>
  <line x1="1099.5" x2="1099.5" y1="753" y2="241" class="net_13"/>
</svg>
