<svg xmlns="http://www.w3.org/2000/svg" xmlns:xlink="http://www.w3.org/1999/xlink" xmlns:s="https://github.com/nturley/netlistsvg" width="320" height="199">
  <style>svg {
    stroke:#000;
    fill:none;
  }
  text {
    fill:#000;
    stroke:none;
    font-size:10px;
    font-weight: bold;
    font-family: "Courier New", monospace;
  }
  .nodelabel {
    text-anchor: middle;
  }
  .inputPortLabel {
    text-anchor: end;
  }
  .splitjoinBody {
    fill:#000;
  }</style>
  <g s:type="or" transform="translate(211,149.5)" s:width="30" s:height="25" id="cell_$or$fulladder.v:19$3">
    <s:alias val="$or"/>
    <s:alias val="$logic_or"/>
    <s:alias val="$_OR_"/>
    <path d="M0,25 L0,25 L15,25 A15 12.5 0 0 0 15,0 L0,0" class="cell_$or$fulladder.v:19$3"/>
    <path d="M0,0 A30 25 0 0 1 0,25" class="cell_$or$fulladder.v:19$3"/>
    <g s:x="3" s:y="5" s:pid="A"/>
    <g s:x="3" s:y="20" s:pid="B"/>
    <g s:x="30" s:y="12.5" s:pid="Y"/>
  </g>
  <g s:type="and" transform="translate(145,157)" s:width="30" s:height="25" id="cell_$techmap\H1.$and$fulladder.v:6$2">
    <s:alias val="$and"/>
    <s:alias val="$logic_and"/>
    <s:alias val="$_AND_"/>
    <path d="M0,0 L0,25 L15,25 A15 12.5 0 0 0 15,0 Z" class="cell_$techmap\H1.$and$fulladder.v:6$2"/>
    <g s:x="0" s:y="5" s:pid="A"/>
    <g s:x="0" s:y="20" s:pid="B"/>
    <g s:x="30" s:y="12.5" s:pid="Y"/>
  </g>
  <g s:type="reduce_xor" transform="translate(77,12)" s:width="33" s:height="25" id="cell_$techmap\H1.$xor$fulladder.v:5$1">
    <s:alias val="$xor"/>
    <s:alias val="$reduce_xor"/>
    <s:alias val="$_XOR_"/>
    <path d="M3,0 A30 25 0 0 1 3,25 A30 25 0 0 0 33,12.5 A30 25 0 0 0 3,0" class="cell_$techmap\H1.$xor$fulladder.v:5$1"/>
    <path d="M0,0 A30 25 0 0 1 0,25" class="cell_$techmap\H1.$xor$fulladder.v:5$1"/>
    <g s:x="3" s:y="5" s:pid="A"/>
    <g s:x="3" s:y="20" s:pid="B"/>
    <g s:x="33" s:y="12.5" s:pid="Y"/>
  </g>
  <g s:type="and" transform="translate(145,72)" s:width="30" s:height="25" id="cell_$techmap\H2.$and$fulladder.v:6$2">
    <s:alias val="$and"/>
    <s:alias val="$logic_and"/>
    <s:alias val="$_AND_"/>
    <path d="M0,0 L0,25 L15,25 A15 12.5 0 0 0 15,0 Z" class="cell_$techmap\H2.$and$fulladder.v:6$2"/>
    <g s:x="0" s:y="5" s:pid="A"/>
    <g s:x="0" s:y="20" s:pid="B"/>
    <g s:x="30" s:y="12.5" s:pid="Y"/>
  </g>
  <g s:type="reduce_xor" transform="translate(210,41)" s:width="33" s:height="25" id="cell_$techmap\H2.$xor$fulladder.v:5$1">
    <s:alias val="$xor"/>
    <s:alias val="$reduce_xor"/>
    <s:alias val="$_XOR_"/>
    <path d="M3,0 A30 25 0 0 1 3,25 A30 25 0 0 0 33,12.5 A30 25 0 0 0 3,0" class="cell_$techmap\H2.$xor$fulladder.v:5$1"/>
    <path d="M0,0 A30 25 0 0 1 0,25" class="cell_$techmap\H2.$xor$fulladder.v:5$1"/>
    <g s:x="3" s:y="5" s:pid="A"/>
    <g s:x="3" s:y="20" s:pid="B"/>
    <g s:x="33" s:y="12.5" s:pid="Y"/>
  </g>
  <g s:type="inputExt" transform="translate(12,102)" s:width="30" s:height="20" id="cell_a">
    <text x="15" y="-4" class="nodelabel cell_a" s:attribute="ref">a</text>
    <s:alias val="$_inputExt_"/>
    <path d="M0,0 L0,20 L15,20 L30,10 L15,0 Z" class="cell_a"/>
    <g s:x="28" s:y="10" s:pid="Y"/>
  </g>
  <g s:type="inputExt" transform="translate(12,167)" s:width="30" s:height="20" id="cell_b">
    <text x="15" y="-4" class="nodelabel cell_b" s:attribute="ref">b</text>
    <s:alias val="$_inputExt_"/>
    <path d="M0,0 L0,20 L15,20 L30,10 L15,0 Z" class="cell_b"/>
    <g s:x="28" s:y="10" s:pid="Y"/>
  </g>
  <g s:type="inputExt" transform="translate(80,82)" s:width="30" s:height="20" id="cell_cin">
    <text x="15" y="-4" class="nodelabel cell_cin" s:attribute="ref">cin</text>
    <s:alias val="$_inputExt_"/>
    <path d="M0,0 L0,20 L15,20 L30,10 L15,0 Z" class="cell_cin"/>
    <g s:x="28" s:y="10" s:pid="Y"/>
  </g>
  <g s:type="outputExt" transform="translate(278,43.5)" s:width="30" s:height="20" id="cell_sum">
    <text x="15" y="-4" class="nodelabel cell_sum" s:attribute="ref">sum</text>
    <s:alias val="$_outputExt_"/>
    <path d="M30,0 L30,20 L15,20 L0,10 L15,0 Z" class="cell_sum"/>
    <g s:x="0" s:y="10" s:pid="A"/>
  </g>
  <g s:type="outputExt" transform="translate(278,152)" s:width="30" s:height="20" id="cell_carry">
    <text x="15" y="-4" class="nodelabel cell_carry" s:attribute="ref">carry</text>
    <s:alias val="$_outputExt_"/>
    <path d="M30,0 L30,20 L15,20 L0,10 L15,0 Z" class="cell_carry"/>
    <g s:x="0" s:y="10" s:pid="A"/>
  </g>
  <line x1="175" x2="185" y1="84.5" y2="84.5" class="net_7"/>
  <line x1="185" x2="185" y1="84.5" y2="154.5" class="net_7"/>
  <line x1="185" x2="214" y1="154.5" y2="154.5" class="net_7"/>
  <line x1="175" x2="214" y1="169.5" y2="169.5" class="net_8"/>
  <line x1="40" x2="120" y1="112" y2="112" class="net_2"/>
  <line x1="120" x2="120" y1="112" y2="162" class="net_2"/>
  <line x1="120" x2="145" y1="162" y2="162" class="net_2"/>
  <line x1="40" x2="52" y1="112" y2="112" class="net_2"/>
  <line x1="52" x2="52" y1="112" y2="17" class="net_2"/>
  <circle cx="52" cy="112" r="2" style="fill:#000" class="net_2"/>
  <line x1="52" x2="80" y1="17" y2="17" class="net_2"/>
  <line x1="40" x2="145" y1="177" y2="177" class="net_3"/>
  <line x1="40" x2="62" y1="177" y2="177" class="net_3"/>
  <line x1="62" x2="62" y1="177" y2="32" class="net_3"/>
  <circle cx="62" cy="177" r="2" style="fill:#000" class="net_3"/>
  <line x1="62" x2="80" y1="32" y2="32" class="net_3"/>
  <line x1="110" x2="130" y1="24.5" y2="24.5" class="net_9"/>
  <line x1="130" x2="130" y1="24.5" y2="77" class="net_9"/>
  <circle cx="130" cy="24.5" r="2" style="fill:#000" class="net_9"/>
  <line x1="130" x2="145" y1="77" y2="77" class="net_9"/>
  <line x1="110" x2="185" y1="24.5" y2="24.5" class="net_9"/>
  <line x1="185" x2="185" y1="24.5" y2="46" class="net_9"/>
  <line x1="185" x2="213" y1="46" y2="46" class="net_9"/>
  <line x1="108" x2="145" y1="92" y2="92" class="net_4"/>
  <line x1="108" x2="120" y1="92" y2="92" class="net_4"/>
  <line x1="120" x2="120" y1="92" y2="61" class="net_4"/>
  <circle cx="120" cy="92" r="2" style="fill:#000" class="net_4"/>
  <line x1="120" x2="213" y1="61" y2="61" class="net_4"/>
  <line x1="243" x2="278" y1="53.5" y2="53.5" class="net_5"/>
  <line x1="241" x2="278" y1="162" y2="162" class="net_6"/>
</svg>
