<svg xmlns="http://www.w3.org/2000/svg" xmlns:xlink="http://www.w3.org/1999/xlink" xmlns:s="https://github.com/nturley/netlistsvg" width="384" height="492">
  <style>svg {
    stroke:#000;
    fill:none;
  }
  text {
    fill:#000;
    stroke:none;
    font-size:10px;
    font-weight: bold;
    font-family: "Courier New", monospace;
  }
  .nodelabel {
    text-anchor: middle;
  }
  .inputPortLabel {
    text-anchor: end;
  }
  .splitjoinBody {
    fill:#000;
  }</style>
  <g s:type="or" transform="translate(197,39.5)" s:width="30" s:height="25" id="cell_$or$piso.v:7$2">
    <s:alias val="$or"/>
    <s:alias val="$logic_or"/>
    <s:alias val="$_OR_"/>
    <path d="M0,25 L0,25 L15,25 A15 12.5 0 0 0 15,0 L0,0" class="cell_$or$piso.v:7$2"/>
    <path d="M0,0 A30 25 0 0 1 0,25" class="cell_$or$piso.v:7$2"/>
    <g s:x="3" s:y="5" s:pid="A"/>
    <g s:x="3" s:y="20" s:pid="B"/>
    <g s:x="30" s:y="12.5" s:pid="Y"/>
  </g>
  <g s:type="dff" transform="translate(332,22)" s:width="30" s:height="40" id="cell_$procdff$18">
    <s:alias val="$dff"/>
    <s:alias val="$_DFF_"/>
    <s:alias val="$_DFF_P_"/>
    <rect width="30" height="40" x="0" y="0" class="cell_$procdff$18"/>
    <path d="M0,35 L5,30 L0,25" class="cell_$procdff$18"/>
    <g s:x="30" s:y="10" s:pid="Q"/>
    <g s:x="0" s:y="30" s:pid="CLK"/>
    <g s:x="0" s:y="30" s:pid="C"/>
    <g s:x="0" s:y="10" s:pid="D"/>
  </g>
  <g s:type="dff" transform="translate(267,140)" s:width="30" s:height="40" id="cell_$procdff$19">
    <s:alias val="$dff"/>
    <s:alias val="$_DFF_"/>
    <s:alias val="$_DFF_P_"/>
    <rect width="30" height="40" x="0" y="0" class="cell_$procdff$19"/>
    <path d="M0,35 L5,30 L0,25" class="cell_$procdff$19"/>
    <g s:x="30" s:y="10" s:pid="Q"/>
    <g s:x="0" s:y="30" s:pid="CLK"/>
    <g s:x="0" s:y="30" s:pid="C"/>
    <g s:x="0" s:y="10" s:pid="D"/>
  </g>
  <g s:type="mux" transform="translate(200.33333333333334,250)" s:width="20" s:height="40" id="cell_$procmux$10">
    <s:alias val="$pmux"/>
    <s:alias val="$mux"/>
    <s:alias val="$_MUX_"/>
    <path d="M0,0 L20,10 L20,30 L0,40 Z" class="cell_$procmux$10"/>
    <g s:x="0" s:y="10" s:pid="A"/>
    <g s:x="0" s:y="30" s:pid="B"/>
    <g s:x="10" s:y="35" s:pid="S"/>
    <g s:x="20" s:y="20" s:pid="Y"/>
  </g>
  <g s:type="mux" transform="translate(200.33333333333334,310)" s:width="20" s:height="40" id="cell_$procmux$13">
    <s:alias val="$pmux"/>
    <s:alias val="$mux"/>
    <s:alias val="$_MUX_"/>
    <path d="M0,0 L20,10 L20,30 L0,40 Z" class="cell_$procmux$13"/>
    <g s:x="0" s:y="10" s:pid="A"/>
    <g s:x="0" s:y="30" s:pid="B"/>
    <g s:x="10" s:y="35" s:pid="S"/>
    <g s:x="20" s:y="20" s:pid="Y"/>
  </g>
  <g s:type="mux" transform="translate(203.66666666666666,130)" s:width="20" s:height="40" id="cell_$procmux$16">
    <s:alias val="$pmux"/>
    <s:alias val="$mux"/>
    <s:alias val="$_MUX_"/>
    <path d="M0,0 L20,10 L20,30 L0,40 Z" class="cell_$procmux$16"/>
    <g s:x="0" s:y="10" s:pid="A"/>
    <g s:x="0" s:y="30" s:pid="B"/>
    <g s:x="10" s:y="35" s:pid="S"/>
    <g s:x="20" s:y="20" s:pid="Y"/>
  </g>
  <g s:type="mux" transform="translate(200.33333333333334,370)" s:width="20" s:height="40" id="cell_$procmux$4">
    <s:alias val="$pmux"/>
    <s:alias val="$mux"/>
    <s:alias val="$_MUX_"/>
    <path d="M0,0 L20,10 L20,30 L0,40 Z" class="cell_$procmux$4"/>
    <g s:x="0" s:y="10" s:pid="A"/>
    <g s:x="0" s:y="30" s:pid="B"/>
    <g s:x="10" s:y="35" s:pid="S"/>
    <g s:x="20" s:y="20" s:pid="Y"/>
  </g>
  <g s:type="mux" transform="translate(200.33333333333334,430)" s:width="20" s:height="40" id="cell_$procmux$7">
    <s:alias val="$pmux"/>
    <s:alias val="$mux"/>
    <s:alias val="$_MUX_"/>
    <path d="M0,0 L20,10 L20,30 L0,40 Z" class="cell_$procmux$7"/>
    <g s:x="0" s:y="10" s:pid="A"/>
    <g s:x="0" s:y="30" s:pid="B"/>
    <g s:x="10" s:y="35" s:pid="S"/>
    <g s:x="20" s:y="20" s:pid="Y"/>
  </g>
  <g s:type="inputExt" transform="translate(12,280)" s:width="30" s:height="20" id="cell_in">
    <text x="15" y="-4" class="nodelabel cell_in" s:attribute="ref">in</text>
    <s:alias val="$_inputExt_"/>
    <path d="M0,0 L0,20 L15,20 L30,10 L15,0 Z" class="cell_in"/>
    <g s:x="28" s:y="10" s:pid="Y"/>
  </g>
  <g s:type="inputExt" transform="translate(77,34.5)" s:width="30" s:height="20" id="cell_clk">
    <text x="15" y="-4" class="nodelabel cell_clk" s:attribute="ref">clk</text>
    <s:alias val="$_inputExt_"/>
    <path d="M0,0 L0,20 L15,20 L30,10 L15,0 Z" class="cell_clk"/>
    <g s:x="28" s:y="10" s:pid="Y"/>
  </g>
  <g s:type="outputExt" transform="translate(332,140)" s:width="30" s:height="20" id="cell_out">
    <text x="15" y="-4" class="nodelabel cell_out" s:attribute="ref">out</text>
    <s:alias val="$_outputExt_"/>
    <path d="M30,0 L30,20 L15,20 L0,10 L15,0 Z" class="cell_out"/>
    <g s:x="0" s:y="10" s:pid="A"/>
  </g>
  <g s:type="inputExt" transform="translate(77,214.5)" s:width="30" s:height="20" id="cell_load">
    <text x="15" y="-4" class="nodelabel cell_load" s:attribute="ref">load</text>
    <s:alias val="$_inputExt_"/>
    <path d="M0,0 L0,20 L15,20 L30,10 L15,0 Z" class="cell_load"/>
    <g s:x="28" s:y="10" s:pid="Y"/>
  </g>
  <g s:type="join" transform="translate(277,359.5)" s:width="4" s:height="40" id="cell_$join$,10,11,12,13,">
    <rect width="5" height="80" class="splitjoinBody" s:generic="body"/>
    <s:alias val="$_join_"/>
    <g s:x="5" s:y="20" s:pid="out"/>
    <g transform="translate(0,10)" s:x="0" s:y="10" s:pid="in0">
      <text x="-3" y="-4" class="inputPortLabel">0</text>
    </g>
    <g transform="translate(0,30)" s:x="0" s:y="10" s:pid="in0">
      <text x="-3" y="-4" class="inputPortLabel">1</text>
    </g>
    <g transform="translate(0,50)" s:x="0" s:y="10" s:pid="in0">
      <text x="-3" y="-4" class="inputPortLabel">2</text>
    </g>
    <g transform="translate(0,70)" s:x="0" s:y="10" s:pid="in0">
      <text x="-3" y="-4" class="inputPortLabel">3</text>
    </g>
  </g>
  <g s:type="split" transform="translate(95,89.5)" s:width="5" s:height="40" id="cell_$split$,14,15,16,17,">
    <rect width="5" height="80" class="splitjoinBody" s:generic="body"/>
    <s:alias val="$_split_"/>
    <g s:x="0" s:y="20" s:pid="in"/>
    <g transform="translate(4,10)" s:x="4" s:y="10" s:pid="out0">
      <text x="5" y="-4">1</text>
    </g>
    <g transform="translate(4,30)" s:x="4" s:y="10" s:pid="out0">
      <text x="5" y="-4">2</text>
    </g>
    <g transform="translate(4,50)" s:x="4" s:y="10" s:pid="out0">
      <text x="5" y="-4">3</text>
    </g>
    <g transform="translate(4,70)" s:x="4" s:y="10" s:pid="out0">
      <text x="5" y="-4">0</text>
    </g>
  </g>
  <g s:type="split" transform="translate(92.8,269.5)" s:width="5" s:height="40" id="cell_$split$,2,3,4,5,">
    <rect width="5" height="80" class="splitjoinBody" s:generic="body"/>
    <s:alias val="$_split_"/>
    <g s:x="0" s:y="20" s:pid="in"/>
    <g transform="translate(4,10)" s:x="4" s:y="10" s:pid="out0">
      <text x="5" y="-4">2</text>
    </g>
    <g transform="translate(4,30)" s:x="4" s:y="10" s:pid="out0">
      <text x="5" y="-4">3</text>
    </g>
    <g transform="translate(4,50)" s:x="4" s:y="10" s:pid="out0">
      <text x="5" y="-4">1</text>
    </g>
    <g transform="translate(4,70)" s:x="4" s:y="10" s:pid="out0">
      <text x="5" y="-4">0</text>
    </g>
  </g>
  <line x1="105" x2="200" y1="44.5" y2="44.5" class="net_6"/>
  <line x1="105" x2="167" y1="224.5" y2="224.5" class="net_8"/>
  <line x1="167" x2="167" y1="224.5" y2="59.5" class="net_8"/>
  <circle cx="167" cy="224.5" r="2" style="fill:#000" class="net_8"/>
  <line x1="167" x2="200" y1="59.5" y2="59.5" class="net_8"/>
  <line x1="105" x2="167" y1="224.5" y2="224.5" class="net_8"/>
  <line x1="167" x2="167" y1="224.5" y2="300" class="net_8"/>
  <line x1="167" x2="210.33333333333334" y1="300" y2="300" class="net_8"/>
  <circle cx="167" cy="300" r="2" style="fill:#000" class="net_8"/>
  <line x1="210.33333333333334" x2="210.33333333333334" y1="300" y2="285" class="net_8"/>
  <line x1="105" x2="167" y1="224.5" y2="224.5" class="net_8"/>
  <line x1="167" x2="167" y1="224.5" y2="360" class="net_8"/>
  <line x1="167" x2="210.33333333333334" y1="360" y2="360" class="net_8"/>
  <circle cx="167" cy="360" r="2" style="fill:#000" class="net_8"/>
  <line x1="210.33333333333334" x2="210.33333333333334" y1="360" y2="345" class="net_8"/>
  <line x1="105" x2="213.66666666666666" y1="224.5" y2="224.5" class="net_8"/>
  <line x1="213.66666666666666" x2="213.66666666666666" y1="224.5" y2="165" class="net_8"/>
  <line x1="105" x2="167" y1="224.5" y2="224.5" class="net_8"/>
  <line x1="167" x2="167" y1="224.5" y2="420" class="net_8"/>
  <line x1="167" x2="210.33333333333334" y1="420" y2="420" class="net_8"/>
  <circle cx="167" cy="420" r="2" style="fill:#000" class="net_8"/>
  <line x1="210.33333333333334" x2="210.33333333333334" y1="420" y2="405" class="net_8"/>
  <line x1="105" x2="167" y1="224.5" y2="224.5" class="net_8"/>
  <line x1="167" x2="167" y1="224.5" y2="480" class="net_8"/>
  <line x1="167" x2="210.33333333333334" y1="480" y2="480" class="net_8"/>
  <line x1="210.33333333333334" x2="210.33333333333334" y1="480" y2="465" class="net_8"/>
  <line x1="227" x2="332" y1="52" y2="52" class="net_9"/>
  <line x1="227" x2="237" y1="52" y2="52" class="net_9"/>
  <line x1="237" x2="237" y1="52" y2="170" class="net_9"/>
  <circle cx="237" cy="52" r="2" style="fill:#000" class="net_9"/>
  <line x1="237" x2="267" y1="170" y2="170" class="net_9"/>
  <line x1="283" x2="317" y1="380" y2="380" class="net_10,11,12,13"/>
  <line x1="317" x2="317" y1="380" y2="32" class="net_10,11,12,13"/>
  <line x1="317" x2="332" y1="32" y2="32" class="net_10,11,12,13"/>
  <line x1="223.66666666666666" x2="267" y1="150" y2="150" class="net_18"/>
  <line x1="100" x2="177" y1="100" y2="100" class="net_15"/>
  <line x1="177" x2="177" y1="100" y2="260" class="net_15"/>
  <line x1="177" x2="200.33333333333334" y1="260" y2="260" class="net_15"/>
  <line x1="97.8" x2="200.33333333333334" y1="280" y2="280" class="net_4"/>
  <line x1="100" x2="157" y1="120" y2="120" class="net_16"/>
  <line x1="157" x2="157" y1="120" y2="320" class="net_16"/>
  <line x1="157" x2="200.33333333333334" y1="320" y2="320" class="net_16"/>
  <line x1="97.8" x2="137" y1="300" y2="300" class="net_5"/>
  <line x1="137" x2="137" y1="300" y2="340" class="net_5"/>
  <line x1="137" x2="200.33333333333334" y1="340" y2="340" class="net_5"/>
  <line x1="100" x2="203.66666666666666" y1="140" y2="140" class="net_17"/>
  <line x1="297" x2="307" y1="150" y2="150" class="net_7"/>
  <line x1="307" x2="307" y1="150" y2="120" class="net_7"/>
  <line x1="307" x2="187" y1="120" y2="120" class="net_7"/>
  <line x1="187" x2="187" y1="120" y2="160" class="net_7"/>
  <circle cx="307" cy="150" r="2" style="fill:#000" class="net_7"/>
  <line x1="187" x2="203.66666666666666" y1="160" y2="160" class="net_7"/>
  <line x1="297" x2="332" y1="150" y2="150" class="net_7"/>
  <line x1="100" x2="147" y1="160" y2="160" class="net_14"/>
  <line x1="147" x2="147" y1="160" y2="380" class="net_14"/>
  <circle cx="147" cy="380" r="2" style="fill:#000" class="net_14"/>
  <line x1="147" x2="200.33333333333334" y1="380" y2="380" class="net_14"/>
  <line x1="100" x2="147" y1="160" y2="160" class="net_14"/>
  <line x1="147" x2="147" y1="160" y2="440" class="net_14"/>
  <line x1="147" x2="200.33333333333334" y1="440" y2="440" class="net_14"/>
  <line x1="97.8" x2="127" y1="320" y2="320" class="net_3"/>
  <line x1="127" x2="127" y1="320" y2="400" class="net_3"/>
  <line x1="127" x2="200.33333333333334" y1="400" y2="400" class="net_3"/>
  <line x1="97.8" x2="117" y1="340" y2="340" class="net_2"/>
  <line x1="117" x2="117" y1="340" y2="460" class="net_2"/>
  <line x1="117" x2="200.33333333333334" y1="460" y2="460" class="net_2"/>
  <line x1="220.33333333333334" x2="237" y1="450" y2="450" class="net_10"/>
  <line x1="237" x2="237" y1="450" y2="370" class="net_10"/>
  <line x1="237" x2="277" y1="370" y2="370" class="net_10"/>
  <line x1="220.33333333333334" x2="277" y1="390" y2="390" class="net_11"/>
  <line x1="220.33333333333334" x2="257" y1="270" y2="270" class="net_12"/>
  <line x1="257" x2="257" y1="270" y2="410" class="net_12"/>
  <line x1="257" x2="277" y1="410" y2="410" class="net_12"/>
  <line x1="220.33333333333334" x2="247" y1="330" y2="330" class="net_13"/>
  <line x1="247" x2="247" y1="330" y2="449.5" class="net_13"/>
  <line x1="247" x2="277.5" y1="449.5" y2="449.5" class="net_13"/>
  <line x1="277.5" x2="277.5" y1="449.5" y2="430.5" class="net_13"/>
  <line x1="362" x2="372" y1="32" y2="32" class="net_14,15,16,17"/>
  <line x1="372" x2="372" y1="32" y2="12" class="net_14,15,16,17"/>
  <line x1="372" x2="52" y1="12" y2="12" class="net_14,15,16,17"/>
  <line x1="52" x2="52" y1="12" y2="110" class="net_14,15,16,17"/>
  <line x1="52" x2="95" y1="110" y2="110" class="net_14,15,16,17"/>
  <line x1="40" x2="92.8" y1="290" y2="290" class="net_2,3,4,5"/>
</svg>
