<svg xmlns="http://www.w3.org/2000/svg" xmlns:xlink="http://www.w3.org/1999/xlink" xmlns:s="https://github.com/nturley/netlistsvg" width="379" height="489.5">
  <style>svg {
    stroke:#000;
    fill:none;
  }
  text {
    fill:#000;
    stroke:none;
    font-size:10px;
    font-weight: bold;
    font-family: "Courier New", monospace;
  }
  .nodelabel {
    text-anchor: middle;
  }
  .inputPortLabel {
    text-anchor: end;
  }
  .splitjoinBody {
    fill:#000;
  }</style>
  <g s:type="dff" transform="translate(327,232.5)" s:width="30" s:height="40" id="cell_$procdff$17">
    <s:alias val="$dff"/>
    <s:alias val="$_DFF_"/>
    <s:alias val="$_DFF_P_"/>
    <rect width="30" height="40" x="0" y="0" class="cell_$procdff$17"/>
    <path d="M0,35 L5,30 L0,25" class="cell_$procdff$17"/>
    <g s:x="30" s:y="10" s:pid="Q"/>
    <g s:x="0" s:y="30" s:pid="CLK"/>
    <g s:x="0" s:y="30" s:pid="C"/>
    <g s:x="0" s:y="10" s:pid="D"/>
  </g>
  <g s:type="dff" transform="translate(262,52.5)" s:width="30" s:height="40" id="cell_$procdff$18">
    <s:alias val="$dff"/>
    <s:alias val="$_DFF_"/>
    <s:alias val="$_DFF_P_"/>
    <rect width="30" height="40" x="0" y="0" class="cell_$procdff$18"/>
    <path d="M0,35 L5,30 L0,25" class="cell_$procdff$18"/>
    <g s:x="30" s:y="10" s:pid="Q"/>
    <g s:x="0" s:y="30" s:pid="CLK"/>
    <g s:x="0" s:y="30" s:pid="C"/>
    <g s:x="0" s:y="10" s:pid="D"/>
  </g>
  <g s:type="mux" transform="translate(200.33333333333334,182.5)" s:width="20" s:height="40" id="cell_$procmux$12">
    <s:alias val="$pmux"/>
    <s:alias val="$mux"/>
    <s:alias val="$_MUX_"/>
    <path d="M0,0 L20,10 L20,30 L0,40 Z" class="cell_$procmux$12"/>
    <g s:x="0" s:y="10" s:pid="A"/>
    <g s:x="0" s:y="30" s:pid="B"/>
    <g s:x="10" s:y="35" s:pid="S"/>
    <g s:x="20" s:y="20" s:pid="Y"/>
  </g>
  <g s:type="mux" transform="translate(203.66666666666666,42.5)" s:width="20" s:height="40" id="cell_$procmux$15">
    <s:alias val="$pmux"/>
    <s:alias val="$mux"/>
    <s:alias val="$_MUX_"/>
    <path d="M0,0 L20,10 L20,30 L0,40 Z" class="cell_$procmux$15"/>
    <g s:x="0" s:y="10" s:pid="A"/>
    <g s:x="0" s:y="30" s:pid="B"/>
    <g s:x="10" s:y="35" s:pid="S"/>
    <g s:x="20" s:y="20" s:pid="Y"/>
  </g>
  <g s:type="mux" transform="translate(200.33333333333334,307.5)" s:width="20" s:height="40" id="cell_$procmux$3">
    <s:alias val="$pmux"/>
    <s:alias val="$mux"/>
    <s:alias val="$_MUX_"/>
    <path d="M0,0 L20,10 L20,30 L0,40 Z" class="cell_$procmux$3"/>
    <g s:x="0" s:y="10" s:pid="A"/>
    <g s:x="0" s:y="30" s:pid="B"/>
    <g s:x="10" s:y="35" s:pid="S"/>
    <g s:x="20" s:y="20" s:pid="Y"/>
  </g>
  <g s:type="mux" transform="translate(200.33333333333334,367.5)" s:width="20" s:height="40" id="cell_$procmux$6">
    <s:alias val="$pmux"/>
    <s:alias val="$mux"/>
    <s:alias val="$_MUX_"/>
    <path d="M0,0 L20,10 L20,30 L0,40 Z" class="cell_$procmux$6"/>
    <g s:x="0" s:y="10" s:pid="A"/>
    <g s:x="0" s:y="30" s:pid="B"/>
    <g s:x="10" s:y="35" s:pid="S"/>
    <g s:x="20" s:y="20" s:pid="Y"/>
  </g>
  <g s:type="mux" transform="translate(200.33333333333334,427.5)" s:width="20" s:height="40" id="cell_$procmux$9">
    <s:alias val="$pmux"/>
    <s:alias val="$mux"/>
    <s:alias val="$_MUX_"/>
    <path d="M0,0 L20,10 L20,30 L0,40 Z" class="cell_$procmux$9"/>
    <g s:x="0" s:y="10" s:pid="A"/>
    <g s:x="0" s:y="30" s:pid="B"/>
    <g s:x="10" s:y="35" s:pid="S"/>
    <g s:x="20" s:y="20" s:pid="Y"/>
  </g>
  <g s:type="inputExt" transform="translate(12,212.5)" s:width="30" s:height="20" id="cell_in">
    <text x="15" y="-4" class="nodelabel cell_in" s:attribute="ref">in</text>
    <s:alias val="$_inputExt_"/>
    <path d="M0,0 L0,20 L15,20 L30,10 L15,0 Z" class="cell_in"/>
    <g s:x="28" s:y="10" s:pid="Y"/>
  </g>
  <g s:type="inputExt" transform="translate(197,252.5)" s:width="30" s:height="20" id="cell_clk">
    <text x="15" y="-4" class="nodelabel cell_clk" s:attribute="ref">clk</text>
    <s:alias val="$_inputExt_"/>
    <path d="M0,0 L0,20 L15,20 L30,10 L15,0 Z" class="cell_clk"/>
    <g s:x="28" s:y="10" s:pid="Y"/>
  </g>
  <g s:type="outputExt" transform="translate(327,52.5)" s:width="30" s:height="20" id="cell_out">
    <text x="15" y="-4" class="nodelabel cell_out" s:attribute="ref">out</text>
    <s:alias val="$_outputExt_"/>
    <path d="M30,0 L30,20 L15,20 L0,10 L15,0 Z" class="cell_out"/>
    <g s:x="0" s:y="10" s:pid="A"/>
  </g>
  <g s:type="inputExt" transform="translate(77,147)" s:width="30" s:height="20" id="cell_load">
    <text x="15" y="-4" class="nodelabel cell_load" s:attribute="ref">load</text>
    <s:alias val="$_inputExt_"/>
    <path d="M0,0 L0,20 L15,20 L30,10 L15,0 Z" class="cell_load"/>
    <g s:x="28" s:y="10" s:pid="Y"/>
  </g>
  <g s:type="join" transform="translate(272,377)" s:width="4" s:height="40" id="cell_$join$,9,10,11,12,">
    <rect width="5" height="80" class="splitjoinBody" s:generic="body"/>
    <s:alias val="$_join_"/>
    <g s:x="5" s:y="20" s:pid="out"/>
    <g transform="translate(0,10)" s:x="0" s:y="10" s:pid="in0">
      <text x="-3" y="-4" class="inputPortLabel">0</text>
    </g>
    <g transform="translate(0,30)" s:x="0" s:y="10" s:pid="in0">
      <text x="-3" y="-4" class="inputPortLabel">1</text>
    </g>
    <g transform="translate(0,50)" s:x="0" s:y="10" s:pid="in0">
      <text x="-3" y="-4" class="inputPortLabel">2</text>
    </g>
    <g transform="translate(0,70)" s:x="0" s:y="10" s:pid="in0">
      <text x="-3" y="-4" class="inputPortLabel">3</text>
    </g>
  </g>
  <g s:type="split" transform="translate(95,22)" s:width="5" s:height="40" id="cell_$split$,13,14,15,16,">
    <rect width="5" height="80" class="splitjoinBody" s:generic="body"/>
    <s:alias val="$_split_"/>
    <g s:x="0" s:y="20" s:pid="in"/>
    <g transform="translate(4,10)" s:x="4" s:y="10" s:pid="out0">
      <text x="5" y="-4">2</text>
    </g>
    <g transform="translate(4,30)" s:x="4" s:y="10" s:pid="out0">
      <text x="5" y="-4">3</text>
    </g>
    <g transform="translate(4,50)" s:x="4" s:y="10" s:pid="out0">
      <text x="5" y="-4">0</text>
    </g>
    <g transform="translate(4,70)" s:x="4" s:y="10" s:pid="out0">
      <text x="5" y="-4">1</text>
    </g>
  </g>
  <g s:type="split" transform="translate(92.8,202)" s:width="5" s:height="40" id="cell_$split$,2,3,4,5,">
    <rect width="5" height="80" class="splitjoinBody" s:generic="body"/>
    <s:alias val="$_split_"/>
    <g s:x="0" s:y="20" s:pid="in"/>
    <g transform="translate(4,10)" s:x="4" s:y="10" s:pid="out0">
      <text x="5" y="-4">3</text>
    </g>
    <g transform="translate(4,30)" s:x="4" s:y="10" s:pid="out0">
      <text x="5" y="-4">1</text>
    </g>
    <g transform="translate(4,50)" s:x="4" s:y="10" s:pid="out0">
      <text x="5" y="-4">0</text>
    </g>
    <g transform="translate(4,70)" s:x="4" s:y="10" s:pid="out0">
      <text x="5" y="-4">2</text>
    </g>
  </g>
  <line x1="225" x2="327" y1="262.5" y2="262.5" class="net_6"/>
  <line x1="225" x2="247" y1="262.5" y2="262.5" class="net_6"/>
  <line x1="247" x2="247" y1="262.5" y2="82.5" class="net_6"/>
  <circle cx="247" cy="262.5" r="2" style="fill:#000" class="net_6"/>
  <line x1="247" x2="262" y1="82.5" y2="82.5" class="net_6"/>
  <line x1="278" x2="302" y1="397.5" y2="397.5" class="net_9,10,11,12"/>
  <line x1="302" x2="302" y1="397.5" y2="242.5" class="net_9,10,11,12"/>
  <line x1="302" x2="327" y1="242.5" y2="242.5" class="net_9,10,11,12"/>
  <line x1="223.66666666666666" x2="262" y1="62.5" y2="62.5" class="net_17"/>
  <line x1="100" x2="177" y1="32.5" y2="32.5" class="net_15"/>
  <line x1="177" x2="177" y1="32.5" y2="192.5" class="net_15"/>
  <line x1="177" x2="200.33333333333334" y1="192.5" y2="192.5" class="net_15"/>
  <line x1="97.8" x2="200.33333333333334" y1="212.5" y2="212.5" class="net_5"/>
  <line x1="105" x2="157" y1="157" y2="157" class="net_8"/>
  <line x1="157" x2="157" y1="157" y2="232.5" class="net_8"/>
  <line x1="157" x2="210.33333333333334" y1="232.5" y2="232.5" class="net_8"/>
  <circle cx="157" cy="157" r="2" style="fill:#000" class="net_8"/>
  <circle cx="157" cy="232.5" r="2" style="fill:#000" class="net_8"/>
  <line x1="210.33333333333334" x2="210.33333333333334" y1="232.5" y2="217.5" class="net_8"/>
  <line x1="105" x2="213.66666666666666" y1="157" y2="157" class="net_8"/>
  <line x1="213.66666666666666" x2="213.66666666666666" y1="157" y2="77.5" class="net_8"/>
  <line x1="105" x2="157" y1="157" y2="157" class="net_8"/>
  <line x1="157" x2="157" y1="157" y2="357.5" class="net_8"/>
  <line x1="157" x2="210.33333333333334" y1="357.5" y2="357.5" class="net_8"/>
  <circle cx="157" cy="357.5" r="2" style="fill:#000" class="net_8"/>
  <line x1="210.33333333333334" x2="210.33333333333334" y1="357.5" y2="342.5" class="net_8"/>
  <line x1="105" x2="157" y1="157" y2="157" class="net_8"/>
  <line x1="157" x2="157" y1="157" y2="417.5" class="net_8"/>
  <line x1="157" x2="210.33333333333334" y1="417.5" y2="417.5" class="net_8"/>
  <circle cx="157" cy="417.5" r="2" style="fill:#000" class="net_8"/>
  <line x1="210.33333333333334" x2="210.33333333333334" y1="417.5" y2="402.5" class="net_8"/>
  <line x1="105" x2="157" y1="157" y2="157" class="net_8"/>
  <line x1="157" x2="157" y1="157" y2="477.5" class="net_8"/>
  <line x1="157" x2="210.33333333333334" y1="477.5" y2="477.5" class="net_8"/>
  <line x1="210.33333333333334" x2="210.33333333333334" y1="477.5" y2="462.5" class="net_8"/>
  <line x1="100" x2="203.66666666666666" y1="52.5" y2="52.5" class="net_16"/>
  <line x1="292" x2="302" y1="62.5" y2="62.5" class="net_7"/>
  <line x1="302" x2="302" y1="62.5" y2="32.5" class="net_7"/>
  <line x1="302" x2="187" y1="32.5" y2="32.5" class="net_7"/>
  <line x1="187" x2="187" y1="32.5" y2="72.5" class="net_7"/>
  <circle cx="302" cy="62.5" r="2" style="fill:#000" class="net_7"/>
  <line x1="187" x2="203.66666666666666" y1="72.5" y2="72.5" class="net_7"/>
  <line x1="292" x2="327" y1="62.5" y2="62.5" class="net_7"/>
  <line x1="100" x2="167" y1="72.5" y2="72.5" class="net_13"/>
  <line x1="167" x2="167" y1="72.5" y2="317.5" class="net_13"/>
  <circle cx="167" cy="317.5" r="2" style="fill:#000" class="net_13"/>
  <line x1="167" x2="200.33333333333334" y1="317.5" y2="317.5" class="net_13"/>
  <line x1="100" x2="167" y1="72.5" y2="72.5" class="net_13"/>
  <line x1="167" x2="167" y1="72.5" y2="377.5" class="net_13"/>
  <line x1="167" x2="200.33333333333334" y1="377.5" y2="377.5" class="net_13"/>
  <line x1="97.8" x2="137" y1="232.5" y2="232.5" class="net_3"/>
  <line x1="137" x2="137" y1="232.5" y2="337.5" class="net_3"/>
  <line x1="137" x2="200.33333333333334" y1="337.5" y2="337.5" class="net_3"/>
  <line x1="97.8" x2="127" y1="252.5" y2="252.5" class="net_2"/>
  <line x1="127" x2="127" y1="252.5" y2="397.5" class="net_2"/>
  <line x1="127" x2="200.33333333333334" y1="397.5" y2="397.5" class="net_2"/>
  <line x1="100" x2="147" y1="92.5" y2="92.5" class="net_14"/>
  <line x1="147" x2="147" y1="92.5" y2="437.5" class="net_14"/>
  <line x1="147" x2="200.33333333333334" y1="437.5" y2="437.5" class="net_14"/>
  <line x1="97.8" x2="117" y1="272.5" y2="272.5" class="net_4"/>
  <line x1="117" x2="117" y1="272.5" y2="457.5" class="net_4"/>
  <line x1="117" x2="200.33333333333334" y1="457.5" y2="457.5" class="net_4"/>
  <line x1="220.33333333333334" x2="272" y1="387.5" y2="387.5" class="net_9"/>
  <line x1="220.33333333333334" x2="247" y1="327.5" y2="327.5" class="net_10"/>
  <line x1="247" x2="247" y1="327.5" y2="407.5" class="net_10"/>
  <line x1="247" x2="272" y1="407.5" y2="407.5" class="net_10"/>
  <line x1="220.33333333333334" x2="247" y1="447.5" y2="447.5" class="net_11"/>
  <line x1="247" x2="247" y1="447.5" y2="427.5" class="net_11"/>
  <line x1="247" x2="272" y1="427.5" y2="427.5" class="net_11"/>
  <line x1="220.33333333333334" x2="237" y1="202.5" y2="202.5" class="net_12"/>
  <line x1="237" x2="237" y1="202.5" y2="467" class="net_12"/>
  <line x1="237" x2="272.5" y1="467" y2="467" class="net_12"/>
  <line x1="272.5" x2="272.5" y1="467" y2="448" class="net_12"/>
  <line x1="357" x2="367" y1="242.5" y2="242.5" class="net_13,14,15,16"/>
  <line x1="367" x2="367" y1="242.5" y2="12" class="net_13,14,15,16"/>
  <line x1="367" x2="52" y1="12" y2="12" class="net_13,14,15,16"/>
  <line x1="52" x2="52" y1="12" y2="42.5" class="net_13,14,15,16"/>
  <line x1="52" x2="95" y1="42.5" y2="42.5" class="net_13,14,15,16"/>
  <line x1="40" x2="92.8" y1="222.5" y2="222.5" class="net_2,3,4,5"/>
</svg>
