<svg xmlns="http://www.w3.org/2000/svg" xmlns:xlink="http://www.w3.org/1999/xlink" xmlns:s="https://github.com/nturley/netlistsvg" width="479" height="152">
  <style>svg {
    stroke:#000;
    fill:none;
  }
  text {
    fill:#000;
    stroke:none;
    font-size:10px;
    font-weight: bold;
    font-family: "Courier New", monospace;
  }
  .nodelabel {
    text-anchor: middle;
  }
  .inputPortLabel {
    text-anchor: end;
  }
  .splitjoinBody {
    fill:#000;
  }</style>
  <g s:type="and" transform="translate(77,50)" s:width="30" s:height="25" id="cell_$and$trytff.v:10$2">
    <s:alias val="$and"/>
    <s:alias val="$logic_and"/>
    <s:alias val="$_AND_"/>
    <path d="M0,0 L0,25 L15,25 A15 12.5 0 0 0 15,0 Z" class="cell_$and$trytff.v:10$2"/>
    <g s:x="0" s:y="5" s:pid="A"/>
    <g s:x="0" s:y="20" s:pid="B"/>
    <g s:x="30" s:y="12.5" s:pid="Y"/>
  </g>
  <g s:type="generic" transform="translate(155,32)" s:width="30" s:height="40" id="cell_$auto$proc_dlatch.cc:409:proc_dlatch$18">
    <text x="15" y="-4" class="nodelabel cell_$auto$proc_dlatch.cc:409:proc_dlatch$18" s:attribute="ref">$dlatch</text>
    <rect width="30" height="40" s:generic="body" class="cell_$auto$proc_dlatch.cc:409:proc_dlatch$18"/>
    <g transform="translate(0,10)" s:x="0" s:y="10" s:pid="in0" id="port_$auto$proc_dlatch.cc:409:proc_dlatch$18~D">
      <text x="-3" y="-4" class="inputPortLabel cell_$auto$proc_dlatch.cc:409:proc_dlatch$18">D</text>
    </g>
    <g transform="translate(0,30)" s:x="0" s:y="10" s:pid="in0" id="port_$auto$proc_dlatch.cc:409:proc_dlatch$18~EN">
      <text x="-3" y="-4" class="inputPortLabel cell_$auto$proc_dlatch.cc:409:proc_dlatch$18">EN</text>
    </g>
    <g transform="translate(30,10)" s:x="30" s:y="10" s:pid="out0" id="port_$auto$proc_dlatch.cc:409:proc_dlatch$18~Q">
      <text x="5" y="-4" style="fill:#000; stroke:none" class="cell_$auto$proc_dlatch.cc:409:proc_dlatch$18">Q</text>
    </g>
  </g>
  <g s:type="reduce_xor" transform="translate(424,115)" s:width="33" s:height="25" id="cell_$xor$trytff.v:12$3">
    <s:alias val="$xor"/>
    <s:alias val="$reduce_xor"/>
    <s:alias val="$_XOR_"/>
    <path d="M3,0 A30 25 0 0 1 3,25 A30 25 0 0 0 33,12.5 A30 25 0 0 0 3,0" class="cell_$xor$trytff.v:12$3"/>
    <path d="M0,0 A30 25 0 0 1 0,25" class="cell_$xor$trytff.v:12$3"/>
    <g s:x="3" s:y="5" s:pid="A"/>
    <g s:x="3" s:y="20" s:pid="B"/>
    <g s:x="33" s:y="12.5" s:pid="Y"/>
  </g>
  <g s:type="inputExt" transform="translate(12,110)" s:width="30" s:height="20" id="cell_t">
    <text x="15" y="-4" class="nodelabel cell_t" s:attribute="ref">t</text>
    <s:alias val="$_inputExt_"/>
    <path d="M0,0 L0,20 L15,20 L30,10 L15,0 Z" class="cell_t"/>
    <g s:x="28" s:y="10" s:pid="Y"/>
  </g>
  <g s:type="inputExt" transform="translate(12,45)" s:width="30" s:height="20" id="cell_e">
    <text x="15" y="-4" class="nodelabel cell_e" s:attribute="ref">e</text>
    <s:alias val="$_inputExt_"/>
    <path d="M0,0 L0,20 L15,20 L30,10 L15,0 Z" class="cell_e"/>
    <g s:x="28" s:y="10" s:pid="Y"/>
  </g>
  <g s:type="outputExt" transform="translate(424,32.5)" s:width="30" s:height="20" id="cell_q">
    <text x="15" y="-4" class="nodelabel cell_q" s:attribute="ref">q</text>
    <s:alias val="$_outputExt_"/>
    <path d="M30,0 L30,20 L15,20 L0,10 L15,0 Z" class="cell_q"/>
    <g s:x="0" s:y="10" s:pid="A"/>
  </g>
  <line x1="40" x2="77" y1="55" y2="55" class="net_3"/>
  <line x1="40" x2="52" y1="120" y2="120" class="net_2"/>
  <line x1="52" x2="52" y1="120" y2="70" class="net_2"/>
  <circle cx="52" cy="120" r="2" style="fill:#000" class="net_2"/>
  <line x1="52" x2="77" y1="70" y2="70" class="net_2"/>
  <line x1="40" x2="427" y1="120" y2="120" class="net_2"/>
  <line x1="457" x2="467" y1="127.5" y2="127.5" class="net_6"/>
  <line x1="467" x2="467" y1="127.5" y2="12" class="net_6"/>
  <line x1="467" x2="117" y1="12" y2="12" class="net_6"/>
  <line x1="117" x2="117" y1="12" y2="42.5" class="net_6"/>
  <line x1="117" x2="155" y1="42.5" y2="42.5" class="net_6"/>
  <line x1="107" x2="155" y1="62.5" y2="62.5" class="net_5"/>
  <line x1="186" x2="399" y1="42.5" y2="42.5" class="net_4"/>
  <line x1="399" x2="399" y1="42.5" y2="135" class="net_4"/>
  <circle cx="399" cy="42.5" r="2" style="fill:#000" class="net_4"/>
  <line x1="399" x2="427" y1="135" y2="135" class="net_4"/>
  <line x1="186" x2="424" y1="42.5" y2="42.5" class="net_4"/>
</svg>
