<svg xmlns="http://www.w3.org/2000/svg" xmlns:xlink="http://www.w3.org/1999/xlink" xmlns:s="https://github.com/nturley/netlistsvg" width="494" height="217.5">
  <style>svg {
    stroke:#000;
    fill:none;
  }
  text {
    fill:#000;
    stroke:none;
    font-size:10px;
    font-weight: bold;
    font-family: "Courier New", monospace;
  }
  .nodelabel {
    text-anchor: middle;
  }
  .inputPortLabel {
    text-anchor: end;
  }
  .splitjoinBody {
    fill:#000;
  }</style>
  <g s:type="generic" transform="translate(161,142.5)" s:width="30" s:height="40" id="cell_B80">
    <text x="15" y="-4" class="nodelabel cell_B80" s:attribute="ref">fourbitFA</text>
    <rect width="30" height="60" s:generic="body" class="cell_B80"/>
    <g transform="translate(0,10)" s:x="0" s:y="10" s:pid="in0" id="port_B80~a">
      <text x="-3" y="-4" class="inputPortLabel cell_B80">a</text>
    </g>
    <g transform="translate(0,30)" s:x="0" s:y="10" s:pid="in0" id="port_B80~b">
      <text x="-3" y="-4" class="inputPortLabel cell_B80">b</text>
    </g>
    <g transform="translate(0,50)" s:x="0" s:y="10" s:pid="in0" id="port_B80~cin">
      <text x="-3" y="-4" class="inputPortLabel cell_B80">cin</text>
    </g>
    <g transform="translate(30,10)" s:x="30" s:y="10" s:pid="out0" id="port_B80~cout">
      <text x="5" y="-4" style="fill:#000; stroke:none" class="cell_B80">cout</text>
    </g>
    <g transform="translate(30,30)" s:x="30" s:y="10" s:pid="out0" id="port_B80~sumout">
      <text x="5" y="-4" style="fill:#000; stroke:none" class="cell_B80">sumout</text>
    </g>
  </g>
  <g s:type="generic" transform="translate(283,91)" s:width="30" s:height="40" id="cell_B81">
    <text x="15" y="-4" class="nodelabel cell_B81" s:attribute="ref">fourbitFA</text>
    <rect width="30" height="60" s:generic="body" class="cell_B81"/>
    <g transform="translate(0,10)" s:x="0" s:y="10" s:pid="in0" id="port_B81~a">
      <text x="-3" y="-4" class="inputPortLabel cell_B81">a</text>
    </g>
    <g transform="translate(0,30)" s:x="0" s:y="10" s:pid="in0" id="port_B81~b">
      <text x="-3" y="-4" class="inputPortLabel cell_B81">b</text>
    </g>
    <g transform="translate(0,50)" s:x="0" s:y="10" s:pid="in0" id="port_B81~cin">
      <text x="-3" y="-4" class="inputPortLabel cell_B81">cin</text>
    </g>
    <g transform="translate(30,10)" s:x="30" s:y="10" s:pid="out0" id="port_B81~cout">
      <text x="5" y="-4" style="fill:#000; stroke:none" class="cell_B81">cout</text>
    </g>
    <g transform="translate(30,30)" s:x="30" s:y="10" s:pid="out0" id="port_B81~sumout">
      <text x="5" y="-4" style="fill:#000; stroke:none" class="cell_B81">sumout</text>
    </g>
  </g>
  <g s:type="outputExt" transform="translate(446,91.5)" s:width="30" s:height="20" id="cell_cout">
    <text x="15" y="-4" class="nodelabel cell_cout" s:attribute="ref">cout</text>
    <s:alias val="$_outputExt_"/>
    <path d="M30,0 L30,20 L15,20 L0,10 L15,0 Z" class="cell_cout"/>
    <g s:x="0" s:y="10" s:pid="A"/>
  </g>
  <g s:type="outputExt" transform="translate(446,173)" s:width="30" s:height="20" id="cell_sumout">
    <text x="15" y="-4" class="nodelabel cell_sumout" s:attribute="ref">sumout</text>
    <s:alias val="$_outputExt_"/>
    <path d="M30,0 L30,20 L15,20 L0,10 L15,0 Z" class="cell_sumout"/>
    <g s:x="0" s:y="10" s:pid="A"/>
  </g>
  <g s:type="inputExt" transform="translate(12,24.5)" s:width="30" s:height="20" id="cell_a">
    <text x="15" y="-4" class="nodelabel cell_a" s:attribute="ref">a</text>
    <s:alias val="$_inputExt_"/>
    <path d="M0,0 L0,20 L15,20 L30,10 L15,0 Z" class="cell_a"/>
    <g s:x="28" s:y="10" s:pid="Y"/>
  </g>
  <g s:type="inputExt" transform="translate(12,101.5)" s:width="30" s:height="20" id="cell_b">
    <text x="15" y="-4" class="nodelabel cell_b" s:attribute="ref">b</text>
    <s:alias val="$_inputExt_"/>
    <path d="M0,0 L0,20 L15,20 L30,10 L15,0 Z" class="cell_b"/>
    <g s:x="28" s:y="10" s:pid="Y"/>
  </g>
  <g s:type="inputExt" transform="translate(77,176)" s:width="30" s:height="20" id="cell_cin">
    <text x="15" y="-4" class="nodelabel cell_cin" s:attribute="ref">cin</text>
    <s:alias val="$_inputExt_"/>
    <path d="M0,0 L0,20 L15,20 L30,10 L15,0 Z" class="cell_cin"/>
    <g s:x="28" s:y="10" s:pid="Y"/>
  </g>
  <g s:type="join" transform="translate(405,162.5)" s:width="4" s:height="40" id="cell_$join$,3,4,5,6,7,8,9,10,">
    <rect width="5" height="40" class="splitjoinBody" s:generic="body"/>
    <s:alias val="$_join_"/>
    <g s:x="5" s:y="20" s:pid="out"/>
    <g transform="translate(0,10)" s:x="0" s:y="10" s:pid="in0">
      <text x="-3" y="-4" class="inputPortLabel">0:3</text>
    </g>
    <g transform="translate(0,30)" s:x="0" s:y="10" s:pid="in0">
      <text x="-3" y="-4" class="inputPortLabel">4:7</text>
    </g>
  </g>
  <g s:type="split" transform="translate(83,14)" s:width="5" s:height="40" id="cell_$split$,11,12,13,14,15,16,17,18,">
    <rect width="5" height="40" class="splitjoinBody" s:generic="body"/>
    <s:alias val="$_split_"/>
    <g s:x="0" s:y="20" s:pid="in"/>
    <g transform="translate(4,10)" s:x="4" s:y="10" s:pid="out0">
      <text x="5" y="-4">0:3</text>
    </g>
    <g transform="translate(4,30)" s:x="4" s:y="10" s:pid="out0">
      <text x="5" y="-4">4:7</text>
    </g>
  </g>
  <g s:type="split" transform="translate(83,91)" s:width="5" s:height="40" id="cell_$split$,19,20,21,22,23,24,25,26,">
    <rect width="5" height="40" class="splitjoinBody" s:generic="body"/>
    <s:alias val="$_split_"/>
    <g s:x="0" s:y="20" s:pid="in"/>
    <g transform="translate(4,10)" s:x="4" s:y="10" s:pid="out0">
      <text x="5" y="-4">0:3</text>
    </g>
    <g transform="translate(4,30)" s:x="4" s:y="10" s:pid="out0">
      <text x="5" y="-4">4:7</text>
    </g>
  </g>
  <line x1="88" x2="127" y1="24.5" y2="24.5" class="net_11,12,13,14"/>
  <line x1="127" x2="127" y1="24.5" y2="153" class="net_11,12,13,14"/>
  <line x1="127" x2="161" y1="153" y2="153" class="net_11,12,13,14"/>
  <line x1="88" x2="117" y1="101.5" y2="101.5" class="net_19,20,21,22"/>
  <line x1="117" x2="117" y1="101.5" y2="173" class="net_19,20,21,22"/>
  <line x1="117" x2="161" y1="173" y2="173" class="net_19,20,21,22"/>
  <line x1="105" x2="117" y1="186" y2="186" class="net_27"/>
  <line x1="117" x2="117" y1="186" y2="193" class="net_27"/>
  <line x1="117" x2="161" y1="193" y2="193" class="net_27"/>
  <line x1="88" x2="239" y1="44.5" y2="44.5" class="net_15,16,17,18"/>
  <line x1="239" x2="239" y1="44.5" y2="101.5" class="net_15,16,17,18"/>
  <line x1="239" x2="283" y1="101.5" y2="101.5" class="net_15,16,17,18"/>
  <line x1="88" x2="283" y1="121.5" y2="121.5" class="net_23,24,25,26"/>
  <line x1="192" x2="239" y1="153" y2="153" class="net_28"/>
  <line x1="239" x2="239" y1="153" y2="141.5" class="net_28"/>
  <line x1="239" x2="283" y1="141.5" y2="141.5" class="net_28"/>
  <line x1="314" x2="446" y1="101.5" y2="101.5" class="net_2"/>
  <line x1="411" x2="446" y1="183" y2="183" class="net_3,4,5,6,7,8,9,10"/>
  <line x1="192" x2="405" y1="173" y2="173" class="net_3,4,5,6"/>
  <line x1="314" x2="361" y1="121.5" y2="121.5" class="net_7,8,9,10"/>
  <line x1="361" x2="361" y1="121.5" y2="193" class="net_7,8,9,10"/>
  <line x1="361" x2="405" y1="193" y2="193" class="net_7,8,9,10"/>
  <line x1="40" x2="83" y1="34.5" y2="34.5" class="net_11,12,13,14,15,16,17,18"/>
  <line x1="40" x2="83" y1="111.5" y2="111.5" class="net_19,20,21,22,23,24,25,26"/>
</svg>
