<svg xmlns="http://www.w3.org/2000/svg" xmlns:xlink="http://www.w3.org/1999/xlink" xmlns:s="https://github.com/nturley/netlistsvg" width="472" height="119">
  <style>svg {
    stroke:#000;
    fill:none;
  }
  text {
    fill:#000;
    stroke:none;
    font-size:10px;
    font-weight: bold;
    font-family: "Courier New", monospace;
  }
  .nodelabel {
    text-anchor: middle;
  }
  .inputPortLabel {
    text-anchor: end;
  }
  .splitjoinBody {
    fill:#000;
  }</style>
  <g s:type="and" transform="translate(83,77)" s:width="30" s:height="25" id="cell_$and$tlatch.v:11$2">
    <s:alias val="$and"/>
    <s:alias val="$logic_and"/>
    <s:alias val="$_AND_"/>
    <path d="M0,0 L0,25 L15,25 A15 12.5 0 0 0 15,0 Z" class="cell_$and$tlatch.v:11$2"/>
    <g s:x="0" s:y="5" s:pid="A"/>
    <g s:x="0" s:y="20" s:pid="B"/>
    <g s:x="30" s:y="12.5" s:pid="Y"/>
  </g>
  <g s:type="generic" transform="translate(161,59)" s:width="30" s:height="40" id="cell_$auto$proc_dlatch.cc:409:proc_dlatch$21">
    <text x="15" y="-4" class="nodelabel cell_$auto$proc_dlatch.cc:409:proc_dlatch$21" s:attribute="ref">$dlatch</text>
    <rect width="30" height="40" s:generic="body" class="cell_$auto$proc_dlatch.cc:409:proc_dlatch$21"/>
    <g transform="translate(0,10)" s:x="0" s:y="10" s:pid="in0" id="port_$auto$proc_dlatch.cc:409:proc_dlatch$21~D">
      <text x="-3" y="-4" class="inputPortLabel cell_$auto$proc_dlatch.cc:409:proc_dlatch$21">D</text>
    </g>
    <g transform="translate(0,30)" s:x="0" s:y="10" s:pid="in0" id="port_$auto$proc_dlatch.cc:409:proc_dlatch$21~EN">
      <text x="-3" y="-4" class="inputPortLabel cell_$auto$proc_dlatch.cc:409:proc_dlatch$21">EN</text>
    </g>
    <g transform="translate(30,10)" s:x="30" s:y="10" s:pid="out0" id="port_$auto$proc_dlatch.cc:409:proc_dlatch$21~Q">
      <text x="5" y="-4" style="fill:#000; stroke:none" class="cell_$auto$proc_dlatch.cc:409:proc_dlatch$21">Q</text>
    </g>
  </g>
  <g s:type="not" transform="translate(83,22)" s:width="30" s:height="20" id="cell_$not$tlatch.v:13$3">
    <s:alias val="$_NOT_"/>
    <s:alias val="$not"/>
    <s:alias val="$logic_not"/>
    <path d="M0,0 L0,20 L20,10 Z" class="cell_$not$tlatch.v:13$3"/>
    <circle cx="23" cy="10" r="3" class="cell_$not$tlatch.v:13$3"/>
    <g s:x="0" s:y="10" s:pid="A"/>
    <g s:x="25" s:y="10" s:pid="Y"/>
  </g>
  <g s:type="inputExt" transform="translate(12,87)" s:width="30" s:height="20" id="cell_t">
    <text x="15" y="-4" class="nodelabel cell_t" s:attribute="ref">t</text>
    <s:alias val="$_inputExt_"/>
    <path d="M0,0 L0,20 L15,20 L30,10 L15,0 Z" class="cell_t"/>
    <g s:x="28" s:y="10" s:pid="Y"/>
  </g>
  <g s:type="inputExt" transform="translate(12,22)" s:width="30" s:height="20" id="cell_enable">
    <text x="15" y="-4" class="nodelabel cell_enable" s:attribute="ref">enable</text>
    <s:alias val="$_inputExt_"/>
    <path d="M0,0 L0,20 L15,20 L30,10 L15,0 Z" class="cell_enable"/>
    <g s:x="28" s:y="10" s:pid="Y"/>
  </g>
  <g s:type="outputExt" transform="translate(430,59.5)" s:width="30" s:height="20" id="cell_q">
    <text x="15" y="-4" class="nodelabel cell_q" s:attribute="ref">q</text>
    <s:alias val="$_outputExt_"/>
    <path d="M30,0 L30,20 L15,20 L0,10 L15,0 Z" class="cell_q"/>
    <g s:x="0" s:y="10" s:pid="A"/>
  </g>
  <line x1="40" x2="58" y1="32" y2="32" class="net_3"/>
  <line x1="58" x2="58" y1="32" y2="82" class="net_3"/>
  <line x1="58" x2="83" y1="82" y2="82" class="net_3"/>
  <line x1="40" x2="83" y1="97" y2="97" class="net_2"/>
  <line x1="108" x2="123" y1="32" y2="32" class="net_6"/>
  <line x1="123" x2="123" y1="32" y2="69.5" class="net_6"/>
  <line x1="123" x2="161" y1="69.5" y2="69.5" class="net_6"/>
  <line x1="113" x2="161" y1="89.5" y2="89.5" class="net_5"/>
  <line x1="192" x2="405" y1="69.5" y2="69.5" class="net_4"/>
  <line x1="405" x2="405" y1="69.5" y2="12" class="net_4"/>
  <line x1="405" x2="68" y1="12" y2="12" class="net_4"/>
  <line x1="68" x2="68" y1="12" y2="32" class="net_4"/>
  <circle cx="405" cy="69.5" r="2" style="fill:#000" class="net_4"/>
  <line x1="68" x2="83" y1="32" y2="32" class="net_4"/>
  <line x1="192" x2="430" y1="69.5" y2="69.5" class="net_4"/>
</svg>
