<svg xmlns="http://www.w3.org/2000/svg" xmlns:xlink="http://www.w3.org/1999/xlink" xmlns:s="https://github.com/nturley/netlistsvg" width="1556" height="422.5">
  <style>svg {
    stroke:#000;
    fill:none;
  }
  text {
    fill:#000;
    stroke:none;
    font-size:10px;
    font-weight: bold;
    font-family: "Courier New", monospace;
  }
  .nodelabel {
    text-anchor: middle;
  }
  .inputPortLabel {
    text-anchor: end;
  }
  .splitjoinBody {
    fill:#000;
  }</style>
  <g s:type="and" transform="translate(153,163)" s:width="30" s:height="25" id="cell_$and$jklatch.v:13$7">
    <s:alias val="$and"/>
    <s:alias val="$logic_and"/>
    <s:alias val="$_AND_"/>
    <path d="M0,0 L0,25 L15,25 A15 12.5 0 0 0 15,0 Z" class="cell_$and$jklatch.v:13$7"/>
    <g s:x="0" s:y="5" s:pid="A"/>
    <g s:x="0" s:y="20" s:pid="B"/>
    <g s:x="30" s:y="12.5" s:pid="Y"/>
  </g>
  <g s:type="and" transform="translate(218,186.5)" s:width="30" s:height="25" id="cell_$and$jklatch.v:13$9">
    <s:alias val="$and"/>
    <s:alias val="$logic_and"/>
    <s:alias val="$_AND_"/>
    <path d="M0,0 L0,25 L15,25 A15 12.5 0 0 0 15,0 Z" class="cell_$and$jklatch.v:13$9"/>
    <g s:x="0" s:y="5" s:pid="A"/>
    <g s:x="0" s:y="20" s:pid="B"/>
    <g s:x="30" s:y="12.5" s:pid="Y"/>
  </g>
  <g s:type="and" transform="translate(88,217.5)" s:width="30" s:height="25" id="cell_$and$jklatch.v:18$11">
    <s:alias val="$and"/>
    <s:alias val="$logic_and"/>
    <s:alias val="$_AND_"/>
    <path d="M0,0 L0,25 L15,25 A15 12.5 0 0 0 15,0 Z" class="cell_$and$jklatch.v:18$11"/>
    <g s:x="0" s:y="5" s:pid="A"/>
    <g s:x="0" s:y="20" s:pid="B"/>
    <g s:x="30" s:y="12.5" s:pid="Y"/>
  </g>
  <g s:type="and" transform="translate(153,225)" s:width="30" s:height="25" id="cell_$and$jklatch.v:18$13">
    <s:alias val="$and"/>
    <s:alias val="$logic_and"/>
    <s:alias val="$_AND_"/>
    <path d="M0,0 L0,25 L15,25 A15 12.5 0 0 0 15,0 Z" class="cell_$and$jklatch.v:18$13"/>
    <g s:x="0" s:y="5" s:pid="A"/>
    <g s:x="0" s:y="20" s:pid="B"/>
    <g s:x="30" s:y="12.5" s:pid="Y"/>
  </g>
  <g s:type="and" transform="translate(153,366)" s:width="30" s:height="25" id="cell_$and$jklatch.v:23$17">
    <s:alias val="$and"/>
    <s:alias val="$logic_and"/>
    <s:alias val="$_AND_"/>
    <path d="M0,0 L0,25 L15,25 A15 12.5 0 0 0 15,0 Z" class="cell_$and$jklatch.v:23$17"/>
    <g s:x="0" s:y="5" s:pid="A"/>
    <g s:x="0" s:y="20" s:pid="B"/>
    <g s:x="30" s:y="12.5" s:pid="Y"/>
  </g>
  <g s:type="and" transform="translate(288,282.5)" s:width="30" s:height="25" id="cell_$and$jklatch.v:8$5">
    <s:alias val="$and"/>
    <s:alias val="$logic_and"/>
    <s:alias val="$_AND_"/>
    <path d="M0,0 L0,25 L15,25 A15 12.5 0 0 0 15,0 Z" class="cell_$and$jklatch.v:8$5"/>
    <g s:x="0" s:y="5" s:pid="A"/>
    <g s:x="0" s:y="20" s:pid="B"/>
    <g s:x="30" s:y="12.5" s:pid="Y"/>
  </g>
  <g s:type="not" transform="translate(353,139)" s:width="30" s:height="20" id="cell_$auto$proc_dlatch.cc:238:make_hold$42">
    <s:alias val="$_NOT_"/>
    <s:alias val="$not"/>
    <s:alias val="$logic_not"/>
    <path d="M0,0 L0,20 L20,10 Z" class="cell_$auto$proc_dlatch.cc:238:make_hold$42"/>
    <circle cx="23" cy="10" r="3" class="cell_$auto$proc_dlatch.cc:238:make_hold$42"/>
    <g s:x="0" s:y="10" s:pid="A"/>
    <g s:x="25" s:y="10" s:pid="Y"/>
  </g>
  <g s:type="not" transform="translate(288,189)" s:width="30" s:height="20" id="cell_$auto$proc_dlatch.cc:238:make_hold$44">
    <s:alias val="$_NOT_"/>
    <s:alias val="$not"/>
    <s:alias val="$logic_not"/>
    <path d="M0,0 L0,20 L20,10 Z" class="cell_$auto$proc_dlatch.cc:238:make_hold$44"/>
    <circle cx="23" cy="10" r="3" class="cell_$auto$proc_dlatch.cc:238:make_hold$44"/>
    <g s:x="0" s:y="10" s:pid="A"/>
    <g s:x="25" s:y="10" s:pid="Y"/>
  </g>
  <g s:type="not" transform="translate(218,313.5)" s:width="30" s:height="20" id="cell_$auto$proc_dlatch.cc:238:make_hold$46">
    <s:alias val="$_NOT_"/>
    <s:alias val="$not"/>
    <s:alias val="$logic_not"/>
    <path d="M0,0 L0,20 L20,10 Z" class="cell_$auto$proc_dlatch.cc:238:make_hold$46"/>
    <circle cx="23" cy="10" r="3" class="cell_$auto$proc_dlatch.cc:238:make_hold$46"/>
    <g s:x="0" s:y="10" s:pid="A"/>
    <g s:x="25" s:y="10" s:pid="Y"/>
  </g>
  <g s:type="not" transform="translate(218,368.5)" s:width="30" s:height="20" id="cell_$auto$proc_dlatch.cc:238:make_hold$48">
    <s:alias val="$_NOT_"/>
    <s:alias val="$not"/>
    <s:alias val="$logic_not"/>
    <path d="M0,0 L0,20 L20,10 Z" class="cell_$auto$proc_dlatch.cc:238:make_hold$48"/>
    <circle cx="23" cy="10" r="3" class="cell_$auto$proc_dlatch.cc:238:make_hold$48"/>
    <g s:x="0" s:y="10" s:pid="A"/>
    <g s:x="25" s:y="10" s:pid="Y"/>
  </g>
  <g s:type="generic" transform="translate(538,274.5)" s:width="30" s:height="40" id="cell_$auto$proc_dlatch.cc:247:make_hold$76">
    <text x="15" y="-4" class="nodelabel cell_$auto$proc_dlatch.cc:247:make_hold$76" s:attribute="ref">$reduce_or</text>
    <rect width="30" height="20" s:generic="body" class="cell_$auto$proc_dlatch.cc:247:make_hold$76"/>
    <g transform="translate(0,10)" s:x="0" s:y="10" s:pid="in0" id="port_$auto$proc_dlatch.cc:247:make_hold$76~A">
      <text x="-3" y="-4" class="inputPortLabel cell_$auto$proc_dlatch.cc:247:make_hold$76">A</text>
    </g>
    <g transform="translate(30,10)" s:x="30" s:y="10" s:pid="out0" id="port_$auto$proc_dlatch.cc:247:make_hold$76~Y">
      <text x="5" y="-4" style="fill:#000; stroke:none" class="cell_$auto$proc_dlatch.cc:247:make_hold$76">Y</text>
    </g>
  </g>
  <g s:type="and" transform="translate(288,358.5)" s:width="30" s:height="25" id="cell_$auto$proc_dlatch.cc:251:make_hold$58">
    <s:alias val="$and"/>
    <s:alias val="$logic_and"/>
    <s:alias val="$_AND_"/>
    <path d="M0,0 L0,25 L15,25 A15 12.5 0 0 0 15,0 Z" class="cell_$auto$proc_dlatch.cc:251:make_hold$58"/>
    <g s:x="0" s:y="5" s:pid="A"/>
    <g s:x="0" s:y="20" s:pid="B"/>
    <g s:x="30" s:y="12.5" s:pid="Y"/>
  </g>
  <g s:type="and" transform="translate(353,194)" s:width="30" s:height="25" id="cell_$auto$proc_dlatch.cc:251:make_hold$64">
    <s:alias val="$and"/>
    <s:alias val="$logic_and"/>
    <s:alias val="$_AND_"/>
    <path d="M0,0 L0,25 L15,25 A15 12.5 0 0 0 15,0 Z" class="cell_$auto$proc_dlatch.cc:251:make_hold$64"/>
    <g s:x="0" s:y="5" s:pid="A"/>
    <g s:x="0" s:y="20" s:pid="B"/>
    <g s:x="30" s:y="12.5" s:pid="Y"/>
  </g>
  <g s:type="and" transform="translate(418,186.5)" s:width="30" s:height="25" id="cell_$auto$proc_dlatch.cc:251:make_hold$70">
    <s:alias val="$and"/>
    <s:alias val="$logic_and"/>
    <s:alias val="$_AND_"/>
    <path d="M0,0 L0,25 L15,25 A15 12.5 0 0 0 15,0 Z" class="cell_$auto$proc_dlatch.cc:251:make_hold$70"/>
    <g s:x="0" s:y="5" s:pid="A"/>
    <g s:x="0" s:y="20" s:pid="B"/>
    <g s:x="30" s:y="12.5" s:pid="Y"/>
  </g>
  <g s:type="not" transform="translate(795,275)" s:width="30" s:height="20" id="cell_$auto$proc_dlatch.cc:409:proc_dlatch$78">
    <s:alias val="$_NOT_"/>
    <s:alias val="$not"/>
    <s:alias val="$logic_not"/>
    <path d="M0,0 L0,20 L20,10 Z" class="cell_$auto$proc_dlatch.cc:409:proc_dlatch$78"/>
    <circle cx="23" cy="10" r="3" class="cell_$auto$proc_dlatch.cc:409:proc_dlatch$78"/>
    <g s:x="0" s:y="10" s:pid="A"/>
    <g s:x="25" s:y="10" s:pid="Y"/>
  </g>
  <g s:type="generic" transform="translate(888,345.5)" s:width="30" s:height="40" id="cell_$auto$proc_dlatch.cc:409:proc_dlatch$80">
    <text x="15" y="-4" class="nodelabel cell_$auto$proc_dlatch.cc:409:proc_dlatch$80" s:attribute="ref">$dlatch</text>
    <rect width="30" height="40" s:generic="body" class="cell_$auto$proc_dlatch.cc:409:proc_dlatch$80"/>
    <g transform="translate(0,10)" s:x="0" s:y="10" s:pid="in0" id="port_$auto$proc_dlatch.cc:409:proc_dlatch$80~D">
      <text x="-3" y="-4" class="inputPortLabel cell_$auto$proc_dlatch.cc:409:proc_dlatch$80">D</text>
    </g>
    <g transform="translate(0,30)" s:x="0" s:y="10" s:pid="in0" id="port_$auto$proc_dlatch.cc:409:proc_dlatch$80~EN">
      <text x="-3" y="-4" class="inputPortLabel cell_$auto$proc_dlatch.cc:409:proc_dlatch$80">EN</text>
    </g>
    <g transform="translate(30,10)" s:x="30" s:y="10" s:pid="out0" id="port_$auto$proc_dlatch.cc:409:proc_dlatch$80~Q">
      <text x="5" y="-4" style="fill:#000; stroke:none" class="cell_$auto$proc_dlatch.cc:409:proc_dlatch$80">Q</text>
    </g>
  </g>
  <g s:type="generic" transform="translate(1235,86.5)" s:width="30" s:height="40" id="cell_$auto$proc_dlatch.cc:409:proc_dlatch$83">
    <text x="15" y="-4" class="nodelabel cell_$auto$proc_dlatch.cc:409:proc_dlatch$83" s:attribute="ref">$dlatch</text>
    <rect width="30" height="40" s:generic="body" class="cell_$auto$proc_dlatch.cc:409:proc_dlatch$83"/>
    <g transform="translate(0,10)" s:x="0" s:y="10" s:pid="in0" id="port_$auto$proc_dlatch.cc:409:proc_dlatch$83~D">
      <text x="-3" y="-4" class="inputPortLabel cell_$auto$proc_dlatch.cc:409:proc_dlatch$83">D</text>
    </g>
    <g transform="translate(0,30)" s:x="0" s:y="10" s:pid="in0" id="port_$auto$proc_dlatch.cc:409:proc_dlatch$83~EN">
      <text x="-3" y="-4" class="inputPortLabel cell_$auto$proc_dlatch.cc:409:proc_dlatch$83">EN</text>
    </g>
    <g transform="translate(30,10)" s:x="30" s:y="10" s:pid="out0" id="port_$auto$proc_dlatch.cc:409:proc_dlatch$83~Q">
      <text x="5" y="-4" style="fill:#000; stroke:none" class="cell_$auto$proc_dlatch.cc:409:proc_dlatch$83">Q</text>
    </g>
  </g>
  <g s:type="not" transform="translate(88,173)" s:width="30" s:height="20" id="cell_$eq$jklatch.v:13$6">
    <s:alias val="$_NOT_"/>
    <s:alias val="$not"/>
    <s:alias val="$logic_not"/>
    <path d="M0,0 L0,20 L20,10 Z" class="cell_$eq$jklatch.v:13$6"/>
    <circle cx="23" cy="10" r="3" class="cell_$eq$jklatch.v:13$6"/>
    <g s:x="0" s:y="10" s:pid="A"/>
    <g s:x="25" s:y="10" s:pid="Y"/>
  </g>
  <g s:type="not" transform="translate(88,292.5)" s:width="30" s:height="20" id="cell_$eq$jklatch.v:18$12">
    <s:alias val="$_NOT_"/>
    <s:alias val="$not"/>
    <s:alias val="$logic_not"/>
    <path d="M0,0 L0,20 L20,10 Z" class="cell_$eq$jklatch.v:18$12"/>
    <circle cx="23" cy="10" r="3" class="cell_$eq$jklatch.v:18$12"/>
    <g s:x="0" s:y="10" s:pid="A"/>
    <g s:x="25" s:y="10" s:pid="Y"/>
  </g>
  <g s:type="not" transform="translate(1504,22)" s:width="30" s:height="20" id="cell_$not$jklatch.v:25$18">
    <s:alias val="$_NOT_"/>
    <s:alias val="$not"/>
    <s:alias val="$logic_not"/>
    <path d="M0,0 L0,20 L20,10 Z" class="cell_$not$jklatch.v:25$18"/>
    <circle cx="23" cy="10" r="3" class="cell_$not$jklatch.v:25$18"/>
    <g s:x="0" s:y="10" s:pid="A"/>
    <g s:x="25" s:y="10" s:pid="Y"/>
  </g>
  <g s:type="not" transform="translate(1157,254.5)" s:width="30" s:height="20" id="cell_$not$jklatch.v:26$19">
    <s:alias val="$_NOT_"/>
    <s:alias val="$not"/>
    <s:alias val="$logic_not"/>
    <path d="M0,0 L0,20 L20,10 Z" class="cell_$not$jklatch.v:26$19"/>
    <circle cx="23" cy="10" r="3" class="cell_$not$jklatch.v:26$19"/>
    <g s:x="0" s:y="10" s:pid="A"/>
    <g s:x="25" s:y="10" s:pid="Y"/>
  </g>
  <g s:type="mux" transform="translate(958.3333333333334,57)" s:width="20" s:height="40" id="cell_$procmux$23">
    <s:alias val="$pmux"/>
    <s:alias val="$mux"/>
    <s:alias val="$_MUX_"/>
    <path d="M0,0 L20,10 L20,30 L0,40 Z" class="cell_$procmux$23"/>
    <g s:x="0" s:y="10" s:pid="A"/>
    <g s:x="0" s:y="30" s:pid="B"/>
    <g s:x="10" s:y="35" s:pid="S"/>
    <g s:x="20" s:y="20" s:pid="Y"/>
  </g>
  <g s:type="mux" transform="translate(1160.3333333333333,67)" s:width="20" s:height="40" id="cell_$procmux$26">
    <s:alias val="$pmux"/>
    <s:alias val="$mux"/>
    <s:alias val="$_MUX_"/>
    <path d="M0,0 L20,10 L20,30 L0,40 Z" class="cell_$procmux$26"/>
    <g s:x="0" s:y="10" s:pid="A"/>
    <g s:x="0" s:y="30" s:pid="B"/>
    <g s:x="10" s:y="35" s:pid="S"/>
    <g s:x="20" s:y="20" s:pid="Y"/>
  </g>
  <g s:type="mux" transform="translate(1302,254.5)" s:width="20" s:height="40" id="cell_$procmux$34">
    <s:alias val="$pmux"/>
    <s:alias val="$mux"/>
    <s:alias val="$_MUX_"/>
    <path d="M0,0 L20,10 L20,30 L0,40 Z" class="cell_$procmux$34"/>
    <g s:x="0" s:y="10" s:pid="A"/>
    <g s:x="0" s:y="30" s:pid="B"/>
    <g s:x="10" s:y="35" s:pid="S"/>
    <g s:x="20" s:y="20" s:pid="Y"/>
  </g>
  <g s:type="mux" transform="translate(1504,274.5)" s:width="20" s:height="40" id="cell_$procmux$37">
    <s:alias val="$pmux"/>
    <s:alias val="$mux"/>
    <s:alias val="$_MUX_"/>
    <path d="M0,0 L20,10 L20,30 L0,40 Z" class="cell_$procmux$37"/>
    <g s:x="0" s:y="10" s:pid="A"/>
    <g s:x="0" s:y="30" s:pid="B"/>
    <g s:x="10" s:y="35" s:pid="S"/>
    <g s:x="20" s:y="20" s:pid="Y"/>
  </g>
  <g s:type="inputExt" transform="translate(12,227.5)" s:width="30" s:height="20" id="cell_j">
    <text x="15" y="-4" class="nodelabel cell_j" s:attribute="ref">j</text>
    <s:alias val="$_inputExt_"/>
    <path d="M0,0 L0,20 L15,20 L30,10 L15,0 Z" class="cell_j"/>
    <g s:x="28" s:y="10" s:pid="Y"/>
  </g>
  <g s:type="inputExt" transform="translate(12,292.5)" s:width="30" s:height="20" id="cell_k">
    <text x="15" y="-4" class="nodelabel cell_k" s:attribute="ref">k</text>
    <s:alias val="$_inputExt_"/>
    <path d="M0,0 L0,20 L15,20 L30,10 L15,0 Z" class="cell_k"/>
    <g s:x="28" s:y="10" s:pid="Y"/>
  </g>
  <g s:type="inputExt" transform="translate(12,152)" s:width="30" s:height="20" id="cell_enable">
    <text x="15" y="-4" class="nodelabel cell_enable" s:attribute="ref">enable</text>
    <s:alias val="$_inputExt_"/>
    <path d="M0,0 L0,20 L15,20 L30,10 L15,0 Z" class="cell_enable"/>
    <g s:x="28" s:y="10" s:pid="Y"/>
  </g>
  <g s:type="outputExt" transform="translate(1504,87)" s:width="30" s:height="20" id="cell_q">
    <text x="15" y="-4" class="nodelabel cell_q" s:attribute="ref">q</text>
    <s:alias val="$_outputExt_"/>
    <path d="M30,0 L30,20 L15,20 L0,10 L15,0 Z" class="cell_q"/>
    <g s:x="0" s:y="10" s:pid="A"/>
  </g>
  <g s:type="outputExt" transform="translate(1504,346)" s:width="30" s:height="20" id="cell_qbar">
    <text x="15" y="-4" class="nodelabel cell_qbar" s:attribute="ref">qbar</text>
    <s:alias val="$_outputExt_"/>
    <path d="M30,0 L30,20 L15,20 L0,10 L15,0 Z" class="cell_qbar"/>
    <g s:x="0" s:y="10" s:pid="A"/>
  </g>
  <g s:type="constant" transform="translate(795,77)" s:width="30" s:height="20" id="cell_1">
    <text x="15" y="-4" class="nodelabel cell_1" s:attribute="ref">1</text>
    <s:alias val="$_constant_"/>
    <rect width="30" height="20" class="cell_1"/>
    <g s:x="30" s:y="10" s:pid="Y"/>
  </g>
  <g s:type="constant" transform="translate(888,274.5)" s:width="30" s:height="20" id="cell_0">
    <text x="15" y="-4" class="nodelabel cell_0" s:attribute="ref">0</text>
    <s:alias val="$_constant_"/>
    <rect width="30" height="20" class="cell_0"/>
    <g s:x="30" s:y="10" s:pid="Y"/>
  </g>
  <g s:type="join" transform="translate(490,264.5)" s:width="4" s:height="40" id="cell_$join$,19,14,">
    <rect width="5" height="40" class="splitjoinBody" s:generic="body"/>
    <s:alias val="$_join_"/>
    <g s:x="5" s:y="20" s:pid="out"/>
    <g transform="translate(0,10)" s:x="0" s:y="10" s:pid="in0">
      <text x="-3" y="-4" class="inputPortLabel">0</text>
    </g>
    <g transform="translate(0,30)" s:x="0" s:y="10" s:pid="in0">
      <text x="-3" y="-4" class="inputPortLabel">1</text>
    </g>
  </g>
  <line x1="40" x2="128" y1="162" y2="162" class="net_4"/>
  <line x1="128" x2="128" y1="162" y2="168" class="net_4"/>
  <line x1="128" x2="153" y1="168" y2="168" class="net_4"/>
  <line x1="40" x2="78" y1="162" y2="162" class="net_4"/>
  <line x1="78" x2="78" y1="162" y2="222.5" class="net_4"/>
  <circle cx="78" cy="162" r="2" style="fill:#000" class="net_4"/>
  <line x1="78" x2="88" y1="222.5" y2="222.5" class="net_4"/>
  <line x1="113" x2="153" y1="183" y2="183" class="net_7"/>
  <line x1="183" x2="203" y1="175.5" y2="175.5" class="net_8"/>
  <line x1="203" x2="203" y1="175.5" y2="191.5" class="net_8"/>
  <circle cx="203" cy="175.5" r="2" style="fill:#000" class="net_8"/>
  <line x1="203" x2="218" y1="191.5" y2="191.5" class="net_8"/>
  <line x1="183" x2="278" y1="175.5" y2="175.5" class="net_8"/>
  <line x1="278" x2="278" y1="175.5" y2="287.5" class="net_8"/>
  <line x1="278" x2="288" y1="287.5" y2="287.5" class="net_8"/>
  <line x1="40" x2="68" y1="302.5" y2="302.5" class="net_3"/>
  <line x1="68" x2="68" y1="302.5" y2="206.5" class="net_3"/>
  <circle cx="68" cy="302.5" r="2" style="fill:#000" class="net_3"/>
  <line x1="68" x2="218" y1="206.5" y2="206.5" class="net_3"/>
  <line x1="40" x2="68" y1="302.5" y2="302.5" class="net_3"/>
  <line x1="68" x2="68" y1="302.5" y2="386" class="net_3"/>
  <line x1="68" x2="153" y1="386" y2="386" class="net_3"/>
  <line x1="40" x2="88" y1="302.5" y2="302.5" class="net_3"/>
  <line x1="40" x2="88" y1="237.5" y2="237.5" class="net_2"/>
  <line x1="40" x2="58" y1="237.5" y2="237.5" class="net_2"/>
  <line x1="58" x2="58" y1="237.5" y2="183" class="net_2"/>
  <circle cx="58" cy="237.5" r="2" style="fill:#000" class="net_2"/>
  <line x1="58" x2="88" y1="183" y2="183" class="net_2"/>
  <line x1="118" x2="153" y1="230" y2="230" class="net_10"/>
  <line x1="118" x2="128" y1="230" y2="230" class="net_10"/>
  <line x1="128" x2="128" y1="230" y2="371" class="net_10"/>
  <circle cx="128" cy="230" r="2" style="fill:#000" class="net_10"/>
  <line x1="128" x2="153" y1="371" y2="371" class="net_10"/>
  <line x1="113" x2="138" y1="302.5" y2="302.5" class="net_11"/>
  <line x1="138" x2="138" y1="302.5" y2="245" class="net_11"/>
  <circle cx="138" cy="302.5" r="2" style="fill:#000" class="net_11"/>
  <line x1="138" x2="153" y1="245" y2="245" class="net_11"/>
  <line x1="113" x2="288" y1="302.5" y2="302.5" class="net_11"/>
  <line x1="318" x2="328" y1="295" y2="295" class="net_14"/>
  <line x1="328" x2="328" y1="295" y2="149" class="net_14"/>
  <circle cx="328" cy="295" r="2" style="fill:#000" class="net_14"/>
  <line x1="328" x2="353" y1="149" y2="149" class="net_14"/>
  <line x1="318" x2="490" y1="295" y2="295" class="net_14"/>
  <line x1="248" x2="288" y1="199" y2="199" class="net_9"/>
  <line x1="248" x2="268" y1="199" y2="199" class="net_9"/>
  <line x1="268" x2="268" y1="199" y2="128" class="net_9"/>
  <line x1="268" x2="1170.3333333333333" y1="128" y2="128" class="net_9"/>
  <circle cx="268" cy="199" r="2" style="fill:#000" class="net_9"/>
  <line x1="1170.3333333333333" x2="1170.3333333333333" y1="128" y2="102" class="net_9"/>
  <line x1="248" x2="268" y1="199" y2="199" class="net_9"/>
  <line x1="268" x2="268" y1="199" y2="324.5" class="net_9"/>
  <line x1="268" x2="1514" y1="324.5" y2="324.5" class="net_9"/>
  <line x1="1514" x2="1514" y1="324.5" y2="309.5" class="net_9"/>
  <line x1="183" x2="193" y1="237.5" y2="237.5" class="net_12"/>
  <line x1="193" x2="193" y1="237.5" y2="323.5" class="net_12"/>
  <circle cx="193" cy="237.5" r="2" style="fill:#000" class="net_12"/>
  <circle cx="193" cy="323.5" r="2" style="fill:#000" class="net_12"/>
  <line x1="193" x2="218" y1="323.5" y2="323.5" class="net_12"/>
  <line x1="183" x2="193" y1="237.5" y2="237.5" class="net_12"/>
  <line x1="193" x2="193" y1="237.5" y2="56" class="net_12"/>
  <line x1="193" x2="855" y1="56" y2="56" class="net_12"/>
  <line x1="855" x2="855" y1="56" y2="107" class="net_12"/>
  <line x1="855" x2="968.3333333333334" y1="107" y2="107" class="net_12"/>
  <line x1="968.3333333333334" x2="968.3333333333334" y1="107" y2="92" class="net_12"/>
  <line x1="183" x2="193" y1="237.5" y2="237.5" class="net_12"/>
  <line x1="193" x2="193" y1="237.5" y2="398.5" class="net_12"/>
  <line x1="193" x2="1312" y1="398.5" y2="398.5" class="net_12"/>
  <line x1="1312" x2="1312" y1="398.5" y2="289.5" class="net_12"/>
  <line x1="183" x2="218" y1="378.5" y2="378.5" class="net_13"/>
  <line x1="496" x2="538" y1="285" y2="285" class="net_19,14"/>
  <line x1="243" x2="258" y1="323.5" y2="323.5" class="net_17"/>
  <line x1="258" x2="258" y1="323.5" y2="363.5" class="net_17"/>
  <line x1="258" x2="288" y1="363.5" y2="363.5" class="net_17"/>
  <line x1="243" x2="288" y1="378.5" y2="378.5" class="net_18"/>
  <line x1="313" x2="353" y1="199" y2="199" class="net_16"/>
  <line x1="318" x2="338" y1="371" y2="371" class="net_21"/>
  <line x1="338" x2="338" y1="371" y2="214" class="net_21"/>
  <line x1="338" x2="353" y1="214" y2="214" class="net_21"/>
  <line x1="378" x2="393" y1="149" y2="149" class="net_15"/>
  <line x1="393" x2="393" y1="149" y2="191.5" class="net_15"/>
  <line x1="393" x2="418" y1="191.5" y2="191.5" class="net_15"/>
  <line x1="383" x2="418" y1="206.5" y2="206.5" class="net_22"/>
  <line x1="569" x2="795" y1="285" y2="285" class="net_20"/>
  <line x1="1524" x2="1544" y1="294.5" y2="294.5" class="net_24"/>
  <line x1="1544" x2="1544" y1="294.5" y2="409.5" class="net_24"/>
  <line x1="1544" x2="865" y1="409.5" y2="409.5" class="net_24"/>
  <line x1="865" x2="865" y1="409.5" y2="356" class="net_24"/>
  <line x1="865" x2="888" y1="356" y2="356" class="net_24"/>
  <line x1="820" x2="835" y1="285" y2="285" class="net_23"/>
  <line x1="835" x2="835" y1="285" y2="376" class="net_23"/>
  <circle cx="835" cy="285" r="2" style="fill:#000" class="net_23"/>
  <line x1="835" x2="888" y1="376" y2="376" class="net_23"/>
  <line x1="820" x2="835" y1="285" y2="285" class="net_23"/>
  <line x1="835" x2="835" y1="285" y2="117" class="net_23"/>
  <line x1="835" x2="1235" y1="117" y2="117" class="net_23"/>
  <line x1="1180.3333333333333" x2="1197" y1="87" y2="87" class="net_25"/>
  <line x1="1197" x2="1197" y1="87" y2="97" class="net_25"/>
  <line x1="1197" x2="1235" y1="97" y2="97" class="net_25"/>
  <line x1="1266" x2="1479" y1="97" y2="97" class="net_5"/>
  <line x1="1479" x2="1479" y1="97" y2="32" class="net_5"/>
  <circle cx="1479" cy="97" r="2" style="fill:#000" class="net_5"/>
  <line x1="1479" x2="1504" y1="32" y2="32" class="net_5"/>
  <line x1="1266" x2="1504" y1="97" y2="97" class="net_5"/>
  <line x1="919" x2="1142" y1="356" y2="356" class="net_6"/>
  <line x1="1142" x2="1142" y1="356" y2="264.5" class="net_6"/>
  <circle cx="1142" cy="356" r="2" style="fill:#000" class="net_6"/>
  <line x1="1142" x2="1157" y1="264.5" y2="264.5" class="net_6"/>
  <line x1="919" x2="1504" y1="356" y2="356" class="net_6"/>
  <line x1="1529" x2="1544" y1="32" y2="32" class="net_26"/>
  <line x1="1544" x2="1544" y1="32" y2="12" class="net_26"/>
  <line x1="1544" x2="865" y1="12" y2="12" class="net_26"/>
  <line x1="865" x2="865" y1="12" y2="67" class="net_26"/>
  <line x1="865" x2="958.3333333333334" y1="67" y2="67" class="net_26"/>
  <line x1="825" x2="958.3333333333334" y1="87" y2="87" class="net_30"/>
  <line x1="825" x2="845" y1="87" y2="87" class="net_30"/>
  <line x1="845" x2="845" y1="87" y2="304.5" class="net_30"/>
  <circle cx="845" cy="87" r="2" style="fill:#000" class="net_30"/>
  <line x1="845" x2="1504" y1="304.5" y2="304.5" class="net_30"/>
  <line x1="978.3333333333334" x2="1160.3333333333333" y1="77" y2="77" class="net_28"/>
  <line x1="918" x2="1132" y1="284.5" y2="284.5" class="net_31"/>
  <line x1="1132" x2="1132" y1="284.5" y2="97" class="net_31"/>
  <circle cx="1132" cy="284.5" r="2" style="fill:#000" class="net_31"/>
  <line x1="1132" x2="1160.3333333333333" y1="97" y2="97" class="net_31"/>
  <line x1="918" x2="1302" y1="284.5" y2="284.5" class="net_31"/>
  <line x1="1182" x2="1302" y1="264.5" y2="264.5" class="net_27"/>
  <line x1="1322" x2="1479" y1="274.5" y2="274.5" class="net_29"/>
  <line x1="1479" x2="1479" y1="274.5" y2="284.5" class="net_29"/>
  <line x1="1479" x2="1504" y1="284.5" y2="284.5" class="net_29"/>
  <line x1="448" x2="458" y1="199" y2="199" class="net_19"/>
  <line x1="458" x2="458" y1="199" y2="275" class="net_19"/>
  <line x1="458" x2="490" y1="275" y2="275" class="net_19"/>
</svg>
